<svg width="64" height="64" viewBox="0 0 64 64" fill="none" xmlns="http://www.w3.org/2000/svg">
    <path d="M38.4 36.1334C37.6 33.7334 36.4 31.4668 34.9333 29.6001" stroke="#FFFFFF" stroke-width="1.2" stroke-miterlimit="10" stroke-linecap="round" stroke-linejoin="round"/>
    <path d="M32.1333 26.6665C33.2 27.5998 34.1333 28.5332 34.9333 29.5998" stroke="#FFFFFF" stroke-width="1.2" stroke-miterlimit="10" stroke-linecap="round" stroke-linejoin="round"/>
    <path d="M32.1333 57.6C36.5333 53.8666 39.3333 48.2666 39.3333 42.1333C39.3333 40 39.0667 38 38.4 36.1333" stroke="#FFFFFF" stroke-width="1.2" stroke-miterlimit="10" stroke-linecap="round" stroke-linejoin="round"/>
    <path d="M3.2 29.6C6.93333 24.9334 12.6667 21.8667 19.0667 21.8667C21.4667 21.8667 23.7333 22.2667 25.7333 23.0667" stroke="#FFFFFF" stroke-width="1.2" stroke-miterlimit="10" stroke-linecap="round" stroke-linejoin="round"/>
    <path d="M25.8667 23.0669C28.1333 23.8669 30.4 25.0669 32.1333 26.6669" stroke="#FFFFFF" stroke-width="1.2" stroke-miterlimit="10" stroke-linecap="round" stroke-linejoin="round"/>
    <path d="M25.8667 36.1334C26.6667 33.7334 27.8667 31.4668 29.3333 29.6001" stroke="#FFFFFF" stroke-width="1.2" stroke-miterlimit="10" stroke-linecap="round" stroke-linejoin="round"/>
    <path d="M38.4 23.0669C36.1333 23.8669 33.8667 25.0669 32.1333 26.6669" stroke="#FFFFFF" stroke-width="1.2" stroke-miterlimit="10" stroke-linecap="round" stroke-linejoin="round"/>
    <path d="M29.3333 29.5998C30.1333 28.5332 31.2 27.4665 32.1333 26.6665" stroke="#FFFFFF" stroke-width="1.2" stroke-miterlimit="10" stroke-linecap="round" stroke-linejoin="round"/>
    <path d="M40.9333 22.2667C42.2667 22 43.7333 21.8667 45.2 21.8667C51.6 21.8667 57.3333 24.9334 61.0667 29.6" stroke="#FFFFFF" stroke-width="1.2" stroke-miterlimit="10" stroke-linecap="round" stroke-linejoin="round"/>
    <path d="M25.8667 36.1333C25.3333 38 24.9333 40 24.9333 42.1333C24.9333 48.4 27.7333 53.8666 32.1333 57.6" stroke="#FFFFFF" stroke-width="1.2" stroke-miterlimit="10" stroke-linecap="round" stroke-linejoin="round"/>
    <path d="M38.4 23.0666C39.2 22.7999 40 22.5332 40.9333 22.3999" stroke="#FFFFFF" stroke-width="1.2" stroke-miterlimit="10" stroke-linecap="round" stroke-linejoin="round"/>
    <path d="M3.2 29.6001C6.93333 34.2668 12.6667 37.3334 19.0667 37.3334C19.6 37.3334 20 37.3334 20.4 37.3334" stroke="#FFFFFF" stroke-width="1.2" stroke-miterlimit="10" stroke-linecap="round" stroke-linejoin="round"/>
    <path d="M43.6 37.2001C44.1333 37.2001 44.6667 37.2001 45.0667 37.2001C51.4667 37.2001 57.2 34.1335 60.9333 29.4668" stroke="#FFFFFF" stroke-width="1.2" stroke-miterlimit="10" stroke-linecap="round" stroke-linejoin="round"/>
    <path d="M27.4667 23.4668C26.6667 22.4001 26.1333 21.0668 26.1333 19.6001C26.1333 16.2668 28.9333 13.4668 32.2667 13.4668C35.6 13.4668 38.4 16.2668 38.4 19.6001C38.4 20.9335 38 22.2668 37.2 23.3335" stroke="#FFFFFF" stroke-width="1.2" stroke-miterlimit="10" stroke-linecap="round" stroke-linejoin="round"/>
    <path d="M26.6667 35.3335H38.1333" stroke="#FFFFFF" stroke-width="1.5" stroke-miterlimit="10"/>
    <path d="M25.0667 42.6665H39.7333" stroke="#FFFFFF" stroke-width="1.5" stroke-miterlimit="10"/>
    <path d="M26.9333 50.1333H37.8667" stroke="#FFFFFF" stroke-width="1.5" stroke-miterlimit="10"/>
    <path d="M36.2667 14.9336C36.2667 14.9336 36.6667 12.4002 38.2667 11.0669" stroke="#FFFFFF" stroke-width="1.2" stroke-miterlimit="10" stroke-linecap="round" stroke-linejoin="round"/>
    <path d="M28.4 14.9336C28.4 14.9336 28 12.4002 26.4 11.0669" stroke="#FFFFFF" stroke-width="1.2" stroke-miterlimit="10" stroke-linecap="round" stroke-linejoin="round"/>
</svg>