<?xml version="1.0" encoding="UTF-8"?>
<svg id="_Шар_2" data-name="Шар 2" xmlns="http://www.w3.org/2000/svg" viewBox="0 0 88.36 107.63">
  <defs>
    <style>
      .cls-1 {
        fill: #fffaec;
        stroke-width: 0px;
      }
    </style>
  </defs>
  <g id="Layer_1" data-name="Layer 1">
    <g>
      <g>
        <path class="cls-1" d="m45.86,24.67c-.63,0-1.21-.4-1.42-1.03-.7-2.11-1.57-3.73-2.74-5.09-.54-.63-.47-1.58.16-2.11s1.58-.47,2.12.16c1.43,1.67,2.48,3.61,3.31,6.09.26.79-.16,1.64-.95,1.9-.16.05-.32.08-.47.08Z"/>
        <path class="cls-1" d="m42.6,19.08c-.46,0-.9-.21-1.2-.6-.65-.87-1.27-1.69-2.03-2.26-.66-.5-.8-1.44-.3-2.1.5-.66,1.44-.8,2.1-.3,1.1.83,1.88,1.86,2.63,2.86.5.66.36,1.6-.3,2.1-.27.2-.59.3-.9.3Z"/>
        <path class="cls-1" d="m40.27,43.31c-.42,0-.83-.17-1.13-.51-.55-.62-.48-1.57.14-2.12,3.62-3.17,5.78-7.71,5.78-12.15,0-1.69-.2-3.18-.64-4.71-.23-.8.23-1.63,1.03-1.85.79-.23,1.63.23,1.85,1.03.52,1.81.76,3.57.76,5.54,0,5.3-2.54,10.68-6.8,14.41-.28.25-.64.37-.99.37Z"/>
        <path class="cls-1" d="m15.33,19.08c-.34,0-.67-.11-.95-.34-.64-.53-.73-1.47-.2-2.11,3.82-4.64,9.26-7.3,14.91-7.3,2.5,0,4.46.32,6.35,1.03.78.29,1.17,1.16.88,1.93-.29.78-1.16,1.17-1.93.88-1.54-.58-3.18-.84-5.3-.84-4.75,0-9.34,2.26-12.59,6.21-.3.36-.73.55-1.16.55Z"/>
        <path class="cls-1" d="m40.27,16.28c-.38,0-.77-.15-1.06-.44-1.24-1.24-3.23-2.09-4.83-2.69-.78-.29-1.17-1.16-.88-1.93.29-.78,1.16-1.17,1.93-.88,1.88.7,4.24,1.72,5.89,3.37.59.59.59,1.54,0,2.12-.29.29-.68.44-1.06.44Z"/>
        <path class="cls-1" d="m34.91,24.67c-.16,0-.32-.02-.47-.08-.79-.26-1.21-1.11-.95-1.9.83-2.49,1.88-4.42,3.31-6.09.54-.63,1.49-.7,2.12-.16.63.54.7,1.49.16,2.11-1.17,1.37-2.04,2.98-2.75,5.09-.21.63-.79,1.03-1.42,1.03Z"/>
        <path class="cls-1" d="m40.5,16.28c-.38,0-.77-.15-1.06-.44-.59-.59-.59-1.54,0-2.12,1.65-1.65,4.02-2.67,5.89-3.37.77-.29,1.64.1,1.93.88.29.78-.1,1.64-.88,1.93-1.59.6-3.58,1.44-4.83,2.69-.29.29-.68.44-1.06.44Z"/>
        <path class="cls-1" d="m37.94,19.08c-.31,0-.63-.1-.9-.3-.66-.5-.8-1.44-.3-2.1.76-1.02,1.75-2,2.47-2.72.59-.59,1.54-.59,2.12,0,.59.59.59,1.54,0,2.12-.66.66-1.56,1.55-2.19,2.4-.29.39-.75.6-1.2.6Z"/>
        <path class="cls-1" d="m65.43,19.31c-.45,0-.89-.2-1.19-.58-3.1-3.98-7.56-6.18-12.56-6.18-1.35,0-2.42,0-3.43.2-.82.16-1.6-.36-1.77-1.18-.16-.81.36-1.6,1.18-1.77,1.31-.26,2.57-.26,4.02-.26,5.86,0,11.31,2.67,14.93,7.34.51.65.39,1.6-.26,2.1-.27.21-.6.32-.92.32Z"/>
        <path class="cls-1" d="m40.5,43.08c-.32,0-.64-.1-.91-.31-4.37-3.34-6.88-8.62-6.88-14.47,0-1.97.24-3.73.76-5.54.23-.8,1.06-1.26,1.85-1.03.8.23,1.26,1.06,1.03,1.85-.44,1.53-.64,3.03-.64,4.71,0,4.91,2.08,9.32,5.7,12.09.66.5.78,1.44.28,2.1-.3.39-.74.59-1.19.59Z"/>
        <path class="cls-1" d="m45.86,13.25c-.63,0-1.21-.4-1.42-1.03-.26-.79.16-1.64.95-1.9.76-.25,1.63-.54,2.57-.54.83,0,1.5.67,1.5,1.5s-.67,1.5-1.5,1.5c-.46,0-1.02.19-1.62.39-.16.05-.32.08-.47.08Z"/>
        <path class="cls-1" d="m30.25,25.84h-1.17c-5.65,0-11.08-2.66-14.91-7.3-.53-.64-.44-1.58.2-2.11.64-.53,1.58-.43,2.11.2,3.25,3.95,7.84,6.21,12.59,6.21h1.17c.83,0,1.5.67,1.5,1.5s-.67,1.5-1.5,1.5Z"/>
        <path class="cls-1" d="m51.45,25.6h-1.17c-.83,0-1.5-.67-1.5-1.5s.67-1.5,1.5-1.5h1.17c5,0,9.47-2.19,12.56-6.18.51-.65,1.45-.77,2.1-.26.65.51.77,1.45.26,2.1-3.63,4.66-9.07,7.34-14.93,7.34Z"/>
      </g>
      <path class="cls-1" d="m36.31,13.72c-.46,0-.91-.21-1.2-.6-.94-1.26-1.46-2.74-1.46-4.16,0-3.72,3.14-6.86,6.86-6.86s6.86,3.01,6.86,6.86c0,1.67-.41,3.07-1.23,4.16-.5.66-1.44.8-2.1.3-.66-.5-.8-1.44-.3-2.1.42-.56.63-1.35.63-2.36,0-2.2-1.66-3.86-3.86-3.86-2.31,0-3.86,2-3.86,3.86,0,.77.32,1.63.87,2.36.5.66.36,1.6-.3,2.1-.27.2-.59.3-.9.3Z"/>
      <path class="cls-1" d="m44.93,23.97h-9.32c-.83,0-1.5-.67-1.5-1.5s.67-1.5,1.5-1.5h9.32c.83,0,1.5.67,1.5,1.5s-.67,1.5-1.5,1.5Z"/>
      <path class="cls-1" d="m46.33,30.26h-11.42c-.83,0-1.5-.67-1.5-1.5s.67-1.5,1.5-1.5h11.42c.83,0,1.5.67,1.5,1.5s-.67,1.5-1.5,1.5Z"/>
      <path class="cls-1" d="m44.93,36.79h-8.39c-.83,0-1.5-.67-1.5-1.5s.67-1.5,1.5-1.5h8.39c.83,0,1.5.67,1.5,1.5s-.67,1.5-1.5,1.5Z"/>
      <path class="cls-1" d="m44,6.26c-.06,0-.11,0-.17,0-.82-.09-1.42-.83-1.32-1.66.03-.28.35-2.74,2.16-4.25.64-.53,1.58-.44,2.11.19.53.64.44,1.58-.19,2.11-.89.75-1.1,2.26-1.1,2.28-.09.77-.73,1.33-1.49,1.33Z"/>
      <path class="cls-1" d="m37.24,6.26c-.75,0-1.4-.56-1.49-1.33-.05-.42-.35-1.66-1.1-2.28-.64-.53-.72-1.48-.19-2.11.53-.64,1.48-.72,2.11-.19,1.81,1.51,2.13,3.97,2.16,4.25.09.82-.5,1.56-1.33,1.66-.06,0-.11,0-.17,0Z"/>
      <path class="cls-1" d="m59.61,29.33c-1.47,0-2.67-1.2-2.67-2.67s1.2-2.67,2.67-2.67,2.67,1.2,2.67,2.67-1.2,2.67-2.67,2.67Zm0-3c-.18,0-.33.15-.33.33s.15.33.33.33.33-.15.33-.33-.15-.33-.33-.33Z"/>
      <path class="cls-1" d="m63.1,33.29c-.58,0-1.14-.34-1.38-.91-.16-.38-.66-1.44-1.11-2.1-.97-.78-1.66-1.68-1.74-1.78-.5-.66-.36-1.6.3-2.1.66-.5,1.6-.36,2.1.3.02.03.6.79,1.33,1.33.11.09.21.19.3.3.78,1.05,1.5,2.69,1.58,2.87.33.76-.03,1.64-.79,1.97-.19.08-.39.12-.59.12Z"/>
      <path class="cls-1" d="m59.38,40.75c-.83,0-1.5-.67-1.5-1.5v-1.17c0-4.3,3.5-7.79,7.79-7.79.83,0,1.5.67,1.5,1.5s-.67,1.5-1.5,1.5c-2.69,0-4.79,2.1-4.79,4.79v1.17c0,.83-.67,1.5-1.5,1.5Z"/>
      <path class="cls-1" d="m50.13,54.72c-2.65,0-5.21-1.4-6.52-3.79-.02-.05-.05-.09-.07-.14-1.44-3.47-.03-7.57,3.23-9.35,0,0,2.07-1.28,6.03-2.02l2.01-.41c1.97-.4,2.88-.59,4.37-.77,4.04-.51,5.38-.27,6.14.24,1.33.89,1.11,2.59.51,3.78-.18.33-1.56,2.83-2.61,3.89h0c-1.15,1.15-3.06,3.06-4.97,4.73-2.25,2-5.18,3.23-5.3,3.29-.92.38-1.88.56-2.83.56Zm-3.84-5.16c1.07,1.88,3.48,2.68,5.53,1.83.02-.01,2.6-1.1,4.47-2.77,1.84-1.61,3.71-3.48,4.83-4.6h0c.55-.55,1.51-2.13,2.02-3.06-.59-.02-1.66.01-3.57.25-1.38.17-2.25.35-4.15.74l-2.04.41c-3.37.63-5.08,1.66-5.1,1.67-1.97,1.08-2.81,3.48-2,5.53Z"/>
      <path class="cls-1" d="m54.75,58.53c-.91,0-1.78-.27-2.54-.81-.04-.03-.07-.05-.1-.08-2.02-1.73-1.31-4.47-.57-5.82.4-.73,1.31-.99,2.04-.6.72.4.99,1.3.6,2.03-.01.03-.73,1.49-.15,2.07.99.63,2.38-.31,3.09-1.01,1.21-1.43,2.98-4.69,3.68-6.33.51-1.19.94-3.51,1.06-4.3.13-.82.89-1.38,1.71-1.25.82.13,1.38.89,1.25,1.71-.02.13-.5,3.24-1.27,5.02-.65,1.52-2.61,5.29-4.2,7.14-.03.03-.05.06-.08.08-1.41,1.41-3.01,2.14-4.52,2.14Z"/>
      <path class="cls-1" d="m65.43,68.02c-.34,0-.69-.12-.97-.35-.13-.11-3.13-2.66-5.5-5.26-.03-.03-.06-.07-.09-.11-2.27-3.02-2.81-5.37-2.83-5.47-.18-.81.33-1.61,1.14-1.79.8-.18,1.6.33,1.79,1.13.01.05.46,1.86,2.26,4.27,2.23,2.45,5.14,4.91,5.17,4.94.63.54.71,1.48.18,2.11-.3.35-.72.53-1.15.53Z"/>
      <path class="cls-1" d="m65.67,59.39c-7.09,0-8.77-2.63-9.03-3.16l2.68-1.34s-.01-.03-.05-.09c.01.02,1.17,1.59,6.4,1.59.83,0,1.5.67,1.5,1.5s-.67,1.5-1.5,1.5Z"/>
      <path class="cls-1" d="m65.9,64.05c-5.65,0-7.71-3.12-7.79-3.26-.44-.7-.24-1.63.46-2.07.69-.44,1.6-.24,2.06.44.08.12,1.41,1.89,5.27,1.89.83,0,1.5.67,1.5,1.5s-.67,1.5-1.5,1.5Z"/>
      <path class="cls-1" d="m65.67,54.03c-4.05,0-5.44-.48-5.68-.57-.77-.31-1.14-1.18-.84-1.95.3-.76,1.15-1.13,1.91-.85.08.03,1.26.37,4.61.37.83,0,1.5.67,1.5,1.5s-.67,1.5-1.5,1.5Z"/>
      <path class="cls-1" d="m65.9,49.14c-2.22,0-3.5-.25-3.56-.26-.81-.16-1.34-.95-1.18-1.77.16-.81.95-1.34,1.76-1.18.03,0,1.1.2,2.97.2.83,0,1.5.67,1.5,1.5s-.67,1.5-1.5,1.5Z"/>
      <path class="cls-1" d="m71.96,29.33c-1.47,0-2.67-1.2-2.67-2.67s1.2-2.67,2.67-2.67,2.67,1.2,2.67,2.67-1.2,2.67-2.67,2.67Zm0-3c-.18,0-.33.15-.33.33s.15.33.33.33.33-.15.33-.33-.15-.33-.33-.33Z"/>
      <path class="cls-1" d="m68.23,33.76c-.2,0-.41-.04-.61-.13-.76-.34-1.1-1.22-.76-1.98.25-.55,1.11-2.42,1.94-3.25,1-1,1.98-1.74,2.02-1.77.66-.5,1.6-.36,2.1.3s.36,1.6-.3,2.1c0,0-.87.65-1.7,1.49-.3.3-.92,1.45-1.32,2.35-.25.56-.8.89-1.37.89Z"/>
      <path class="cls-1" d="m71.96,40.75c-.83,0-1.5-.67-1.5-1.5v-1.17c0-2.69-2.1-4.79-4.79-4.79-.83,0-1.5-.67-1.5-1.5s.67-1.5,1.5-1.5c4.3,0,7.79,3.5,7.79,7.79v1.17c0,.83-.67,1.5-1.5,1.5Z"/>
      <path class="cls-1" d="m81.21,54.72c-.95,0-1.92-.18-2.83-.56-.12-.05-3.05-1.28-5.31-3.29-1.9-1.66-3.81-3.58-4.96-4.72-.04-.04-.08-.08-.11-.12-2-2.5-2.5-3.49-2.62-4.02-.5-1.17-.61-2.7.63-3.53.76-.51,2.1-.75,6.14-.24,1.5.19,2.4.37,4.37.77l2.03.41c3.94.74,6.01,2.01,6.09,2.06,3.18,1.73,4.6,5.84,3.15,9.31-.02.05-.04.1-.07.14-1.31,2.39-3.87,3.79-6.52,3.79Zm-10.93-10.64c1.12,1.12,2.96,2.96,4.76,4.53,1.88,1.67,4.46,2.76,4.48,2.77,2.04.85,4.45.05,5.52-1.83.81-2.05-.02-4.45-1.93-5.49-.09-.05-1.8-1.08-5.15-1.71l-2.06-.42c-1.9-.39-2.76-.56-4.15-.74-1.92-.24-2.99-.27-3.58-.25.05.11.09.23.11.35.15.31.78,1.27,1.98,2.78Zm-1.95-2.5h0s0,0,0,0Zm0,0h0s0,0,0,0Z"/>
      <path class="cls-1" d="m76.59,58.63c-1.46,0-3.04-.76-4.52-2.24-.03-.03-.05-.06-.08-.08-1.59-1.86-3.55-5.63-4.2-7.14-.77-1.79-1.25-4.89-1.27-5.02-.13-.82.44-1.58,1.25-1.71.82-.13,1.58.43,1.71,1.25.12.79.55,3.11,1.06,4.3.7,1.64,2.48,4.89,3.68,6.33.42.41,2.06,1.9,3.05,1.05.57-.49.06-1.37-.05-1.54-.44-.69-.25-1.62.44-2.07.69-.45,1.61-.27,2.06.42.74,1.11,1.58,3.68-.5,5.47-.78.67-1.68,1-2.64,1Z"/>
      <path class="cls-1" d="m65.9,68.02c-.47,0-.93-.22-1.22-.63-.48-.67-.33-1.61.35-2.09.03-.02,3.1-2.24,5.03-4.81,1.84-2.46,2.3-4.31,2.3-4.33.19-.8.99-1.31,1.8-1.12.8.18,1.31.98,1.13,1.78-.02.1-.56,2.45-2.83,5.47-2.21,2.95-5.55,5.35-5.69,5.45-.26.19-.57.28-.87.28Z"/>
      <path class="cls-1" d="m65.67,59.39c-.83,0-1.5-.67-1.5-1.5s.67-1.5,1.5-1.5c5.23,0,6.39-1.57,6.4-1.59-.04.06-.05.09-.05.09l2.68,1.34c-.26.53-1.94,3.16-9.03,3.16Z"/>
      <path class="cls-1" d="m65.67,64.05c-.83,0-1.5-.67-1.5-1.5s.67-1.5,1.5-1.5c3.91,0,5.22-1.82,5.28-1.89.47-.67,1.39-.85,2.07-.4.68.45.88,1.35.44,2.04-.08.13-2.14,3.26-7.79,3.26Z"/>
      <path class="cls-1" d="m65.67,54.03c-.83,0-1.5-.67-1.5-1.5s.67-1.5,1.5-1.5c3.46,0,4.6-.37,4.61-.37.77-.26,1.62.14,1.9.9.28.76-.08,1.6-.83,1.9-.24.1-1.64.57-5.68.57Z"/>
      <path class="cls-1" d="m65.67,49.14c-.83,0-1.5-.67-1.5-1.5s.67-1.5,1.5-1.5c1.89,0,2.96-.2,2.97-.2.81-.16,1.6.37,1.76,1.18.16.81-.36,1.6-1.17,1.76-.05.01-1.34.26-3.56.26Z"/>
      <path class="cls-1" d="m16.73,40.29c-1.47,0-2.67-1.2-2.67-2.67s1.2-2.67,2.67-2.67,2.67,1.2,2.67,2.67-1.2,2.67-2.67,2.67Zm0-3c-.18,0-.33.15-.33.33s.15.33.33.33.33-.15.33-.33-.15-.33-.33-.33Z"/>
      <path class="cls-1" d="m20.46,44.48c-.58,0-1.14-.34-1.38-.91-.16-.38-.66-1.44-1.11-2.1-.97-.78-1.66-1.68-1.74-1.78-.5-.66-.36-1.6.3-2.1.66-.5,1.6-.36,2.1.3.02.02.6.78,1.33,1.33.11.09.21.19.3.3.78,1.05,1.5,2.69,1.58,2.87.33.76-.03,1.64-.79,1.97-.19.08-.39.12-.59.12Z"/>
      <path class="cls-1" d="m16.73,51.94c-.83,0-1.5-.67-1.5-1.5v-1.17c0-4.3,3.5-7.79,7.79-7.79.83,0,1.5.67,1.5,1.5s-.67,1.5-1.5,1.5c-2.69,0-4.79,2.1-4.79,4.79v1.17c0,.83-.67,1.5-1.5,1.5Z"/>
      <path class="cls-1" d="m7.24,65.89c-2.65,0-5.21-1.4-6.51-3.79-1.74-3.19-.26-7.62,3.16-9.49,0,0,2.07-1.28,6.03-2.02l2.01-.41c1.98-.4,2.88-.59,4.37-.77,4.04-.51,5.38-.27,6.15.24,1.33.89,1.11,2.59.51,3.78-.13.26-1.31,2.59-2.61,3.89h0c-1.15,1.15-3.06,3.06-4.97,4.73-2.5,2-5.15,3.22-5.26,3.27-.94.39-1.92.58-2.88.58Zm12.71-13.76c-.63,0-1.65.06-3.27.26-1.38.17-2.25.35-4.15.74l-2.04.41c-3.37.63-5.08,1.66-5.1,1.67-2.02,1.1-2.97,3.74-2.03,5.46,1.05,1.93,3.49,2.76,5.56,1.9h0s2.4-1.11,4.53-2.82c1.78-1.56,3.65-3.43,4.77-4.55h0c.79-.79,1.71-2.44,2.03-3.06-.09,0-.19,0-.31,0Z"/>
      <path class="cls-1" d="m11.88,69.72c-.91,0-1.78-.27-2.54-.81-.04-.03-.07-.05-.1-.08-2.02-1.73-1.31-4.47-.57-5.82.4-.73,1.31-.99,2.04-.6.72.4.99,1.3.6,2.03-.02.04-.72,1.49-.15,2.07.99.63,2.38-.31,3.09-1.01,1.19-1.41,2.92-4.58,3.65-6.24.45-1.6,1.11-4.46,1.12-4.49.19-.81.99-1.31,1.8-1.12.81.19,1.31.99,1.12,1.8-.03.13-.71,3.09-1.18,4.74-.02.06-.04.12-.06.18-.65,1.51-2.61,5.29-4.2,7.14-.02.03-.05.06-.08.08-1.41,1.41-3.01,2.14-4.52,2.14Z"/>
      <path class="cls-1" d="m22.56,78.97c-.34,0-.69-.12-.97-.35-.13-.11-3.13-2.66-5.5-5.26-.03-.03-.06-.07-.09-.11-2.27-3.02-2.81-5.37-2.83-5.47-.18-.81.33-1.61,1.14-1.79.81-.18,1.6.33,1.79,1.13.02.06.47,1.87,2.26,4.27,2.23,2.44,5.14,4.91,5.17,4.94.63.54.71,1.48.18,2.11-.3.35-.72.53-1.15.53Z"/>
      <path class="cls-1" d="m23.02,70.35c-7.09,0-8.77-2.63-9.03-3.16l2.68-1.34s-.01-.03-.05-.09c.01.02,1.17,1.59,6.4,1.59.83,0,1.5.67,1.5,1.5s-.67,1.5-1.5,1.5Z"/>
      <path class="cls-1" d="m23.02,75.01c-5.65,0-7.71-3.12-7.79-3.26-.44-.7-.24-1.63.46-2.07.69-.44,1.6-.24,2.06.44.08.12,1.41,1.89,5.27,1.89.83,0,1.5.67,1.5,1.5s-.67,1.5-1.5,1.5Z"/>
      <path class="cls-1" d="m23.02,65.22c-4.05,0-5.44-.48-5.68-.57-.77-.31-1.14-1.18-.84-1.95.3-.76,1.15-1.13,1.91-.85.08.03,1.26.37,4.61.37.83,0,1.5.67,1.5,1.5s-.67,1.5-1.5,1.5Z"/>
      <path class="cls-1" d="m23.02,60.33c-2.22,0-3.5-.25-3.56-.26-.81-.16-1.34-.95-1.18-1.76.16-.81.95-1.34,1.76-1.18.02,0,1.09.2,2.97.2.83,0,1.5.67,1.5,1.5s-.67,1.5-1.5,1.5Z"/>
      <path class="cls-1" d="m29.08,40.29c-1.47,0-2.67-1.2-2.67-2.67s1.2-2.67,2.67-2.67,2.67,1.2,2.67,2.67-1.2,2.67-2.67,2.67Zm0-3c-.18,0-.33.15-.33.33s.15.33.33.33.33-.15.33-.33-.15-.33-.33-.33Z"/>
      <path class="cls-1" d="m25.35,44.71c-.2,0-.41-.04-.61-.13-.76-.34-1.1-1.22-.76-1.98.25-.55,1.11-2.42,1.94-3.25,1-1,1.98-1.74,2.03-1.77.66-.5,1.6-.36,2.1.3s.36,1.6-.3,2.1c0,0-.87.65-1.7,1.49-.3.3-.92,1.45-1.32,2.35-.25.56-.8.89-1.37.89Z"/>
      <path class="cls-1" d="m29.31,51.94c-.83,0-1.5-.67-1.5-1.5v-1.17c0-2.69-2.1-4.79-4.79-4.79-.83,0-1.5-.67-1.5-1.5s.67-1.5,1.5-1.5c4.3,0,7.79,3.5,7.79,7.79v1.17c0,.83-.67,1.5-1.5,1.5Z"/>
      <path class="cls-1" d="m38.56,65.9c-.95,0-1.92-.18-2.83-.56-.12-.05-3.05-1.28-5.31-3.29-1.89-1.66-3.81-3.57-4.96-4.72-.03-.03-.06-.07-.09-.1-1.69-2.03-2.6-3.3-2.71-4.23-.43-1.14-.47-2.56.7-3.34.76-.51,2.1-.75,6.14-.24,1.5.19,2.4.37,4.37.77l2.03.41c3.94.74,6.01,2.01,6.09,2.06,3.18,1.73,4.6,5.84,3.15,9.31-.02.05-.04.1-.07.14-1.31,2.39-3.87,3.79-6.52,3.79Zm-10.94-10.65c1.12,1.12,2.97,2.97,4.77,4.54,1.88,1.67,4.46,2.76,4.48,2.77,2.04.85,4.45.05,5.52-1.83.81-2.05-.02-4.45-1.93-5.49-.09-.05-1.8-1.08-5.15-1.71l-2.06-.42c-1.9-.39-2.76-.56-4.15-.74-1.92-.24-2.99-.27-3.58-.25.07.16.11.33.13.5.23.4.9,1.35,1.95,2.62Zm-2.38-1.42s0,0,0,0c0,0,0,0,0,0Zm.17-.21c-.05.07-.11.15-.17.21.07-.07.13-.14.17-.21Z"/>
      <path class="cls-1" d="m33.94,69.71c-1.5,0-3.11-.73-4.52-2.14-.03-.03-.05-.06-.08-.08-1.59-1.86-3.55-5.63-4.2-7.14-.77-1.79-1.25-4.89-1.27-5.02-.13-.82.44-1.58,1.25-1.71.81-.13,1.58.43,1.71,1.25.12.79.55,3.11,1.06,4.3.7,1.64,2.47,4.89,3.68,6.33.71.7,2.11,1.63,3.1,1.01.5-.5.01-1.33-.09-1.5-.44-.69-.25-1.62.44-2.07.69-.45,1.61-.27,2.06.42.74,1.11,1.58,3.68-.5,5.47-.03.03-.07.06-.1.08-.77.55-1.64.81-2.54.81Zm1.67-2.03h0,0Z"/>
      <path class="cls-1" d="m23.26,78.97c-.47,0-.93-.22-1.22-.63-.48-.67-.33-1.61.35-2.09.03-.02,3.1-2.24,5.03-4.81,1.84-2.46,2.3-4.31,2.3-4.33.19-.8.99-1.31,1.8-1.12.8.18,1.31.98,1.13,1.78-.02.1-.56,2.45-2.83,5.47-2.21,2.95-5.55,5.35-5.69,5.45-.26.19-.57.28-.87.28Z"/>
      <path class="cls-1" d="m23.02,70.35c-.83,0-1.5-.67-1.5-1.5s.67-1.5,1.5-1.5c5.23,0,6.39-1.57,6.4-1.59-.04.06-.05.09-.05.09l2.68,1.34c-.26.53-1.94,3.16-9.03,3.16Z"/>
      <path class="cls-1" d="m22.79,75.01c-.83,0-1.5-.67-1.5-1.5s.67-1.5,1.5-1.5c3.9,0,5.25-1.85,5.26-1.87.44-.7,1.37-.91,2.07-.46.7.44.91,1.37.46,2.07-.08.13-2.14,3.26-7.79,3.26Z"/>
      <path class="cls-1" d="m22.79,65.22c-.83,0-1.5-.67-1.5-1.5s.67-1.5,1.5-1.5c3.46,0,4.6-.37,4.61-.37.77-.26,1.62.14,1.9.9.28.76-.08,1.6-.83,1.9-.24.1-1.64.57-5.68.57Z"/>
      <path class="cls-1" d="m22.79,60.33c-.83,0-1.5-.67-1.5-1.5s.67-1.5,1.5-1.5c1.89,0,2.96-.2,2.97-.2.81-.16,1.6.37,1.76,1.18.16.81-.36,1.6-1.18,1.76-.05.01-1.34.26-3.56.26Z"/>
      <path class="cls-1" d="m45.86,68.95c-1.47,0-2.67-1.2-2.67-2.67s1.2-2.67,2.67-2.67,2.67,1.2,2.67,2.67-1.2,2.67-2.67,2.67Zm0-3c-.18,0-.33.15-.33.33s.15.33.33.33.33-.15.33-.33-.15-.33-.33-.33Z"/>
      <path class="cls-1" d="m49.59,73.14c-.58,0-1.14-.34-1.38-.91-.16-.38-.66-1.44-1.11-2.1-.97-.78-1.66-1.68-1.74-1.78-.5-.66-.36-1.6.3-2.1.66-.5,1.6-.36,2.1.3.02.02.6.78,1.33,1.33.11.09.21.19.3.3.78,1.05,1.5,2.69,1.58,2.87.33.76-.03,1.64-.79,1.97-.19.08-.39.12-.59.12Z"/>
      <path class="cls-1" d="m45.86,80.6c-.83,0-1.5-.67-1.5-1.5v-1.17c0-4.3,3.5-7.79,7.79-7.79.83,0,1.5.67,1.5,1.5s-.67,1.5-1.5,1.5c-2.69,0-4.79,2.1-4.79,4.79v1.17c0,.83-.67,1.5-1.5,1.5Z"/>
      <path class="cls-1" d="m36.38,94.56c-2.65,0-5.21-1.4-6.52-3.79-.02-.05-.05-.09-.07-.14-1.44-3.47-.03-7.57,3.23-9.35,0,0,2.07-1.28,6.03-2.02l2-.41c1.98-.4,2.88-.59,4.38-.77,4.04-.51,5.38-.27,6.15.24,1.32.88,1.11,2.56.52,3.75-.45,1.22-1.84,3.13-2.63,3.92h0c-1.15,1.15-3.06,3.06-4.97,4.73-2.25,2-5.18,3.23-5.3,3.28-.92.38-1.88.56-2.83.56Zm-3.84-5.16c1.07,1.88,3.48,2.68,5.53,1.83.02-.01,2.6-1.1,4.47-2.77,1.84-1.61,3.71-3.48,4.83-4.6.85-.85,1.74-2.37,1.94-2.8.02-.09.05-.18.09-.26-.59-.02-1.66.01-3.58.25-1.38.17-2.25.35-4.15.74l-2.03.41c-3.37.63-5.08,1.66-5.1,1.67-1.97,1.08-2.81,3.48-2,5.53Zm15.89-4.48h0,0Zm.83-3.5h0s0,0,0,0Zm0,0h0s0,0,0,0Z"/>
      <path class="cls-1" d="m41.01,98.38c-.91,0-1.78-.27-2.54-.81-.04-.03-.07-.05-.1-.08-2.02-1.73-1.31-4.47-.57-5.82.4-.73,1.31-1,2.04-.6.72.4.99,1.3.6,2.03-.02.03-.72,1.49-.15,2.07.99.63,2.38-.31,3.09-1.01,1.21-1.44,2.98-4.69,3.68-6.33.51-1.19.94-3.51,1.06-4.3.13-.82.9-1.38,1.71-1.25.82.13,1.38.89,1.25,1.71-.02.13-.5,3.24-1.27,5.02-.65,1.51-2.61,5.29-4.2,7.14-.03.03-.05.06-.08.08-1.41,1.41-3.01,2.14-4.52,2.14Z"/>
      <path class="cls-1" d="m51.68,107.63c-.34,0-.69-.12-.97-.35-.13-.11-3.13-2.66-5.5-5.26-.03-.03-.06-.07-.09-.11-2.27-3.02-2.81-5.37-2.83-5.47-.18-.81.33-1.61,1.14-1.79.81-.18,1.6.33,1.79,1.13.01.05.46,1.86,2.26,4.27,2.23,2.44,5.14,4.91,5.17,4.94.63.54.71,1.48.18,2.11-.3.35-.72.53-1.15.53Z"/>
      <path class="cls-1" d="m52.15,99.24c-7.09,0-8.77-2.63-9.03-3.16l2.68-1.34s-.01-.03-.05-.09c.01.02,1.17,1.59,6.4,1.59.83,0,1.5.67,1.5,1.5s-.67,1.5-1.5,1.5Z"/>
      <path class="cls-1" d="m52.15,103.67c-5.65,0-7.71-3.12-7.79-3.26-.44-.7-.24-1.63.46-2.07.69-.44,1.61-.24,2.06.44.08.12,1.41,1.89,5.27,1.89.83,0,1.5.67,1.5,1.5s-.67,1.5-1.5,1.5Z"/>
      <path class="cls-1" d="m52.15,93.88c-4.05,0-5.44-.48-5.68-.57-.77-.31-1.14-1.18-.84-1.95s1.15-1.13,1.91-.85c.08.03,1.26.37,4.61.37.83,0,1.5.67,1.5,1.5s-.67,1.5-1.5,1.5Z"/>
      <path class="cls-1" d="m52.15,88.99c-2.22,0-3.5-.25-3.56-.26-.81-.16-1.34-.95-1.18-1.76.16-.81.95-1.34,1.76-1.18.02,0,1.09.2,2.97.2.83,0,1.5.67,1.5,1.5s-.67,1.5-1.5,1.5Z"/>
      <path class="cls-1" d="m58.21,68.95c-1.47,0-2.67-1.2-2.67-2.67s1.2-2.67,2.67-2.67,2.67,1.2,2.67,2.67-1.2,2.67-2.67,2.67Zm0-3c-.18,0-.33.15-.33.33s.15.33.33.33.33-.15.33-.33-.15-.33-.33-.33Z"/>
      <path class="cls-1" d="m54.48,73.38c-.2,0-.41-.04-.61-.13-.76-.34-1.1-1.22-.76-1.98.25-.55,1.11-2.42,1.94-3.25,1-1,1.98-1.74,2.03-1.77.66-.5,1.6-.36,2.1.3s.36,1.6-.3,2.1c0,0-.87.65-1.7,1.49-.3.3-.92,1.45-1.32,2.35-.25.56-.8.89-1.37.89Z"/>
      <path class="cls-1" d="m58.21,80.6c-.83,0-1.5-.67-1.5-1.5v-1.17c0-2.69-2.1-4.79-4.79-4.79-.83,0-1.5-.67-1.5-1.5s.67-1.5,1.5-1.5c4.3,0,7.79,3.5,7.79,7.79v1.17c0,.83-.67,1.5-1.5,1.5Z"/>
      <path class="cls-1" d="m67.69,94.56c-.95,0-1.92-.18-2.83-.56-.12-.05-3.05-1.28-5.31-3.29-1.89-1.66-3.81-3.57-4.96-4.72h0c-.88-.88-2.52-2.69-2.75-4.18-.49-1.16-.58-2.67.64-3.49.77-.51,2.1-.75,6.15-.24,1.5.19,2.4.37,4.38.77l2.02.41c3.94.74,6.01,2.01,6.09,2.06,3.18,1.73,4.6,5.84,3.15,9.31-.02.05-.04.1-.07.14-1.31,2.39-3.87,3.79-6.52,3.79Zm-10.98-10.7c1.12,1.12,2.99,2.99,4.82,4.59,1.88,1.67,4.46,2.76,4.48,2.77,2.04.85,4.45.05,5.52-1.83.81-2.05-.02-4.45-1.93-5.49-.09-.05-1.8-1.08-5.15-1.71l-2.05-.41c-1.9-.39-2.77-.56-4.15-.74-1.92-.24-2.99-.27-3.58-.25.08.17.12.36.13.55.25.5,1.1,1.72,1.9,2.52Zm-2.33-1.38s0,0,0,0c0,0,0,0,0,0Zm.07-.08s-.05.05-.07.08c.03-.03.05-.05.07-.08Z"/>
      <path class="cls-1" d="m63.06,98.38c-1.5,0-3.11-.73-4.52-2.14-.03-.03-.05-.06-.08-.08-1.59-1.86-3.55-5.63-4.2-7.14-.77-1.79-1.25-4.89-1.27-5.02-.13-.82.44-1.58,1.25-1.71.81-.13,1.58.44,1.71,1.25.12.79.55,3.11,1.06,4.3.7,1.64,2.47,4.89,3.68,6.33.71.7,2.11,1.64,3.09,1.01.54-.54-.08-1.47-.08-1.48-.46-.69-.27-1.62.42-2.08.69-.46,1.62-.27,2.08.42.74,1.11,1.58,3.68-.51,5.47-.03.03-.07.06-.1.08-.77.55-1.63.81-2.54.81Zm1.67-2.03h0,0Z"/>
      <path class="cls-1" d="m52.38,107.63c-.44,0-.88-.2-1.18-.57-.51-.65-.4-1.59.25-2.11.03-.02,3.16-2.5,5.13-4.9,1.81-2.41,2.26-4.26,2.26-4.28.19-.8.99-1.3,1.8-1.12.8.18,1.31.98,1.13,1.78-.02.1-.56,2.45-2.83,5.47-2.22,2.71-5.49,5.3-5.63,5.41-.27.22-.6.32-.93.32Z"/>
      <path class="cls-1" d="m52.15,99.24c-.83,0-1.5-.67-1.5-1.5s.67-1.5,1.5-1.5c5.23,0,6.39-1.57,6.4-1.59-.04.06-.05.09-.05.09l2.68,1.34c-.26.53-1.94,3.16-9.03,3.16Z"/>
      <path class="cls-1" d="m51.92,103.67c-.83,0-1.5-.67-1.5-1.5s.67-1.5,1.5-1.5c3.9,0,5.25-1.85,5.26-1.87.45-.7,1.37-.91,2.07-.46.7.44.91,1.37.46,2.07-.08.13-2.14,3.26-7.79,3.26Z"/>
      <path class="cls-1" d="m51.92,93.88c-.83,0-1.5-.67-1.5-1.5s.67-1.5,1.5-1.5c3.46,0,4.6-.37,4.61-.37.77-.26,1.62.14,1.9.9.28.76-.08,1.6-.83,1.9-.24.1-1.64.57-5.68.57Z"/>
      <path class="cls-1" d="m51.92,88.99c-.83,0-1.5-.67-1.5-1.5s.67-1.5,1.5-1.5c1.89,0,2.96-.2,2.97-.2.81-.16,1.6.37,1.76,1.18.16.81-.36,1.6-1.18,1.76-.05.01-1.34.26-3.56.26Z"/>
    </g>
  </g>
</svg>