<?xml version="1.0" encoding="UTF-8"?>
<svg id="_Шар_2" data-name="Шар 2" xmlns="http://www.w3.org/2000/svg" viewBox="0 0 440.63 332.52">
  <defs>
    <style>
      .cls-1 {
        fill: #7c7c7c;
      }

      .cls-1, .cls-2 {
        stroke-width: 0px;
      }

      .cls-3 {
        opacity: .18;
      }

      .cls-2 {
        fill: #e8b638;
      }

      .cls-4 {
        fill: #f8a400;
      }

      .cls-4, .cls-5 {
        stroke: #7c7c7c;
        stroke-linecap: round;
        stroke-linejoin: round;
        stroke-width: .5px;
      }

      .cls-5 {
        fill: none;
      }
    </style>
  </defs>
  <g id="Layer_1" data-name="Layer 1">
    <g>
      <g class="cls-3">
        <path class="cls-2" d="m302.55,331.52c-2.33,0-4.69-.45-7.01-1.34-6.65-2.55-20.15-10.99-25.32-17.88-2.08-2.78-4.76-5.27-7.6-7.9-3.9-3.62-7.92-7.36-10.88-12.29-4.82-8.04-18.21-26.54-24.97-33.31-6.29-6.29-6.25-9.26-6.17-14.64,0-.62.02-1.28.02-1.98v-7.38c-2.98-.04-11.76-.28-16.07-1.72-2.4-.8-4.02-1.21-5.02-1.41.21,1.52,0,3.87-2.33,6.2l-8.08,8.08v2.57c1.54,1.79,9.95,11.58,11.43,13.06.87.87.95,2.54.21,4.34-.97,2.34-3.38,4.85-7.25,4.85-1.29,0-2.67-.29-4.09-.85-7.58-3.03-11.19-11.14-13.13-15.5-.3-.68-.57-1.27-.8-1.73-1.21-2.41-2.42-3.92-2.92-4.5-1.67-.15-7.31-1.14-8.88-7.43-1.7-6.79-3.38-18.54-3.38-20.34v-7.39c-3-.08-11.91-.57-16.3-3.5-1.67-1.11-4.12-2.43-6.72-3.82-5.55-2.98-10.8-5.79-12.04-8.29-.52-1.04-1.25-1.54-2.25-1.54-.41,0-.78.08-1.04.17-.45,1.71-1.89,6.74-3.48,8.33-1.21,1.21-4.13,2.23-6.38,2.23-1,0-1.83-.2-2.45-.59-.81-.51-1.25-1.34-1.25-2.34,0-3.29-1.66-39.79-1.67-40.15,0-.13.01-.26.06-.38-.74.17-1.89.54-3.71,1.26-4.32,1.73-8.65,2.16-12.83,2.58-4.23.42-8.23.82-12.29,2.45-3.61,1.44-7.51,2.27-10.69,2.27-3.18,0-5.49-.81-6.69-2.35-.91-1.17-1.15-2.66-.71-4.44.81-3.24,1.98-6.04,3.01-8.52,1.06-2.55,1.98-4.75,1.98-6.31,0-.64-.39-1.74-.85-3.01-1.61-4.51-4.3-12.05.95-22.56,5.36-10.71,8.56-16.06,9.67-17.84l-5.83-5.83c-2.13.04-12.09.38-19.32,3.27-5.77,2.31-8.25,3.77-10.45,5.07-.94.55-1.83,1.08-2.88,1.6-.49.24-1.03.37-1.61.37-1.86,0-4.03-1.36-4.44-3.65-.34-1.88.32-5.49,8.6-8.6,6.61-2.48,13.31-3.68,20.49-3.68,2.02,0,3.79.09,5.35.16,1.15.06,2.15.11,2.99.11.29,0,.46-.03.57-.05-.2-.83-2.05-2.95-3.18-4.25-1.38-1.58-2.69-3.07-3.31-4.31-1.42-2.84-9.41-9.53-29.5-14.55-17.96-4.49-23.92-7.63-27.49-9.51-.43-.23-.82-.43-1.19-.62-1.75-.88-2.73-2.76-2.32-4.47.24-1.01,1.34-3.37,6.43-3.37,1.87,0,4.1.32,6.63.95,13.27,3.32,35.31,11.77,45.43,16.83,6.82,3.41,8.48,6.13,10.23,9.01.87,1.43,1.77,2.92,3.43,4.57,2.05,2.05,3.13,2.84,3.64,3.14,1.45-3.08,9.16-18.9,18.46-26.65,6.3-5.25,12.54-7.81,19.07-7.81,2.23,0,4.5.3,6.93.91.85.21,1.71.32,2.6.32,2.08,0,4.03-.56,6.09-1.15,2.1-.6,4.28-1.22,6.64-1.22,1.06,0,2.07.12,3.09.38,1.73.43,3.46.63,5.13.83,4.44.52,9.03,1.05,9.03,6.84,0,4.06.09,7.51.15,9.58,2.58-2.03,8.03-5.51,14.97-5.51,2.63,0,5.24.51,7.76,1.52,11.47,4.59,27.22,9.23,30.38,10.15,3.84-3.79,33.35-32.59,66.95-56.59,17.54-12.53,37.77-19.43,56.94-19.43,13.5,0,22.8,3.37,27,6.52,8.17,6.13,5.81,12.94,3.08,20.83-.99,2.87-2.02,5.84-2.7,9.1-.61,2.95-.93,5.31-1.2,7.39-.88,6.56-1.32,9.86-9.52,16.01-10.54,7.9-12.92,10.03-10.33,16.95,2.71,7.23,6.08,16.23-5.34,21.94-8.96,4.48-40.38,16.42-49.43,19.83,6.62,2.7,24.98,10.35,31.43,14.65,5.39,3.59,7.24,6.07,7.88,7.43,1.09-.2,3.06-.48,5.47-.48,4.85,0,9.18,1.18,12.52,3.4.03.02.06.04.09.07l20.14,16.99c2.12.06,12.45.67,18.76,6.99,6.04,6.04,16.34,14.95,18.11,16.47,1.58.11,7.51.92,12.14,7.08,9.17,12.22,15.27,20.99,15.27,24.05,0,2.89,3.03,5.96,3.06,5.99.53.61,12.02,13.83,12.02,22.48,0,1.06.03,2.1.05,3.11.19,7.16.35,13.35-8.87,19.5-2.28,1.52-4.61,3.25-6.88,4.93-7.93,5.89-16.13,11.98-25.5,11.98-11.9,0-25.39,0-37.35-6.83-11.42-6.52-21.34-8.24-21.44-8.26-.18-.03-.35-.11-.49-.23-.12-.1-11.74-10.05-16.65-13.33-1.41-.94-3.01-1.13-4.97-1.13-.48,0-.97.01-1.47.02-.53.01-1.06.02-1.6.02-3.37,0-6.98-.49-10.55-4.06-5.3-5.3-14.95-13.88-18.6-17.1-.37,2.95-1.32,8.28-3.44,10.4-1.44,1.45-2.99,5.4-3.06,6.03,0,1.53,3.95,2.23,5.74,2.31.84.07,19.38,1.87,19.38,11.05,0,4.63-5.38,7.51-14.03,7.51-5.02,0-10.06-1.04-13.91-2.77,3.19,5.62,7.84,16.04,7.84,23.74v11.12c1.73.92,7.13,3.98,11.43,8.27,2.48,2.48,3.98,2.72,5.18,2.91,1.17.18,2.38.38,3.38,2.38.43.86.86,1.83,1.28,2.76.76,1.7,2.16,4.86,2.88,5.06h0c1.36,0,2.66.8,3.14,1.96.43,1.04.14,2.16-.79,3.1-1.44,1.44-4.46,2.37-7.71,2.37Z"/>
        <path class="cls-1" d="m331.08,2c12.33,0,21.86,2.91,26.4,6.32,10.35,7.76,2.59,16.47,0,28.92-2.59,12.46,0,15.04-10.35,22.8-10.35,7.76-13.57,10.35-10.67,18.1,2.91,7.76,5.49,15.52-4.85,20.69-10.35,5.17-51.73,20.69-51.73,20.69,0,0,25.86,10.35,33.62,15.52s7.76,7.76,7.76,7.76c0,0,2.59-.65,6.14-.65s8.08.65,11.96,3.23l20.41,17.22s11.73,0,18.43,6.7c6.7,6.7,18.42,16.75,18.42,16.75,0,0,6.7,0,11.73,6.7,5.02,6.7,15.07,20.1,15.07,23.45s3.35,6.7,3.35,6.7c0,0,11.73,13.4,11.73,21.77s1.68,15.08-8.38,21.77c-10.05,6.7-20.1,16.75-31.82,16.75s-25.12,0-36.85-6.7c-11.72-6.7-21.77-8.38-21.77-8.38,0,0-11.72-10.05-16.75-13.4-1.67-1.12-3.54-1.3-5.52-1.3-.99,0-2.02.05-3.06.05-3.14,0-6.49-.42-9.84-3.77-6.7-6.7-20.1-18.42-20.1-18.42,0,0-.7,9.08-3.35,11.73-1.68,1.67-3.35,6.02-3.35,6.7,0,3.06,6.7,3.35,6.7,3.35,0,0,18.43,1.67,18.43,10.05,0,4.42-6.07,6.51-13.03,6.51-6.23,0-13.17-1.67-17.12-4.83,1.68,1.67,10.05,16.75,10.05,26.8v11.73s6.7,3.35,11.72,8.38c5.02,5.02,6.7,1.67,8.38,5.02,1.68,3.35,3.35,8.38,5.02,8.38s3.35,1.67,1.68,3.35c-1.05,1.05-3.63,2.08-7,2.08-1.99,0-4.26-.36-6.65-1.28-6.45-2.48-19.85-10.85-24.87-17.55-5.02-6.7-13.4-11.73-18.42-20.1-5.03-8.38-18.43-26.8-25.12-33.5-6.7-6.7-5.86-9.21-5.86-15.91v-8.37s-11.72,0-16.75-1.68c-5.03-1.67-6.7-1.67-6.7-1.67,0,0,1.67,3.35-1.68,6.7l-8.38,8.38v3.35s10.05,11.73,11.72,13.4c1.4,1.4-.71,7.48-6.34,7.48-1.1,0-2.34-.23-3.71-.78-8.38-3.35-11.73-13.4-13.4-16.75-1.67-3.35-3.35-5.02-3.35-5.02,0,0-6.7,0-8.38-6.7-1.68-6.7-3.35-18.42-3.35-20.1v-8.38s-11.72,0-16.75-3.35c-5.03-3.35-16.75-8.38-18.43-11.73-.84-1.67-2.09-2.09-3.14-2.09s-1.88.42-1.88.42c0,0-1.68,6.7-3.35,8.38-.97.97-3.61,1.93-5.67,1.93-1.51,0-2.71-.52-2.71-1.93,0-3.35-1.67-40.2-1.67-40.2,0,0,1.49-1.49,0-1.49-.74,0-2.23.37-5.03,1.49-8.38,3.35-16.75,1.68-25.12,5.02-3.47,1.39-7.23,2.2-10.32,2.2-4.37,0-7.41-1.63-6.43-5.55,1.68-6.7,5.02-11.73,5.02-15.08s-6.7-11.73,0-25.12,10.05-18.42,10.05-18.42l-6.7-6.7s-11.73,0-20.1,3.35c-8.38,3.35-10.05,5.02-13.4,6.7-.36.18-.75.26-1.16.26-3.39,0-7.46-5.82,4.51-10.31,8.04-3.02,14.87-3.62,20.14-3.62,3.51,0,6.33.27,8.34.27,5.02,0-3.35-6.7-5.02-10.05-1.68-3.35-10.05-10.05-30.15-15.07S7.21,62.95,3.86,61.28c-2.7-1.35-3.22-5.95,3.66-5.95,1.67,0,3.77.27,6.39.92,13.4,3.35,35.18,11.73,45.22,16.75,10.05,5.02,8.38,8.38,13.4,13.4,3.01,3.02,4.22,3.62,4.7,3.62.32,0,.32-.27.32-.27,0,0,8.38-18.42,18.42-26.8,6.94-5.79,13.09-7.58,18.43-7.58,2.39,0,4.62.36,6.69.88.98.25,1.93.35,2.85.35,4.44,0,8.29-2.37,12.73-2.37.92,0,1.86.1,2.85.35,6.7,1.67,13.4,0,13.4,6.7s.23,11.7.23,11.7c0,0,6.62-6.62,15.89-6.62,2.32,0,4.8.41,7.39,1.45,12.93,5.17,31.04,10.35,31.04,10.35,0,0,31.04-31.04,67.24-56.9,20.31-14.5,40.61-19.25,56.36-19.25m0-2c-19.38,0-39.81,6.97-57.52,19.62-32.64,23.31-61.42,51.14-66.65,56.28-4.14-1.21-18.87-5.61-29.72-9.95-2.64-1.06-5.38-1.59-8.13-1.59-6.03,0-10.98,2.52-14.02,4.58-.05-2.02-.1-4.68-.1-7.66,0-6.69-5.5-7.32-9.91-7.84-1.64-.19-3.33-.39-5-.8-1.09-.27-2.18-.41-3.33-.41-2.5,0-4.75.64-6.92,1.26-1.99.57-3.88,1.11-5.82,1.11-.82,0-1.59-.09-2.36-.29-2.52-.63-4.86-.93-7.18-.93-6.77,0-13.22,2.63-19.71,8.04-8.64,7.2-15.9,21.18-18.21,25.92-.56-.45-1.38-1.18-2.55-2.34-1.57-1.57-2.4-2.94-3.28-4.39-1.75-2.88-3.56-5.85-10.64-9.39-10.37-5.19-32.09-13.52-45.63-16.9-2.61-.65-4.93-.98-6.88-.98-5.8,0-7.11,2.9-7.4,4.14-.51,2.16.69,4.52,2.85,5.6.36.18.75.39,1.17.61,3.6,1.9,9.64,5.07,27.71,9.59,19.74,4.93,27.5,11.33,28.85,14.03.67,1.35,2.02,2.89,3.45,4.52.64.73,1.54,1.77,2.19,2.61-.54-.02-1.13-.05-1.76-.08-1.57-.08-3.35-.16-5.4-.16-7.3,0-14.12,1.23-20.84,3.75-8.96,3.36-9.63,7.53-9.23,9.71.45,2.51,2.84,4.47,5.42,4.47.73,0,1.43-.16,2.05-.47,1.08-.54,1.98-1.07,2.94-1.63,2.16-1.27,4.61-2.72,10.31-5,6.69-2.68,15.8-3.12,18.54-3.19l4.97,4.97c-1.4,2.31-4.49,7.63-9.3,17.24-5.45,10.89-2.66,18.69-1,23.34.39,1.08.79,2.21.79,2.68,0,1.37-.88,3.48-1.9,5.93-1.05,2.51-2.23,5.35-3.06,8.66-.65,2.6.12,4.32.89,5.3,1.4,1.79,3.99,2.74,7.48,2.74,3.31,0,7.34-.85,11.06-2.34,3.92-1.57,7.86-1.96,12.02-2.38,4.26-.43,8.66-.87,13.11-2.65.97-.39,1.73-.66,2.33-.86.26,5.68,1.63,36.23,1.63,39.2,0,1.81,1.23,3.93,4.71,3.93,2.52,0,5.69-1.13,7.08-2.52,1.61-1.61,2.94-5.86,3.58-8.19.08,0,.16-.01.24-.01.45,0,.92.12,1.35.99,1.29,2.58,5.77,5.13,12.46,8.72,2.58,1.38,5.01,2.69,6.64,3.77,4.19,2.79,12.14,3.47,15.86,3.63v6.43c0,1.84,1.7,13.73,3.41,20.59,1.46,5.84,6.32,7.82,9.36,8.16.55.68,1.53,2.01,2.52,3.98.22.43.47,1.01.78,1.69,2,4.49,5.72,12.84,13.67,16.02,1.54.61,3.04.93,4.46.93,4.36,0,7.08-2.82,8.17-5.47.9-2.19.74-4.27-.42-5.43-1.26-1.26-8.06-9.14-11.14-12.73v-1.78l7.79-7.79c1.99-1.99,2.6-4.01,2.67-5.63.91.23,2.12.58,3.66,1.09,4.02,1.34,11.73,1.67,15.38,1.75v6.4c0,.7,0,1.35-.02,1.96-.08,5.93.16,9.05,6.47,15.36,6.72,6.72,20.03,25.12,24.82,33.11,3.03,5.06,7.11,8.84,11.06,12.51,2.8,2.6,5.45,5.06,7.48,7.76,5.27,7.03,19,15.62,25.76,18.22,2.44.94,4.92,1.41,7.37,1.41,3.55,0,6.77-1.02,8.41-2.66,1.22-1.22,1.59-2.78,1.01-4.19-.58-1.41-2.08-2.42-3.72-2.56-.63-.67-1.68-3.03-2.32-4.48-.42-.95-.86-1.93-1.3-2.81-1.23-2.46-2.9-2.73-4.12-2.92-1.12-.18-2.38-.38-4.63-2.63-4.01-4.01-8.96-6.96-11.14-8.16v-10.52c0-6.84-3.6-15.79-6.69-21.81,3.93,1.31,8.25,1.84,11.76,1.84,9.27,0,15.03-3.26,15.03-8.51,0-9.92-18.17-11.85-20.24-12.04-.03,0-.06,0-.09,0-2.2-.1-4.39-.8-4.76-1.32.27-1.03,1.61-4.18,2.74-5.31,1.92-1.92,2.94-6,3.46-9.13,4.3,3.81,12.45,11.12,17.17,15.83,3.83,3.83,7.67,4.35,11.25,4.35.55,0,1.08-.01,1.62-.02.49-.01.97-.02,1.45-.02,1.78,0,3.21.16,4.41.97,4.87,3.24,16.44,13.15,16.56,13.25.28.24.61.39.97.45.1.02,9.87,1.72,21.11,8.14,12.19,6.96,25.82,6.96,37.84,6.96,9.7,0,18.04-6.19,26.1-12.18,2.35-1.75,4.58-3.4,6.83-4.9,9.68-6.46,9.51-13.21,9.32-20.36-.03-1-.05-2.04-.05-3.08,0-9.02-11.72-22.52-12.22-23.09-.03-.03-.06-.07-.09-.1-.77-.77-2.76-3.24-2.76-5.29,0-3.36-5.67-11.58-15.47-24.64-4.57-6.1-10.41-7.24-12.53-7.46-2.31-1.99-12.02-10.43-17.81-16.21-6.27-6.27-16.25-7.14-19.08-7.27l-19.88-16.77c-.06-.05-.12-.09-.18-.14-3.5-2.33-8.02-3.57-13.07-3.57-2.01,0-3.74.19-4.92.38-.98-1.64-3.16-4.02-7.87-7.16-5.86-3.91-21.36-10.52-29.26-13.78,11.24-4.26,38.82-14.81,47.15-18.97,12.23-6.11,8.53-15.98,5.83-23.18-2.36-6.29-.46-7.96,9.99-15.8,8.54-6.4,9.03-10.05,9.91-16.68.28-2.06.59-4.4,1.19-7.32.66-3.2,1.68-6.14,2.66-8.98,2.74-7.92,5.33-15.39-3.42-21.96-5.52-4.14-16.1-6.72-27.6-6.72h0Z"/>
      </g>
      <path class="cls-4" d="m240.87,142.51c20.07-2.01,25.12,1.67,30.15,10.05,5.02,8.37,6.7,11.72,5.02,21.77s-3.35,8.37-10.05,21.77c-6.7,13.4-16.75,20.54-25.12,15.3-8.37-5.25-19.34-17.11-20.56-33.79-1.22-16.68,3.81-33.43,20.56-35.1Z"/>
      <path class="cls-5" d="m323.78,141.68s-14.24,4.19-19.26,12.56c-5.02,8.37-8.37,18.42-8.37,20.1"/>
      <path class="cls-5" d="m362.31,161.78s-14.24,4.19-19.26,12.56c-5.02,8.37-8.37,18.42-8.37,20.1"/>
      <path class="cls-5" d="m399.16,185.23s-12.56,4.19-17.59,12.56c-5.02,8.37-7.54,19.26-7.54,20.94"/>
      <path class="cls-5" d="m425.96,217.05s-8.94.84-16.75,6.7c-6.7,5.02-13.4,13.4-13.4,15.07"/>
      <path class="cls-5" d="m403.35,246.36s21.77,11.72,30.15,10.05c8.37-1.67,5.13-10.05,5.13-10.05"/>
      <path class="cls-5" d="m237.52,211.19s1.67,8.37-1.67,15.07c-8.37,13.4,1.67,8.37,10.05,16.75,0,0,3.35,10.05,13.4,15.07,10.05,5.02,13.4,8.37,25.12,11.72"/>
      <path class="cls-5" d="m262.58,201.98s1.32-4.19,9.07,9.21c7.75,13.4,12.77,16.15,12.77,24.82s-10.05,12.03-10.05,12.03c0,0,1.99,2.51,10.36,4.19"/>
      <path class="cls-4" d="m236.16,268.98c.89,0,4.71-12.56,4.71-17.59s0-11.73-5.02-14.24c-5.02-2.51-2.78-6.15-1.39-8.52,1.39-2.37,5.22-7.81-1.72-6.76-6.94,1.05-11.96,7.75-11.96,11.1s-.46,8.79-.46,8.79c0,0-1.22,6.28,2.13,11.31,3.35,5.02,6.7,10.05,8.37,11.72,1.67,1.67,3.66,4.19,5.34,4.19Z"/>
      <path class="cls-1" d="m91.8,114.04c2.18.93,13.4,0,21.77-11.72,8.37-11.72,20.1-18.42,10.05-23.45-10.05-5.02-20.1,0-25.12,6.7-5.02,6.7-18.42,23.45-6.7,28.47Z"/>
      <path class="cls-5" d="m65.83,150.05s3.35-8.37,10.05-3.35c4.24,3.18.84,3.4,4.19,7.14,3.35,3.74,6.33,3.74,4.84,7.93-1.49,4.19-1.49,7.54-1.49,7.54"/>
      <path class="cls-5" d="m107.31,165.19s-.43-4.25,1.24-12.62c1.67-8.37,0-10.05,3.35-18.42,3.35-8.37,6.43-17.28,25.12-31.82"/>
      <path class="cls-5" d="m122.75,194.87s-2.93-13.77-.61-22.59c2.32-8.83-2.7-18.88,2.32-23.9,5.02-5.02,10.05-10.83,12.56-14.63"/>
      <path class="cls-5" d="m204.02,129.11s-8.37,6.7-20.1,18.42c-11.72,11.72-6.7,13.4-8.37,20.84-1.67,7.44-6.7,22.71-10.05,29.41s-3.35,16.75,1.67,26.8,8.37,6.7,8.37,6.7c0,0,1.49,7.54,9.54,9.21,8.05,1.67,10.16-8.16,6.59-13.29s-8.6-10.16-10.27-11.83c-1.67-1.67-10.05-1.67-3.35-6.7,6.7-5.02,7.89-15.07,10.64-23.45,2.76-8.37,2.35-18.38,2.55-20.92.2-2.53,13.6-5.88,16.95-12.58s6.65-9.75,6.65-9.75"/>
      <line class="cls-5" x1="189.01" y1="248.24" x2="187.27" y2="241.34"/>
      <path class="cls-5" d="m177,102.31c-3.13-1.67-7.73-5.85-1.28-6.75,5.68-.79,6.65,5.04,13.28-2.48,6.63-7.52,21.71-19.25,21.71-19.25"/>
      <path class="cls-5" d="m214.07,125.76s33.5,0,46.9-1.67c13.4-1.67,26.8-5.02,26.8-5.02"/>
      <path class="cls-5" d="m75.88,106.5s1.67,3.35,3.35,0c1.67-3.35,1.67-6.7,0-10.05s-3.66-9.53-3.66-9.53"/>
      <line class="cls-5" x1="66.67" y1="93.94" x2="71.7" y2="103.99"/>
      <path class="cls-5" d="m397.48,267.3c13.4,8.37,27.92,5.02,27.92,5.02"/>
      <path class="cls-1" d="m331.08,2c12.33,0,21.86,2.91,26.4,6.32,10.35,7.76,2.59,16.47,0,28.92-2.59,12.46,0,15.04-10.35,22.8-10.35,7.76-13.57,10.35-10.67,18.1,2.91,7.76,5.49,15.52-4.85,20.69-10.35,5.17-51.73,20.69-51.73,20.69,0,0,25.86,10.35,33.62,15.52s7.76,7.76,7.76,7.76c0,0,2.59-.65,6.14-.65s8.08.65,11.96,3.23l20.41,17.22s11.73,0,18.43,6.7c6.7,6.7,18.42,16.75,18.42,16.75,0,0,6.7,0,11.73,6.7,5.02,6.7,15.07,20.1,15.07,23.45s3.35,6.7,3.35,6.7c0,0,11.73,13.4,11.73,21.77s1.68,15.08-8.38,21.77c-10.05,6.7-20.1,16.75-31.82,16.75s-25.12,0-36.85-6.7c-11.72-6.7-21.77-8.38-21.77-8.38,0,0-11.72-10.05-16.75-13.4-1.67-1.12-3.54-1.3-5.52-1.3-.99,0-2.02.05-3.06.05-3.14,0-6.49-.42-9.84-3.77-6.7-6.7-20.1-18.42-20.1-18.42,0,0-.7,9.08-3.35,11.73-1.68,1.67-3.35,6.02-3.35,6.7,0,3.06,6.7,3.35,6.7,3.35,0,0,18.43,1.67,18.43,10.05,0,4.42-6.07,6.51-13.03,6.51-6.23,0-13.17-1.67-17.12-4.83,1.68,1.67,10.05,16.75,10.05,26.8v11.73s6.7,3.35,11.72,8.38c5.02,5.02,6.7,1.67,8.38,5.02,1.68,3.35,3.35,8.38,5.02,8.38s3.35,1.67,1.68,3.35c-1.05,1.05-3.63,2.08-7,2.08-1.99,0-4.26-.36-6.65-1.28-6.45-2.48-19.85-10.85-24.87-17.55-5.02-6.7-13.4-11.73-18.42-20.1-5.03-8.38-18.43-26.8-25.12-33.5-6.7-6.7-5.86-9.21-5.86-15.91v-8.37s-11.72,0-16.75-1.68c-5.03-1.67-6.7-1.67-6.7-1.67,0,0,1.67,3.35-1.68,6.7l-8.38,8.38v3.35s10.05,11.73,11.72,13.4c1.4,1.4-.71,7.48-6.34,7.48-1.1,0-2.34-.23-3.71-.78-8.38-3.35-11.73-13.4-13.4-16.75-1.67-3.35-3.35-5.02-3.35-5.02,0,0-6.7,0-8.38-6.7-1.68-6.7-3.35-18.42-3.35-20.1v-8.38s-11.72,0-16.75-3.35c-5.03-3.35-16.75-8.38-18.43-11.73-.84-1.67-2.09-2.09-3.14-2.09s-1.88.42-1.88.42c0,0-1.68,6.7-3.35,8.38-.97.97-3.61,1.93-5.67,1.93-1.51,0-2.71-.52-2.71-1.93,0-3.35-1.67-40.2-1.67-40.2,0,0,1.49-1.49,0-1.49-.74,0-2.23.37-5.03,1.49-8.38,3.35-16.75,1.68-25.12,5.02-3.47,1.39-7.23,2.2-10.32,2.2-4.37,0-7.41-1.63-6.43-5.55,1.68-6.7,5.02-11.73,5.02-15.08s-6.7-11.73,0-25.12,10.05-18.42,10.05-18.42l-6.7-6.7s-11.73,0-20.1,3.35c-8.38,3.35-10.05,5.02-13.4,6.7-.36.18-.75.26-1.16.26-3.39,0-7.46-5.82,4.51-10.31,8.04-3.02,14.87-3.62,20.14-3.62,3.51,0,6.33.27,8.34.27,5.02,0-3.35-6.7-5.02-10.05-1.68-3.35-10.05-10.05-30.15-15.07S7.21,62.95,3.86,61.28c-2.7-1.35-3.22-5.95,3.66-5.95,1.67,0,3.77.27,6.39.92,13.4,3.35,35.18,11.73,45.22,16.75,10.05,5.02,8.38,8.38,13.4,13.4,3.01,3.02,4.22,3.62,4.7,3.62.32,0,.32-.27.32-.27,0,0,8.38-18.42,18.42-26.8,6.94-5.79,13.09-7.58,18.43-7.58,2.39,0,4.62.36,6.69.88.98.25,1.93.35,2.85.35,4.44,0,8.29-2.37,12.73-2.37.92,0,1.86.1,2.85.35,6.7,1.67,13.4,0,13.4,6.7s.23,11.7.23,11.7c0,0,6.62-6.62,15.89-6.62,2.32,0,4.8.41,7.39,1.45,12.93,5.17,31.04,10.35,31.04,10.35,0,0,31.04-31.04,67.24-56.9,20.31-14.5,40.61-19.25,56.36-19.25m0-2c-19.38,0-39.81,6.97-57.52,19.62-32.64,23.31-61.42,51.14-66.65,56.28-4.14-1.21-18.87-5.61-29.72-9.95-2.64-1.06-5.38-1.59-8.13-1.59-6.03,0-10.98,2.52-14.02,4.58-.05-2.02-.1-4.68-.1-7.66,0-6.69-5.5-7.32-9.91-7.84-1.64-.19-3.33-.39-5-.8-1.09-.27-2.18-.41-3.33-.41-2.5,0-4.75.64-6.92,1.26-1.99.57-3.88,1.11-5.82,1.11-.82,0-1.59-.09-2.36-.29-2.52-.63-4.86-.93-7.18-.93-6.77,0-13.22,2.63-19.71,8.04-8.64,7.2-15.9,21.18-18.21,25.92-.56-.45-1.38-1.18-2.55-2.34-1.57-1.57-2.4-2.94-3.28-4.39-1.75-2.88-3.56-5.85-10.64-9.39-10.37-5.19-32.09-13.52-45.63-16.9-2.61-.65-4.93-.98-6.88-.98-5.8,0-7.11,2.9-7.4,4.14-.51,2.16.69,4.52,2.85,5.6.36.18.75.39,1.17.61,3.6,1.9,9.64,5.07,27.71,9.59,19.74,4.93,27.5,11.33,28.85,14.03.67,1.35,2.02,2.89,3.45,4.52.64.73,1.54,1.77,2.19,2.61-.54-.02-1.13-.05-1.76-.08-1.57-.08-3.35-.16-5.4-.16-7.3,0-14.12,1.23-20.84,3.75-8.96,3.36-9.63,7.53-9.23,9.71.45,2.51,2.84,4.47,5.42,4.47.73,0,1.43-.16,2.05-.47,1.08-.54,1.98-1.07,2.94-1.63,2.16-1.27,4.61-2.72,10.31-5,6.69-2.68,15.8-3.12,18.54-3.19l4.97,4.97c-1.4,2.31-4.49,7.63-9.3,17.24-5.45,10.89-2.66,18.69-1,23.34.39,1.08.79,2.21.79,2.68,0,1.37-.88,3.48-1.9,5.93-1.05,2.51-2.23,5.35-3.06,8.66-.65,2.6.12,4.32.89,5.3,1.4,1.79,3.99,2.74,7.48,2.74,3.31,0,7.34-.85,11.06-2.34,3.92-1.57,7.86-1.96,12.02-2.38,4.26-.43,8.66-.87,13.11-2.65.97-.39,1.73-.66,2.33-.86.26,5.68,1.63,36.23,1.63,39.2,0,1.81,1.23,3.93,4.71,3.93,2.52,0,5.69-1.13,7.08-2.52,1.61-1.61,2.94-5.86,3.58-8.19.08,0,.16-.01.24-.01.45,0,.92.12,1.35.99,1.29,2.58,5.77,5.13,12.46,8.72,2.58,1.38,5.01,2.69,6.64,3.77,4.19,2.79,12.14,3.47,15.86,3.63v6.43c0,1.84,1.7,13.73,3.41,20.59,1.46,5.84,6.32,7.82,9.36,8.16.55.68,1.53,2.01,2.52,3.98.22.43.47,1.01.78,1.69,2,4.49,5.72,12.84,13.67,16.02,1.54.61,3.04.93,4.46.93,4.36,0,7.08-2.82,8.17-5.47.9-2.19.74-4.27-.42-5.43-1.26-1.26-8.06-9.14-11.14-12.73v-1.78l7.79-7.79c1.99-1.99,2.6-4.01,2.67-5.63.91.23,2.12.58,3.66,1.09,4.02,1.34,11.73,1.67,15.38,1.75v6.4c0,.7,0,1.35-.02,1.96-.08,5.93.16,9.05,6.47,15.36,6.72,6.72,20.03,25.12,24.82,33.11,3.03,5.06,7.11,8.84,11.06,12.51,2.8,2.6,5.45,5.06,7.48,7.76,5.27,7.03,19,15.62,25.76,18.22,2.44.94,4.92,1.41,7.37,1.41,3.55,0,6.77-1.02,8.41-2.66,1.22-1.22,1.59-2.78,1.01-4.19-.58-1.41-2.08-2.42-3.72-2.56-.63-.67-1.68-3.03-2.32-4.48-.42-.95-.86-1.93-1.3-2.81-1.23-2.46-2.9-2.73-4.12-2.92-1.12-.18-2.38-.38-4.63-2.63-4.01-4.01-8.96-6.96-11.14-8.16v-10.52c0-6.84-3.6-15.79-6.69-21.81,3.93,1.31,8.25,1.84,11.76,1.84,9.27,0,15.03-3.26,15.03-8.51,0-9.92-18.17-11.85-20.24-12.04-.03,0-.06,0-.09,0-2.2-.1-4.39-.8-4.76-1.32.27-1.03,1.61-4.18,2.74-5.31,1.92-1.92,2.94-6,3.46-9.13,4.3,3.81,12.45,11.12,17.17,15.83,3.83,3.83,7.67,4.35,11.25,4.35.55,0,1.08-.01,1.62-.02.49-.01.97-.02,1.45-.02,1.78,0,3.21.16,4.41.97,4.87,3.24,16.44,13.15,16.56,13.25.28.24.61.39.97.45.1.02,9.87,1.72,21.11,8.14,12.19,6.96,25.82,6.96,37.84,6.96,9.7,0,18.04-6.19,26.1-12.18,2.35-1.75,4.58-3.4,6.83-4.9,9.68-6.46,9.51-13.21,9.32-20.36-.03-1-.05-2.04-.05-3.08,0-9.02-11.72-22.52-12.22-23.09-.03-.03-.06-.07-.09-.1-.77-.77-2.76-3.24-2.76-5.29,0-3.36-5.67-11.58-15.47-24.64-4.57-6.1-10.41-7.24-12.53-7.46-2.31-1.99-12.02-10.43-17.81-16.21-6.27-6.27-16.25-7.14-19.08-7.27l-19.88-16.77c-.06-.05-.12-.09-.18-.14-3.5-2.33-8.02-3.57-13.07-3.57-2.01,0-3.74.19-4.92.38-.98-1.64-3.16-4.02-7.87-7.16-5.86-3.91-21.36-10.52-29.26-13.78,11.24-4.26,38.82-14.81,47.15-18.97,12.23-6.11,8.53-15.98,5.83-23.18-2.36-6.29-.46-7.96,9.99-15.8,8.54-6.4,9.03-10.05,9.91-16.68.28-2.06.59-4.4,1.19-7.32.66-3.2,1.68-6.14,2.66-8.98,2.74-7.92,5.33-15.39-3.42-21.96-5.52-4.14-16.1-6.72-27.6-6.72h0Z"/>
    </g>
  </g>
</svg>