<?xml version="1.0" encoding="UTF-8"?>
<svg id="_Шар_2" data-name="Шар 2" xmlns="http://www.w3.org/2000/svg" viewBox="0 0 24.23 20.87">
  <defs>
    <style>
      .cls-1 {
        fill: none;
        stroke: #fffaec;
        stroke-linecap: round;
        stroke-linejoin: round;
        stroke-width: 1.5px;
      }
    </style>
  </defs>
  <g id="Layer_1" data-name="Layer 1">
    <g>
      <rect class="cls-1" x=".75" y="6.88" width="22.73" height="3.33" rx="1.21" ry="1.21"/>
      <path class="cls-1" d="m21.85,10.28l-1.91,8.28c0,.52-1.21,1.56-1.74,1.56H6.56c-.52,0-1.84-1.46-1.84-1.98l-1.7-8"/>
      <path class="cls-1" d="m16.02,2c1.34,0,2.67,1.77,2.67,3.12l.54,2.88"/>
      <path class="cls-1" d="m5.42,7.99l.5-3.3c0-1.34,1.49-2.69,2.83-2.69"/>
      <rect class="cls-1" x="8.63" y=".75" width="7.43" height="2.02" rx=".91" ry=".91"/>
      <rect class="cls-1" x="8.63" y="14.25" width="7.43" height="1.37" rx=".68" ry=".68" transform="translate(27.28 2.58) rotate(90)"/>
      <rect class="cls-1" x="13.33" y="14.27" width="7.43" height="1.37" rx=".68" ry=".68" transform="translate(33.45 -.7) rotate(95.08)"/>
      <rect class="cls-1" x="3.99" y="14.32" width="7.43" height="1.37" rx=".68" ry=".68" transform="translate(21.97 6) rotate(84.92)"/>
    </g>
  </g>
</svg>