<svg width="64" height="64" viewBox="0 0 64 64" fill="none" xmlns="http://www.w3.org/2000/svg">
    <path d="M15.8667 62.1335C15.8667 62.1335 21.7333 60.2668 23.4667 56.1335C25.2 52.0002 24.8 47.6002 23.7333 44.5335C22 39.6002 19.0667 30.2668 24.8 24.9335C30.5333 19.6002 34.1333 20.6668 45.8667 23.3335C55.8667 25.7335 60.6667 22.6668 60.6667 15.3335" stroke="#FFFFFF" stroke-width="1.2" stroke-linecap="round" stroke-linejoin="round"/>
    <path d="M49.4667 3.4668C49.4667 3.4668 43.6 5.33346 41.8667 9.33346C40.1333 13.3335 40.5333 17.7335 41.6 20.6668C43.3333 25.4668 46.2667 34.5335 40.5333 39.8668C34.8 45.2001 31.0667 44.0001 19.3333 41.3335C9.19999 39.0668 4.39999 42.0001 4.39999 49.2001" stroke="#FFFFFF" stroke-width="1.2" stroke-linecap="round" stroke-linejoin="round"/>
    <path d="M7.73334 48.3999L17.2 57.8666" stroke="#FFFFFF" stroke-width="1.2" stroke-linecap="round" stroke-linejoin="round"/>
    <path d="M10.9333 44.2666L20.5333 53.9999" stroke="#FFFFFF" stroke-width="1.2" stroke-linecap="round" stroke-linejoin="round"/>
    <path d="M16.9333 43.4668L21.4667 48.1335" stroke="#FFFFFF" stroke-width="1.2" stroke-linecap="round" stroke-linejoin="round"/>
    <path d="M24.1333 35.8667L29.0667 40.6667" stroke="#FFFFFF" stroke-width="1.2" stroke-linecap="round" stroke-linejoin="round"/>
    <path d="M25.4667 30.5332L34.2667 39.3332" stroke="#FFFFFF" stroke-width="1.2" stroke-linecap="round" stroke-linejoin="round"/>
    <path d="M27.8667 25.6001L39.3333 37.0668" stroke="#FFFFFF" stroke-width="1.2" stroke-linecap="round" stroke-linejoin="round"/>
    <path d="M34.2667 23.8667L41.0667 30.8" stroke="#FFFFFF" stroke-width="1.2" stroke-linecap="round" stroke-linejoin="round"/>
    <path d="M42.6667 14.6665L49.7333 21.7332" stroke="#FFFFFF" stroke-width="1.2" stroke-linecap="round" stroke-linejoin="round"/>
    <path d="M44.8 9.7334L54.9333 19.8667" stroke="#FFFFFF" stroke-width="1.2" stroke-linecap="round" stroke-linejoin="round"/>
    <path d="M49.4667 7.4668L57.3333 15.3335" stroke="#FFFFFF" stroke-width="1.2" stroke-linecap="round" stroke-linejoin="round"/>
</svg>