<svg width="64" height="64" viewBox="0 0 64 64" fill="none" xmlns="http://www.w3.org/2000/svg">
    <path d="M31.8666 38.9335C42.2496 38.9335 50.6667 30.5165 50.6667 20.1335C50.6667 9.75054 42.2496 1.3335 31.8666 1.3335C21.4837 1.3335 13.0667 9.75054 13.0667 20.1335C13.0667 30.5165 21.4837 38.9335 31.8666 38.9335Z" stroke="#FFFFFF" stroke-width="1.2" stroke-miterlimit="10" stroke-linecap="round" stroke-linejoin="round"/>
    <path d="M1.20001 44.4001C1.20001 44.4001 6.80001 44.4001 8.26668 44.4001C9.73335 44.4001 12.1333 43.0667 13.0667 42.1334C14 41.2001 18.1333 38.2667 22.2667 41.0667C26.4 43.8667 27.8667 44.4001 29.6 44.4001" stroke="#FFFFFF" stroke-width="1.2" stroke-miterlimit="10" stroke-linecap="round" stroke-linejoin="round"/>
    <path d="M33.8667 44.3999H35.7333C40.9333 44.3999 41.3333 51.1999 35.7333 51.1999H26.6667C26.6667 51.1999 24.6667 50.9332 23.7333 53.0666" stroke="#FFFFFF" stroke-width="1.2" stroke-miterlimit="10" stroke-linecap="round" stroke-linejoin="round"/>
    <path d="M38.9333 44.8001C38.9333 44.8001 39.7333 43.7335 42.2667 41.2001C44.8 38.6668 48.1333 42.1335 46 44.2668C43.8667 46.4001 40.1333 50.1335 40.1333 50.1335" stroke="#FFFFFF" stroke-width="1.2" stroke-miterlimit="10" stroke-linecap="round" stroke-linejoin="round"/>
    <path d="M45.7333 44.5335C45.7333 44.5335 46.5333 43.4669 49.0667 40.9335C51.6 38.4002 54.9333 41.8669 52.8 44.0002C50.6667 46.1335 44.9333 51.3335 44.9333 51.3335" stroke="#FFFFFF" stroke-width="1.2" stroke-miterlimit="10" stroke-linecap="round" stroke-linejoin="round"/>
    <path d="M15.7333 61.8669C15.7333 61.8669 24.2667 62.2669 27.8667 62.5335C31.4667 62.8002 32.5333 62.6669 35.2 62.0002C37.8667 61.2002 45.0667 58.6669 46.9333 58.0002C48.9333 57.2002 49.4667 56.5335 51.6 54.4002C51.6 54.4002 57.8667 48.0002 60.5333 45.3335C63.2 42.6669 59.4667 38.1335 56.1333 41.3335C52.8 44.5335 51.8667 45.8669 51.8667 45.8669L47.7333 50.1335C47.7333 50.1335 46.2667 51.3335 44.8 51.3335C42.2667 51.3335 36.2667 51.2002 36.2667 51.2002" stroke="#FFFFFF" stroke-width="1.2" stroke-miterlimit="10" stroke-linecap="round" stroke-linejoin="round"/>
    <path d="M11.6 61.7334L1.20001 62.0001" stroke="#FFFFFF" stroke-width="1.2" stroke-miterlimit="10" stroke-linecap="round" stroke-linejoin="round"/>
    <path d="M27.7333 16.2669V9.2002H35.7333V16.2669" stroke="#FFFFFF" stroke-width="1.2" stroke-miterlimit="10" stroke-linecap="round" stroke-linejoin="round"/>
    <path d="M27.7333 24.2671V31.3338H35.7333V24.2671" stroke="#FFFFFF" stroke-width="1.2" stroke-miterlimit="10" stroke-linecap="round" stroke-linejoin="round"/>
    <path d="M35.7333 24.2671H42.8V16.2671H35.7333" stroke="#FFFFFF" stroke-width="1.2" stroke-miterlimit="10" stroke-linecap="round" stroke-linejoin="round"/>
    <path d="M27.7334 16.2671H20.6667V24.2671H27.7334" stroke="#FFFFFF" stroke-width="1.2" stroke-miterlimit="10" stroke-linecap="round" stroke-linejoin="round"/>
</svg>