<svg width="64" height="64" viewBox="0 0 64 64" fill="none" xmlns="http://www.w3.org/2000/svg">
    <path d="M2.66669 33.3335C6.26669 33.3335 11.3334 33.3335 15.2 33.3335C16.9334 33.3335 18.4 33.3335 19.8667 32.8002C22.2667 31.7335 24.1334 26.2669 25.7334 26.8002C26.5334 27.2002 26.8 28.0002 27.2 28.8002C28.5334 31.6002 30 35.3335 31.2 38.0002C32.5334 40.9335 33.0667 40.9335 34.2667 38.0002C35.6 35.0669 36.9334 31.0669 38.4 28.1335C38.6667 27.6002 38.9334 27.0669 39.4667 27.0669C40.6667 27.0669 41.6 30.9335 43.7334 32.4002C45.7334 33.8669 48.1334 33.6002 50.5334 33.6002" stroke="#FFFFFF" stroke-width="1.2" stroke-linecap="round" stroke-linejoin="round"/>
    <path d="M35.4667 19.5998C33.7333 14.3998 28.8 10.6665 23.0667 10.6665C17.3333 10.6665 10 16.5332 10 23.7332C10 23.7332 9.73334 27.9998 11.3333 30.9332" stroke="#FFFFFF" stroke-width="1.2" stroke-linecap="round" stroke-linejoin="round"/>
    <path d="M35.7333 19.1998C37.4667 14.2665 42.4 10.6665 48 10.6665C53.6 10.6665 61.0667 16.5332 61.0667 23.7332C61.0667 23.7332 61.7333 32.5332 51.3333 43.5998C39.4667 56.2665 35.7333 57.1998 35.7333 57.1998C35.7333 57.1998 26.6667 51.8665 14.9333 37.3332" stroke="#FFFFFF" stroke-width="1.2" stroke-linecap="round" stroke-linejoin="round"/>
</svg>