<svg width="64" height="64" viewBox="0 0 64 64" fill="none" xmlns="http://www.w3.org/2000/svg">
    <path d="M28.6666 16C28.6666 16 29.2 16.5333 29.6 17.0667C30.1333 17.6 30.6666 19.0667 30.6666 19.0667" stroke="#FFFFFF" stroke-width="1.2" stroke-miterlimit="10" stroke-linecap="round" stroke-linejoin="round"/>
    <path d="M32 18.6665C29.8666 18.6665 28.1333 20.2665 28.1333 22.5332V23.4665" stroke="#FFFFFF" stroke-width="1.2" stroke-miterlimit="10" stroke-linecap="round" stroke-linejoin="round"/>
    <path d="M29.7333 26.5335C29.0666 27.3335 27.8666 28.4002 26.7999 29.3335C25.4666 30.4002 23.8666 31.2002 23.8666 31.2002C22.2666 32.0002 20.2666 31.3335 19.4666 29.6002C18.6666 27.8669 19.3333 26.0002 21.0666 25.2002C21.0666 25.2002 22.2666 24.4002 24.3999 24.0002C26.5333 23.6002 27.0666 23.4669 28.2666 23.3335C29.3333 23.2002 30.9333 23.0669 31.3333 23.4669C31.8666 23.8669 31.3333 24.5335 31.3333 24.6669C31.3333 24.8002 30.5333 25.8669 29.7333 26.5335Z" stroke="#FFFFFF" stroke-width="1.2" stroke-miterlimit="10" stroke-linecap="round" stroke-linejoin="round"/>
    <path d="M24.2666 30.9334C24.2666 30.9334 23.4666 32.5334 24.4 33.3334C25.3333 34.0001 26.6666 33.6001 27.4666 32.5334C28.2666 31.6001 29.4666 29.4667 29.8666 28.5334C30.2666 27.6001 30.5333 25.7334 30.5333 25.7334" stroke="#FFFFFF" stroke-width="1.2" stroke-miterlimit="10" stroke-linecap="round" stroke-linejoin="round"/>
    <path d="M27.0667 33.3335C27.0667 33.3335 27.3333 34.6668 28.6667 36.2668C30 37.8668 32.1333 39.6002 32.1333 39.6002" stroke="#FFFFFF" stroke-width="1.2" stroke-miterlimit="10" stroke-linecap="round" stroke-linejoin="round"/>
    <path d="M27.3334 32.7998C27.3334 32.7998 28 34.2665 32 34.2665" stroke="#FFFFFF" stroke-width="1.2" stroke-miterlimit="10" stroke-linecap="round" stroke-linejoin="round"/>
    <path d="M28.1333 35.4668C28.1333 35.4668 29.0666 36.9335 32 36.9335" stroke="#FFFFFF" stroke-width="1.2" stroke-miterlimit="10" stroke-linecap="round" stroke-linejoin="round"/>
    <path d="M28.9333 30.6665C28.9333 30.6665 29.6 31.0665 32 31.0665" stroke="#FFFFFF" stroke-width="1.2" stroke-miterlimit="10" stroke-linecap="round" stroke-linejoin="round"/>
    <path d="M30 28C30 28 30.8 28.1333 32 28.1333" stroke="#FFFFFF" stroke-width="1.2" stroke-miterlimit="10" stroke-linecap="round" stroke-linejoin="round"/>
    <path d="M35.4667 16.1333C35.4667 16.1333 34.8 16.6666 34.4 17.0666C34 17.4666 33.3334 19.0666 33.3334 19.0666" stroke="#FFFFFF" stroke-width="1.2" stroke-miterlimit="10" stroke-linecap="round" stroke-linejoin="round"/>
    <path d="M31.8667 18.6665C34 18.6665 35.7334 20.2665 35.7334 22.5332V23.4665" stroke="#FFFFFF" stroke-width="1.2" stroke-miterlimit="10" stroke-linecap="round" stroke-linejoin="round"/>
    <path d="M34.1333 26.5335C34.8 27.3335 36 28.4002 37.0666 29.3335C38.4 30.4002 40 31.2002 40 31.2002C41.6 32.0002 43.6 31.3335 44.4 29.6002C45.2 28.0002 44.5333 26.0002 42.8 25.2002C42.8 25.2002 41.6 24.4002 39.4666 24.0002C37.3333 23.6002 36.8 23.4669 35.6 23.3335C34.5333 23.2002 32.9333 23.0669 32.5333 23.4669C32 23.8669 32.5333 24.5335 32.5333 24.6669C32.6666 24.6669 33.4666 25.8669 34.1333 26.5335Z" stroke="#FFFFFF" stroke-width="1.2" stroke-miterlimit="10" stroke-linecap="round" stroke-linejoin="round"/>
    <path d="M39.7333 30.9334C39.7333 30.9334 40.5333 32.5334 39.6 33.3334C38.6667 34.1334 37.3333 33.6001 36.5333 32.5334C35.7333 31.4667 34.5333 29.4667 34.1333 28.5334C33.7333 27.6001 33.4667 25.7334 33.4667 25.7334" stroke="#FFFFFF" stroke-width="1.2" stroke-miterlimit="10" stroke-linecap="round" stroke-linejoin="round"/>
    <path d="M36.7999 33.3335C36.7999 33.3335 36.5333 34.6668 35.1999 36.2668C33.8666 37.8668 31.7333 39.6002 31.7333 39.6002" stroke="#FFFFFF" stroke-width="1.2" stroke-miterlimit="10" stroke-linecap="round" stroke-linejoin="round"/>
    <path d="M36.5334 32.7998C36.5334 32.7998 35.8667 34.2665 31.8667 34.2665" stroke="#FFFFFF" stroke-width="1.2" stroke-miterlimit="10" stroke-linecap="round" stroke-linejoin="round"/>
    <path d="M35.7334 35.4668C35.7334 35.4668 34.8 36.9335 31.8667 36.9335" stroke="#FFFFFF" stroke-width="1.2" stroke-miterlimit="10" stroke-linecap="round" stroke-linejoin="round"/>
    <path d="M34.9334 30.6665C34.9334 30.6665 34.2667 31.0665 31.8667 31.0665" stroke="#FFFFFF" stroke-width="1.2" stroke-miterlimit="10" stroke-linecap="round" stroke-linejoin="round"/>
    <path d="M33.8667 28C33.8667 28 33.0667 28.1333 31.8667 28.1333" stroke="#FFFFFF" stroke-width="1.2" stroke-miterlimit="10" stroke-linecap="round" stroke-linejoin="round"/>
    <path d="M41.4667 46.8002C41.4667 46.8002 36.6667 49.0668 35.7333 49.4668C34.8 49.8668 34.1333 49.7335 34 52.2668V60.6668H41.8667V55.8668C41.8667 55.8668 44.8 54.4002 45.8667 53.7335C46.9333 53.0668 50.4 47.4668 50.6667 45.8668C50.9333 44.4002 50.6667 38.6668 50.6667 36.5335C50.6667 34.2668 47.6 34.2668 47.6 36.5335C47.6 38.8002 47.6 44.4002 47.6 44.4002" stroke="#FFFFFF" stroke-width="1.2" stroke-miterlimit="10" stroke-linecap="round" stroke-linejoin="round"/>
    <path d="M44.9333 43.4665C44.9333 43.4665 44.9333 39.8665 44.9333 36.1332C44.9333 33.8665 47.6 34.1332 47.6 35.9998" stroke="#FFFFFF" stroke-width="1.2" stroke-miterlimit="10" stroke-linecap="round" stroke-linejoin="round"/>
    <path d="M41.7333 45.7335C41.7333 45.7335 41.7333 41.6001 41.7333 38.0001C41.7333 35.7335 44.9333 35.8668 44.9333 37.7335" stroke="#FFFFFF" stroke-width="1.2" stroke-miterlimit="10" stroke-linecap="round" stroke-linejoin="round"/>
    <path d="M38.9333 47.5999C38.9333 47.5999 38.9333 45.7332 38.9333 42.1332C38.9333 39.8665 41.7333 40.2665 41.7333 42.1332" stroke="#FFFFFF" stroke-width="1.2" stroke-miterlimit="10" stroke-linecap="round" stroke-linejoin="round"/>
    <path d="M38 50.1333C38 50.1333 42.2667 45.9999 44.1333 43.9999C46 41.9999 48.4 43.9999 46.9333 45.5999C45.4667 47.1999 43.7333 49.0666 43.7333 49.0666" stroke="#FFFFFF" stroke-width="1.2" stroke-miterlimit="10" stroke-linecap="round" stroke-linejoin="round"/>
    <path d="M22.8 46.8002C22.8 46.8002 27.6 49.0668 28.5333 49.4668C29.4666 49.8668 30.1333 49.7335 30.2666 52.2668V60.6668H22.4V55.8668C22.4 55.8668 19.4666 54.4002 18.4 53.7335C17.3333 53.0668 13.8666 47.4668 13.6 45.8668C13.3333 44.4002 13.6 38.6668 13.6 36.5335C13.6 34.2668 16.6666 34.2668 16.6666 36.5335C16.6666 38.8002 16.6666 44.4002 16.6666 44.4002" stroke="#FFFFFF" stroke-width="1.2" stroke-miterlimit="10" stroke-linecap="round" stroke-linejoin="round"/>
    <path d="M19.3333 43.4665C19.3333 43.4665 19.3333 39.8665 19.3333 36.1332C19.3333 33.8665 16.6666 34.1332 16.6666 35.9998" stroke="#FFFFFF" stroke-width="1.2" stroke-miterlimit="10" stroke-linecap="round" stroke-linejoin="round"/>
    <path d="M22.5334 45.7335C22.5334 45.7335 22.5334 41.6001 22.5334 38.0001C22.5334 35.7335 19.3334 35.8668 19.3334 37.7335" stroke="#FFFFFF" stroke-width="1.2" stroke-miterlimit="10" stroke-linecap="round" stroke-linejoin="round"/>
    <path d="M25.3333 47.5999C25.3333 47.5999 25.3333 45.7332 25.3333 42.1332C25.3333 39.8665 22.5333 40.2665 22.5333 42.1332" stroke="#FFFFFF" stroke-width="1.2" stroke-miterlimit="10" stroke-linecap="round" stroke-linejoin="round"/>
    <path d="M26.2666 50.1333C26.2666 50.1333 22 45.9999 20.1333 43.9999C18.2666 41.9999 15.8666 43.9999 17.3333 45.5999C18.8 47.1999 20.5333 49.0666 20.5333 49.0666" stroke="#FFFFFF" stroke-width="1.2" stroke-miterlimit="10" stroke-linecap="round" stroke-linejoin="round"/>
    <path d="M32.6666 9.46663L54 23.4666C56.4 24.9333 59.0666 21.7333 56.1333 19.6L32.6666 4.1333" stroke="#FFFFFF" stroke-width="1.2" stroke-miterlimit="10" stroke-linecap="round" stroke-linejoin="round"/>
    <path d="M32.4 9.46663L11.0667 23.4666C8.66665 24.9333 5.99998 21.7333 8.93332 19.6L32.4 4.1333" stroke="#FFFFFF" stroke-width="1.2" stroke-miterlimit="10" stroke-linecap="round" stroke-linejoin="round"/>
</svg>