<?xml version="1.0" encoding="UTF-8"?>
<svg id="_Шар_2" data-name="Шар 2" xmlns="http://www.w3.org/2000/svg" viewBox="0 0 50.85 94.61">
  <defs>
    <style>
      .cls-1 {
        fill: #fffaec;
        stroke-width: 0px;
      }
    </style>
  </defs>
  <g id="Layer_1" data-name="Layer 1">
    <g>
      <path class="cls-1" d="m5.63,94.61c-1.24,0-2.46-.41-3.45-1.2-1.7-1.35-2.46-3.57-2.08-6.08.04-.25,3.83-21.8,4.82-28.34.94-6.19,3.23-10.4,3.99-11.78.08-.14.14-.25.17-.32l.14-.23c.42-.56,5.12-7.7,8.18-12.37.15-.24.31-.47.46-.71.3-.44.79-1.18.77-1.42h0s-.05-.11-.29-.3c-1.36-1.06-2.06-1.67-3.59-3.03-.56-.5-1.24-1.09-2.1-1.85-3.28-2.87-5.78-6.34-1.87-12.21,3.22-4.83,5.04-7.46,8.92-12.36,2.59-3.13,6.24-2.91,8.52-1.08,2.11,1.69,3.09,4.89.87,7.75-1.62,2.09-2.77,3.5-3.7,4.62-1.01,1.22-1.67,2.03-2.27,2.93-.14.21-.3.43-.45.65-.57.8-1.21,1.71-1.1,2.34.09.52.69,1.04,1.18,1.38l.9.63c3.64,2.57,10.41,7.35,13.69,9.36,3.96,2.42,5.53,4.1,7.02,7.51,1.41,3.41,2.01,5.01,4.06,10.75,2.1,5.88-.85,8.5-2.43,9.91-.2.17-.38.34-.54.49-2.39,2.73-12.7,3.21-13.87,3.25-.27.01-.53,0-.77-.02.34,1.43.7,3.03,1.09,4.75,1.22,5.33,2.6,11.38,4.08,16.68,1.14,4.08-.3,6.3-1.26,7.25-1.51,1.51-3.88,2.06-6.18,1.43-2.38-.66-4.14-2.41-4.71-4.7-1.22-5.68-4.03-18.95-4.84-22.77-.39-1.84-1.36-2.93-1.7-3,.01.02-.54.4-.99,2.41-.03.15-3.62,16.9-4.6,23.6-.39,2.72-1.84,4.78-3.99,5.63-.68.27-1.39.4-2.09.4Zm6.08-46.26c-.04.08-.1.18-.16.3-.69,1.27-2.8,5.12-3.66,10.79-1,6.57-4.79,28.16-4.83,28.37-.21,1.41.13,2.58.98,3.25.71.57,1.7.7,2.57.36,1.14-.45,1.89-1.62,2.13-3.27,1-6.81,4.49-23.13,4.64-23.82.89-3.94,2.62-4.77,3.93-4.77h.02c2.29.02,4.05,2.72,4.61,5.38.8,3.82,3.62,17.08,4.82,22.71.29,1.17,1.27,2.12,2.59,2.48,1.24.34,2.52.09,3.26-.65.86-.86,1.03-2.4.49-4.33-1.5-5.37-2.89-11.46-4.12-16.82-.75-3.26-1.39-6.08-1.92-8.13-1.48-5.7.14-8.08,2-10.85l.41-.61c1.65-2.47,2.99-4.34,4.1-5.73.68-.85,1.48-.93,1.89-.9,1.35.09,2.11,1.37,2.73,2.4l.15.3c.12.29.28.72.47,1.22.46,1.22,1.09,2.89,1.49,3.69.43.99.38,1.94-.1,2.75-.65,1.11-2.08,1.84-3.91,2.03-1.99.2-3.41.21-5.3.21-.57.54-1.47,2.86-.99,4.39.14.44.37.9,1.46.86,5.96-.23,11-1.4,11.79-2.3.26-.27.49-.47.73-.68,1.48-1.32,3.02-2.69,1.6-6.67-2.03-5.68-2.62-7.26-3.99-10.59-1.23-2.81-2.37-4.01-5.83-6.12-3.37-2.06-10.19-6.88-13.86-9.47l-.9-.63c-1.38-.98-2.19-2.1-2.4-3.33-.32-1.86.8-3.43,1.62-4.58.14-.2.28-.39.4-.58.68-1.02,1.42-1.92,2.45-3.17.91-1.11,2.05-2.49,3.64-4.55,1.16-1.49.57-2.83-.37-3.58-1.14-.91-2.92-1.07-4.32.63-3.79,4.79-5.58,7.38-8.75,12.14-2.56,3.84-1.65,5.66,1.35,8.29.87.76,1.55,1.36,2.12,1.86,1.53,1.35,2.16,1.91,3.45,2.91,2.66,2.07,1.04,4.47.17,5.76-.14.21-.28.42-.42.64l-.02.03c-.76,1.16-7.23,11.03-8.21,12.43Zm23.64-2.75c-.94,1.24-2.06,2.82-3.38,4.8l-.42.63c-.15.23-.3.44-.44.66,1.8,0,3.08-.01,4.89-.19.92-.09,1.43-.37,1.59-.52-.46-.95-1.08-2.58-1.58-3.9-.16-.42-.3-.79-.4-1.06-.08-.13-.17-.28-.25-.41Z"/>
      <path class="cls-1" d="m38.29,32.74c-1.9,0-4.25-.67-7.03-2.64-7.12-5.05-4.43-9.72-2.82-12.52l.17-.3c.97-1.95,3.54-5.12,3.92-5.58,4.49-6.53,9.6-3.3,12.65-1.37,2.41,1.61,4.99,3.54,5.55,6.46.36,1.9-.21,3.96-1.7,6.11-1.69,2.44-2.58,3.82-3.18,4.74-.69,1.06-1.04,1.6-1.74,2.42-.72.83-2.67,2.69-5.83,2.69Zm.45-21.95c-1.32,0-2.48.77-3.76,2.64l-.08.11c-.75.91-2.87,3.62-3.63,5.14l-.22.39c-1.58,2.74-2.94,5.1,1.96,8.57,4.74,3.37,7.43,2.1,8.85.45.57-.67.83-1.06,1.5-2.1.6-.93,1.52-2.34,3.23-4.81,1.03-1.49,1.43-2.75,1.22-3.84-.34-1.78-2.36-3.26-4.24-4.51-1.96-1.24-3.47-2.04-4.82-2.04Z"/>
    </g>
  </g>
</svg>