<svg width="64" height="64" viewBox="0 0 64 64" fill="none" xmlns="http://www.w3.org/2000/svg">
    <path d="M52.2667 51.0669C47.2 56.1336 40.4 59.2003 32.6667 59.2003C17.3333 59.2003 4.93335 46.8003 4.93335 31.4669C4.93335 16.1336 5.60002 24.2669 6.93335 20.9336" stroke="#FFFFFF" stroke-width="1.2" stroke-linecap="round" stroke-linejoin="round"/>
    <path d="M12.9333 12.1334C18 7.0667 24.9333 3.8667 32.6667 3.8667C48 3.8667 60.4 16.2667 60.4 31.6C60.4 46.9334 59.7333 38.2667 58.6667 41.2" stroke="#FFFFFF" stroke-width="1.2" stroke-linecap="round" stroke-linejoin="round"/>
    <path d="M43.6 50.667H52.8L50.8 59.2003" stroke="#FFFFFF" stroke-width="1.2" stroke-linecap="round" stroke-linejoin="round"/>
    <path d="M15.0667 3.4668L12.9333 12.1335H22" stroke="#FFFFFF" stroke-width="1.2" stroke-linecap="round" stroke-linejoin="round"/>
    <path d="M28.8 34.2668C29.2 34.8001 28.6666 35.6001 28 37.3335C26.1333 41.7335 23.3333 47.6001 21.6 52.0001C23.7333 50.6668 38.8 37.7335 43.6 33.8668C44.4 33.0668 45.0666 32.8001 44.5333 32.4001C44.1333 32.1335 43.3333 31.7335 42.1333 31.2001C40.9333 30.6668 39.4666 30.0001 38.8 29.6001C37.8666 29.0668 37.7333 28.5335 38.1333 27.6001C39.4666 24.0001 43.7333 13.3335 44.1333 11.4668C39.7333 15.3335 34.8 20.4001 30.4 24.5335C27.6 27.2001 25.7333 28.9335 23.8666 30.8001C23.6 31.0668 23.4666 31.2001 23.4666 31.4668C24.4 32.6668 27.7333 33.2001 28.9333 34.2668H28.8Z" stroke="#FFFFFF" stroke-width="1.2" stroke-linecap="round" stroke-linejoin="round"/>
</svg>