<svg width="188" height="188" viewBox="0 0 188 188" fill="none" xmlns="http://www.w3.org/2000/svg">
<path d="M124.583 133.917H161.327L150.517 155.536C149.141 158.031 147.274 160.022 144.907 161.517C142.55 163.006 139.947 163.75 137.083 163.75H124.583V178.356L95.0596 148.833L124.583 119.311V133.917ZM77.583 133.917V163.75H49.5459C47.0738 163.75 44.8297 163.105 42.7959 161.814C40.7548 160.52 39.2554 158.831 38.2793 156.741L38.2754 156.732L38.2705 156.724L38.0908 156.351C37.2247 154.484 36.8247 152.545 36.8848 150.524C36.9488 148.372 37.5302 146.375 38.6328 144.522L45.0723 133.917H77.583ZM60.3203 119.043L48.3691 111.768L47.7236 111.375L47.335 112.023L30.2168 140.616L18.0996 116.382C16.9804 114.143 16.45 111.753 16.5098 109.199C16.5655 106.821 17.1951 104.574 18.4062 102.452L18.6562 102.029L18.6611 102.021L21.7949 96.7324L22.1748 96.0928L21.5371 95.708L9.76367 88.6094L50.1748 78.46L60.3203 119.043ZM169.535 102.022L169.542 102.034L169.549 102.045C170.91 104.149 171.655 106.501 171.779 109.115C171.903 111.721 171.347 114.127 170.11 116.353L170.103 116.367L170.096 116.382C168.854 118.865 167.027 120.85 164.6 122.345C162.176 123.838 159.536 124.584 156.666 124.584H148.278L131.461 96.6182L157.38 81.7012L169.535 102.022ZM109.666 16.417C112.276 16.417 114.729 17.0687 117.035 18.3789C119.342 19.6891 121.172 21.4568 122.535 23.6885V23.6895L132.719 40.7266L133.108 41.3799L133.756 40.9805L145.504 33.7236L135.362 74.2891L94.9668 64.1445L106.916 57.0449L107.564 56.6602L107.176 56.0137L83.3799 16.417H109.666ZM71.1895 20.9209C73.6825 20.921 75.6064 21.9383 77.0215 24.0391L77.2979 24.4736L77.2988 24.4746L88.6182 43.2773L71.8105 71.04L46.2666 55.751L65.0713 24.4746C66.5139 22.0783 68.5297 20.9209 71.1895 20.9209Z" fill="#FEF9ED" stroke="#402417" stroke-width="1.5"/>
</svg>
