<?xml version="1.0" encoding="UTF-8"?>
<svg id="_Шар_2" data-name="Шар 2" xmlns="http://www.w3.org/2000/svg" viewBox="0 0 77.22 82.46">
  <defs>
    <style>
      .cls-1 {
        fill: #fffaec;
        stroke-width: 0px;
      }
    </style>
  </defs>
  <g id="Layer_1" data-name="Layer 1">
    <g id="YUQS7c">
      <path class="cls-1" d="m13.78,52.48c-.26,0-.51-.07-.74-.2L.76,45.26c-.47-.27-.76-.76-.76-1.3v-14.21c0-.54.29-1.04.76-1.3l12.28-7.02c.46-.26,1.03-.26,1.49,0l12.28,7.02c.47.27.76.76.76,1.3v14.21c0,.54-.29,1.04-.76,1.3l-12.28,7.02c-.23.13-.49.2-.74.2Zm-10.78-9.39l10.78,6.16,10.78-6.16v-12.47l-10.78-6.16-10.78,6.16v12.47Z"/>
      <path class="cls-1" d="m6.24,42.65c-.83,0-1.5-.67-1.5-1.5v-8.77c0-.54.29-1.04.77-1.31l7.54-4.21c.72-.4,1.64-.14,2.04.58.4.72.14,1.64-.58,2.04l-6.78,3.78v7.89c0,.83-.67,1.5-1.5,1.5Z"/>
      <path class="cls-1" d="m38.7,52.48c-.26,0-.51-.07-.74-.2l-12.28-7.02c-.47-.27-.76-.76-.76-1.3v-14.21c0-.54.29-1.04.76-1.3l12.28-7.02c.46-.26,1.03-.26,1.49,0l12.28,7.02c.47.27.76.76.76,1.3v14.21c0,.54-.29,1.04-.76,1.3l-12.28,7.02c-.23.13-.49.2-.74.2Zm-10.78-9.39l10.78,6.16,10.78-6.16v-12.47l-10.78-6.16-10.78,6.16v12.47Z"/>
      <path class="cls-1" d="m31.15,42.65c-.83,0-1.5-.67-1.5-1.5v-8.77c0-.54.29-1.04.77-1.31l7.54-4.21c.72-.4,1.64-.14,2.04.58.4.72.14,1.64-.58,2.04l-6.78,3.78v7.89c0,.83-.67,1.5-1.5,1.5Z"/>
      <path class="cls-1" d="m72.61,63.82c-1.23,0-2.38-.44-3.23-1.23-.68-.63-1.48-1.79-1.48-3.72v-8.67l-3.73,2.09c-.46.26-1.02.25-1.48,0l-12.28-7.02c-.47-.27-.76-.76-.76-1.3v-14.21c0-.54.29-1.04.76-1.3l12.28-7.02c.46-.26,1.01-.26,1.47,0l12.28,6.84c.48.26.77.77.77,1.31v30c0,2.66-2.34,4.24-4.61,4.24Zm-3.21-17.67c.26,0,.52.07.76.21.46.27.74.76.74,1.29v11.23c0,.68.18,1.2.53,1.52.29.27.71.42,1.18.42.65,0,1.61-.33,1.61-1.24v-29.12l-10.77-6-10.79,6.17v12.47l10.79,6.17,5.23-2.92c.23-.13.48-.19.73-.19Z"/>
      <path class="cls-1" d="m35.41,77.51c-1.23,0-2.38-.44-3.23-1.23-.68-.63-1.48-1.79-1.48-3.72v-1.3l-3.73,2.09c-.46.26-1.02.25-1.48,0l-12.28-7.02c-.47-.27-.76-.76-.76-1.3v-14.21c0-.54.29-1.04.76-1.3l12.28-7.02c.46-.26,1.01-.26,1.47,0l12.28,6.84c.48.26.77.77.77,1.31v22.63c0,2.66-2.34,4.24-4.61,4.24Zm-1.71-8.9v3.95c0,.68.18,1.2.53,1.52.29.27.71.42,1.18.42.65,0,1.61-.33,1.61-1.24v-21.75l-10.77-6-10.79,6.17v12.47l10.79,6.17,4.84-2.7c.27-.31.67-.5,1.12-.5.83,0,1.5.67,1.5,1.5Z"/>
      <path class="cls-1" d="m55.89,42.65c-.83,0-1.5-.67-1.5-1.5v-8.77c0-.54.29-1.04.77-1.31l7.54-4.21c.72-.4,1.64-.14,2.04.58.4.72.14,1.64-.58,2.04l-6.78,3.78v7.89c0,.83-.67,1.5-1.5,1.5Z"/>
      <path class="cls-1" d="m51.16,31.25c-.26,0-.51-.07-.74-.2l-12.28-7.02c-.47-.27-.76-.76-.76-1.3v-14.21c0-.54.29-1.04.76-1.3L50.41.2c.46-.26,1.03-.26,1.49,0l12.28,7.02c.47.27.76.76.76,1.3v14.21c0,.54-.29,1.04-.76,1.3l-12.28,7.02c-.23.13-.49.2-.74.2Zm-10.78-9.39l10.78,6.16,10.78-6.16v-12.47l-10.78-6.16-10.78,6.16v12.47Z"/>
      <path class="cls-1" d="m43.61,21.42c-.83,0-1.5-.67-1.5-1.5v-8.6c0-.53.28-1.03.75-1.3l7.54-4.39c.72-.42,1.63-.17,2.05.54.42.72.17,1.63-.54,2.05l-6.8,3.95v7.73c0,.83-.67,1.5-1.5,1.5Z"/>
      <path class="cls-1" d="m26.42,31.25c-.26,0-.51-.07-.74-.2l-12.28-7.02c-.47-.27-.76-.76-.76-1.3v-14.21c0-.54.29-1.04.76-1.3L25.67.2c.46-.26,1.03-.26,1.49,0l12.28,7.02c.47.27.76.76.76,1.3v14.21c0,.54-.29,1.04-.76,1.3l-12.28,7.02c-.23.13-.49.2-.74.2Zm-10.78-9.39l10.78,6.16,10.78-6.16v-12.47l-10.78-6.16-10.78,6.16v12.47Z"/>
      <path class="cls-1" d="m18.87,21.42c-.83,0-1.5-.67-1.5-1.5v-8.6c0-.53.28-1.03.75-1.3l7.54-4.39c.72-.42,1.63-.17,2.05.54.42.72.17,1.63-.54,2.05l-6.8,3.95v7.73c0,.83-.67,1.5-1.5,1.5Z"/>
      <path class="cls-1" d="m18.87,63.71c-.83,0-1.5-.67-1.5-1.5v-8.6c0-.53.28-1.03.75-1.3l7.54-4.39c.72-.42,1.63-.17,2.05.54.42.72.17,1.63-.54,2.05l-6.8,3.95v7.73c0,.83-.67,1.5-1.5,1.5Z"/>
      <path class="cls-1" d="m49.26,82.46c-1.24,0-2.39-.44-3.23-1.24-.67-.63-1.46-1.8-1.46-3.74v-7.21l-6.8-3.95c-.46-.27-.75-.76-.75-1.3v-14.21c0-.54.29-1.04.76-1.3l12.28-7.02c.47-.27,1.04-.26,1.5,0l12.28,7.19c.46.27.74.76.74,1.29v22.81c0,3.25-2.32,4.94-4.62,4.94s-4.53-1.64-4.53-4.77v-2.84l-1.52.88c.05,1.21.13,3.47.13,6,0,2.79-2.44,4.46-4.8,4.46Zm-9.24-18.31l6.8,3.95c.46.27.75.76.75,1.3v8.07c0,.71.18,1.23.53,1.57.29.27.7.42,1.17.42.69,0,1.8-.4,1.8-1.46,0-3.6-.17-6.73-.17-6.76-.03-.57.26-1.1.75-1.38l4.56-2.63c.46-.27,1.04-.27,1.5,0,.46.27.75.76.75,1.3v5.44c0,1.3.79,1.77,1.53,1.77.78,0,1.62-.51,1.62-1.94v-21.95l-10.79-6.32-10.77,6.16v12.48Z"/>
      <path class="cls-1" d="m43.26,63.71c-.83,0-1.5-.67-1.5-1.5v-8.6c0-.53.28-1.03.75-1.3l7.54-4.39c.72-.42,1.63-.17,2.05.54.42.72.17,1.63-.54,2.05l-6.8,3.95v7.73c0,.83-.67,1.5-1.5,1.5Z"/>
    </g>
  </g>
</svg>