<?xml version="1.0" encoding="UTF-8" standalone="no"?>
<svg
   version="1.1"
   viewBox="0 0 277.7 453.1"
   id="svg50"
   sodipodi:docname="ThermoDynamic_III.svgz"
   xmlns:inkscape="http://www.inkscape.org/namespaces/inkscape"
   xmlns:sodipodi="http://sodipodi.sourceforge.net/DTD/sodipodi-0.dtd"
   xmlns:xlink="http://www.w3.org/1999/xlink"
   xmlns="http://www.w3.org/2000/svg"
   xmlns:svg="http://www.w3.org/2000/svg">
  <sodipodi:namedview
     id="namedview50"
     pagecolor="#ffffff"
     bordercolor="#000000"
     borderopacity="0.25"
     inkscape:showpageshadow="2"
     inkscape:pageopacity="0.0"
     inkscape:pagecheckerboard="0"
     inkscape:deskcolor="#d1d1d1" />
  <!-- Generator: Adobe Illustrator 29.3.0, SVG Export Plug-In . SVG Version: 2.1.0 Build 146)  -->
  <defs
     id="defs3">
    <style
       id="style1">
      .st0, .st1, .st2, .st3, .st4, .st5, .st6, .st7 {
        stroke-miterlimit: 10;
      }

      .st0, .st1, .st2, .st5, .st7 {
        fill: none;
        stroke-width: 2px;
      }

      .st0, .st5 {
        stroke-dasharray: 40 30;
      }

      .st0, .st7 {
        stroke: #7c7b74;
      }

      .st8 {
        fill: url(#linear-gradient1);
      }

      .st9 {
        fill: #7c7b74;
      }

      .st1 {
        stroke-dasharray: 20 15 0 20 15 0;
      }

      .st1, .st2, .st3, .st4, .st5, .st6 {
        stroke: #fff8ec;
      }

      .st10 {
        fill: #fff8ec;
      }

      .st11 {
        fill: url(#linear-gradient);
      }

      .st3 {
        fill: #bd996c;
      }

      .st3, .st4, .st6 {
        stroke-width: 4px;
      }

      .st12 {
        isolation: isolate;
      }

      .st4 {
        fill: #9d722c;
        mix-blend-mode: lighten;
      }

      .st6 {
        fill: #452315;
        mix-blend-mode: hard-light;
      }

      .st13 {
        fill: #fafafa;
      }
    </style>
    <linearGradient
       id="linear-gradient"
       x1="3747.9"
       y1="7072"
       x2="3756.2"
       y2="7414.7"
       gradientTransform="translate(3610.8 -266.9) rotate(175.2) scale(1 -1)"
       gradientUnits="userSpaceOnUse">
      <stop
         offset=".3"
         stop-color="#e34426"
         id="stop1" />
      <stop
         offset=".6"
         stop-color="#ac827d"
         stop-opacity=".9"
         id="stop2" />
      <stop
         offset="1"
         stop-color="#6dcce3"
         stop-opacity=".8"
         id="stop3" />
    </linearGradient>
    <linearGradient
       id="linear-gradient1"
       x1="3564.2"
       y1="26.6"
       x2="3572.5"
       y2="369.2"
       xlink:href="#linear-gradient" />
  </defs>
  <g
     class="st12"
     id="g50">
    <g
       id="Layer_1">
      <g
         id="g21">
        <g
           id="g20">
          <ellipse
             class="st7"
             cx="490.2"
             cy="7373.5"
             rx="42.1"
             ry="8.3"
             transform="translate(-601.3 64.8) rotate(-4.7)"
             id="ellipse3" />
          <g
             id="g4">
            <path
               class="st11"
               d="M489,7450.3c-21.9,0-40.4-16.5-42.2-37.6l-23.9-300.4c-.9-10.7,2.4-21.1,9.5-29.5,7.4-8.7,17.8-14,29.3-15l4.3-.3c1.2,0,2.4-.2,3.6-.2,21.9,0,40.4,16.5,42.2,37.6l23.9,300.4c.9,10.7-2.4,21.1-9.5,29.5-7.4,8.7-17.8,14-29.3,15l-4.3.4c-1.2,0-2.4.2-3.6.2h0Z"
               id="path3" />
            <path
               class="st10"
               d="M469.6,7069.8c20.5,0,38,15.2,39.7,35.3l23.9,300.4c1.8,21.3-14.5,39.9-36.5,41.8l-4.3.4c-1.2,0-2.3.1-3.4.1-20.5,0-38-15.2-39.7-35.3l-23.9-300.4c-1.8-21.3,14.5-39.9,36.5-41.8l4.3-.4c1.2,0,2.3-.1,3.4-.1M469.6,7064.8c-1.3,0-2.6,0-3.8.2l-4.3.4c-12.2,1-23.3,6.6-31.1,15.9-7.5,8.8-11,19.9-10,31.3l23.9,300.3c1,11,6.1,21.2,14.5,28.6,8.3,7.3,19,11.4,30.2,11.4s2.6,0,3.8-.2l4.3-.4c12.2-1,23.3-6.6,31.1-15.9,7.5-8.8,11-19.9,10-31.3l-23.9-300.3c-1-11-6.1-21.2-14.5-28.6-8.3-7.3-19-11.4-30.2-11.4h0Z"
               id="path4" />
          </g>
          <ellipse
             class="st7"
             cx="467.2"
             cy="7107.3"
             rx="42.1"
             ry="7.5"
             transform="translate(-579.8 62) rotate(-4.7)"
             id="ellipse4" />
          <path
             class="st10"
             d="M518,7315.9c4.1,0,7.8,5.3,8.4,12.1.6,7-2.3,13-6.5,13.4-.1,0-.3,0-.4,0-4.1,0-7.8-5.3-8.4-12.1-.6-7,2.3-13,6.5-13.4.1,0,.3,0,.4,0M518,7310.9c-.3,0-.5,0-.8,0-2.7.2-5.2,1.6-7.2,3.9-3,3.5-4.4,9.1-3.9,14.9.8,9.5,6.6,16.7,13.3,16.7s.5,0,.8,0c2.7-.2,5.2-1.6,7.2-3.9,3-3.5,4.4-9.1,3.9-14.9-.8-9.5-6.6-16.7-13.3-16.7h0Z"
             id="path5" />
          <path
             class="st10"
             d="M599,7315.9c4.1,0,7.8,5.3,8.4,12.1.6,7-2.3,13-6.5,13.4-.1,0-.3,0-.4,0-4.1,0-7.8-5.3-8.4-12.1-.6-7,2.3-13,6.5-13.4.1,0,.3,0,.4,0M599,7310.9c-.3,0-.5,0-.8,0-2.7.2-5.2,1.6-7.2,3.9-3,3.5-4.4,9.1-3.9,14.9.8,9.5,6.6,16.7,13.3,16.7s.5,0,.8,0c2.7-.2,5.2-1.6,7.2-3.9,3-3.5,4.4-9.1,3.9-14.9-.8-9.5-6.6-16.7-13.3-16.7h0Z"
             id="path6" />
          <g
             id="g7">
            <path
               class="st5"
               d="M516.2,7319.5c2.8,8.5,47,6.1,64.6,4.8"
               id="path7" />
            <polygon
               class="st10"
               points="579.7 7329.4 587.9 7323.7 578.9 7319.4 579.7 7329.4"
               id="polygon7" />
          </g>
          <g
             id="g8">
            <path
               class="st5"
               d="M604,7326.2c9-.2,23.2-3.4,31.6-5.5"
               id="path8" />
            <polygon
               class="st10"
               points="635.4 7325.9 642.5 7319 633 7316.2 635.4 7325.9"
               id="polygon8" />
          </g>
          <g
             id="g9">
            <path
               class="st5"
               d="M508.6,7258.3s-.4,26.4,1,39.6"
               id="path9" />
            <polygon
               class="st10"
               points="504.5 7297.3 511 7304.8 514.3 7295.4 504.5 7297.3"
               id="polygon9" />
          </g>
          <g
             id="g10">
            <path
               class="st5"
               d="M497.3,7149c2.3,12.4,4.6,38.1,5.6,50.5"
               id="path10" />
            <polygon
               class="st10"
               points="497.8 7198.5 503.5 7206.7 507.7 7197.6 497.8 7198.5"
               id="polygon10" />
          </g>
          <g
             id="g11">
            <path
               class="st5"
               d="M441.4,7146.6c-4.3-51.5,4.2-58.7,34.3-59,13.3-.1,16.5,19,18.6,29.9"
               id="path11" />
            <polygon
               class="st10"
               points="489.2 7117.4 496.2 7124.5 498.8 7114.9 489.2 7117.4"
               id="polygon11" />
          </g>
          <g
             id="g12">
            <path
               class="st5"
               d="M446.9,7227c-1.2-16.3-2.7-34.1-4.8-53.6"
               id="path12" />
            <polygon
               class="st10"
               points="447.2 7174.4 441.4 7166.3 437.3 7175.4 447.2 7174.4"
               id="polygon12" />
          </g>
          <g
             id="g13">
            <path
               class="st0"
               d="M451.4,7286.8c-1.4-14.3-2.6-30.1-3.7-45.1"
               id="path13" />
            <polygon
               class="st9"
               points="452.9 7242.8 447.2 7234.6 442.9 7243.6 452.9 7242.8"
               id="polygon13" />
          </g>
          <g
             id="g14">
            <path
               class="st5"
               d="M482.7,7369c-.9,0-8.3.9-9.2.9-11.8-.2-11.9-11.6-14.4-23.6-.1-.6-.2-1.1-.3-1.7-.2-.9-.3-1.9-.5-2.9-1-6.1-1.8-13.6-3-22.8"
               id="path14" />
            <polygon
               class="st10"
               points="460.3 7319.8 454.3 7311.9 450.5 7321.1 460.3 7319.8"
               id="polygon14" />
          </g>
          <g
             id="g15">
            <path
               class="st5"
               d="M610.2,7338.5c6.9,1.4,16.3,3.7,19.3,4.8,12,4.5,18.2,10.5,20.4,20.3"
               id="path15" />
            <polygon
               class="st10"
               points="610.7 7343.7 603.2 7337.2 612.6 7333.9 610.7 7343.7"
               id="polygon15" />
          </g>
          <g
             id="g16">
            <path
               class="st5"
               d="M495.1,7365.7c6.4-1.2,10.2-4.1,10.2-13.3,0-9.3,6.6-16.2,27.7-16.4,21.1-.2,18.8,0,18.8,0"
               id="path16" />
            <polygon
               class="st10"
               points="497.1 7370.3 487.9 7366.4 495.9 7360.4 497.1 7370.3"
               id="polygon16" />
          </g>
          <path
             class="st0"
             d="M529.4,7326.7"
             id="path17" />
          <path
             class="st6"
             d="M510.9,7256.3c1.8,20.5-26.1,50.5-50.1,52.4-24,2-26.3-25.1-28-45.6-1.8-20.5-6.8-40.8,17.2-42.8,24-2,59.2,15.5,61,35.9Z"
             id="path18" />
          <g
             id="g19">
            <path
               class="st5"
               d="M569.9,7335.7c15.2-.2,19.5-.4,19.5-.4"
               id="path19" />
            <polygon
               class="st10"
               points="571.5 7340.6 562.8 7335.8 571.3 7330.7 571.5 7340.6"
               id="polygon19" />
          </g>
          <path
             class="st3"
             d="M526,7400.7c19.1-.5,4.6,26.8,0,33.9-13,19.5-42.4,18.2-60.5,7.5-18.1-10.8-25.3-33.6-1.2-32.2,53.8,3.1,40.5-8.6,61.8-9.1Z"
             id="path20" />
        </g>
        <path
           class="st13"
           d="M572.7,7104.3c-.7-2.4-12.2-8.2-5.1-10.7l5.1,3.3c-.4-3,.6-7.1-.2-10-.5-1.7-12.2-10.3-6.7-11.7,2.9-.8,6.9,6,9.3,7.3,1.7.3,10.1-11.2,11.4-5.9.8,3.4-8.1,8.2-9,11.3-.8,2.7.2,6.6-.2,9.5l6-3.7c1.6-.6,2.3,2.3,2.1,3.1-.4,2-7.2,6.2-7.9,8.6-1,3.3.3,8.7-.2,12.3,2.3-2,8.5-5.7,9.7-8.3,1.4-3.2-.7-11,1.4-12.5l2.8-.4.9,7.4c1.6-1.4,6.2-4.9,6.9-6.5,2-4.5-2-11.4,2.8-14.8,4.2-.9,1.5,12.1,2.3,12.9,4.3.5,10-1.7,12.9,2.3.8,4-11.8,1.5-14.8,2.8-1.6.7-5.1,5.3-6.5,6.9,2.3,0,5.7-.5,6.9,1.8,2.3,4.5-9.7,2-12.5,3.3-.6.3-6.4,5.9-7.7,7.1s-2,.8-1.6,2.6h13.4c1,0,5.3-7.2,9.2-7.4,4.5-.2-1.5,6.2-1.8,7.4,3-.4,7.1.6,10-.2,2.4-.7,5.7-6.4,8.1-7.6,1.4-.7,3.8-1.4,3.7.9-.2,3.9-5.4,6.2-7.4,9.3-.3,1.9,11.7,9.9,5.9,11.4-3.4.9-8.2-8.1-11.3-9-2.7-.8-6.6.2-9.5-.2,1.1,1,6.6,7.6,2.3,7.4-4-.2-8.2-7.4-9.2-7.4h-13.4c1.8,1.9,6.4,7.9,8.3,8.8,2.1.9,12.5.9,12.9,1.4v3.7s-7.4,0-7.4,0l6.5,7.8c3.1,1.5,13.9-1.1,14.8,1.8,1.8,5.6-11.9,2.2-12.9,3.2v11.9c0,0-4.6,0-4.6,0v-13.4c0-.5-6.1-6.6-6.9-7.8l-.9,6.5c-6.9,3.6-2.9-8.2-4.7-12-.9-2-6.9-6.5-8.7-8.3l-.8,12.3,8.2,10.3c-3.4,4.2-4.9-2.2-8.3-2.3-2.8,11.4,5.3,12.5,9.2,20.8-4.1,4.8-8.1-6-11.5-6-3.3.6-6.9,8.3-10.1,7.4-5.6-1.4,6.3-10.3,7-11.5,1.8-3.1.6-7.2.9-10.7l-5.1,3.7-2.3-2.3c6.5-7.2,10-11,8.3-21.7-.9-1-9.2,7.4-9.7,8.3-1.7,3.6,1.8,16-4.7,12l-.5-6.5c-1.6,1.8-6.2,4.5-7.3,6.1-2.2,3.5.4,14.5-2.4,15.1-5,1-2.6-12.3-3.2-12.9h-10.5c0-.1-1.5-4.6-1.5-4.6h13.4c.5,0,6.6-6.1,7.8-6.9l-7.4-1.4.4-2.8c1.5-2.1,9.3,0,12.5-1.4,2.2-1,7.2-7.6,9.3-9.7h-13.4l-9.2,8.1-2.2-2.9,4.5-5.2c-3.1.4-7.5-.7-10.4.2-3.6,1.1-8.9,12.9-12.6,6.6l8.2-9.1c-2.6-3.5-9.3-6.4-7.4-11.5,2.8-1.9,9,8.6,12.5,9.2,2.9.5,6.7-.3,9.7,0l-4.6-5.1c3.3-7.2,8.5,4,11.7,4.9,3.3,1,8.7-.3,12.3.2l-7.4-8.8-12.9-1.8c-3.5-4.7,6.5-2.6,6.5-3.7-.8-1.8-5.1-6.7-6.5-7.4-4.5-2-11.4,2-14.7-2.8,2.9-4.1,8.5-1.7,12.9-2.4,1-2.4.3-12.4,2.4-12.9,4.8-1,2.3,7.8,2.2,9.7-.3,6.6,3,7.3,7,11.6,2.7,1.1.8-5.9,1.4-6.5l3.7.4c2.6,3.2-.8,7.7,0,10.9.2.7,6.2,7,7.4,8.3s.8,2,2.6,1.6v-13.4Z"
           id="path21" />
      </g>
      <g
         id="g49">
        <g
           id="g35">
          <g
             id="g23">
            <path
               class="st8"
               d="M80.9,414.2c-21.9,0-40.4-16.5-42.2-37.6L14.8,76.2c-.9-10.7,2.4-21.1,9.5-29.5,7.4-8.7,17.8-14,29.3-15l4.3-.4c1.2,0,2.4-.1,3.6-.1,21.9,0,40.4,16.5,42.2,37.6l23.9,300.4c.9,10.7-2.4,21.1-9.5,29.5-7.4,8.7-17.8,14-29.3,15l-4.3.3c-1.2,0-2.4.2-3.6.2h0Z"
               id="path22" />
            <path
               class="st10"
               d="M61.5,33.8c20.5,0,38,15.2,39.7,35.3l23.9,300.4c1.8,21.3-14.5,39.9-36.5,41.8l-4.3.4c-1.2,0-2.3.1-3.4.1-20.5,0-38-15.2-39.7-35.3L17.3,76c-1.8-21.3,14.5-39.9,36.5-41.8l4.3-.4c1.2,0,2.3-.1,3.4-.1M61.5,28.8c-1.3,0-2.6,0-3.8.2l-4.3.4c-12.2,1-23.3,6.6-31.1,15.9-7.5,8.8-11,19.9-10,31.3l23.9,300.3c1,11,6.1,21.2,14.5,28.6,8.3,7.3,19,11.4,30.2,11.4s2.6,0,3.8-.2l4.3-.4c12.2-1,23.3-6.6,31.1-15.9,7.5-8.8,11-19.9,10-31.3l-23.9-300.3c-1-11-6.1-21.2-14.5-28.6-8.3-7.3-19-11.4-30.2-11.4h0Z"
               id="path23" />
          </g>
          <ellipse
             class="st2"
             cx="59.1"
             cy="71.2"
             rx="42.1"
             ry="7.5"
             transform="translate(-5.6 5.1) rotate(-4.7)"
             id="ellipse23" />
          <path
             class="st10"
             d="M109.9,279.8c4.1,0,7.8,5.3,8.4,12.1.6,7-2.3,13-6.5,13.4-.1,0-.3,0-.4,0-4.1,0-7.8-5.3-8.4-12.1-.6-7,2.3-13,6.5-13.4.1,0,.3,0,.4,0M109.9,274.8c-.3,0-.5,0-.8,0-2.7.2-5.2,1.6-7.2,3.9-3,3.5-4.4,9.1-3.9,14.9.8,9.5,6.6,16.7,13.3,16.7s.5,0,.8,0c2.7-.2,5.2-1.6,7.2-3.9,3-3.5,4.4-9.1,3.9-14.9-.8-9.5-6.6-16.7-13.3-16.7h0Z"
             id="path24" />
          <path
             class="st10"
             d="M191.6,279.8c4.1,0,7.8,5.3,8.4,12.1.6,7-2.3,13-6.5,13.4-.1,0-.3,0-.4,0-4.1,0-7.8-5.3-8.4-12.1-.6-7,2.3-13,6.5-13.4.1,0,.3,0,.4,0M191.6,274.8c-.3,0-.5,0-.8,0-2.7.2-5.2,1.6-7.2,3.9-3,3.5-4.4,9.1-3.9,14.9.8,9.5,6.6,16.7,13.3,16.7s.5,0,.8,0c2.7-.2,5.2-1.6,7.2-3.9,3-3.5,4.4-9.1,3.9-14.9-.8-9.5-6.6-16.7-13.3-16.7h0Z"
             id="path25" />
          <g
             id="g26">
            <path
               class="st5"
               d="M108,283.5c2.9,8.5,50.9,5.8,69.3,4.4"
               id="path26" />
            <polygon
               class="st10"
               points="176.3 292.9 184.5 287.3 175.5 283 176.3 292.9"
               id="polygon26" />
          </g>
          <g
             id="g27">
            <path
               class="st5"
               d="M195.9,290.2c9-.2,23.2-3.4,31.6-5.5"
               id="path27" />
            <polygon
               class="st10"
               points="227.2 289.9 234.4 283 224.9 280.2 227.2 289.9"
               id="polygon27" />
          </g>
          <g
             id="g28">
            <path
               class="st5"
               d="M202.1,302.5c6.9,1.4,16.3,3.7,19.3,4.8,12,4.5,18.2,10.5,20.4,20.3"
               id="path28" />
            <polygon
               class="st10"
               points="202.6 307.7 195 301.2 204.4 297.9 202.6 307.7"
               id="polygon28" />
          </g>
          <path
             class="st5"
             d="M106.1,299.3c16.3.7,7.9.8,29,.5,21.1-.2,8.6.1,8.6.1"
             id="path29" />
          <path
             class="st0"
             d="M121.3,290.7"
             id="path30" />
          <path
             class="st6"
             d="M101.8,210.8c-1,20.5-5.5,69.7-29.3,73.3-33.3,5.1-44.2-86.4-49.1-124.8-2.6-20.4-3.1-58.3,20.9-60.2,24-2,63.2-9.6,57.6,111.7Z"
             id="path31" />
          <g
             id="g32">
            <path
               class="st5"
               d="M161.8,299.7c15.2-.2,19.5-.4,19.5-.4"
               id="path32" />
            <polygon
               class="st10"
               points="163.4 304.6 154.6 299.8 163.2 294.7 163.4 304.6"
               id="polygon32" />
          </g>
          <path
             class="st3"
             d="M117.9,364.7c19.1-.5,4.6,26.8,0,33.9-13,19.5-42.4,18.2-60.5,7.5-18.1-10.8-25.3-33.6-1.2-32.2,53.8,3.1,40.5-8.6,61.8-9.1Z"
             id="path33" />
          <g
             id="g34">
            <path
               class="st1"
               d="M99.1,296.7c-50,2.7-76.8-34.7-55.8-40.5,21-5.8,87.2-20.6,55.8-27.7-31.3-7.1-60.8-2.9-63.2-18.4-2.4-15.5,69.7-10.1,66.4-25.8-3.4-15.7-83.8-13.6-72.4-27,11.3-13.4,71.3-14,71.1-23.9-.3-19.5-68.7-21-72.9-28.5-5.6-9.8,46.6-4.6,59.3-11.8,12.7-7.2,2-21.6-28.2-21.8,0,0-46.3-.9-35,12.1s79.1,7,69.6,21.5c-9.5,14.5-64.6,15.7-64.2,28.7.4,13,66,13.7,66.9,24.6.9,10.9-69.1,18-65.5,26.8,3.6,8.8,77.1,13.5,73.4,27-3.7,13.5-68.3,27.1-65.4,41.3,2.3,11.5,18,25.1,48.7,24.8"
               id="path34" />
            <polygon
               class="st10"
               points="86.1 283.1 94.6 277.8 85.8 273.1 86.1 283.1"
               id="polygon34" />
          </g>
          <ellipse
             class="st2"
             cx="82.1"
             cy="356.8"
             rx="42.1"
             ry="8.3"
             transform="translate(-28.9 7.9) rotate(-4.7)"
             id="ellipse34" />
          <path
             class="st4"
             d="M88.7,203.7c-1.1,9.7-5.3,32.9-22.6,35.2-24.1,3.2-30.2-39.5-33.1-57.4-1.5-9.5-1.1-27.3,16.3-28.8,17.4-1.5,45.9-6.1,39.4,51.1Z"
             id="path35" />
        </g>
        <g
           id="g48">
          <path
             class="st13"
             d="M187.4,57.7c41.9-5.7,47,56.4,8.9,60.6-41.1,4.6-46.8-55.5-8.9-60.6ZM188.3,63.3c-32,4.6-25.6,53.6,7.1,49.5,31.9-4,26.2-54.3-7.1-49.5Z"
             id="path36" />
          <path
             class="st13"
             d="M215.5,41.1c1.8-1.7,4.6-1,5.2,1.3.4,1.6-5.5,13.1-8.5,12.2-4.5-1.4,1.7-11.9,3.3-13.5Z"
             id="path37" />
          <path
             class="st13"
             d="M215.5,134.8c-1.6-1.6-7.9-12.2-3.3-13.5,3.1-.9,9,10.6,8.5,12.2-.6,2.3-3.4,3-5.2,1.3Z"
             id="path38" />
          <path
             class="st13"
             d="M231.9,90.7v-5.5h13.4c1.8,0,1.8,5.5,0,5.5h-13.4Z"
             id="path39" />
          <path
             class="st13"
             d="M154.1,106.6c1.2-.3,2.7-.4,3.5.7,3,4.3-11.1,11.2-13,8.4v-3.8c.3-.5,8.8-5.2,9.5-5.4Z"
             id="path40" />
          <path
             class="st13"
             d="M170.6,121.3c7.1-1.2-1.7,15.9-5.6,14.7-4.7-1.4,3-13.4,5.6-14.7Z"
             id="path41" />
          <path
             class="st13"
             d="M165,39.9c3.3-1,8.4,9.5,8.6,12.3l-2.3,2.4c-2.6.4-10.9-13.3-6.3-14.7Z"
             id="path42" />
          <path
             class="st13"
             d="M145.7,59.4c1.9-.6,15.1,5,11.9,9.2-1.5,2.6-11.7-3.3-12.5-4.2-1.4-1.5-1.5-4.4.6-5Z"
             id="path43" />
          <path
             class="st13"
             d="M235.4,59.5c2.3-.6,5.7,1.2,4.4,3.5-1.4,2.7-16.2,10.4-14.3,3.3.3-1.2,8.4-6.5,9.8-6.9Z"
             id="path44" />
          <path
             class="st13"
             d="M227,106.5c2.7-.8,12.3,4.5,13.2,7.7-1.2,7.1-20-5.6-13.2-7.7Z"
             id="path45" />
          <path
             class="st13"
             d="M189.4,127.7l3.7-.5c2.7,1.2,2.4,13.1,1.5,14.4s-5.1.7-5.1-.5v-13.4Z"
             id="path46" />
          <path
             class="st13"
             d="M189.4,48.3v-13.4c0-1.2,3.9-2.3,5.1-.5s2,18-5.1,13.9Z"
             id="path47" />
          <path
             class="st13"
             d="M139.3,85.4c1.9-.6,11.9-.6,12.8.7l.3,3.2c-.7,2.1-11.1,1.9-13.1,1.3-3.1-.9-3.2-4.2,0-5.2Z"
             id="path48" />
        </g>
      </g>
    </g>
  </g>
</svg>
