<?xml version="1.0" encoding="UTF-8" standalone="no"?>
<svg
   version="1.1"
   viewBox="0 0 277.7 453.1"
   id="svg41"
   sodipodi:docname="ThermoDynamic (1).svgz"
   xmlns:inkscape="http://www.inkscape.org/namespaces/inkscape"
   xmlns:sodipodi="http://sodipodi.sourceforge.net/DTD/sodipodi-0.dtd"
   xmlns:xlink="http://www.w3.org/1999/xlink"
   xmlns="http://www.w3.org/2000/svg"
   xmlns:svg="http://www.w3.org/2000/svg">
  <sodipodi:namedview
     id="namedview41"
     pagecolor="#ffffff"
     bordercolor="#000000"
     borderopacity="0.25"
     inkscape:showpageshadow="2"
     inkscape:pageopacity="0.0"
     inkscape:pagecheckerboard="0"
     inkscape:deskcolor="#d1d1d1" />
  <!-- Generator: Adobe Illustrator 29.3.0, SVG Export Plug-In . SVG Version: 2.1.0 Build 146)  -->
  <defs
     id="defs3">
    <style
       id="style1">
      .st0, .st1, .st2, .st3, .st4 {
        stroke-miterlimit: 10;
      }

      .st0, .st2 {
        stroke-dasharray: 40 30;
      }

      .st0, .st2, .st4 {
        fill: none;
        stroke-width: 2px;
      }

      .st0, .st4 {
        stroke: #7c7b74;
      }

      .st5 {
        fill: url(#linear-gradient1);
      }

      .st6 {
        fill: #7c7b74;
      }

      .st7 {
        fill: #fff8ec;
      }

      .st8 {
        fill: url(#linear-gradient);
      }

      .st1 {
        fill: #bd996c;
      }

      .st1, .st2, .st3 {
        stroke: #fff8ec;
      }

      .st1, .st3 {
        stroke-width: 4px;
      }

      .st9 {
        isolation: isolate;
      }

      .st3 {
        fill: #452315;
        mix-blend-mode: hard-light;
      }

      .st10 {
        fill: #fafafa;
      }
    </style>
    <linearGradient
       id="linear-gradient"
       x1="3747.9"
       y1="7072"
       x2="3756.2"
       y2="7414.7"
       gradientTransform="translate(3610.8 -266.9) rotate(175.2) scale(1 -1)"
       gradientUnits="userSpaceOnUse">
      <stop
         offset=".3"
         stop-color="#e34426"
         id="stop1" />
      <stop
         offset=".6"
         stop-color="#ac827d"
         stop-opacity=".9"
         id="stop2" />
      <stop
         offset="1"
         stop-color="#6dcce3"
         stop-opacity=".8"
         id="stop3" />
    </linearGradient>
    <linearGradient
       id="linear-gradient1"
       x1="3549.6"
       y1="40"
       x2="3557.9"
       y2="382.6"
       xlink:href="#linear-gradient" />
  </defs>
  <g
     class="st9"
     id="g41">
    <g
       id="Layer_1">
      <g
         id="g21">
        <g
           id="g20">
          <ellipse
             class="st4"
             cx="490.2"
             cy="7373.5"
             rx="42.1"
             ry="8.3"
             transform="translate(-601.3 64.8) rotate(-4.7)"
             id="ellipse3" />
          <g
             id="g4">
            <path
               class="st8"
               d="M489,7450.3c-21.9,0-40.4-16.5-42.2-37.6l-23.9-300.4c-.9-10.7,2.4-21.1,9.5-29.5,7.4-8.7,17.8-14,29.3-15l4.3-.3c1.2,0,2.4-.2,3.6-.2,21.9,0,40.4,16.5,42.2,37.6l23.9,300.4c.9,10.7-2.4,21.1-9.5,29.5-7.4,8.7-17.8,14-29.3,15l-4.3.4c-1.2,0-2.4.2-3.6.2h0Z"
               id="path3" />
            <path
               class="st7"
               d="M469.6,7069.8c20.5,0,38,15.2,39.7,35.3l23.9,300.4c1.8,21.3-14.5,39.9-36.5,41.8l-4.3.4c-1.2,0-2.3.1-3.4.1-20.5,0-38-15.2-39.7-35.3l-23.9-300.4c-1.8-21.3,14.5-39.9,36.5-41.8l4.3-.4c1.2,0,2.3-.1,3.4-.1M469.6,7064.8c-1.3,0-2.6,0-3.8.2l-4.3.4c-12.2,1-23.3,6.6-31.1,15.9-7.5,8.8-11,19.9-10,31.3l23.9,300.3c1,11,6.1,21.2,14.5,28.6,8.3,7.3,19,11.4,30.2,11.4s2.6,0,3.8-.2l4.3-.4c12.2-1,23.3-6.6,31.1-15.9,7.5-8.8,11-19.9,10-31.3l-23.9-300.3c-1-11-6.1-21.2-14.5-28.6-8.3-7.3-19-11.4-30.2-11.4h0Z"
               id="path4" />
          </g>
          <ellipse
             class="st4"
             cx="467.2"
             cy="7107.3"
             rx="42.1"
             ry="7.5"
             transform="translate(-579.8 62) rotate(-4.7)"
             id="ellipse4" />
          <path
             class="st7"
             d="M518,7315.9c4.1,0,7.8,5.3,8.4,12.1.6,7-2.3,13-6.5,13.4-.1,0-.3,0-.4,0-4.1,0-7.8-5.3-8.4-12.1-.6-7,2.3-13,6.5-13.4.1,0,.3,0,.4,0M518,7310.9c-.3,0-.5,0-.8,0-2.7.2-5.2,1.6-7.2,3.9-3,3.5-4.4,9.1-3.9,14.9.8,9.5,6.6,16.7,13.3,16.7s.5,0,.8,0c2.7-.2,5.2-1.6,7.2-3.9,3-3.5,4.4-9.1,3.9-14.9-.8-9.5-6.6-16.7-13.3-16.7h0Z"
             id="path5" />
          <path
             class="st7"
             d="M599,7315.9c4.1,0,7.8,5.3,8.4,12.1.6,7-2.3,13-6.5,13.4-.1,0-.3,0-.4,0-4.1,0-7.8-5.3-8.4-12.1-.6-7,2.3-13,6.5-13.4.1,0,.3,0,.4,0M599,7310.9c-.3,0-.5,0-.8,0-2.7.2-5.2,1.6-7.2,3.9-3,3.5-4.4,9.1-3.9,14.9.8,9.5,6.6,16.7,13.3,16.7s.5,0,.8,0c2.7-.2,5.2-1.6,7.2-3.9,3-3.5,4.4-9.1,3.9-14.9-.8-9.5-6.6-16.7-13.3-16.7h0Z"
             id="path6" />
          <g
             id="g7">
            <path
               class="st2"
               d="M516.2,7319.5c2.8,8.5,47,6.1,64.6,4.8"
               id="path7" />
            <polygon
               class="st7"
               points="579.7 7329.4 587.9 7323.7 578.9 7319.4 579.7 7329.4"
               id="polygon7" />
          </g>
          <g
             id="g8">
            <path
               class="st2"
               d="M604,7326.2c9-.2,23.2-3.4,31.6-5.5"
               id="path8" />
            <polygon
               class="st7"
               points="635.4 7325.9 642.5 7319 633 7316.2 635.4 7325.9"
               id="polygon8" />
          </g>
          <g
             id="g9">
            <path
               class="st2"
               d="M508.6,7258.3s-.4,26.4,1,39.6"
               id="path9" />
            <polygon
               class="st7"
               points="504.5 7297.3 511 7304.8 514.3 7295.4 504.5 7297.3"
               id="polygon9" />
          </g>
          <g
             id="g10">
            <path
               class="st2"
               d="M497.3,7149c2.3,12.4,4.6,38.1,5.6,50.5"
               id="path10" />
            <polygon
               class="st7"
               points="497.8 7198.5 503.5 7206.7 507.7 7197.6 497.8 7198.5"
               id="polygon10" />
          </g>
          <g
             id="g11">
            <path
               class="st2"
               d="M441.4,7146.6c-4.3-51.5,4.2-58.7,34.3-59,13.3-.1,16.5,19,18.6,29.9"
               id="path11" />
            <polygon
               class="st7"
               points="489.2 7117.4 496.2 7124.5 498.8 7114.9 489.2 7117.4"
               id="polygon11" />
          </g>
          <g
             id="g12">
            <path
               class="st2"
               d="M446.9,7227c-1.2-16.3-2.7-34.1-4.8-53.6"
               id="path12" />
            <polygon
               class="st7"
               points="447.2 7174.4 441.4 7166.3 437.3 7175.4 447.2 7174.4"
               id="polygon12" />
          </g>
          <g
             id="g13">
            <path
               class="st0"
               d="M451.4,7286.8c-1.4-14.3-2.6-30.1-3.7-45.1"
               id="path13" />
            <polygon
               class="st6"
               points="452.9 7242.8 447.2 7234.6 442.9 7243.6 452.9 7242.8"
               id="polygon13" />
          </g>
          <g
             id="g14">
            <path
               class="st2"
               d="M482.7,7369c-.9,0-8.3.9-9.2.9-11.8-.2-11.9-11.6-14.4-23.6-.1-.6-.2-1.1-.3-1.7-.2-.9-.3-1.9-.5-2.9-1-6.1-1.8-13.6-3-22.8"
               id="path14" />
            <polygon
               class="st7"
               points="460.3 7319.8 454.3 7311.9 450.5 7321.1 460.3 7319.8"
               id="polygon14" />
          </g>
          <g
             id="g15">
            <path
               class="st2"
               d="M610.2,7338.5c6.9,1.4,16.3,3.7,19.3,4.8,12,4.5,18.2,10.5,20.4,20.3"
               id="path15" />
            <polygon
               class="st7"
               points="610.7 7343.7 603.2 7337.2 612.6 7333.9 610.7 7343.7"
               id="polygon15" />
          </g>
          <g
             id="g16">
            <path
               class="st2"
               d="M495.1,7365.7c6.4-1.2,10.2-4.1,10.2-13.3,0-9.3,6.6-16.2,27.7-16.4,21.1-.2,18.8,0,18.8,0"
               id="path16" />
            <polygon
               class="st7"
               points="497.1 7370.3 487.9 7366.4 495.9 7360.4 497.1 7370.3"
               id="polygon16" />
          </g>
          <path
             class="st0"
             d="M529.4,7326.7"
             id="path17" />
          <path
             class="st3"
             d="M510.9,7256.3c1.8,20.5-26.1,50.5-50.1,52.4-24,2-26.3-25.1-28-45.6-1.8-20.5-6.8-40.8,17.2-42.8,24-2,59.2,15.5,61,35.9Z"
             id="path18" />
          <g
             id="g19">
            <path
               class="st2"
               d="M569.9,7335.7c15.2-.2,19.5-.4,19.5-.4"
               id="path19" />
            <polygon
               class="st7"
               points="571.5 7340.6 562.8 7335.8 571.3 7330.7 571.5 7340.6"
               id="polygon19" />
          </g>
          <path
             class="st1"
             d="M526,7400.7c19.1-.5,4.6,26.8,0,33.9-13,19.5-42.4,18.2-60.5,7.5-18.1-10.8-25.3-33.6-1.2-32.2,53.8,3.1,40.5-8.6,61.8-9.1Z"
             id="path20" />
        </g>
        <path
           class="st10"
           d="M572.7,7104.3c-.7-2.4-12.2-8.2-5.1-10.7l5.1,3.3c-.4-3,.6-7.1-.2-10-.5-1.7-12.2-10.3-6.7-11.7,2.9-.8,6.9,6,9.3,7.3,1.7.3,10.1-11.2,11.4-5.9.8,3.4-8.1,8.2-9,11.3-.8,2.7.2,6.6-.2,9.5l6-3.7c1.6-.6,2.3,2.3,2.1,3.1-.4,2-7.2,6.2-7.9,8.6-1,3.3.3,8.7-.2,12.3,2.3-2,8.5-5.7,9.7-8.3,1.4-3.2-.7-11,1.4-12.5l2.8-.4.9,7.4c1.6-1.4,6.2-4.9,6.9-6.5,2-4.5-2-11.4,2.8-14.8,4.2-.9,1.5,12.1,2.3,12.9,4.3.5,10-1.7,12.9,2.3.8,4-11.8,1.5-14.8,2.8-1.6.7-5.1,5.3-6.5,6.9,2.3,0,5.7-.5,6.9,1.8,2.3,4.5-9.7,2-12.5,3.3-.6.3-6.4,5.9-7.7,7.1s-2,.8-1.6,2.6h13.4c1,0,5.3-7.2,9.2-7.4,4.5-.2-1.5,6.2-1.8,7.4,3-.4,7.1.6,10-.2,2.4-.7,5.7-6.4,8.1-7.6,1.4-.7,3.8-1.4,3.7.9-.2,3.9-5.4,6.2-7.4,9.3-.3,1.9,11.7,9.9,5.9,11.4-3.4.9-8.2-8.1-11.3-9-2.7-.8-6.6.2-9.5-.2,1.1,1,6.6,7.6,2.3,7.4-4-.2-8.2-7.4-9.2-7.4h-13.4c1.8,1.9,6.4,7.9,8.3,8.8,2.1.9,12.5.9,12.9,1.4v3.7s-7.4,0-7.4,0l6.5,7.8c3.1,1.5,13.9-1.1,14.8,1.8,1.8,5.6-11.9,2.2-12.9,3.2v11.9c0,0-4.6,0-4.6,0v-13.4c0-.5-6.1-6.6-6.9-7.8l-.9,6.5c-6.9,3.6-2.9-8.2-4.7-12-.9-2-6.9-6.5-8.7-8.3l-.8,12.3,8.2,10.3c-3.4,4.2-4.9-2.2-8.3-2.3-2.8,11.4,5.3,12.5,9.2,20.8-4.1,4.8-8.1-6-11.5-6-3.3.6-6.9,8.3-10.1,7.4-5.6-1.4,6.3-10.3,7-11.5,1.8-3.1.6-7.2.9-10.7l-5.1,3.7-2.3-2.3c6.5-7.2,10-11,8.3-21.7-.9-1-9.2,7.4-9.7,8.3-1.7,3.6,1.8,16-4.7,12l-.5-6.5c-1.6,1.8-6.2,4.5-7.3,6.1-2.2,3.5.4,14.5-2.4,15.1-5,1-2.6-12.3-3.2-12.9h-10.5c0-.1-1.5-4.6-1.5-4.6h13.4c.5,0,6.6-6.1,7.8-6.9l-7.4-1.4.4-2.8c1.5-2.1,9.3,0,12.5-1.4,2.2-1,7.2-7.6,9.3-9.7h-13.4l-9.2,8.1-2.2-2.9,4.5-5.2c-3.1.4-7.5-.7-10.4.2-3.6,1.1-8.9,12.9-12.6,6.6l8.2-9.1c-2.6-3.5-9.3-6.4-7.4-11.5,2.8-1.9,9,8.6,12.5,9.2,2.9.5,6.7-.3,9.7,0l-4.6-5.1c3.3-7.2,8.5,4,11.7,4.9,3.3,1,8.7-.3,12.3.2l-7.4-8.8-12.9-1.8c-3.5-4.7,6.5-2.6,6.5-3.7-.8-1.8-5.1-6.7-6.5-7.4-4.5-2-11.4,2-14.7-2.8,2.9-4.1,8.5-1.7,12.9-2.4,1-2.4.3-12.4,2.4-12.9,4.8-1,2.3,7.8,2.2,9.7-.3,6.6,3,7.3,7,11.6,2.7,1.1.8-5.9,1.4-6.5l3.7.4c2.6,3.2-.8,7.7,0,10.9.2.7,6.2,7,7.4,8.3s.8,2,2.6,1.6v-13.4Z"
           id="path21" />
      </g>
      <g
         id="g40">
        <g
           id="g39">
          <ellipse
             class="st4"
             cx="97.8"
             cy="349.7"
             rx="42.1"
             ry="8.3"
             transform="translate(-28.3 9.2) rotate(-4.7)"
             id="ellipse21" />
          <g
             id="g23">
            <path
               class="st5"
               d="M96.6,426.4c-21.9,0-40.4-16.5-42.2-37.6L30.5,88.4c-.9-10.7,2.4-21.1,9.5-29.5,7.4-8.7,17.8-14,29.3-15l4.3-.4c1.2,0,2.4-.1,3.6-.1,21.9,0,40.4,16.5,42.2,37.6l23.9,300.4c.9,10.7-2.4,21.1-9.5,29.5-7.4,8.7-17.8,14-29.3,15l-4.3.4c-1.2,0-2.4.2-3.6.2h0Z"
               id="path22" />
            <path
               class="st7"
               d="M77.2,45.9c20.5,0,38,15.2,39.7,35.3l23.9,300.4c1.8,21.3-14.5,39.9-36.5,41.8l-4.3.4c-1.2,0-2.3.1-3.4.1-20.5,0-38-15.2-39.7-35.3L33,88.2c-1.8-21.3,14.5-39.9,36.5-41.8l4.3-.4c1.2,0,2.3-.1,3.4-.1M77.2,40.9c-1.3,0-2.6,0-3.8.2l-4.3.4c-12.2,1-23.3,6.6-31.1,15.9-7.5,8.8-11,19.9-10,31.3l23.9,300.3c1,11,6.1,21.2,14.5,28.6,8.3,7.3,19,11.4,30.2,11.4s2.6,0,3.8-.2l4.3-.4c12.2-1,23.3-6.6,31.1-15.9,7.5-8.8,11-19.9,10-31.3l-23.9-300.3c-1-11-6.1-21.2-14.5-28.6-8.3-7.3-19-11.4-30.2-11.4h0Z"
               id="path23" />
          </g>
          <ellipse
             class="st4"
             cx="74.8"
             cy="83.4"
             rx="42.1"
             ry="7.5"
             transform="translate(-6.6 6.4) rotate(-4.7)"
             id="ellipse23" />
          <path
             class="st7"
             d="M125.6,292c4.1,0,7.8,5.3,8.4,12.1.6,7-2.3,13-6.5,13.4-.1,0-.3,0-.4,0-4.1,0-7.8-5.3-8.4-12.1-.6-7,2.3-13,6.5-13.4.1,0,.3,0,.4,0M125.6,287c-.3,0-.5,0-.8,0-2.7.2-5.2,1.6-7.2,3.9-3,3.5-4.4,9.1-3.9,14.9.8,9.5,6.6,16.7,13.3,16.7s.5,0,.8,0c2.7-.2,5.2-1.6,7.2-3.9,3-3.5,4.4-9.1,3.9-14.9-.8-9.5-6.6-16.7-13.3-16.7h0Z"
             id="path24" />
          <path
             class="st7"
             d="M206.6,292c4.1,0,7.8,5.3,8.4,12.1.6,7-2.3,13-6.5,13.4-.1,0-.3,0-.4,0-4.1,0-7.8-5.3-8.4-12.1-.6-7,2.3-13,6.5-13.4.1,0,.3,0,.4,0M206.6,287c-.3,0-.5,0-.8,0-2.7.2-5.2,1.6-7.2,3.9-3,3.5-4.4,9.1-3.9,14.9.8,9.5,6.6,16.7,13.3,16.7s.5,0,.8,0c2.7-.2,5.2-1.6,7.2-3.9,3-3.5,4.4-9.1,3.9-14.9-.8-9.5-6.6-16.7-13.3-16.7h0Z"
             id="path25" />
          <g
             id="g26">
            <path
               class="st2"
               d="M123.8,295.6c2.8,8.5,47,6.1,64.6,4.8"
               id="path26" />
            <polygon
               class="st7"
               points="187.3 305.5 195.5 299.9 186.5 295.5 187.3 305.5"
               id="polygon26" />
          </g>
          <g
             id="g27">
            <path
               class="st2"
               d="M211.6,302.4c9-.2,23.2-3.4,31.6-5.5"
               id="path27" />
            <polygon
               class="st7"
               points="243 302 250.1 295.1 240.6 292.3 243 302"
               id="polygon27" />
          </g>
          <g
             id="g28">
            <path
               class="st2"
               d="M116.2,234.4s-.4,26.4,1,39.6"
               id="path28" />
            <polygon
               class="st7"
               points="112.1 273.4 118.6 281 121.9 271.5 112.1 273.4"
               id="polygon28" />
          </g>
          <g
             id="g29">
            <path
               class="st2"
               d="M104.9,125.1c2.3,12.4,4.6,38.1,5.6,50.5"
               id="path29" />
            <polygon
               class="st7"
               points="105.4 174.6 111.1 182.8 115.3 173.8 105.4 174.6"
               id="polygon29" />
          </g>
          <g
             id="g30">
            <path
               class="st2"
               d="M49,122.7c-4.3-51.5,4.2-58.7,34.3-59,13.3-.1,16.5,19,18.6,29.9"
               id="path30" />
            <polygon
               class="st7"
               points="96.8 93.5 103.8 100.6 106.4 91 96.8 93.5"
               id="polygon30" />
          </g>
          <g
             id="g31">
            <path
               class="st2"
               d="M54.5,203.2c-1.2-16.3-2.7-34.1-4.8-53.6"
               id="path31" />
            <polygon
               class="st7"
               points="54.8 150.6 49 142.5 44.9 151.6 54.8 150.6"
               id="polygon31" />
          </g>
          <g
             id="g32">
            <path
               class="st0"
               d="M59,262.9c-1.4-14.3-2.6-30.1-3.7-45.1"
               id="path32" />
            <polygon
               class="st6"
               points="60.5 218.9 54.8 210.7 50.5 219.7 60.5 218.9"
               id="polygon32" />
          </g>
          <g
             id="g33">
            <path
               class="st2"
               d="M90.3,345.2c-.9,0-8.3.9-9.2.9-11.8-.2-11.9-11.6-14.4-23.6-.1-.6-.2-1.1-.3-1.7-.2-.9-.3-1.9-.5-2.9-1-6.1-1.8-13.6-3-22.8"
               id="path33" />
            <polygon
               class="st7"
               points="67.9 295.9 61.9 288 58 297.2 67.9 295.9"
               id="polygon33" />
          </g>
          <g
             id="g34">
            <path
               class="st2"
               d="M217.8,314.6c6.9,1.4,16.3,3.7,19.3,4.8,12,4.5,18.2,10.5,20.4,20.3"
               id="path34" />
            <polygon
               class="st7"
               points="218.3 319.8 210.8 313.4 220.2 310 218.3 319.8"
               id="polygon34" />
          </g>
          <g
             id="g35">
            <path
               class="st2"
               d="M102.7,341.8c6.4-1.2,10.2-4.1,10.2-13.3,0-9.3,6.6-16.2,27.7-16.4,21.1-.2,18.8,0,18.8,0"
               id="path35" />
            <polygon
               class="st7"
               points="104.7 346.5 95.5 342.6 103.5 336.6 104.7 346.5"
               id="polygon35" />
          </g>
          <path
             class="st0"
             d="M137,302.8"
             id="path36" />
          <path
             class="st3"
             d="M118.5,232.5c1.8,20.5-26.1,50.5-50.1,52.4s-26.3-25.1-28-45.6c-1.8-20.5-6.8-40.8,17.2-42.8,24-2,59.2,15.5,61,35.9Z"
             id="path37" />
          <g
             id="g38">
            <path
               class="st2"
               d="M177.5,311.9c15.2-.2,19.5-.4,19.5-.4"
               id="path38" />
            <polygon
               class="st7"
               points="179.1 316.8 170.4 311.9 178.9 306.8 179.1 316.8"
               id="polygon38" />
          </g>
          <path
             class="st1"
             d="M133.6,376.9c19.1-.5,4.6,26.8,0,33.9-13,19.5-42.4,18.2-60.5,7.5-18.1-10.8-25.3-33.6-1.2-32.2,53.8,3.1,40.5-8.6,61.8-9.1Z"
             id="path39" />
        </g>
        <path
           class="st10"
           d="M180.3,80.4c-.7-2.4-12.2-8.2-5.1-10.7l5.1,3.3c-.4-3,.6-7.1-.2-10-.5-1.7-12.2-10.3-6.7-11.7,2.9-.8,6.9,6,9.3,7.3,1.7.3,10.1-11.2,11.4-5.9.8,3.4-8.1,8.2-9,11.3-.8,2.7.2,6.6-.2,9.5l6-3.7c1.6-.6,2.3,2.3,2.1,3.1-.4,2-7.2,6.2-7.9,8.6s.3,8.7-.2,12.3c2.3-2,8.5-5.7,9.7-8.3,1.4-3.2-.7-11,1.4-12.5l2.8-.4.9,7.4c1.6-1.4,6.2-4.9,6.9-6.5,2-4.5-2-11.4,2.8-14.8,4.2-.9,1.5,12.1,2.3,12.9,4.3.5,10-1.7,12.9,2.3.8,4-11.8,1.5-14.8,2.8-1.6.7-5.1,5.3-6.5,6.9,2.3,0,5.7-.5,6.9,1.8,2.3,4.5-9.7,2-12.5,3.3-.6.3-6.4,5.9-7.7,7.1s-2,.8-1.6,2.6h13.4c1,0,5.3-7.2,9.2-7.4,4.5-.2-1.5,6.2-1.8,7.4,3-.4,7.1.6,10-.2,2.4-.7,5.7-6.4,8.1-7.6,1.4-.7,3.8-1.4,3.7.9-.2,3.9-5.4,6.2-7.4,9.3-.3,1.9,11.7,9.9,5.9,11.4-3.4.9-8.2-8.1-11.3-9-2.7-.8-6.6.2-9.5-.2,1.1,1,6.6,7.6,2.3,7.4-4-.2-8.2-7.4-9.2-7.4h-13.4c1.8,1.9,6.4,7.9,8.3,8.8,2.1.9,12.5.9,12.9,1.4v3.7s-7.4,0-7.4,0l6.5,7.8c3.1,1.5,13.9-1.1,14.8,1.8,1.8,5.6-11.9,2.2-12.9,3.2v11.9c0,0-4.6,0-4.6,0v-13.4c0-.5-6.1-6.6-6.9-7.8l-.9,6.5c-6.9,3.6-2.9-8.2-4.7-12-.9-2-6.9-6.5-8.7-8.3l-.8,12.3,8.2,10.3c-3.4,4.2-4.9-2.2-8.3-2.3-2.8,11.4,5.3,12.5,9.2,20.8-4.1,4.8-8.1-6-11.5-6-3.3.6-6.9,8.3-10.1,7.4-5.6-1.4,6.3-10.3,7-11.5,1.8-3.1.6-7.2.9-10.7l-5.1,3.7-2.3-2.3c6.5-7.2,10-11,8.3-21.7-.9-1-9.2,7.4-9.7,8.3-1.7,3.6,1.8,16-4.7,12l-.5-6.5c-1.6,1.8-6.2,4.5-7.3,6.1-2.2,3.5.4,14.5-2.4,15.1-5,1-2.6-12.3-3.2-12.9h-10.5c0-.1-1.5-4.6-1.5-4.6h13.4c.5,0,6.6-6.1,7.8-6.9l-7.4-1.4.4-2.8c1.5-2.1,9.3,0,12.5-1.4,2.2-1,7.2-7.6,9.3-9.7h-13.4l-9.2,8.1-2.2-2.9,4.5-5.2c-3.1.4-7.5-.7-10.4.2-3.6,1.1-8.9,12.9-12.6,6.6l8.2-9.1c-2.6-3.5-9.3-6.4-7.4-11.5,2.8-1.9,9,8.6,12.5,9.2,2.9.5,6.7-.3,9.7,0l-4.6-5.1c3.3-7.2,8.5,4,11.7,4.9,3.3,1,8.7-.3,12.3.2l-7.4-8.8-12.9-1.8c-3.5-4.7,6.5-2.6,6.5-3.7-.8-1.8-5.1-6.7-6.5-7.4-4.5-2-11.4,2-14.7-2.8,2.9-4.1,8.5-1.7,12.9-2.4,1-2.4.3-12.4,2.4-12.9,4.8-1,2.3,7.8,2.2,9.7-.3,6.6,3,7.3,7,11.6,2.7,1.1.8-5.9,1.4-6.5l3.7.4c2.6,3.2-.8,7.7,0,10.9.2.7,6.2,7,7.4,8.3s.8,2,2.6,1.6v-13.4Z"
           id="path40" />
      </g>
    </g>
  </g>
</svg>
