<?xml version="1.0" encoding="UTF-8" standalone="no"?>
<svg
   version="1.1"
   viewBox="0 0 277.7 453.1"
   id="svg52"
   sodipodi:docname="ThermoDynamic_II.svgz"
   xmlns:inkscape="http://www.inkscape.org/namespaces/inkscape"
   xmlns:sodipodi="http://sodipodi.sourceforge.net/DTD/sodipodi-0.dtd"
   xmlns="http://www.w3.org/2000/svg"
   xmlns:svg="http://www.w3.org/2000/svg">
  <sodipodi:namedview
     id="namedview52"
     pagecolor="#ffffff"
     bordercolor="#000000"
     borderopacity="0.25"
     inkscape:showpageshadow="2"
     inkscape:pageopacity="0.0"
     inkscape:pagecheckerboard="0"
     inkscape:deskcolor="#d1d1d1" />
  <!-- Generator: Adobe Illustrator 29.3.0, SVG Export Plug-In . SVG Version: 2.1.0 Build 146)  -->
  <defs
     id="defs6">
    <style
       id="style1">
      .st0, .st1, .st2, .st3, .st4 {
        fill: none;
      }

      .st5 {
        fill: #bd996c;
      }

      .st5, .st6, .st1, .st7, .st8, .st4, .st9 {
        stroke: #fff8ec;
      }

      .st5, .st6, .st7, .st8, .st9 {
        stroke-width: 4px;
      }

      .st5, .st2, .st8, .st4, .st9 {
        stroke-miterlimit: 10;
      }

      .st6, .st10, .st7, .st8, .st9 {
        isolation: isolate;
      }

      .st6, .st7 {
        stroke-linecap: round;
        stroke-linejoin: round;
      }

      .st6, .st8 {
        fill: #9d722c;
        mix-blend-mode: lighten;
      }

      .st1, .st3 {
        stroke-miterlimit: 10;
        stroke-width: 2px;
      }

      .st11 {
        fill: url(#linear-gradient1);
      }

      .st12 {
        fill: #7c7b74;
      }

      .st2, .st3 {
        stroke: #7c7b74;
      }

      .st2, .st4 {
        stroke-dasharray: 40 30;
        stroke-width: 2px;
      }

      .st13 {
        fill: #fff8ec;
      }

      .st14 {
        fill: url(#linear-gradient);
      }

      .st15 {
        fill: #fafafa;
      }

      .st7, .st9 {
        fill: #452315;
        mix-blend-mode: hard-light;
      }

      .st16 {
        fill: #452112;
        font-family: FuturaStd-Bold, 'Futura Std';
        font-size: 12px;
        font-weight: 700;
      }
    </style>
    <linearGradient
       id="linear-gradient"
       x1="3191.2"
       y1="-6642"
       x2="3199.5"
       y2="-6984.7"
       gradientTransform="translate(3093.7 208.1) rotate(175.2)"
       gradientUnits="userSpaceOnUse">
      <stop
         offset=".3"
         stop-color="#e34426"
         id="stop1" />
      <stop
         offset=".6"
         stop-color="#ac827d"
         stop-opacity=".9"
         id="stop2" />
      <stop
         offset="1"
         stop-color="#6dcce3"
         stop-opacity=".8"
         id="stop3" />
    </linearGradient>
    <linearGradient
       id="linear-gradient1"
       x1="2997.4"
       y1="401.7"
       x2="3005.9"
       y2="50.9"
       gradientTransform="translate(3093.7 208.1) rotate(175.2)"
       gradientUnits="userSpaceOnUse">
      <stop
         offset=".3"
         stop-color="#e34426"
         id="stop4" />
      <stop
         offset=".6"
         stop-color="#ac827d"
         stop-opacity=".9"
         id="stop5" />
      <stop
         offset="1"
         stop-color="#6dcce3"
         stop-opacity=".8"
         id="stop6" />
    </linearGradient>
  </defs>
  <g
     class="st10"
     id="g52">
    <g
       id="Layer_1">
      <g
         class="st10"
         id="g49">
        <g
           id="Layer_11"
           data-name="Layer_1">
          <g
             id="g24">
            <g
               id="g23">
              <ellipse
                 class="st3"
                 cx="491.4"
                 cy="7373.3"
                 rx="42.1"
                 ry="8.3"
                 transform="translate(-602.5 65.1) rotate(-4.7)"
                 id="ellipse6" />
              <g
                 id="g7">
                <path
                   class="st14"
                   d="M489,7450.3c-21.9,0-40.4-16.5-42.2-37.6l-23.9-300.4c-.9-10.7,2.4-21.1,9.5-29.5,7.4-8.7,17.8-14,29.3-15l4.3-.3c1.2,0,2.4-.2,3.6-.2,21.9,0,40.4,16.5,42.2,37.6l23.9,300.4c.9,10.7-2.4,21.1-9.5,29.5-7.4,8.7-17.8,14-29.3,15l-4.3.4c-1.2,0-2.4.2-3.6.2h0Z"
                   id="path6" />
                <path
                   class="st13"
                   d="M469.6,7069.8c20.5,0,38,15.2,39.7,35.3l23.9,300.4c1.8,21.3-14.5,39.9-36.5,41.8l-4.3.4c-1.2,0-2.3.1-3.4.1-20.5,0-38-15.2-39.7-35.3l-23.9-300.4c-1.8-21.3,14.5-39.9,36.5-41.8l4.3-.4c1.2,0,2.3-.1,3.4-.1M469.6,7064.8c-1.3,0-2.6,0-3.8.2l-4.3.4c-12.2,1-23.3,6.6-31.1,15.9-7.5,8.8-11,19.9-10,31.3l23.9,300.3c1,11,6.1,21.2,14.5,28.6,8.3,7.3,19,11.4,30.2,11.4s2.6,0,3.8-.2l4.3-.4c12.2-1,23.3-6.6,31.1-15.9,7.5-8.8,11-19.9,10-31.3l-23.9-300.3c-1-11-6.1-21.2-14.5-28.6-8.3-7.3-19-11.4-30.2-11.4h0Z"
                   id="path7" />
              </g>
              <ellipse
                 class="st3"
                 cx="468.2"
                 cy="7107.1"
                 rx="42.1"
                 ry="7.5"
                 transform="translate(-580.8 62.3) rotate(-4.7)"
                 id="ellipse7" />
              <path
                 class="st13"
                 d="M518,7315.9c4.1,0,7.8,5.3,8.4,12.1.6,7-2.3,13-6.5,13.4h-.4c-4.1,0-7.8-5.3-8.4-12.1-.6-7,2.3-13,6.5-13.4h.4M518,7310.9h-.8c-2.7.2-5.2,1.6-7.2,3.9-3,3.5-4.4,9.1-3.9,14.9.8,9.5,6.6,16.7,13.3,16.7s.5,0,.8,0c2.7-.2,5.2-1.6,7.2-3.9,3-3.5,4.4-9.1,3.9-14.9-.8-9.5-6.6-16.7-13.3-16.7h0Z"
                 id="path8" />
              <path
                 class="st13"
                 d="M599,7315.9c4.1,0,7.8,5.3,8.4,12.1.6,7-2.3,13-6.5,13.4h-.4c-4.1,0-7.8-5.3-8.4-12.1-.6-7,2.3-13,6.5-13.4h.4M599,7310.9h-.8c-2.7.2-5.2,1.6-7.2,3.9-3,3.5-4.4,9.1-3.9,14.9.8,9.5,6.6,16.7,13.3,16.7s.5,0,.8,0c2.7-.2,5.2-1.6,7.2-3.9,3-3.5,4.4-9.1,3.9-14.9-.8-9.5-6.6-16.7-13.3-16.7h0Z"
                 id="path9" />
              <g
                 id="g10">
                <path
                   class="st4"
                   d="M516.2,7319.5c2.8,8.5,47,6.1,64.6,4.8"
                   id="path10" />
                <polygon
                   class="st13"
                   points="579.7 7329.4 587.9 7323.7 578.9 7319.4 579.7 7329.4"
                   id="polygon10" />
              </g>
              <g
                 id="g11">
                <path
                   class="st4"
                   d="M604,7326.2c9-.2,23.2-3.4,31.6-5.5"
                   id="path11" />
                <polygon
                   class="st13"
                   points="635.4 7325.9 642.5 7319 633 7316.2 635.4 7325.9"
                   id="polygon11" />
              </g>
              <g
                 id="g12">
                <path
                   class="st4"
                   d="M508.6,7258.3s-.4,26.4,1,39.6"
                   id="path12" />
                <polygon
                   class="st13"
                   points="504.5 7297.3 511 7304.8 514.3 7295.4 504.5 7297.3"
                   id="polygon12" />
              </g>
              <g
                 id="g13">
                <path
                   class="st4"
                   d="M497.3,7149c2.3,12.4,4.6,38.1,5.6,50.5"
                   id="path13" />
                <polygon
                   class="st13"
                   points="497.8 7198.5 503.5 7206.7 507.7 7197.6 497.8 7198.5"
                   id="polygon13" />
              </g>
              <g
                 id="g14">
                <path
                   class="st4"
                   d="M441.4,7146.6c-4.3-51.5,4.2-58.7,34.3-59,13.3-.1,16.5,19,18.6,29.9"
                   id="path14" />
                <polygon
                   class="st13"
                   points="489.2 7117.4 496.2 7124.5 498.8 7114.9 489.2 7117.4"
                   id="polygon14" />
              </g>
              <g
                 id="g15">
                <path
                   class="st4"
                   d="M446.9,7227c-1.2-16.3-2.7-34.1-4.8-53.6"
                   id="path15" />
                <polygon
                   class="st13"
                   points="447.2 7174.4 441.4 7166.3 437.3 7175.4 447.2 7174.4"
                   id="polygon15" />
              </g>
              <g
                 id="g16">
                <path
                   class="st2"
                   d="M451.4,7286.8c-1.4-14.3-2.6-30.1-3.7-45.1"
                   id="path16" />
                <polygon
                   class="st12"
                   points="452.9 7242.8 447.2 7234.6 442.9 7243.6 452.9 7242.8"
                   id="polygon16" />
              </g>
              <g
                 id="g17">
                <path
                   class="st4"
                   d="M482.7,7369c-.9,0-8.3.9-9.2.9-11.8-.2-11.9-11.6-14.4-23.6-.1-.6-.2-1.1-.3-1.7-.2-.9-.3-1.9-.5-2.9-1-6.1-1.8-13.6-3-22.8"
                   id="path17" />
                <polygon
                   class="st13"
                   points="460.3 7319.8 454.3 7311.9 450.5 7321.1 460.3 7319.8"
                   id="polygon17" />
              </g>
              <g
                 id="g18">
                <path
                   class="st4"
                   d="M610.2,7338.5c6.9,1.4,16.3,3.7,19.3,4.8,12,4.5,18.2,10.5,20.4,20.3"
                   id="path18" />
                <polygon
                   class="st13"
                   points="610.7 7343.7 603.2 7337.2 612.6 7333.9 610.7 7343.7"
                   id="polygon18" />
              </g>
              <g
                 id="g19">
                <path
                   class="st4"
                   d="M495.1,7365.7c6.4-1.2,10.2-4.1,10.2-13.3s6.6-16.2,27.7-16.4c21.1-.2,18.8,0,18.8,0"
                   id="path19" />
                <polygon
                   class="st13"
                   points="497.1 7370.3 487.9 7366.4 495.9 7360.4 497.1 7370.3"
                   id="polygon19" />
              </g>
              <path
                 class="st2"
                 d="M529.4,7326.7"
                 id="path20" />
              <path
                 class="st9"
                 d="M510.9,7256.3c1.8,20.5-26.1,50.5-50.1,52.4-24,2-26.3-25.1-28-45.6-1.8-20.5-6.8-40.8,17.2-42.8s59.2,15.5,61,35.9h-.1Z"
                 id="path21" />
              <g
                 id="g22">
                <path
                   class="st4"
                   d="M569.9,7335.7c15.2-.2,19.5-.4,19.5-.4"
                   id="path22" />
                <polygon
                   class="st13"
                   points="571.5 7340.6 562.8 7335.8 571.3 7330.7 571.5 7340.6"
                   id="polygon22" />
              </g>
              <path
                 class="st5"
                 d="M526,7400.7c19.1-.5,4.6,26.8,0,33.9-13,19.5-42.4,18.2-60.5,7.5-18.1-10.8-25.3-33.6-1.2-32.2,53.8,3.1,40.5-8.6,61.8-9.1h0Z"
                 id="path23" />
            </g>
            <path
               class="st15"
               d="M572.7,7104.3c-.7-2.4-12.2-8.2-5.1-10.7l5.1,3.3c-.4-3,.6-7.1-.2-10-.5-1.7-12.2-10.3-6.7-11.7,2.9-.8,6.9,6,9.3,7.3,1.7.3,10.1-11.2,11.4-5.9.8,3.4-8.1,8.2-9,11.3-.8,2.7.2,6.6-.2,9.5l6-3.7c1.6-.6,2.3,2.3,2.1,3.1-.4,2-7.2,6.2-7.9,8.6-1,3.3.3,8.7-.2,12.3,2.3-2,8.5-5.7,9.7-8.3,1.4-3.2-.7-11,1.4-12.5l2.8-.4.9,7.4c1.6-1.4,6.2-4.9,6.9-6.5,2-4.5-2-11.4,2.8-14.8,4.2-.9,1.5,12.1,2.3,12.9,4.3.5,10-1.7,12.9,2.3.8,4-11.8,1.5-14.8,2.8-1.6.7-5.1,5.3-6.5,6.9,2.3,0,5.7-.5,6.9,1.8,2.3,4.5-9.7,2-12.5,3.3-.6.3-6.4,5.9-7.7,7.1s-2,.8-1.6,2.6h13.4c1,0,5.3-7.2,9.2-7.4,4.5-.2-1.5,6.2-1.8,7.4,3-.4,7.1.6,10-.2,2.4-.7,5.7-6.4,8.1-7.6,1.4-.7,3.8-1.4,3.7.9-.2,3.9-5.4,6.2-7.4,9.3-.3,1.9,11.7,9.9,5.9,11.4-3.4.9-8.2-8.1-11.3-9-2.7-.8-6.6.2-9.5-.2,1.1,1,6.6,7.6,2.3,7.4-4-.2-8.2-7.4-9.2-7.4h-13.4c1.8,1.9,6.4,7.9,8.3,8.8,2.1.9,12.5.9,12.9,1.4v3.7h-7.4l6.5,7.8c3.1,1.5,13.9-1.1,14.8,1.8,1.8,5.6-11.9,2.2-12.9,3.2v11.9h-4.6v-13.4c0-.5-6.1-6.6-6.9-7.8l-.9,6.5c-6.9,3.6-2.9-8.2-4.7-12-.9-2-6.9-6.5-8.7-8.3l-.8,12.3,8.2,10.3c-3.4,4.2-4.9-2.2-8.3-2.3-2.8,11.4,5.3,12.5,9.2,20.8-4.1,4.8-8.1-6-11.5-6-3.3.6-6.9,8.3-10.1,7.4-5.6-1.4,6.3-10.3,7-11.5,1.8-3.1.6-7.2.9-10.7l-5.1,3.7-2.3-2.3c6.5-7.2,10-11,8.3-21.7-.9-1-9.2,7.4-9.7,8.3-1.7,3.6,1.8,16-4.7,12l-.5-6.5c-1.6,1.8-6.2,4.5-7.3,6.1-2.2,3.5.4,14.5-2.4,15.1-5,1-2.6-12.3-3.2-12.9h-10.5c0-.1-1.5-4.6-1.5-4.6h13.4c.5,0,6.6-6.1,7.8-6.9l-7.4-1.4.4-2.8c1.5-2.1,9.3,0,12.5-1.4,2.2-1,7.2-7.6,9.3-9.7h-13.4l-9.2,8.1-2.2-2.9,4.5-5.2c-3.1.4-7.5-.7-10.4.2-3.6,1.1-8.9,12.9-12.6,6.6l8.2-9.1c-2.6-3.5-9.3-6.4-7.4-11.5,2.8-1.9,9,8.6,12.5,9.2,2.9.5,6.7-.3,9.7,0l-4.6-5.1c3.3-7.2,8.5,4,11.7,4.9,3.3,1,8.7-.3,12.3.2l-7.4-8.8-12.9-1.8c-3.5-4.7,6.5-2.6,6.5-3.7-.8-1.8-5.1-6.7-6.5-7.4-4.5-2-11.4,2-14.7-2.8,2.9-4.1,8.5-1.7,12.9-2.4,1-2.4.3-12.4,2.4-12.9,4.8-1,2.3,7.8,2.2,9.7-.3,6.6,3,7.3,7,11.6,2.7,1.1.8-5.9,1.4-6.5l3.7.4c2.6,3.2-.8,7.7,0,10.9.2.7,6.2,7,7.4,8.3s.8,2,2.6,1.6v-13.4.3Z"
               id="path24" />
          </g>
          <g
             id="g48">
            <g
               id="g40">
              <g
                 id="g26">
                <path
                   class="st11"
                   d="M93.1,423.4c-22.3,0-41.3-16.9-43.2-38.5L25.5,77.3c-.9-10.9,2.5-21.6,9.7-30.1,7.5-8.9,18.2-14.3,30-15.3l4.4-.4c1.2-.1,2.5-.2,3.7-.2,22.3,0,41.3,16.9,43.2,38.5l24.4,307.6c.9,10.9-2.5,21.6-9.7,30.1-7.5,8.9-18.2,14.3-30,15.3l-4.4.4c-1.2.1-2.5.2-3.7.2h0Z"
                   id="path25" />
                <path
                   class="st13"
                   d="M73.3,33.9c21,0,38.9,15.6,40.7,36.2l24.4,307.6c1.9,21.8-14.9,40.9-37.4,42.8l-4.4.4c-1.2,0-2.4.1-3.5.1-21,0-38.9-15.6-40.7-36.2L28,77.1c-1.9-21.8,14.9-40.9,37.4-42.8l4.4-.4c1.2,0,2.4,0,3.5,0M73.3,28.9c-1.3,0-2.6,0-3.9.2l-4.4.4c-12.5,1-23.8,6.8-31.7,16.2-7.6,9-11.3,20.4-10.3,32l24.4,307.5c1,11.3,6.2,21.6,14.8,29.2,8.5,7.5,19.4,11.6,30.9,11.6s2.6,0,3.9-.2l4.4-.4c12.5-1,23.8-6.8,31.7-16.2,7.6-9,11.3-20.4,10.3-32l-24.4-307.5c-1-11.3-6.2-21.6-14.8-29.2-8.5-7.5-19.4-11.6-30.9-11.6h0Z"
                   id="path26" />
              </g>
              <ellipse
                 class="st1"
                 cx="70.9"
                 cy="72.1"
                 rx="43.1"
                 ry="7.6"
                 transform="translate(-5.7 6.1) rotate(-4.7)"
                 id="ellipse26" />
              <path
                 class="st13"
                 d="M122.9,285.8c4.2,0,7.9,5.4,8.6,12.4.6,7.2-2.4,13.4-6.7,13.7h-.4c-4.2,0-7.9-5.4-8.6-12.4-.6-7.2,2.4-13.4,6.7-13.7h.4M122.9,280.8h-.8c-2.8.2-5.3,1.6-7.3,3.9-3,3.6-4.5,9.3-4,15.2.8,9.7,6.7,17,13.5,17s.5,0,.8,0c2.8-.2,5.3-1.6,7.3-3.9,3-3.6,4.5-9.3,4-15.2-.8-9.7-6.7-17-13.5-17h0Z"
                 id="path27" />
              <path
                 class="st13"
                 d="M209.3,285.8c4.2,0,7.9,5.4,8.6,12.4.6,7.2-2.4,13.4-6.7,13.7h-.4c-4.2,0-7.9-5.4-8.6-12.4-.6-7.2,2.4-13.4,6.7-13.7h.4M209.3,280.8h-.8c-2.8.2-5.3,1.6-7.3,3.9-3,3.6-4.5,9.3-4,15.2.8,9.7,6.7,17,13.5,17s.5,0,.8,0c2.8-.2,5.3-1.6,7.3-3.9,3-3.6,4.5-9.3,4-15.2-.8-9.7-6.7-17-13.5-17h0Z"
                 id="path28" />
              <g
                 id="g29">
                <path
                   class="st4"
                   d="M121,289.6c3,8.8,55.5,6.1,74.9,4.8"
                   id="path29" />
                <polygon
                   class="st13"
                   points="194.8 299.4 203.1 293.9 194.1 289.5 194.8 299.4"
                   id="polygon29" />
              </g>
              <g
                 id="g30">
                <path
                   class="st4"
                   d="M211,296.5c9.3-.2,23.9-3.5,32.5-5.7"
                   id="path30" />
                <polygon
                   class="st13"
                   points="243.2 295.9 250.4 289 240.8 286.3 243.2 295.9"
                   id="polygon30" />
              </g>
              <path
                 class="st0"
                 d="M50.4,202.6"
                 id="path31" />
              <path
                 class="st0"
                 d="M54.7,256.1"
                 id="path32" />
              <g
                 id="g33">
                <path
                   class="st4"
                   d="M217.1,309c7.1,1.5,16.9,3.8,19.9,5,12.2,4.6,18.7,10.8,20.9,20.7"
                   id="path33" />
                <polygon
                   class="st13"
                   points="217.7 314.2 210.1 307.7 219.5 304.4 217.7 314.2"
                   id="polygon33" />
              </g>
              <path
                 class="st4"
                 d="M157.4,306.4"
                 id="path34" />
              <path
                 class="st4"
                 d="M119,305.8c14.4,6.5,26.8,3.5,40.4,3.8"
                 id="path35" />
              <path
                 class="st2"
                 d="M134.5,296.9"
                 id="path36" />
              <path
                 class="st9"
                 d="M127.8,243.1c7.6,16.5-1.4,26.3-43.1,27.6-37.4,1.2-39.7-13.5-44.5-29.7-3.8-12.7-4.7-62.9,17.3-60.6,31.7,3.3,41.2-.2,70.3,62.8h0Z"
                 id="path37" />
              <g
                 id="g38">
                <path
                   class="st4"
                   d="M172.9,306.4c16.3-.2,23.1-.6,23.1-.6"
                   id="path38" />
                <polygon
                   class="st13"
                   points="174.5 311.3 165.7 306.4 174.3 301.3 174.5 311.3"
                   id="polygon38" />
              </g>
              <path
                 class="st5"
                 d="M131.1,372.8c19.6-.5,4.7,27.5,0,34.7-13.3,20-43.4,18.7-62,7.7s-25.9-34.4-1.3-33c55.1,3.1,41.4-8.8,63.3-9.3h0Z"
                 id="path39" />
              <ellipse
                 class="st1"
                 cx="94.5"
                 cy="364.6"
                 rx="43.1"
                 ry="8.5"
                 transform="translate(-29.6 9) rotate(-4.7)"
                 id="ellipse39" />
              <path
                 class="st8"
                 d="M44.7,208.3c1.2-4.8,5.3-16.4,19.6-18.1,19.9-2.3,23.7,18.7,25.5,27.5,1,4.7,0,13.5-14.2,14.7-14.3,1.3-37.9,4.3-30.9-24.2h0Z"
                 id="path40" />
            </g>
            <path
               class="st15"
               d="M211.4,107.9c-12.8,12.6-32.8,17.5-49.5,10.5-1.8,3.7.6,13.5-2.8,15.3-2.8,1.4-3.5-.3-3.8-2.7-2.7-23.1,16-47.9,34.6-59.6,2.3-1.4,10.8-6.9,9.4,0-.3,1.4-12.3,8.9-14.9,11.1-5.6,4.7-11.7,11.6-15.4,17.8s-5.4,10.1-5.4,11.3c0,4.5,15.7,4.4,19,4.1,31.1-2.5,44.1-39.6,42.9-66.5-30.8,4.8-65.7-.2-69.3,40.2-.3,3.3,2.4,10.2-2.3,10.2s-2.9-15.5-2.2-19.4c6.5-34.3,40.9-31.5,67.5-35.9,3-.5,8.4-3.4,10.5-1.7s1.5,12.2,1.4,15.4c-1,17-7.4,37.8-19.8,50h.1Z"
               id="path41" />
            <g
               id="g42">
              <path
                 class="st4"
                 d="M41.6,123.9l-3.3-40.7s2.8-32.7,29-34.4c24.1-1.6,35.7,18.1,38.2,44.9"
                 id="path42" />
              <polygon
                 class="st13"
                 points="100.4 92.6 106 100.8 110.4 91.9 100.4 92.6"
                 id="polygon42" />
            </g>
            <g
               id="g43">
              <path
                 class="st4"
                 d="M91.4,238.3c-6.5,4-16.4,2.8-24-1.1-17.2-8.7-19.9-66.8-23.1-96.1"
                 id="path43" />
              <polygon
                 class="st13"
                 points="49.4 142 43.5 134 39.5 143.2 49.4 142"
                 id="polygon43" />
            </g>
            <g
               id="g44">
              <path
                 class="st4"
                 d="M108.7,136.9c2.6,28.6,4.8,59.9,4.4,71.1-.3,8.5-3.2,15.3-6.2,19.4"
                 id="path44" />
              <polygon
                 class="st13"
                 points="104.7 222.4 101.2 231.8 111.1 230.1 104.7 222.4"
                 id="polygon44" />
            </g>
            <g
               id="g45">
              <path
                 class="st4"
                 d="M118.8,349.3c-1.6,6.6-14.2,17.9-29.7,19.1-27.4,2.1-27.6-26.6-28.6-44.9"
                 id="path45" />
              <polygon
                 class="st13"
                 points="65.5 324.6 59.9 316.3 55.6 325.3 65.5 324.6"
                 id="polygon45" />
            </g>
            <g
               id="g46">
              <path
                 class="st4"
                 d="M116,304.8c1.1,10.6,2.3,19.6,2.8,28.6"
                 id="path46" />
              <polygon
                 class="st13"
                 points="113.7 332.1 119 340.6 123.7 331.7 113.7 332.1"
                 id="polygon46" />
            </g>
            <g
               id="g47">
              <path
                 class="st4"
                 d="M58.8,310.6c0-3.4-1.3-29.5,23.1-31"
                 id="path47" />
              <polygon
                 class="st13"
                 points="80.3 284.6 89.1 279.8 80.5 274.7 80.3 284.6"
                 id="polygon47" />
            </g>
          </g>
        </g>
      </g>
      <g
         id="g51">
        <text
           class="st16"
           transform="translate(90.3 444.6)"
           id="text49"><tspan
             x="0"
             y="0"
             id="tspan49">bees</tspan></text>
        <text
           class="st16"
           transform="translate(170.5 444.6)"
           id="text50"><tspan
             x="0"
             y="0"
             id="tspan50">brood</tspan></text>
        <path
           class="st6"
           d="M144.3,436.2c.6-2.3,2.5-7.8,9.3-8.6,9.5-1.1,11.3,8.9,12.1,13.1.5,2.2,0,6.4-6.8,7-6.8.6-18,2-14.7-11.5h0Z"
           id="path50" />
        <path
           class="st7"
           d="M57.2,436.2c.6-2.3,2.5-7.8,9.3-8.6,9.5-1.1,11.3,8.9,12.1,13.1.5,2.2,0,6.4-6.8,7-6.8.6-18,2-14.7-11.5h0Z"
           id="path51" />
      </g>
    </g>
  </g>
</svg>
