<?xml version="1.0" encoding="UTF-8"?>
<svg id="_Шар_2" data-name="Шар 2" xmlns="http://www.w3.org/2000/svg" viewBox="0 0 217.52 254.58">
  <defs>
    <style>
      .cls-1 {
        fill: #7c7c7c;
      }

      .cls-1, .cls-2 {
        stroke-width: 0px;
      }

      .cls-3 {
        stroke-width: 2px;
      }

      .cls-3, .cls-4, .cls-5 {
        stroke: #7c7c7c;
        stroke-linecap: round;
        stroke-linejoin: round;
      }

      .cls-3, .cls-2 {
        fill: #fffaec;
      }

      .cls-4 {
        fill: none;
      }

      .cls-6 {
        opacity: .47;
      }

      .cls-5 {
        fill: #f8a400;
        stroke-width: .5px;
      }
    </style>
  </defs>
  <g id="Layer_1" data-name="Layer 1">
    <g>
      <g>
        <path class="cls-2" d="m56.48,253.58c-4.05,0-13.12-1.36-15.75-4.49-.78-.93-2.11-1.1-3.95-1.34-2.33-.3-5.23-.68-8.62-2.75-3.82-2.34-9.36-3.38-13.8-4.22-2.47-.47-4.6-.87-6.15-1.42-4.89-1.73-5.95-7.36-6.97-12.81-1-5.34,1.42-21.36,2.95-30.44.44-2.62.74-6.12,1.03-9.5.78-9.12,1.27-12.93,2.96-13.83,1.4-.74,1.77-3.48,2.01-5.29.04-.34.09-.65.13-.93.17-1.09-.18-2.48-.67-4.4-.3-1.2-.65-2.56-.97-4.23-.73-3.74-.34-6.29.24-10.14.16-1.06.34-2.23.51-3.58.73-5.55,2.01-8.01,3.36-10.61.22-.41.43-.83.65-1.27.95-1.9,1.97-2.98,3.06-4.13.83-.87,1.76-1.86,2.83-3.39,2.19-3.12,3.98-6.59,5.55-9.65l.64-1.23c1.32-2.54,2.86-3.48,4.65-4.57.83-.51,1.77-1.08,2.83-1.89,1.93-1.49,4.13-2.83,6.08-4,1.48-.9,2.88-1.75,3.92-2.52,2.02-1.5,8.25-5.12,10.74-6.56l-.26-.32c-.15-.18-.23-.41-.23-.65,0-.1.04-2.59.76-5.24.73-2.69,2.98-6.09,3.07-6.23.19-.29.5-.45.83-.45.1,0,.21.02.31.05l1.01.33c.37-.8.91-2.13.96-3.22.06-1.14-1.21-3.65-2.1-5.11l-3.15-1.96c-.18-.11-.32-.28-.4-.47l-.95-2.34-1.01-2.37c-.44-.52-1.75-2.3-1.4-4.12-.18-.02-.39-.06-.62-.13-1.72-.52-1.51-1.71-1.43-2.16.03-.15.05-.26.03-.35-.13-.83.41-2,.86-2.8-.45-.56-1.35-1.64-3.01-3.44-1.35-1.48-1.76-1.92-1.43-2.68.3-.69,1.06-.69,1.3-.69h.34c.14.01.31.02.49.02.44,0,1.04-.03,1.75-.19-.17-.07-.33-.19-.44-.34-.2-.27-.24-.62-.13-.93l.95-2.59c.05-.13.12-.24.21-.34l1.88-2c-.59-.13-1.22-.24-1.69-.24h-.32c-1.56,0-2.95-.85-3.52-1.71-.38-.57-.45-1.63-.52-3.32-.02-.46-.04-.99-.07-1.16-.19-1.05.5-1.81,1.29-2.03.09-.02.17-.04.26-.04.06,0,.12,0,.18.02l4.17.76c1.25.23,2.27.49,3.08.75-.07-.38.02-.57.11-.74.21-.47,1.87-5.37,2.18-7.85.57-4.53,1.47-7.73,2.76-9.77,1.71-2.69,8.18-9.29,11.51-11.43,3.48-2.23,6.81-3.78,9.33-4.88,1.68-.73,3.25-1.01,5.79-1.01,1.5,0,3.37.09,5.74.21l.72.04c8.31.42,13.6,2.56,15.03,3.21,3.06,1.39,8.33,8.08,10.06,11.12,1.44,2.51,3.54,6.19,4.14,7.22.43.14,1.79.48,5.45.79,7.11.6,11.82,1.71,13.99,3.31,2.72,1.99,4.18,6.84,3.94,9.17-.26,2.62-2.46,4.62-5.74,5.22-.63.12-1.4.17-2.36.17s-1.87-.05-2.63-.09c-.53-.03-.98-.06-1.3-.06-.04,0-.08,0-.12,0-.12.05-.25.08-.39.08-.01,0-.02,0-.03,0,0,0-2-.06-3.44-.06-.52,0-.82,0-1,.02-.15.08-.31.12-.48.12-.19,0-.47-.04-1.13-.15-.72-.11-1.77-.28-2.41-.3-.26.62-.73,1.82-1.15,2.93l-.25,2.87,3.42,5.71c.11.18.16.39.14.6,0,0-.04.52-.17,1.6-.11.89-.62,1.92-.95,2.48.14.47.3,1.22.24,1.99-.03.36-.12.77-.25,1.34-.3,1.31-.85,3.74-1.26,8.44-.34,3.82.13,4.86.54,5.78.32.71.65,1.44.65,2.9,0,4.04-2.8,5.15-5.77,6.32-2.68,1.06-6.97,1.17-8.69,1.17-.1,0-.2,0-.28,0-.98,1-4.21,4.29-7.38,7.45-3.01,3.01-4.61,8.93-5.03,10.66.91,1,3.46,3.81,6.29,6.95,3.35,3.71,5.98,9.83,6.44,10.94.43.48,1.97,2.23,3.59,4.28,2.14,2.71,5.88,11.16,8.01,18.09,2.03,6.61,2.92,15.58,3.09,17.39.26.31.84,1.03,2.14,2.6,1.51,1.83,2.95,5.06,3.9,7.21.37.83.75,1.68.9,1.92.58.87.7,1.93.79,2.78.03.29.06.56.11.79.1.45,0,.88-.28,1.22-.27.33-.68.55-1.23.64.15.85.4,2.27.82,4.48.87,4.61.44,15.48.14,18.24-.23,2.14-.84,3.89-1.85,5.33,2-.71,10.52-2.32,15.61-2.83,2.5-.25,12.5-1.13,23.09-2.05,13.18-1.15,28.11-2.46,29.17-2.62.19-.03.41-.04.66-.04,1.63,0,8.16,1.22,8.66,2.86.19.62.02,3.35-.21,6.05l.29-.15c.62-.31,3.76-1.81,5.19-1.81.02,0,.1,0,.12,0,.7.04,1.36.44,1.86,1.13.92,1.29,1.16,3.3.62,5.25-.51,1.84-1.99,3.44-3.14,4.46,1.22.76,2.69,2.31,3.09,3.81.31,1.16-.23,1.86-.65,2.25,1.03,1.08.65,2.08.4,2.75-.14.38-.28.73-.28,1.2,0,1.3-.69,2.05-1.54,2.34.05.94.15,2.41.38,3.3.55,2.2-1.39,3.08-3.63,4.11l-.59.27c-1.13.52-1.7,1.12-2.3,1.76-.6.63-1.22,1.29-2.28,1.73-.84.35-1.53.49-2.31.49-.36,0-.72-.03-1.14-.07-.5-.04-1.06-.1-1.8-.1-1.37,0-2.2-.19-3.26-.42-.9-.2-2.02-.45-3.86-.66-1.01-.11-2.49-.17-4.39-.17-3.17,0-6.71.16-8.16.23-.03.05-.06.1-.1.15-.51.69-1.48,1.14-2.9,1.33-2.59.35-5.92.63-5.96.64-.03,0-.06,0-.09,0-.13,0-.26-.02-.38-.07l-1.56-.63c-.5.46-1.37,1.1-2.64,1.59-1.24.48-1.85.6-2.22.67-.09.02-.15.02-.21.04.14.39.12.83-.07,1.24-.28.6-.85.99-1.45.99-.24,0-.62,0-1.98-.94-.13.03-.28.06-.45.1-.4.08-.82.12-1.34.12-.56,0-1.16-.04-1.85-.1-.67-.05-1.42-.11-2.28-.13-.26,0-.48-.01-.66-.01-.58,0-.6,0-.91.17-.35.18-.88.46-2.07.86-.86.29-1.8.43-2.8.43-1.27,0-2.36-.23-3.02-.37-.1-.02-.19-.04-.26-.06-.06.03-.13.06-.2.09-1.32.59-5.35,2.37-6.94,3.45-1.93,1.31-4.23,2.67-6.67,2.89-.1,0-.21.01-.31.01-1.67,0-3.49-1.13-4.95-2.03-.62-.38-1.26-.78-1.56-.87-.36-.11-.83-.22-1.4-.37-1.44-.36-3.62-.9-6.35-1.86-2.84-1-6.03-2.97-7.61-4.01-.51.94-1.44,2.38-3.05,4.09-1.44,1.53-3.85,2.28-7.37,2.28-1.33,0-2.59-.1-3.6-.18-.52-.04-.98-.08-1.34-.09h-.26c-1.98,0-4.14.78-8.25,3-1.5.81-2.74,1.19-3.89,1.19-.67,0-1.2-.12-1.67-.23-.37-.09-.69-.16-1.03-.16-.24,0-.49.04-.76.12-2.07.64-10.86.88-20.06,1.03l-1.83.03Z"/>
        <path class="cls-1" d="m86.5,2c1.62,0,3.65.11,6.41.25,6.74.34,11.88,1.85,14.66,3.12s7.92,7.75,9.61,10.7c1.69,2.95,4.3,7.5,4.3,7.5,0,0,.59.55,6.07,1.01,5.48.46,11.12,1.39,13.48,3.12s3.75,6.15,3.54,8.26c-.21,2.11-2,3.8-4.93,4.34-.63.12-1.4.16-2.17.16-1.54,0-3.14-.15-3.93-.15-.3,0-.48.02-.51.08,0,0-2.01-.06-3.47-.06-.91,0-1.61.02-1.46.11.04.02.03.03-.02.03-.34,0-2.59-.45-3.67-.45-.3,0-.51.04-.56.13-.25.46-1.43,3.58-1.43,3.58l-.3,3.33,3.58,5.98s-.04.51-.17,1.56c-.13,1.05-1.05,2.49-1.05,2.49,0,0,.42,1.01.34,2.02-.08,1.01-.93,3.12-1.52,9.78-.59,6.66,1.18,5.56,1.18,8.77s-1.94,4.13-5.14,5.39c-2.53,1-6.69,1.1-8.32,1.1-.44,0-.69,0-.69,0,0,0-3.88,3.96-7.67,7.75-3.79,3.79-5.42,11.65-5.42,11.65,0,0,.11.12.3.33.86.95,3.45,3.81,6.34,7,3.54,3.92,6.32,10.81,6.32,10.81,0,0,1.77,1.96,3.67,4.36,1.9,2.4,5.63,10.56,7.84,17.76s3.08,17.49,3.08,17.49c0,0,.25.32,2.34,2.84s4.11,8.09,4.74,9.04c.63.95.57,2.34.76,3.22.13.62-.76.71-1.3.71-.23,0-.4-.02-.4-.02,0,0,.19,1.26,1.01,5.63.82,4.36.44,15.04.13,17.95-.32,2.91-1.33,4.61-2.4,5.75-1.07,1.14.06,2.09.06,2.09,0,0,.63-.89,1.64-1.39,1.01-.51,9.86-2.28,15.55-2.84s50.38-4.39,52.31-4.68c.15-.02.32-.03.51-.03,2.31,0,7.5,1.48,7.7,2.15.22.73-.41,7.46-.41,7.46l1.9-.95s3.48-1.71,4.74-1.71c.02,0,.04,0,.07,0,1.2.06,2.34,2.34,1.57,5.12s-4.22,5.06-4.22,5.06l.82.19c.82.19,2.91,1.9,3.34,3.54.44,1.64-1.83,1.39-.56,2.53s0,1.71,0,3.41c0,1.32-.94,1.47-1.37,1.47-.13,0-.21-.01-.21-.01,0,0,.06,2.91.44,4.42.38,1.52-1.2,2.09-3.67,3.22-2.47,1.14-2.72,2.72-4.55,3.48-.79.33-1.35.42-1.93.42-.77,0-1.57-.17-2.94-.17-2.4,0-3.03-.63-7.02-1.07-1.16-.13-2.78-.17-4.5-.17-4.17,0-8.9.27-8.9.27,0,0,.19,1.11-2.4,1.45-2.59.35-5.91.63-5.91.63l-2.18-.89s-.85,1.11-2.75,1.83c-1.9.73-2.16.55-2.56.77-.4.22-.82.73-.52,1.09.3.36-.09,1.01-.51,1.01-.34,0-1.46-.79-1.82-1.06.07-.06-.11-.08-.11-.08,0,0,.04.03.11.08-.05.05-.26.12-.81.23-.35.07-.73.1-1.14.1-1.07,0-2.37-.18-4.11-.22-.27,0-.49-.01-.68-.01-1.49,0-.78.24-3.3,1.09-.85.28-1.7.38-2.48.38-1.69,0-3.06-.45-3.4-.45-.03,0-.05,0-.06.01-.25.13-5.56,2.4-7.52,3.73-1.96,1.33-4.05,2.53-6.19,2.72-.07,0-.15,0-.22,0-2.13,0-5-2.49-6.22-2.85-1.26-.38-3.92-.89-7.71-2.21-3.79-1.33-8.34-4.55-8.34-4.55,0,0-.67,2.02-3.37,4.89-1.5,1.59-4.16,1.96-6.64,1.96-1.99,0-3.85-.24-4.9-.28-.1,0-.2,0-.29,0-2.27,0-4.69.94-8.72,3.12-1.54.83-2.59,1.07-3.41,1.07-1.07,0-1.77-.39-2.7-.39-.32,0-.66.05-1.05.17-2.44.76-16.69.93-21.24,1.01-.11,0-.23,0-.35,0-4.63,0-12.85-1.59-14.99-4.13-2.19-2.61-6.74-.59-12.81-4.3-6.07-3.71-15.84-4.21-20.14-5.73-4.3-1.52-5.31-6.66-6.32-12.05-1.01-5.39,1.69-22.59,2.95-30.09s1.33-21.47,3.48-22.61c2.15-1.14,2.34-4.93,2.65-6.95s-.76-4.42-1.64-8.98c-.88-4.55-.06-7.14.76-13.4s2.34-8.41,3.92-11.57c1.58-3.16,3.29-3.79,5.82-7.4,2.53-3.6,4.49-7.59,6.26-11,1.77-3.41,3.86-3.54,7.21-6.13,3.35-2.59,7.52-4.68,9.99-6.51,2.47-1.83,11.66-7.08,11.66-7.08l-1.01-1.23s.03-2.43.73-4.99,2.94-5.94,2.94-5.94l1.83.6s1.36-2.43,1.45-4.39c.09-1.96-2.37-5.88-2.37-5.88l-3.35-2.09-.95-2.34-1.07-2.53s-1.64-1.83-1.26-3.48c.23-1,.16-1.09-.22-1.09-.08,0-.17,0-.27,0-.22,0-.5-.02-.83-.12-1.26-.38-.57-.88-.7-1.71s1.07-2.72,1.07-2.72c0,0-.7-1.01-3.48-4.05-1.39-1.52-1.55-1.69-.86-1.69.2,0,.48.02.83.02.81,0,1.99-.09,3.38-.66,3.24-1.34.38-1.46-.81-1.46-.27,0-.46,0-.46,0l.95-2.59,3.03-3.22s-2.21-.7-3.57-.7c-.06,0-.11,0-.16,0-.05,0-.1,0-.16,0-1.26,0-2.32-.72-2.69-1.27-.38-.57-.32-3.41-.44-4.11-.13-.7.57-.89.57-.89l4.17.76c4.17.76,5.5,1.9,5.5,1.9,0,0-1.41-2.09-1.24-2.42.17-.34,1.94-5.48,2.28-8.18.34-2.7,1.01-6.83,2.61-9.36,1.6-2.53,7.92-9.02,11.21-11.12,3.29-2.11,6.49-3.62,9.19-4.8,1.59-.7,3.06-.92,5.39-.92m0-2c-2.66,0-4.39.31-6.19,1.09-2.55,1.12-5.93,2.69-9.46,4.95-3.49,2.24-10.03,8.91-11.82,11.74-1.37,2.16-2.32,5.49-2.91,10.18-.27,2.19-1.68,6.45-2.06,7.45-.63-.17-1.34-.33-2.14-.47l-4.17-.76c-.12-.02-.24-.03-.36-.03-.18,0-.35.02-.53.07-1.19.33-2.31,1.55-2.01,3.17.02.14.04.65.06,1.02.09,2.04.18,3.08.69,3.84.68,1.02,2.3,2.12,4.26,2.16l-.51.55c-.19.2-.33.43-.42.68l-.95,2.59c-.1.26-.13.53-.12.8-.04,0-.08,0-.12,0-.17,0-.33,0-.46,0-.14,0-.26,0-.37,0-1.44,0-2.01.81-2.22,1.29-.6,1.35.19,2.21,1.61,3.75,1.23,1.34,2.04,2.28,2.55,2.89-.44.9-.77,1.9-.66,2.75,0,.04-.01.07-.02.1-.37,2.08,1.01,2.92,1.97,3.24.05,1.73,1.07,3.22,1.6,3.87l.96,2.25.94,2.31c.16.39.44.72.8.95l2.95,1.84c.94,1.57,1.87,3.61,1.83,4.33-.03.58-.25,1.34-.52,2.04l-.14-.05c-.21-.07-.42-.1-.62-.1-.66,0-1.29.32-1.67.89-.1.15-2.43,3.68-3.2,6.52-.75,2.77-.79,5.38-.8,5.49,0,.22.03.43.09.63-2.87,1.66-8.1,4.73-9.94,6.1-1,.75-2.38,1.58-3.85,2.47-1.97,1.19-4.2,2.54-6.17,4.07-1.01.78-1.89,1.31-2.74,1.83-1.84,1.12-3.57,2.17-5.02,4.96l-.64,1.25c-1.56,3.03-3.33,6.46-5.48,9.52-1.03,1.47-1.9,2.39-2.74,3.28-1.14,1.2-2.21,2.34-3.22,4.37-.22.43-.43.85-.65,1.26-1.4,2.68-2.72,5.22-3.47,10.94-.18,1.33-.35,2.52-.51,3.56-.6,3.96-.99,6.58-.23,10.48.33,1.7.69,3.13.98,4.28.46,1.81.79,3.11.65,4-.04.29-.09.61-.13.95-.19,1.41-.53,4.04-1.48,4.54-2.16,1.14-2.65,4.71-3.49,14.63-.29,3.36-.58,6.83-1.02,9.42-1.88,11.17-3.92,25.58-2.94,30.79,1.02,5.46,2.18,11.65,7.62,13.57,1.62.57,3.79.98,6.3,1.46,4.36.83,9.8,1.85,13.47,4.09,3.57,2.18,6.72,2.59,9.01,2.88,1.83.24,2.8.39,3.31.99,2.87,3.43,12.18,4.85,16.52,4.85.13,0,.26,0,.39,0l1.48-.03c10.7-.18,18.25-.43,20.32-1.08.23-.07.37-.08.46-.08.22,0,.48.06.8.13.5.11,1.11.26,1.89.26,1.32,0,2.71-.42,4.36-1.31,3.89-2.1,6-2.88,7.77-2.88.07,0,.15,0,.22,0,.35.01.79.05,1.29.09,1.03.08,2.32.19,3.68.19,3.81,0,6.46-.85,8.1-2.59,1.22-1.3,2.07-2.45,2.66-3.37,1.76,1.11,4.47,2.68,6.94,3.55,2.78.97,4.98,1.52,6.44,1.89.56.14,1.04.26,1.36.35.21.07.85.47,1.32.76,1.57.97,3.53,2.18,5.48,2.18.14,0,.27,0,.4-.02,2.67-.24,5.11-1.68,7.14-3.05,1-.68,3.25-1.79,6.69-3.32.7.15,1.83.38,3.17.38,1.11,0,2.15-.16,3.12-.48,1.27-.42,1.86-.74,2.22-.92.03-.02.07-.04.09-.05.06,0,.16,0,.35,0,.17,0,.38,0,.63.01.83.02,1.57.08,2.23.13.68.05,1.33.1,1.93.1s1.08-.04,1.53-.14c.02,0,.03,0,.05-.01,1.09.71,1.65.87,2.18.87.98,0,1.9-.61,2.35-1.56.14-.29.22-.59.25-.89.4-.1.94-.27,1.7-.56,1.06-.41,1.87-.92,2.46-1.37l1,.41c.24.1.49.15.75.15.06,0,.11,0,.17,0,.14-.01,3.4-.29,6.01-.64,1.58-.21,2.69-.7,3.39-1.5,1.64-.08,4.79-.21,7.64-.21,1.87,0,3.31.05,4.28.16,1.79.2,2.83.43,3.75.64,1.08.24,2.01.45,3.48.45.69,0,1.21.05,1.71.09.42.04.81.07,1.23.07.91,0,1.74-.18,2.69-.57,1.26-.52,1.99-1.29,2.63-1.97.56-.59,1.05-1.1,2-1.54l.58-.27c2.2-1,4.94-2.25,4.19-5.26-.15-.6-.25-1.58-.31-2.44.93-.59,1.51-1.65,1.51-2.96,0-.27.08-.49.21-.84.22-.58.68-1.79-.07-3.08.48-.75.6-1.59.35-2.53-.36-1.37-1.4-2.69-2.51-3.64,1.04-1.07,2.11-2.49,2.56-4.1.62-2.24.33-4.58-.77-6.1-.68-.95-1.61-1.5-2.62-1.55-.05,0-.11,0-.17,0-1.13,0-2.97.71-4.34,1.32.28-3.88.12-4.41.03-4.7-.31-1.01-1.1-1.73-4.43-2.67-.75-.21-3.33-.9-5.18-.9-.3,0-.56.02-.81.05-1.02.15-16.59,1.51-29.09,2.61-10.6.93-20.61,1.81-23.12,2.06-3.9.39-9.97,1.44-13.54,2.26.44-1.09.73-2.31.87-3.66.3-2.8.74-13.84-.15-18.54-.3-1.59-.51-2.77-.67-3.62.35-.17.64-.4.87-.69.46-.57.64-1.32.48-2.06-.03-.16-.06-.42-.09-.69-.1-.91-.24-2.15-.96-3.23-.13-.2-.51-1.07-.82-1.77-1.03-2.32-2.45-5.5-4.04-7.43-1.04-1.27-1.63-1.97-1.95-2.36-.23-2.38-1.14-10.9-3.1-17.28-2.16-7.02-5.98-15.62-8.18-18.41-1.53-1.94-2.97-3.58-3.52-4.2-.62-1.47-3.23-7.39-6.55-11.07-2.52-2.79-4.82-5.32-5.93-6.55.54-2.1,2.05-7.09,4.64-9.68,2.89-2.89,5.85-5.9,7.09-7.16,2.24,0,6.24-.18,8.92-1.24,3-1.19,6.41-2.53,6.41-7.25,0-1.67-.41-2.58-.73-3.31-.38-.85-.77-1.72-.46-5.28.41-4.63.93-6.93,1.24-8.3.14-.61.24-1.06.28-1.48.06-.72-.04-1.41-.16-1.94.35-.67.77-1.61.87-2.5.13-1.1.18-1.63.18-1.63.03-.42-.06-.84-.28-1.19l-3.25-5.43.21-2.41c.28-.72.58-1.5.82-2.1.54.06,1.16.16,1.6.23.74.12,1.02.16,1.28.16.24,0,.48-.04.71-.13.17,0,.41,0,.78,0,1.41,0,3.39.06,3.4.06.02,0,.04,0,.06,0,.19,0,.38-.03.56-.08.28,0,.73.03,1.2.05.77.04,1.74.1,2.69.1,1.02,0,1.85-.06,2.54-.19,3.74-.69,6.25-3.03,6.56-6.11.26-2.62-1.3-7.84-4.35-10.07-2.33-1.7-7.2-2.88-14.5-3.5-2.87-.24-4.26-.5-4.87-.65-.78-1.35-2.63-4.59-3.93-6.86-1.56-2.73-7.02-9.94-10.52-11.53-1.88-.85-7.13-2.88-15.39-3.3l-.72-.04c-2.39-.12-4.27-.21-5.79-.21h0Z"/>
      </g>
      <path class="cls-4" d="m52.24,43.17s3.92.25,6.11.55,2.49-1.01,4-1.77c.23-.11.91-.4,1.91-.81,1.09-.45,2.56-2.42,4.21-3.07,1.21-.48,2.54.38,3.88-.15,6.15-2.42,12.84-5.03,12.84-5.03,0,0,14.24,2.78,21.58,2.47s10.05-1.01,14.29-2.97,10.37-4.93,14.73-4.17c4.36.76,7.27,3.16,7.46,5.69s-.48,5.06-2.25,5.94"/>
      <path class="cls-4" d="m120.39,23.13c-.25,0-5.56-.08-15,2.36-9.44,2.44-18.88,6.32-18.88,6.32"/>
      <path class="cls-4" d="m56.46,36.49s-.29,1.73.84,2.78,1.39.67,1.05,1.64-.04,1.85-.04,1.85"/>
      <path class="cls-4" d="m73.32,39.63s-2.4-2.53-4.96-1.39-4.17,3.76-4.05,5.91-.38,6.67,1.58,9.13,3.79,3.44,4.52,4.27,3.1,1.93,3.92,2.5c.82.57,2.34,1.26,3.19-.06"/>
      <path class="cls-3" d="m74.55,48.79s-.51,2.28-.13,3.03c.38.76,1.39,2.37,1.39,2.37"/>
      <path class="cls-4" d="m111.4,36.34s-5.72-.32-6.1,1.14-1.56,8.26-.23,10.51c1.33,2.25,2.75,3.14,5.41,2.77s3.86-2.81,4.52-4.58,1.3-4.42.66-5.72.47-2.47-4.27-4.11Z"/>
      <path class="cls-4" d="m115.75,39.65s1.01-.16,2.21.41,2.18,1.07,2.18,1.07"/>
      <g class="cls-6">
        <path class="cls-2" d="m128.61,45.72c.22-3.07.09-4.33-1.26-5.31s-3.67-1.3-5.28-.41-2.62,2.75-2.65,2.94,5.66,9.32,5.66,9.32c0,0,1.64-1.49,2.31-3.57.66-2.09,1.23-2.97,1.23-2.97Z"/>
      </g>
      <path class="cls-4" d="m128.61,45.72c.22-3.07.09-4.33-1.26-5.31s-3.67-1.3-5.28-.41-2.62,2.75-2.65,2.94,5.98,8.93,5.98,8.93c0,0,1.32-1.1,1.98-3.18.66-2.09,1.23-2.97,1.23-2.97Z"/>
      <path class="cls-4" d="m59.75,83.08s10.26,5.87,14.39,10.13,18.12,18.16,20.27,20.69,4.47,3.08,5.06,7.12c.59,4.05,1.18,5.52,2.28,8.72,1.1,3.2,4.26,7.75,4.3,10.32s-.13,4.34.93,5.98c1.05,1.64,2.28,10.87,3.54,13.53"/>
      <path class="cls-4" d="m107.81,132.85s2.53-1.14,2.47-5.37-.44-7.96-.44-7.96c0,0-.88-.06-1.01,1.77s-2.47,9.1-.88,13.53,1.71,6.26,1.71,9.54-.38,13.02,1.26,17.57c1.64,4.55,2.4,5.94,2.4,5.94"/>
      <path class="cls-4" d="m111.98,218.05s5.56-.04,7-1.18,3.08-1.22,4.97-1.39c1.9-.17,5.01-.51,5.31-.67s1.22-.42,1.22-.42c0,0,4.47-1.26,7.08-.8s2.82,1.52,5.94,1.14,3.71-1.26,7-.21c3.29,1.05,5.14-.08,6.7.67s2.36,2.65.59,4.34c-1.77,1.69-3.96,2.06-5.98,2.02-2.02-.04-4.76.17-6.15.42s-5.6.17-5.1,1.1,3.08,1.81,7.21,2.28,6.15.76,8.05,0,3.12-1.31,4.09-.88c.97.42,1.52,5.01.59,6.36s-1.1,3.92-4.59,3.83-9.06-.08-9.23.21,5.14-.46,5.52.42,1.1,2.65.55,4.09-5.1,2.02-5.65,2.02.93,1.14.17,1.77-2.06,1.81-2.06,1.81"/>
      <path class="cls-5" d="m130.67,215.08l10.56,9.07s5.12,1.2,5.18,1.07-2.91-2.81-2.91-2.81l.32-.79-10.43-9.86s-.54.28-1.11.25-2.4-1.8-2.4-1.8l-1.49,1.26,2.02,2.4.25,1.2Z"/>
      <path class="cls-5" d="m152.78,235.91l4.57,4.35,5.5,4.17s1.36,0,1.37-.58-4.5-5.77-4.5-5.77l-3.22-3.54-4.33.09.62,1.28Z"/>
      <path class="cls-5" d="m159.45,237.85s-.11,1.37-.95,1.75-1.16.46-1.16.46"/>
      <path class="cls-4" d="m70.65,160.35s1.77,10.37-3.46,17.11c-5.23,6.74-6.07,8.26-7.84,10.96-1.77,2.7-3.37,3.79-2.78,7.42.59,3.62,1.1,5.14-1.26,7.67s-4.3,2.95-4.3,2.95c0,0,1.85,2.95,3.2,4.13s2.36-.84,5.65-.42c3.29.42,6.66-.08,7.84,2.19,1.18,2.28.08,3.2,2.87,2.36,2.78-.84,3.79-3.12,7.08-1.6,3.29,1.52,2.95,2.11,5.98,2.61,3.03.51.67,1.69,3.03,1.43s4.13-.76,4.13-.76c0,0,20.4.67,20.73.76s.67,1.18.67,4.8-1.1,13.99-2.02,16.86c-.93,2.87-1.85,4.8-1.85,4.8"/>
      <path class="cls-4" d="m159.76,233.08c.09-.03,33.69-3.57,33.69-3.57,0,0,6.35-1.62,8.21-2.8,1.85-1.18,4.21-1.64,4.72-1.69s1.9-.13,2.15.97-.34,2.53-1.94,3.54-4.05,2.57-4.05,2.57"/>
      <path class="cls-4" d="m206.84,208.63s-1.22,3.41-.55,4,2.28,2.7,2.28,2.7c0,0,3.71,1.01,4.85.42"/>
      <path class="cls-4" d="m214.34,218.28c-.97-1.05-6.15-2.32-6.15-2.32,0,0-3.5-.55-6.91-.72s-5.86,3.03-5.86,3.03l6.42.17s2.31-1.77,4.12-1.18,4.72,2.82,6.53,3.62,3.08,2.32,3.08,2.32"/>
      <path class="cls-4" d="m206.84,224.09c-.08-.13-2.41-2.32-3.04-3.5-.52-.95-1.93-1.04-1.52-2.02"/>
      <path class="cls-4" d="m213.59,228.52s-1.52-5.14-1.98-6.15c-.46-1.01-1.64-2.87-1.94-3.12"/>
      <path class="cls-5" d="m105.07,38.5v-.93s-22.72-.35-25.34-.28-6.85,1.76-6.85,1.76l.97.55s3.26-1.33,5.88-1.39,25.34.28,25.34.28"/>
      <path class="cls-4" d="m95.72,113.98s.13-6.62.55-7.8c.42-1.18,1.43-3.67,1.43-3.67"/>
      <path class="cls-4" d="m80.89,161.26s3.2,7.08,5.9,9.52c2.7,2.44,4.47,4.64,10.11,4.21,5.65-.42,7.75.08,12.05-1.26s4.64,0,4.97-1.43c.34-1.43-1.85-7.84-4.38-10.62-2.53-2.78-5.23-4.38-5.23-4.38,0,0-9.27,1.35-13.06,1.85s-10.37,2.11-10.37,2.11Z"/>
      <path class="cls-4" d="m82.11,164.44s6.28,19.07,7.04,22.69,4.47,20.23,4.47,20.23l6.49,5.23s2.95-.76,7.16-1.94c4.21-1.18,11.63-2.53,11.8-2.87s1.77-4.21,1.01-8.18c-.76-3.96-6.74-25.79-6.74-25.79"/>
      <path class="cls-4" d="m123.7,160.84l-5.82-1.77s.61,2,1.48,4.97c1.66,5.69,4.26,14.91,5.26,20.4,1.52,8.34,3.54,19.13,3.79,19.97s.25,3.46,1.35,2.95,4.13-10.03,3.54-14.24"/>
      <path class="cls-4" d="m119.72,163.16l3.79,7.65s4.49,5.25,4.68,5.31.88.7,2.15.76,3.16-.19,3.16-.19"/>
      <path class="cls-4" d="m55.69,94.74c1.07.25,6.13,2.97,9.61,6.7,3.48,3.73,9.54,11.82,12.58,14.73s5.18,7.27,5.18,7.27c0,0,4.99-2.09,6.19-4.17,1.2-2.09,4.42-4.68,4.42-4.68"/>
      <path class="cls-4" d="m90.73,119.31s6.07,7.59,6.83,9.61"/>
      <path class="cls-4" d="m145,222.56s46.42-3.26,51.75-3.79c5.29-.53,4.82.32,5.63.56.52.16,3.56,4.67,3.56,4.67"/>
      <path class="cls-4" d="m173.63,232s-.34,2.44.25,2.99,1.47,3.46,3.41,3.67c1.94.21,2.11,1.01,2.74.55"/>
      <path class="cls-4" d="m167.77,232.42c0,.13.13,2.28.51,2.53"/>
      <path class="cls-4" d="m173.46,234.87s-3.24-.21-4.55.08-1.22,1.43-.76,2.19,1.1,2.28,1.94,2.74"/>
      <polyline class="cls-4" points="169.33 237.69 169.29 236.76 170.3 236.68 170.59 237.4"/>
      <polyline class="cls-4" points="171.77 237.14 171.6 236.6 173.63 236.6 174.17 237.65"/>
    </g>
  </g>
</svg>