<?xml version="1.0" encoding="UTF-8"?>
<svg id="_Шар_2" data-name="Шар 2" xmlns="http://www.w3.org/2000/svg" viewBox="0 0 287.41 902.46">
  <defs>
    <style>
      .cls-1, .cls-2, .cls-3, .cls-4, .cls-5, .cls-6, .cls-7 {
        stroke: #4d4e4e;
      }

      .cls-1, .cls-2, .cls-3, .cls-6, .cls-7 {
        stroke-linecap: round;
        stroke-linejoin: round;
      }

      .cls-1, .cls-2, .cls-4, .cls-5 {
        stroke-width: .5px;
      }

      .cls-1, .cls-4, .cls-7 {
        fill: none;
      }

      .cls-2 {
        fill: #fff;
      }

      .cls-3 {
        fill: #e8dac6;
      }

      .cls-3, .cls-6, .cls-7 {
        stroke-width: 2px;
      }

      .cls-4, .cls-5 {
        stroke-miterlimit: 10;
      }

      .cls-8, .cls-9, .cls-10 {
        stroke-width: 0px;
      }

      .cls-8, .cls-5 {
        fill: #dc9c4d;
      }

      .cls-9, .cls-6 {
        fill: #fffaec;
      }

      .cls-10 {
        fill: #4d4e4e;
      }
    </style>
  </defs>
  <g id="Layer_1" data-name="Layer 1">
    <g>
      <path class="cls-3" d="m197.66,2.31s-4.19-.72-64.32-1.01c-60.13-.29-64.03,1.01-64.03,1.01-1.45.19-1.2,1.4,0,1.45,1.2.05,6.36.29,6.36.29,0,0-.14,5.93-.1,7.03s1.3,1.4,1.3,1.4v122.43h-1.01s-.43,2.46-.34,6.02c.1,3.57.63,4.96.63,4.96h.72v118.05l-.84.52s-.65,2.16-.51,5.62c.14,3.47.65,4.77.65,4.77l.8.58v126.63s-.87.06-1.16.49.05,5.16.24,5.73,3.37,5.83,4.29,6.26,9.3.24,10.46.24,1.93-1.06,2.89-1.83c.96-.77,2.17-2.07,4.58-2.07h15.95c2.65,0,2.94.87,4.24,1.49s2.17,1.25,2.94,1.64,1.25.81,4.34.81h16.77c2.26,0,3.66-1.34,5.11-2.07,1.45-.72,2.51-1.83,5.16-1.83h16.29c1.78,0,2.51.77,3.71,1.64s1.78,2.26,4.34,2.26h8.29c1.98,0,3.28-3.56,3.9-4.28.63-.72.58-1.35,1.06-1.64s.67-1.88.67-3.81.1-2.41.1-2.41l-1.16-.67v-126.53l.67-.53s.72-.96.72-5.25-.67-5.4-.67-5.4l-.67-.29v-117.9l.77-.29s.58-1.2.58-5.06-.63-5.25-.63-5.25l-.77-.53V12.33s1.16-.63,1.2-.77.19-7.52.19-7.52c0,0,4.82-.19,6.07-.19s1.16-1.46.24-1.54Z"/>
      <path class="cls-6" d="m74.46,4.12h42.69c4.05,0,4.43,1.35,5.97,1.64s3.37.1,4.34.67c.96.58,2.88.48,5.87.48"/>
      <path class="cls-6" d="m192.2,4.12s-38.64,0-42.69,0-4.43,1.35-5.97,1.64-3.37.1-4.34.67c-.96.58-2.88.48-5.87.48"/>
      <path class="cls-6" d="m74.46,2.16h42.69c4.05,0,4.43,1.35,5.97,1.64s3.37.1,4.34.67,2.88.48,5.87.48"/>
      <path class="cls-6" d="m192.2,2.16s-38.64,0-42.69,0-4.43,1.35-5.97,1.64c-1.54.29-3.37.1-4.34.67s-2.88.48-5.87.48"/>
      <line class="cls-6" x1="76.68" y1="11.7" x2="189.23" y2="11.7"/>
      <path class="cls-6" d="m132.71,11.7l.24,4.96s.19.67.67.67.96-.14.96-.72.24-4.91.24-4.91"/>
      <path class="cls-6" d="m134.3,133.51V18.17c0-.47.92-.31.92-1.39s.19-5.08.19-5.08"/>
      <path class="cls-6" d="m133.12,133.51s0-114.87,0-115.34c0-.47-.92-.31-.92-1.39,0-1.08-.19-5.08-.19-5.08"/>
      <path class="cls-6" d="m75.86,134.67h1.4c.8,0,.83-1.4,2.35-1.4h11.74c1.37,0,1.77,2.29,3.94,2.29h20.53c2.85,0,1.99-1.99,5.93-1.99s10.75-.04,10.75-.04h1.14s7.95.04,11.89.04c3.94,0,3.07,1.99,5.93,1.99,2.85,0,18.36,0,20.53,0,2.17,0,2.57-2.29,3.94-2.29,1.37,0,10.23,0,11.74,0s2.35,1.4,2.35,1.4l.03.26.19.09.71.54s.41,1.64.53,4.69c.12,3.19-.46,6.16-.98,5.85,0,0,.31,0-.48,0s-.83,1.4-2.35,1.4h-11.74c-1.37,0-1.77-2.29-3.94-2.29h-20.53c-2.85,0-1.99,1.99-5.93,1.99s-11.89.04-11.89.04h-.99s-6.96-.04-10.9-.04c-3.94,0-3.07-1.99-5.93-1.99-2.85,0-18.36,0-20.53,0-2.17,0-2.57,2.29-3.94,2.29-1.37,0-10.23,0-11.74,0s-1.55-1.4-2.35-1.4h-1.4s-.59-2.37-.59-5.72.59-5.72.59-5.72Z"/>
      <path class="cls-6" d="m75.86,263.88h1.4c.79,0,.83-1.4,2.35-1.4h11.74c1.37,0,1.77,2.29,3.94,2.29h20.52c2.85,0,1.99-1.99,5.93-1.99s10.75-.04,10.75-.04h1.14s7.95.04,11.89.04c3.94,0,3.07,1.99,5.93,1.99,2.85,0,18.35,0,20.52,0s2.57-2.29,3.94-2.29,10.23,0,11.74,0,2.35,1.4,2.35,1.4l.03.26.19.09.71.54s.41,1.64.53,4.69c.12,3.19-.46,6.16-.98,5.85,0,0,.31,0-.48,0s-.83,1.4-2.35,1.4h-11.74c-1.37,0-1.77-2.29-3.94-2.29h-20.52c-2.85,0-1.99,1.99-5.93,1.99s-11.89.04-11.89.04h-.99s-6.96-.04-10.9-.04c-3.94,0-3.07-1.99-5.93-1.99-2.85,0-18.35,0-20.52,0-2.17,0-2.57,2.29-3.94,2.29-1.37,0-10.23,0-11.74,0-1.52,0-1.55-1.4-2.35-1.4h-1.4s-.59-2.37-.59-5.72.59-5.72.59-5.72Z"/>
      <path class="cls-6" d="m133.04,147.14v115.34"/>
      <path class="cls-6" d="m134.22,147.14s0,114.87,0,115.34"/>
      <path class="cls-6" d="m134.77,402l-.24-8.45s-.19-.67-.67-.67-.96.14-.96.72-.24,8.41-.24,8.41"/>
      <path class="cls-7" d="m133.18,276.71v115.34c0,.47-1.06.16-1.06,1.25s-.27,8.77-.27,8.77"/>
      <path class="cls-7" d="m134.36,276.71s0,114.87,0,115.34c0,.47.92.31.92,1.39,0,1.08.41,8.69.41,8.69"/>
      <line class="cls-6" x1="76.97" y1="402.06" x2="189.95" y2="402.06"/>
      <line class="cls-6" x1="78.03" y1="409.4" x2="189.06" y2="409.4"/>
      <line class="cls-6" x1="80.77" y1="410.15" x2="186.32" y2="410.15"/>
      <path class="cls-7" d="m181.09,45.53s-2.65,1.81-2.65,5.93v58.69c0,3.83,2.75,5.35,2.75,5.35"/>
      <path class="cls-6" d="m181.18,112.85v3.83c0,1.55,2.57,1.41,2.57-.33v-3.72c0-1.34-2.57-1.12-2.57.22Z"/>
      <path class="cls-6" d="m183.75,47.84v-3.83c0-1.55-2.57-1.41-2.57.33v3.72c0,1.34,2.57,1.12,2.57-.22Z"/>
      <path class="cls-7" d="m183.75,45.95s1.6.69,1.6,4.59v60.28c0,2.67-1.6,4.17-1.6,4.17"/>
      <path class="cls-7" d="m181.09,169.26s-2.65,1.81-2.65,5.93v58.69c0,3.83,2.75,5.35,2.75,5.35"/>
      <path class="cls-6" d="m181.18,236.58v3.83c0,1.55,2.57,1.41,2.57-.33v-3.72c0-1.34-2.57-1.12-2.57.22Z"/>
      <path class="cls-6" d="m183.75,171.57v-3.83c0-1.55-2.57-1.41-2.57.33v3.72c0,1.34,2.57,1.12,2.57-.22Z"/>
      <path class="cls-7" d="m183.75,169.68s1.6.69,1.6,4.59v60.28c0,2.67-1.6,4.17-1.6,4.17"/>
      <path class="cls-7" d="m181.09,295.01s-2.65,1.81-2.65,5.93v58.69c0,3.83,2.75,5.35,2.75,5.35"/>
      <path class="cls-6" d="m181.18,362.34v3.83c0,1.55,2.57,1.41,2.57-.33v-3.72c0-1.34-2.57-1.12-2.57.22Z"/>
      <path class="cls-6" d="m183.75,297.33v-3.83c0-1.55-2.57-1.41-2.57.33v3.72c0,1.34,2.57,1.12,2.57-.22Z"/>
      <path class="cls-7" d="m183.75,295.43s1.6.69,1.6,4.59v60.28c0,2.67-1.6,4.17-1.6,4.17"/>
      <path class="cls-7" d="m85.92,45.53s2.65,1.81,2.65,5.93c0,4.12,0,54.86,0,58.69,0,3.83-2.75,5.35-2.75,5.35"/>
      <path class="cls-6" d="m85.82,112.85v3.83c0,1.55-2.57,1.41-2.57-.33s0-2.39,0-3.72c0-1.34,2.57-1.12,2.57.22Z"/>
      <path class="cls-6" d="m83.25,47.84v-3.83c0-1.55,2.57-1.41,2.57.33s0,2.39,0,3.72c0,1.34-2.57,1.12-2.57-.22Z"/>
      <path class="cls-7" d="m83.25,45.95s-1.6.69-1.6,4.59c0,3.9,0,57.6,0,60.28,0,2.67,1.6,4.17,1.6,4.17"/>
      <path class="cls-7" d="m85.92,169.26s2.65,1.81,2.65,5.93c0,4.12,0,54.86,0,58.69,0,3.83-2.75,5.35-2.75,5.35"/>
      <path class="cls-6" d="m85.82,236.59v3.83c0,1.55-2.57,1.41-2.57-.33,0-1.73,0-2.39,0-3.72,0-1.34,2.57-1.12,2.57.22Z"/>
      <path class="cls-6" d="m83.25,171.58v-3.83c0-1.55,2.57-1.41,2.57.33s0,2.39,0,3.72c0,1.34-2.57,1.12-2.57-.22Z"/>
      <path class="cls-7" d="m83.25,169.68s-1.6.69-1.6,4.59c0,3.9,0,57.6,0,60.28s1.6,4.17,1.6,4.17"/>
      <path class="cls-7" d="m85.92,295.02s2.65,1.81,2.65,5.93c0,4.12,0,54.86,0,58.69,0,3.83-2.75,5.35-2.75,5.35"/>
      <path class="cls-6" d="m85.82,362.34s0,2.28,0,3.83c0,1.55-2.57,1.41-2.57-.33s0-2.39,0-3.72,2.57-1.12,2.57.22Z"/>
      <path class="cls-6" d="m83.25,297.33v-3.83c0-1.55,2.57-1.41,2.57.33v3.72c0,1.34-2.57,1.12-2.57-.22Z"/>
      <path class="cls-7" d="m83.25,295.44s-1.6.69-1.6,4.59c0,3.9,0,57.6,0,60.28,0,2.67,1.6,4.17,1.6,4.17"/>
      <path class="cls-6" d="m76.87,12.22s-1.25-.29-1.3-1.4.1-7.03.1-7.03c0,0-5.16-.24-6.36-.29-1.2-.05-1.45-1.25,0-1.45,0,0,3.9-1.3,64.03-1.01,60.13.29,64.32,1.01,64.32,1.01.92.08,1.01,1.54-.24,1.54s-6.07.19-6.07.19c0,0-.14,7.37-.19,7.52s-1.2.77-1.2.77l-113.08.14Z"/>
      <path class="cls-6" d="m74.46,3.86h42.69c4.05,0,4.43,1.35,5.97,1.64s3.37.1,4.34.67c.96.58,2.88.48,5.87.48"/>
      <path class="cls-6" d="m192.2,3.86s-38.64,0-42.69,0c-4.05,0-4.43,1.35-5.97,1.64-1.54.29-3.37.1-4.34.67s-2.88.48-5.87.48"/>
      <path class="cls-7" d="m74.46,1.91h42.69c4.05,0,4.43,1.35,5.97,1.64s3.37.1,4.34.67c.96.58,2.88.48,5.87.48"/>
      <path class="cls-7" d="m192.2,1.91s-38.64,0-42.69,0c-4.05,0-4.43,1.35-5.97,1.64-1.54.29-3.37.1-4.34.67s-2.88.48-5.87.48"/>
      <line class="cls-6" x1="76.68" y1="11.45" x2="189.23" y2="11.45"/>
      <path class="cls-6" d="m134.83,11.45s-.22,4.34-.24,4.91c-.04,1.09-1.42,1.56-1.64.05l-.24-4.96"/>
      <path class="cls-6" d="m76.93,401.88s-.87.06-1.16.49.05,5.16.24,5.73,3.37,5.83,4.29,6.26,9.3.24,10.46.24,1.93-1.06,2.89-1.83,2.17-2.07,4.58-2.07h15.95c2.65,0,2.94.87,4.24,1.49,1.3.63,2.17,1.25,2.94,1.64s1.25.81,4.34.81h16.77c2.26,0,3.66-1.34,5.11-2.07,1.45-.72,2.51-1.83,5.16-1.83h16.29c1.78,0,2.51.77,3.71,1.64s1.78,2.26,4.34,2.26h8.29c1.98,0,3.28-3.56,3.9-4.28s.58-1.35,1.06-1.64.67-1.88.67-3.81.1-2.41.1-2.41l-1.16-.67-112.99.04Z"/>
      <line class="cls-6" x1="77.85" y1="408.25" x2="188.88" y2="408.25"/>
      <line class="cls-6" x1="80.59" y1="408.99" x2="186.14" y2="408.99"/>
    </g>
    <g>
      <g>
        <g>
          <path class="cls-9" d="m37.31,901.46c-1.02,0-2.26-.12-3.76-.37-4.18-.69-12.01-2.49-14.29-3.07-2.3-.59-4.19-1.54-5.47-2.76-.73-.7-4.21-4.86-8.01-9.43-1.35-1.62-2.41-2.89-2.68-3.2-.73-.83-1.07-1.72-1.21-2.2-.67-.68-1.05-1.67-.49-2.56.4-.65,1.21-.96,2.47-.96.4,0,.75.03.9.05l10.93-.05v-.43s-.01-382.29-.01-382.29c-.2,0-.39-.06-.55-.17l-.69-.46c-.28-.19-.45-.51-.45-.85l.11-6.64-.14-.12c-.22-.18-.35-.45-.35-.74l-.08-3.08c0-.28.11-.56.31-.75l.73-.69c.17-.16.39-.26.63-.27.07,0,1.78-.1,5.35-.1,2.09,0,4.38.03,6.82.1.3,0,.59.01.88.01,7.64,0,14.06-2.73,20.5-5.76,6.79-3.2,16.27-3.81,16.67-3.84.58,0,52.48-.21,88.16-.21,21.28,0,32.33.07,33.79.21,6.08.59,11.34,2.19,16.09,4.89,5.46,3.12,12.21,4.53,16.17,4.53s14.48.15,15.54.26c.51.05.89.48.89.99,0,.56-.14,3.82-.16,4.2l-.1,7.05c0,.41-.26.77-.64.92l-1.21.47v382.79h11.2c2.33,0,2.45,1.58,2.45,1.89,0,.49-.31,1.51-.89,1.96-.19.27-.39.54-.48.67-.06.09-8.49,11.28-9.82,12.51-.16.15-.31.3-.48.46-1.09,1.07-2.58,2.53-5.49,3.23-1.62.39-3.49.91-5.13,1.37-1.46.41-2.62.73-3.24.86-.89.19-1.67.21-2.32.21-.25,0-1.29-.02-1.58-.02-1.37,0-16.82.02-16.82.02-.08,0-.79-.05-1.75-.05-.89,0-1.69.04-2.38.12-.51.06-1.03.09-1.56.09-.76,0-1.48-.06-2.18-.11-.59-.05-1.19-.1-1.85-.11h-.26c-.91,0-1.99.11-2.86.2-.68.07-1.27.13-1.68.13-.29,0-.51-.03-.69-.1-.29-.08-1.81-.15-2.91-.15,0,0-19.22-.03-21.02-.03-2.31,0-6.62.71-8.58,1.08-.81.15-1.74.18-3.19.18,0,0-2.69-.01-3.48-.01-3.6,0-3.81-.02-5.58-.53-1.53-.44-4.13-.76-6.19-.76s-86.73.02-93.64.03c-.28.27-.72.62-1.33.84-.61.23-1.38.51-2.94.51Z"/>
          <path class="cls-10" d="m153.58,471.64c18.05,0,32.11.05,33.7.21,4.77.46,10.2,1.64,15.69,4.77s12.3,4.67,16.66,4.67,14.47.15,15.43.26c0,.55-.15,4.15-.15,4.15l-.1,7.08-1.85.72v384.48h12.2c2.5,0,1.03,2.08.96,2.08-.01,0,.02-.06.11-.19.14-.2.19-.29.19-.29-.02,0-.81,1.08-1,1.36-.24.36-8.48,11.23-9.67,12.34-1.19,1.11-2.46,2.72-5.51,3.45-3.05.73-7.06,1.95-8.35,2.22-.75.16-1.42.19-2.11.19-.5,0-1.01-.02-1.58-.02-1.37,0-16.82.02-16.82.02,0,0-.74-.05-1.75-.05-.75,0-1.65.03-2.5.13-.51.06-.99.08-1.45.08-1.34,0-2.54-.19-4-.23-.09,0-.19,0-.28,0-1.65,0-3.69.33-4.54.33-.15,0-.27-.01-.34-.04-.46-.18-2.65-.21-3.27-.21s-18.35-.03-21.02-.03-7.56.87-8.77,1.1c-.72.14-1.62.17-3,.17-.92,0-2.05-.01-3.49-.01-3.59,0-3.69-.03-5.31-.49-1.62-.46-4.31-.79-6.46-.79s-94.09.03-94.09.03c0,0-.4.6-1.23.9-.52.19-1.16.45-2.59.45-.86,0-2.02-.09-3.6-.35-4.21-.69-12-2.49-14.21-3.05-2.2-.56-3.92-1.46-5.02-2.51s-9.76-11.59-10.63-12.57c-.87-.98-1.06-2.08-1.06-2.08,0,0-.98-.79-.54-1.5.25-.41,1.01-.49,1.63-.49.46,0,.84.05.84.05l12.02-.05-.04-1.45v-383.26h-1l-.69-.46.12-7.11-.5-.42-.08-3.08.73-.69s1.71-.1,5.29-.1c1.79,0,4.04.03,6.79.1.31,0,.61.01.91.01,7.83,0,14.49-2.82,20.93-5.86,6.69-3.15,16.3-3.74,16.3-3.74,0,0,52.01-.21,88.1-.21m0-2c-35.68,0-87.59.2-88.11.21-.04,0-.08,0-.11,0-.41.03-10.08.65-17.03,3.93-6.34,2.99-12.64,5.67-20.08,5.67-.28,0-.57,0-.86-.01-2.45-.07-4.75-.1-6.84-.1-3.6,0-5.33.1-5.41.11-.47.03-.91.22-1.26.54l-.73.69c-.41.39-.64.94-.62,1.5l.08,3.08c.01.47.18.91.48,1.26l-.1,6.2c-.01.68.32,1.32.89,1.7l.69.46s.07.05.11.07v380.99l-9.87.04c-.19-.02-.54-.05-.94-.05-1.61,0-2.73.48-3.32,1.44-.79,1.27-.37,2.64.45,3.59.2.61.59,1.51,1.35,2.36.26.29,1.37,1.63,2.66,3.18,3.97,4.77,7.31,8.78,8.09,9.51,1.4,1.33,3.44,2.37,5.91,3,2.29.59,10.17,2.4,14.38,3.09,1.56.26,2.85.38,3.93.38,1.74,0,2.64-.34,3.24-.56l.05-.02c.56-.21,1.02-.5,1.36-.78,9.14,0,91.23-.03,93.26-.03s4.48.31,5.91.72c1.86.53,2.19.56,5.86.56.79,0,1.49,0,2.12,0,.5,0,.96,0,1.37,0,1.51,0,2.49-.03,3.38-.2,1.93-.37,6.16-1.07,8.39-1.07,1.8,0,10.48.01,16.11.02,2.71,0,4.71,0,4.91,0,.91,0,2.27.05,2.67.12.27.09.57.13.93.13.46,0,1.04-.06,1.78-.14.89-.09,1.9-.2,2.75-.2.08,0,.16,0,.23,0,.63.02,1.22.06,1.8.11.72.06,1.46.12,2.26.12.58,0,1.13-.03,1.68-.09.65-.08,1.42-.11,2.27-.11.92,0,1.6.05,1.61.05.05,0,.09,0,.14,0h0s15.46-.02,16.82-.02c.28,0,.55,0,.81,0,.26,0,.52,0,.77,0,.7,0,1.54-.03,2.52-.23.66-.14,1.83-.46,3.31-.88,1.64-.46,3.5-.98,5.1-1.36,3.18-.76,4.78-2.34,5.95-3.49.16-.15.31-.3.46-.44,1.47-1.38,9.9-12.59,9.96-12.68.06-.1.21-.31.37-.52.81-.72,1.16-2.01,1.16-2.66,0-1.44-1.07-2.9-3.45-2.9h-10.2v-381.11l.57-.22c.76-.3,1.26-1.02,1.27-1.83l.1-7.05c.03-.67.15-3.65.15-4.21,0-1.02-.77-1.88-1.79-1.99-1.17-.12-11.83-.27-15.64-.27s-10.37-1.38-15.67-4.4c-4.87-2.78-10.26-4.42-16.49-5.02-.55-.05-2.22-.21-33.89-.21h0Z"/>
        </g>
        <path class="cls-5" d="m31.85,877.59s.03-2.76-.28-3.74-2-1.07-2-1.07l-.65.26-.59,4.63"/>
        <path class="cls-5" d="m31.19,877.59s-.08-1.43-.18-2.67c-.05-.62-.28-1.63-.77-1.78"/>
        <path class="cls-5" d="m187.13,877.65c0-2.28-1.95-4.64-3.79-4.64s-6.74,0-9.51,0c-2.77,0-3.69,4.58-3.69,4.58"/>
        <path class="cls-5" d="m121.86,877.59v-4.48c-.9,0-3.47,0-6.92,0-3.31,0-4.35,4.48-4.35,4.48"/>
        <path class="cls-8" d="m216.56,873.01c-1.58,0-2.5,0-2.5,0-1.69.1-1.58,4.58-1.58,4.58l1.66.06"/>
        <path class="cls-5" d="m62.32,877.68c0-2.28,1.95-4.64,3.79-4.64,1.85,0,6.74,0,9.51,0s3.69,4.58,3.69,4.58"/>
        <path class="cls-5" d="m127.53,877.59v-4.44c1.29-.04,4.63,0,6.98,0,3.31,0,4.35,4.48,4.35,4.48"/>
        <path class="cls-8" d="m245.16,877.96l-241.03-.37s-5.16-.25-.97,4.14c4.85,5.07,9.24,13.63,15.49,15.62,5.2,1.65,21.06,5.63,22.48,1.76,5.64.44,94.87.44,96.22.6,1.35.17,5.87,1.23,5.87,1.23h8.82s6.75-.8,6.75-.8c0,0,7.77-.51,8.27-.42s16.45.17,16.45.17l1.62-.5,4.35-.22,6.76.12,5.14-.15,20.21.76,5.7-1.86,5.27-1.44,6.84-5.91,7.77-10.64s1.47-1.72-2.01-2.08Z"/>
        <path class="cls-10" d="m27.17,487.87l.66,14.9c.02.4.16.79.39,1.11-.1,5.93-.64,40.22.64,48.3.31,4.95-.74,163.76-1,180.96-.75,50.2.06,111.79.32,132.03.03,2.59.06,4.74.08,6.1l-.22.19c-.41.35-.66.86-.7,1.4l-.17,2.99h-2.52v-380.91l.73-.35c.68-.32,1.12-1,1.14-1.75l.13-4.95.52-.02m1.91-2.08l-4.38.18-.18,6.82-1.87.9v384.17h6.41l.28-4.87.9-.77c.02.49.03.73.03.73.1,0-1.34-77.83-.41-139.77.28-18.41,1.33-179.12.98-181.24-1.37-8.46-.61-48.84-.61-48.84l-.41-.41-.74-16.89h0Z"/>
        <path class="cls-10" d="m223.19,487.71v5.02c0,.56.24,1.1.65,1.48l.59.54c.25.22.54.38.86.46l-.1,380.74h-3.89c.31-9.28,1.36-49.18-.95-113.77-.75-20.91.09-72.42.83-117.86.39-23.73.75-46.15.88-62.7.41-55.03-.43-72.81-.74-77.38.41-.36.67-.88.69-1.44l.55-15.09h.63m2-2h-4.56l-.62,17.02-.78.38s1.32,12.42.83,78.49c-.36,48.79-2.84,148.94-1.71,180.65,2.67,74.65.87,115.7.87,115.7h7.96l.1-384.68h-1.51l-.59-.54v-7.02h0Zm2.1,7.56h0,0Z"/>
        <line class="cls-1" x1="233.05" y1="877.65" x2="16.58" y2="877.59"/>
        <rect class="cls-1" x="47.59" y="493.19" width="5.67" height="384.39" transform="translate(100.85 1370.78) rotate(-180)"/>
        <rect class="cls-1" x="121.86" y="493.31" width="5.67" height="384.28" transform="translate(249.39 1370.9) rotate(-180)"/>
        <rect class="cls-1" x="196.33" y="493.19" width="5.67" height="384.39" transform="translate(398.32 1370.78) rotate(-180)"/>
        <path class="cls-5" d="m218.57,877.65s.19-4.32-1.31-4.64h-2.5c-1.69.1-1.58,4.58-1.58,4.58"/>
        <path class="cls-4" d="m182.54,471.01s5.92,1.38,7.88,2.11c1.96.73.58,1.04-2.61,1.04-3.19,0-30.88-.06-37.22-.06s-12.42-3.09-12.42-3.09"/>
        <path class="cls-4" d="m93.25,471.01c-.12.12-2.69-.24-3.27.63s-1.08,1.56-3.46,1.6-3.92-.12-5.38.46-7.54.46-10.27.46c0,0-1.56.14-.77-.65.34-.34-.36-.22-.86-.27-.68-.07-2.27.04-2.73-.04-1.74-.31-.23-1.45-.97-1.56"/>
        <path class="cls-4" d="m217.95,490.12s.42,4,.35,8.11.94,4.88,1.77,5.11"/>
        <path class="cls-4" d="m220.57,503.19s-1.4-.23-1.33-2.27.14-5.69.26-7.84.27-3.38-2.19-3.31-13.27,0-13.27,0"/>
        <line class="cls-1" x1="234.37" y1="485.71" x2="224.3" y2="485.71"/>
        <line class="cls-1" x1="232.64" y1="493.39" x2="227.83" y2="493.39"/>
        <line class="cls-1" x1="233.68" y1="481.89" x2="28.73" y2="481.89"/>
        <path class="cls-4" d="m193.69,481.89s-3.42-.58-5.33-1.21-3.67-.79-2.36,0,1.98,1.21,1.98,1.21"/>
        <path class="cls-4" d="m127.68,481.89s.5-.58-.5-1.06-2.1-1.17-3.61-.42c-1.52.75-1.73,1.13-1.71,1.48"/>
        <path class="cls-4" d="m60.72,481.89s2.04-.63,2.6-.98c.56-.35,1.34-1.1-1.16-.52-2.5.58-5.7,1.43-6.85,1.5"/>
        <polyline class="cls-1" points="218.9 482.04 218.9 483.43 210.93 483.43"/>
        <path class="cls-1" d="m218.35,482.66h-6.41s-.52.78-1.01.77c-.49-.01-.88-.83-.88-.83h-3.2"/>
        <polyline class="cls-1" points="205.26 482.04 205.26 485.08 204.03 485.89 204.03 492.81 203.26 493.19 195.11 493.19 194.3 492.66 194.3 485.89"/>
        <polyline class="cls-1" points="203.34 485.54 186.46 485.54 184.88 485.93"/>
        <line class="cls-1" x1="184.88" y1="482.74" x2="184.88" y2="484.81"/>
        <line class="cls-1" x1="193.89" y1="486.32" x2="186.1" y2="486.32"/>
        <path class="cls-1" d="m147.37,482.2s.08,1.03,1.05.82,3.18-.4,3.18-.4c0,0-.21.63.64.63h19.66c.51,0,.44-.6.44-.6,0,0,1.67.34,2.26.44s.18-.9.18-.9"/>
        <path class="cls-1" d="m74.72,482.2s.08,1.03,1.05.82c.97-.21,3.18-.4,3.18-.4,0,0-.21.63.64.63h19.66c.51,0,.44-.6.44-.6,0,0,1.67.34,2.26.44.59.1.18-.9.18-.9"/>
        <polyline class="cls-1" points="135.39 482.2 135.39 485.7 129.66 485.7 114.21 485.7 114.21 482.2"/>
        <polyline class="cls-1" points="129.63 486.2 129.63 492.35 128.97 493.31 120.9 493.31 120.19 492.6 120.19 485.93"/>
        <polyline class="cls-1" points="44.45 481.89 44.45 484.93 45.68 485.73 45.68 492.66 46.45 493.04 54.6 493.04 55.41 492.5 55.41 485.73"/>
        <polyline class="cls-1" points="46.38 485.39 63.26 485.39 64.83 485.77"/>
        <line class="cls-1" x1="64.83" y1="482.58" x2="64.83" y2="484.66"/>
        <line class="cls-1" x1="55.82" y1="486.17" x2="63.62" y2="486.17"/>
        <polyline class="cls-1" points="30.81 482.12 30.81 483.5 38.77 483.5"/>
        <path class="cls-1" d="m31.36,482.74h6.41s.52.78,1.01.77.88-.83.88-.83h3.2"/>
        <path class="cls-4" d="m31.49,489.99s-.42,4-.35,8.11c.08,4.11-.94,4.88-1.77,5.11"/>
        <path class="cls-4" d="m28.87,503.06s1.4-.23,1.33-2.27-.14-5.69-.26-7.84c-.12-2.15-.27-3.38,2.19-3.31,2.46.08,13.27,0,13.27,0"/>
        <line class="cls-1" x1="15.07" y1="485.58" x2="25.14" y2="485.58"/>
        <line class="cls-1" x1="16.8" y1="493.26" x2="21.61" y2="493.26"/>
        <path class="cls-4" d="m196.05,502.55h-8.31c-2.77,0-3.85-3.64-3.85-7.18s-2.26-5.6-4.05-5.6-33.74,0-38.76,0c-5.02,0-4.31,4.73-5.69,7.76-1.38,3.02-2.36,5.02-4.87,5.02-2.31,0-3,0-3,0"/>
        <path class="cls-4" d="m53.34,502.55h8.31c2.77,0,3.85-3.64,3.85-7.18,0-3.54,2.26-5.6,4.05-5.6,1.79,0,33.74,0,38.76,0,5.02,0,4.31,4.73,5.69,7.76,1.38,3.02,2.36,5.02,4.87,5.02,2.31,0,3,0,3,0"/>
        <line class="cls-1" x1="78.28" y1="494.76" x2="94.48" y2="504.4"/>
        <line class="cls-2" x1="92.43" y1="525.62" x2="78.69" y2="516.8"/>
        <line class="cls-1" x1="78.28" y1="534.88" x2="94.48" y2="544.52"/>
        <line class="cls-2" x1="78.69" y1="556.93" x2="92.43" y2="565.75"/>
        <line class="cls-1" x1="78.28" y1="576.78" x2="94.48" y2="586.42"/>
        <line class="cls-2" x1="78.69" y1="598.83" x2="92.43" y2="607.65"/>
        <line class="cls-1" x1="78.28" y1="616.9" x2="94.48" y2="626.54"/>
        <line class="cls-2" x1="78.69" y1="638.95" x2="92.43" y2="647.77"/>
        <line class="cls-1" x1="78.28" y1="658.19" x2="94.48" y2="667.82"/>
        <line class="cls-2" x1="78.69" y1="680.23" x2="92.43" y2="689.05"/>
        <line class="cls-1" x1="78.28" y1="698.31" x2="94.48" y2="707.95"/>
        <line class="cls-2" x1="78.69" y1="720.35" x2="92.43" y2="729.17"/>
        <line class="cls-1" x1="78.28" y1="740.21" x2="94.48" y2="749.85"/>
        <line class="cls-2" x1="78.69" y1="762.25" x2="92.43" y2="771.07"/>
        <line class="cls-1" x1="78.28" y1="780.33" x2="94.48" y2="789.97"/>
        <line class="cls-2" x1="78.69" y1="802.38" x2="92.43" y2="811.2"/>
        <line class="cls-1" x1="78.28" y1="823.28" x2="94.48" y2="832.92"/>
        <line class="cls-2" x1="78.69" y1="845.32" x2="92.43" y2="854.14"/>
        <line class="cls-1" x1="78.28" y1="863.4" x2="94.48" y2="873.04"/>
        <path class="cls-1" d="m87.6,489.99s-1.73,13.89-2.04,21.28c-.31,7.38-.92,9.84,0,18.15s2.04,36.33,2.04,36.33l-2.04,22.12,2.93,30.45,1.07,29.45s-2.16,18.77-2.67,25.62c-.5,6.85.71,37.84.71,37.84,0,0,.63,22.12.63,28.3,0,6.19-1.85,29.84-1.85,29.84v28.2s-.82,30.05-.82,30.05c0,0,1.62,13.08,2.04,17.71.42,4.64,0,15.1,0,15.1l-2.04,17.17"/>
        <path class="cls-1" d="m85.07,490.12s.5,18.08.26,25.46c-.24,7.38,2.9,43.38,2.27,50.17-.63,6.78-2.4,18.89-2.53,23.81-.13,4.92.59,23.69,1.31,27.84s2.56,15.53,3.18,24.92c.62,9.38-1.27,31.84-2.25,37.92-.98,6.07-1.65,47.14-.93,51.29s.18,14,.99,17.07c.81,3.08-.81,28.15,0,33.53.81,5.38-.99,38.61-.99,38.61,0,0,.32,31.22.94,35.07.62,3.85,0,21.78,0,21.78"/>
        <line class="cls-1" x1="115.56" y1="500.57" x2="93.74" y2="518.04"/>
        <path class="cls-1" d="m92.97,516.19s-1.13,1.33,0,2.87c1.13,1.54,3.67,0,3.67,0"/>
        <line class="cls-1" x1="190.29" y1="502.72" x2="168.46" y2="520.19"/>
        <path class="cls-1" d="m167.69,518.34s-1.13,1.33,0,2.87c1.13,1.54,3.67,0,3.67,0"/>
        <g>
          <line class="cls-1" x1="133.18" y1="502.04" x2="155" y2="519.51"/>
          <path class="cls-1" d="m155.77,517.66s1.13,1.33,0,2.87c-1.13,1.54-3.67,0-3.67,0"/>
        </g>
        <g>
          <line class="cls-1" x1="202.08" y1="502.6" x2="210.23" y2="520.18"/>
          <path class="cls-1" d="m211.99,520.12s-1.64,3.06-2.2,1.56c-.67-1.78-1.33-3.34-1.33-3.34"/>
        </g>
        <g>
          <line class="cls-1" x1="219.01" y1="501.71" x2="214.25" y2="519.29"/>
          <path class="cls-1" d="m213.22,519.24s.96,3.07,1.29,1.56c.39-1.78.78-3.34.78-3.34"/>
        </g>
        <line class="cls-1" x1="61.64" y1="502.55" x2="77.33" y2="517.66"/>
        <path class="cls-1" d="m78.7,516.55s1.56,1.79,0,2.87c-2.33,1.62-4,.02-3.61,0"/>
        <g>
          <line class="cls-1" x1="47.57" y1="501.47" x2="39.55" y2="519.05"/>
          <path class="cls-1" d="m37.82,518.99s1.62,3.06,2.17,1.56c.66-1.78,1.31-3.34,1.31-3.34"/>
        </g>
        <g>
          <line class="cls-1" x1="30.91" y1="500.58" x2="35.59" y2="518.16"/>
          <path class="cls-1" d="m36.61,518.11s-.94,3.07-1.27,1.56c-.38-1.78-.77-3.34-.77-3.34"/>
        </g>
        <line class="cls-1" x1="186.27" y1="700.78" x2="183.5" y2="703.24"/>
        <line class="cls-1" x1="183.5" y1="700.75" x2="186.27" y2="703.22"/>
        <line class="cls-1" x1="145.98" y1="722.94" x2="143.21" y2="725.41"/>
        <line class="cls-1" x1="143.21" y1="722.91" x2="145.98" y2="725.38"/>
        <line class="cls-1" x1="164.39" y1="713.94" x2="161.62" y2="716.41"/>
        <line class="cls-1" x1="161.62" y1="713.91" x2="164.39" y2="716.38"/>
        <line class="cls-1" x1="157.13" y1="694.69" x2="154.36" y2="697.16"/>
        <line class="cls-1" x1="154.36" y1="694.66" x2="157.13" y2="697.13"/>
        <g>
          <line class="cls-1" x1="160.72" y1="605.87" x2="162.89" y2="608.88"/>
          <line class="cls-1" x1="160.41" y1="608.63" x2="163.14" y2="606.12"/>
        </g>
        <g>
          <line class="cls-1" x1="146.29" y1="616.94" x2="148.47" y2="619.94"/>
          <line class="cls-1" x1="145.98" y1="619.69" x2="148.72" y2="617.18"/>
        </g>
        <g>
          <line class="cls-1" x1="182.46" y1="608.38" x2="184.64" y2="611.39"/>
          <line class="cls-1" x1="182.16" y1="611.14" x2="184.89" y2="608.63"/>
        </g>
        <g>
          <line class="cls-1" x1="213.18" y1="616.96" x2="215.35" y2="619.96"/>
          <line class="cls-1" x1="212.87" y1="619.71" x2="215.6" y2="617.2"/>
        </g>
        <g>
          <line class="cls-1" x1="205.08" y1="609.65" x2="207.25" y2="612.65"/>
          <line class="cls-1" x1="204.77" y1="612.4" x2="207.51" y2="609.9"/>
        </g>
        <g>
          <line class="cls-1" x1="214.21" y1="578.5" x2="216.39" y2="581.5"/>
          <line class="cls-1" x1="213.91" y1="581.25" x2="216.64" y2="578.75"/>
        </g>
        <g>
          <line class="cls-1" x1="206.14" y1="557.77" x2="208.31" y2="560.77"/>
          <line class="cls-1" x1="205.83" y1="560.52" x2="208.57" y2="558.02"/>
        </g>
        <g>
          <line class="cls-1" x1="214.21" y1="534.88" x2="216.39" y2="537.89"/>
          <line class="cls-1" x1="213.91" y1="537.63" x2="216.64" y2="535.13"/>
        </g>
        <g>
          <line class="cls-1" x1="207.51" y1="500.21" x2="209.68" y2="503.21"/>
          <line class="cls-1" x1="207.2" y1="502.96" x2="209.93" y2="500.45"/>
        </g>
        <line class="cls-1" x1="165.47" y1="646.85" x2="167.65" y2="649.86"/>
        <line class="cls-1" x1="165.16" y1="649.61" x2="167.9" y2="647.1"/>
        <line class="cls-1" x1="171.6" y1="628.98" x2="173.78" y2="631.98"/>
        <line class="cls-1" x1="171.3" y1="631.73" x2="174.03" y2="629.22"/>
        <line class="cls-1" x1="151.72" y1="634.26" x2="153.9" y2="637.26"/>
        <line class="cls-1" x1="151.41" y1="637.01" x2="154.15" y2="634.51"/>
        <line class="cls-1" x1="143.75" y1="601.77" x2="141.58" y2="598.77"/>
        <line class="cls-1" x1="144.06" y1="599.02" x2="141.33" y2="601.53"/>
        <g>
          <line class="cls-1" x1="151.31" y1="660.89" x2="153.48" y2="663.9"/>
          <line class="cls-1" x1="151" y1="663.64" x2="153.73" y2="661.14"/>
        </g>
        <g>
          <line class="cls-1" x1="136.88" y1="671.95" x2="139.06" y2="674.96"/>
          <line class="cls-1" x1="136.57" y1="674.71" x2="139.31" y2="672.2"/>
        </g>
        <line class="cls-1" x1="142.31" y1="689.27" x2="144.48" y2="692.28"/>
        <line class="cls-1" x1="142" y1="692.03" x2="144.74" y2="689.52"/>
        <line class="cls-1" x1="172.36" y1="678.63" x2="169.59" y2="681.1"/>
        <line class="cls-1" x1="169.59" y1="678.61" x2="172.36" y2="681.07"/>
        <line class="cls-1" x1="190.76" y1="682.93" x2="187.99" y2="685.4"/>
        <line class="cls-1" x1="187.99" y1="682.9" x2="190.76" y2="685.37"/>
        <line class="cls-1" x1="183.5" y1="663.68" x2="180.73" y2="666.15"/>
        <line class="cls-1" x1="180.73" y1="663.65" x2="183.5" y2="666.12"/>
        <line class="cls-1" x1="134.34" y1="656.79" x2="132.17" y2="653.79"/>
        <line class="cls-1" x1="134.65" y1="654.04" x2="131.92" y2="656.54"/>
        <line class="cls-1" x1="139" y1="560.79" x2="136.82" y2="557.79"/>
        <line class="cls-1" x1="139.31" y1="558.04" x2="136.57" y2="560.55"/>
        <line class="cls-1" x1="132.87" y1="578.67" x2="130.69" y2="575.67"/>
        <line class="cls-1" x1="133.18" y1="575.92" x2="130.44" y2="578.42"/>
        <line class="cls-1" x1="152.75" y1="573.39" x2="150.58" y2="570.38"/>
        <line class="cls-1" x1="153.06" y1="570.64" x2="150.32" y2="573.14"/>
        <line class="cls-1" x1="154.65" y1="552.96" x2="157.9" y2="554.75"/>
        <line class="cls-1" x1="155.55" y1="555.58" x2="156.94" y2="552.15"/>
        <line class="cls-1" x1="135.64" y1="540.52" x2="138.89" y2="542.3"/>
        <line class="cls-1" x1="136.54" y1="543.14" x2="137.94" y2="539.7"/>
        <line class="cls-1" x1="185.75" y1="577.37" x2="189.01" y2="579.15"/>
        <line class="cls-1" x1="186.66" y1="579.99" x2="188.05" y2="576.55"/>
        <line class="cls-1" x1="183.63" y1="558.59" x2="186.89" y2="560.37"/>
        <line class="cls-1" x1="184.54" y1="561.21" x2="185.93" y2="557.77"/>
        <line class="cls-1" x1="167.93" y1="571.88" x2="171.19" y2="573.66"/>
        <line class="cls-1" x1="168.83" y1="574.5" x2="170.23" y2="571.06"/>
        <line class="cls-1" x1="150.39" y1="529.13" x2="148.21" y2="526.13"/>
        <line class="cls-1" x1="150.7" y1="526.38" x2="147.96" y2="528.89"/>
        <line class="cls-1" x1="161.54" y1="498.12" x2="164.79" y2="499.9"/>
        <line class="cls-1" x1="162.44" y1="500.74" x2="163.83" y2="497.3"/>
        <line class="cls-1" x1="165.57" y1="527.62" x2="168.82" y2="529.41"/>
        <line class="cls-1" x1="166.47" y1="530.24" x2="167.87" y2="526.8"/>
        <line class="cls-1" x1="184.15" y1="516.33" x2="187.4" y2="518.11"/>
        <line class="cls-1" x1="185.05" y1="518.95" x2="186.44" y2="515.51"/>
        <line class="cls-1" x1="133.79" y1="516.33" x2="137.04" y2="518.11"/>
        <line class="cls-1" x1="134.69" y1="518.95" x2="136.08" y2="515.51"/>
        <line class="cls-1" x1="165.45" y1="589.63" x2="163.27" y2="586.63"/>
        <line class="cls-1" x1="165.75" y1="586.88" x2="163.02" y2="589.39"/>
        <line class="cls-1" x1="185.77" y1="536.99" x2="189.03" y2="538.77"/>
        <line class="cls-1" x1="186.67" y1="539.6" x2="188.07" y2="536.17"/>
        <line class="cls-1" x1="186.27" y1="854.9" x2="183.5" y2="857.37"/>
        <line class="cls-1" x1="183.5" y1="854.88" x2="186.27" y2="857.34"/>
        <line class="cls-1" x1="145.98" y1="863.77" x2="143.21" y2="866.24"/>
        <line class="cls-1" x1="143.21" y1="863.74" x2="145.98" y2="866.21"/>
        <line class="cls-1" x1="164.39" y1="868.06" x2="161.62" y2="870.53"/>
        <line class="cls-1" x1="161.62" y1="868.04" x2="164.39" y2="870.5"/>
        <line class="cls-1" x1="157.13" y1="848.82" x2="154.36" y2="851.28"/>
        <line class="cls-1" x1="154.36" y1="848.79" x2="157.13" y2="851.26"/>
        <g>
          <line class="cls-1" x1="160.72" y1="760" x2="162.89" y2="763.01"/>
          <line class="cls-1" x1="160.41" y1="762.75" x2="163.14" y2="760.25"/>
        </g>
        <g>
          <line class="cls-1" x1="146.29" y1="771.06" x2="148.47" y2="774.07"/>
          <line class="cls-1" x1="145.98" y1="773.82" x2="148.72" y2="771.31"/>
        </g>
        <g>
          <line class="cls-1" x1="182.46" y1="762.51" x2="184.64" y2="765.51"/>
          <line class="cls-1" x1="182.16" y1="765.26" x2="184.89" y2="762.75"/>
        </g>
        <line class="cls-1" x1="165.47" y1="800.98" x2="167.65" y2="803.99"/>
        <line class="cls-1" x1="165.16" y1="803.73" x2="167.9" y2="801.23"/>
        <line class="cls-1" x1="171.6" y1="783.1" x2="173.78" y2="786.11"/>
        <line class="cls-1" x1="171.3" y1="785.86" x2="174.03" y2="783.35"/>
        <line class="cls-1" x1="151.72" y1="788.39" x2="153.9" y2="791.39"/>
        <line class="cls-1" x1="151.41" y1="791.14" x2="154.15" y2="788.63"/>
        <line class="cls-1" x1="143.75" y1="755.9" x2="141.58" y2="752.9"/>
        <line class="cls-1" x1="144.06" y1="753.15" x2="141.33" y2="755.65"/>
        <g>
          <line class="cls-1" x1="151.31" y1="815.02" x2="153.48" y2="818.02"/>
          <line class="cls-1" x1="151" y1="817.77" x2="153.73" y2="815.26"/>
        </g>
        <g>
          <line class="cls-1" x1="136.88" y1="826.08" x2="139.06" y2="829.09"/>
          <line class="cls-1" x1="136.57" y1="828.83" x2="139.31" y2="826.33"/>
        </g>
        <line class="cls-1" x1="142.31" y1="843.4" x2="144.48" y2="846.41"/>
        <line class="cls-1" x1="142" y1="846.15" x2="144.74" y2="843.65"/>
        <line class="cls-1" x1="172.36" y1="832.76" x2="169.59" y2="835.23"/>
        <line class="cls-1" x1="169.59" y1="832.73" x2="172.36" y2="835.2"/>
        <line class="cls-1" x1="190.76" y1="837.06" x2="187.99" y2="839.52"/>
        <line class="cls-1" x1="187.99" y1="837.03" x2="190.76" y2="839.5"/>
        <line class="cls-1" x1="183.5" y1="817.81" x2="180.73" y2="820.28"/>
        <line class="cls-1" x1="180.73" y1="817.78" x2="183.5" y2="820.25"/>
        <line class="cls-1" x1="134.34" y1="810.92" x2="132.17" y2="807.91"/>
        <line class="cls-1" x1="134.65" y1="808.16" x2="131.92" y2="810.67"/>
        <line class="cls-1" x1="139" y1="728.22" x2="136.82" y2="725.21"/>
        <line class="cls-1" x1="139.31" y1="725.46" x2="136.57" y2="727.97"/>
        <line class="cls-1" x1="215.62" y1="722.69" x2="212.85" y2="725.16"/>
        <line class="cls-1" x1="212.85" y1="722.67" x2="215.62" y2="725.13"/>
        <g>
          <line class="cls-1" x1="214.56" y1="769.81" x2="216.73" y2="772.81"/>
          <line class="cls-1" x1="214.25" y1="772.56" x2="216.98" y2="770.05"/>
        </g>
        <line class="cls-1" x1="213.39" y1="755.65" x2="211.21" y2="752.65"/>
        <line class="cls-1" x1="213.69" y1="752.9" x2="210.96" y2="755.41"/>
        <g>
          <line class="cls-1" x1="206.51" y1="825.83" x2="208.69" y2="828.84"/>
          <line class="cls-1" x1="206.2" y1="828.59" x2="208.94" y2="826.08"/>
        </g>
        <line class="cls-1" x1="211.94" y1="843.16" x2="214.12" y2="846.16"/>
        <line class="cls-1" x1="211.63" y1="845.91" x2="214.37" y2="843.4"/>
        <line class="cls-1" x1="210.62" y1="810.67" x2="208.45" y2="807.67"/>
        <line class="cls-1" x1="210.93" y1="807.92" x2="208.2" y2="810.42"/>
        <g>
          <line class="cls-1" x1="206.51" y1="690.37" x2="208.69" y2="693.37"/>
          <line class="cls-1" x1="206.2" y1="693.12" x2="208.94" y2="690.61"/>
        </g>
        <line class="cls-1" x1="211.94" y1="707.69" x2="214.12" y2="710.69"/>
        <line class="cls-1" x1="211.63" y1="710.44" x2="214.37" y2="707.94"/>
        <line class="cls-1" x1="210.62" y1="675.21" x2="208.45" y2="672.2"/>
        <line class="cls-1" x1="210.93" y1="672.45" x2="208.2" y2="674.96"/>
        <line class="cls-1" x1="208.63" y1="727.97" x2="206.46" y2="724.97"/>
        <line class="cls-1" x1="208.94" y1="725.22" x2="206.2" y2="727.73"/>
        <line class="cls-1" x1="215.62" y1="651.76" x2="212.85" y2="654.22"/>
        <line class="cls-1" x1="212.85" y1="651.73" x2="215.62" y2="654.2"/>
        <line class="cls-1" x1="211.94" y1="636.75" x2="214.12" y2="639.76"/>
        <line class="cls-1" x1="211.63" y1="639.51" x2="214.37" y2="637"/>
        <line class="cls-1" x1="208.63" y1="657.04" x2="206.46" y2="654.03"/>
        <line class="cls-1" x1="208.94" y1="654.28" x2="206.2" y2="656.79"/>
        <g>
          <line class="cls-1" x1="41.26" y1="616.96" x2="43.44" y2="619.96"/>
          <line class="cls-1" x1="40.95" y1="619.71" x2="43.69" y2="617.2"/>
        </g>
        <g>
          <line class="cls-1" x1="33.16" y1="609.65" x2="35.34" y2="612.65"/>
          <line class="cls-1" x1="32.86" y1="612.4" x2="35.59" y2="609.9"/>
        </g>
        <g>
          <line class="cls-1" x1="42.3" y1="578.5" x2="44.47" y2="581.5"/>
          <line class="cls-1" x1="41.99" y1="581.25" x2="44.72" y2="578.75"/>
        </g>
        <g>
          <line class="cls-1" x1="34.22" y1="557.77" x2="36.4" y2="560.77"/>
          <line class="cls-1" x1="33.92" y1="560.52" x2="36.65" y2="558.02"/>
        </g>
        <g>
          <line class="cls-1" x1="42.3" y1="534.88" x2="44.47" y2="537.89"/>
          <line class="cls-1" x1="41.99" y1="537.63" x2="44.72" y2="535.13"/>
        </g>
        <g>
          <line class="cls-1" x1="35.19" y1="500.79" x2="37.37" y2="503.79"/>
          <line class="cls-1" x1="34.89" y1="503.54" x2="37.62" y2="501.03"/>
        </g>
        <line class="cls-1" x1="43.7" y1="722.69" x2="40.93" y2="725.16"/>
        <line class="cls-1" x1="40.93" y1="722.67" x2="43.7" y2="725.13"/>
        <g>
          <line class="cls-1" x1="42.64" y1="769.81" x2="44.82" y2="772.81"/>
          <line class="cls-1" x1="42.33" y1="772.56" x2="45.07" y2="770.05"/>
        </g>
        <line class="cls-1" x1="41.47" y1="755.65" x2="39.3" y2="752.65"/>
        <line class="cls-1" x1="41.78" y1="752.9" x2="39.04" y2="755.41"/>
        <g>
          <line class="cls-1" x1="34.6" y1="825.83" x2="36.77" y2="828.84"/>
          <line class="cls-1" x1="34.29" y1="828.59" x2="37.02" y2="826.08"/>
        </g>
        <line class="cls-1" x1="40.03" y1="843.16" x2="42.2" y2="846.16"/>
        <line class="cls-1" x1="39.72" y1="845.91" x2="42.45" y2="843.4"/>
        <line class="cls-1" x1="38.71" y1="810.67" x2="36.53" y2="807.67"/>
        <line class="cls-1" x1="39.02" y1="807.92" x2="36.28" y2="810.42"/>
        <g>
          <line class="cls-1" x1="34.6" y1="690.37" x2="36.77" y2="693.37"/>
          <line class="cls-1" x1="34.29" y1="693.12" x2="37.02" y2="690.61"/>
        </g>
        <line class="cls-1" x1="40.03" y1="707.69" x2="42.2" y2="710.69"/>
        <line class="cls-1" x1="39.72" y1="710.44" x2="42.45" y2="707.94"/>
        <line class="cls-1" x1="38.71" y1="675.21" x2="36.53" y2="672.2"/>
        <line class="cls-1" x1="39.02" y1="672.45" x2="36.28" y2="674.96"/>
        <line class="cls-1" x1="36.72" y1="727.97" x2="34.54" y2="724.97"/>
        <line class="cls-1" x1="37.02" y1="725.22" x2="34.29" y2="727.73"/>
        <line class="cls-1" x1="43.7" y1="651.76" x2="40.93" y2="654.22"/>
        <line class="cls-1" x1="40.93" y1="651.73" x2="43.7" y2="654.2"/>
        <line class="cls-1" x1="40.03" y1="636.75" x2="42.2" y2="639.76"/>
        <line class="cls-1" x1="39.72" y1="639.51" x2="42.45" y2="637"/>
        <line class="cls-1" x1="36.72" y1="657.04" x2="34.54" y2="654.03"/>
        <line class="cls-1" x1="37.02" y1="654.28" x2="34.29" y2="656.79"/>
        <line class="cls-1" x1="152.75" y1="740.81" x2="150.58" y2="737.81"/>
        <line class="cls-1" x1="153.06" y1="738.06" x2="150.32" y2="740.57"/>
        <line class="cls-1" x1="163.9" y1="696.5" x2="167.15" y2="698.29"/>
        <line class="cls-1" x1="164.8" y1="699.12" x2="166.2" y2="695.69"/>
        <line class="cls-1" x1="185.75" y1="744.79" x2="189.01" y2="746.57"/>
        <line class="cls-1" x1="186.66" y1="747.41" x2="188.05" y2="743.97"/>
        <line class="cls-1" x1="183.63" y1="726.01" x2="186.89" y2="727.79"/>
        <line class="cls-1" x1="184.54" y1="728.63" x2="185.93" y2="725.19"/>
        <line class="cls-1" x1="167.93" y1="726.01" x2="171.19" y2="727.79"/>
        <line class="cls-1" x1="168.83" y1="728.62" x2="170.23" y2="725.19"/>
        <line class="cls-1" x1="110.61" y1="700.78" x2="107.84" y2="703.24"/>
        <line class="cls-1" x1="107.84" y1="700.75" x2="110.61" y2="703.22"/>
        <line class="cls-1" x1="70.32" y1="722.94" x2="67.55" y2="725.41"/>
        <line class="cls-1" x1="67.55" y1="722.91" x2="70.32" y2="725.38"/>
        <line class="cls-1" x1="81.46" y1="694.69" x2="78.69" y2="697.16"/>
        <line class="cls-1" x1="78.69" y1="694.66" x2="81.46" y2="697.13"/>
        <g>
          <line class="cls-1" x1="70.62" y1="616.94" x2="72.8" y2="619.94"/>
          <line class="cls-1" x1="70.32" y1="619.69" x2="73.05" y2="617.18"/>
        </g>
        <g>
          <line class="cls-1" x1="106.79" y1="608.38" x2="108.97" y2="611.39"/>
          <line class="cls-1" x1="106.49" y1="611.14" x2="109.22" y2="608.63"/>
        </g>
        <line class="cls-1" x1="95.93" y1="628.98" x2="98.11" y2="631.98"/>
        <line class="cls-1" x1="95.63" y1="631.73" x2="98.36" y2="629.22"/>
        <line class="cls-1" x1="76.05" y1="634.26" x2="78.23" y2="637.26"/>
        <line class="cls-1" x1="75.75" y1="637.01" x2="78.48" y2="634.51"/>
        <line class="cls-1" x1="68.09" y1="601.77" x2="65.91" y2="598.77"/>
        <line class="cls-1" x1="68.39" y1="599.02" x2="65.66" y2="601.53"/>
        <g>
          <line class="cls-1" x1="67.25" y1="546.18" x2="69.43" y2="549.19"/>
          <line class="cls-1" x1="66.94" y1="548.93" x2="69.68" y2="546.43"/>
        </g>
        <line class="cls-1" x1="64.71" y1="531.02" x2="62.54" y2="528.01"/>
        <line class="cls-1" x1="65.02" y1="528.26" x2="62.29" y2="530.77"/>
        <line class="cls-1" x1="72.76" y1="504.04" x2="70.58" y2="501.03"/>
        <line class="cls-1" x1="73.07" y1="501.28" x2="70.33" y2="503.79"/>
        <g>
          <line class="cls-1" x1="75.64" y1="660.89" x2="77.81" y2="663.9"/>
          <line class="cls-1" x1="75.33" y1="663.64" x2="78.06" y2="661.14"/>
        </g>
        <g>
          <line class="cls-1" x1="61.21" y1="671.95" x2="63.39" y2="674.96"/>
          <line class="cls-1" x1="60.9" y1="674.71" x2="63.64" y2="672.2"/>
        </g>
        <line class="cls-1" x1="66.64" y1="689.27" x2="68.82" y2="692.28"/>
        <line class="cls-1" x1="66.33" y1="692.03" x2="69.07" y2="689.52"/>
        <line class="cls-1" x1="96.69" y1="678.63" x2="93.92" y2="681.1"/>
        <line class="cls-1" x1="93.92" y1="678.61" x2="96.69" y2="681.07"/>
        <line class="cls-1" x1="115.1" y1="682.93" x2="112.33" y2="685.4"/>
        <line class="cls-1" x1="112.33" y1="682.9" x2="115.1" y2="685.37"/>
        <line class="cls-1" x1="107.84" y1="663.68" x2="105.07" y2="666.15"/>
        <line class="cls-1" x1="105.07" y1="663.65" x2="107.84" y2="666.12"/>
        <line class="cls-1" x1="57.2" y1="578.67" x2="55.03" y2="575.67"/>
        <line class="cls-1" x1="57.51" y1="575.92" x2="54.77" y2="578.42"/>
        <line class="cls-1" x1="77.08" y1="573.39" x2="74.91" y2="570.38"/>
        <line class="cls-1" x1="77.39" y1="570.64" x2="74.66" y2="573.14"/>
        <line class="cls-1" x1="110.09" y1="577.37" x2="113.34" y2="579.15"/>
        <line class="cls-1" x1="110.99" y1="579.99" x2="112.38" y2="576.55"/>
        <line class="cls-1" x1="107.96" y1="558.59" x2="111.22" y2="560.37"/>
        <line class="cls-1" x1="108.87" y1="561.21" x2="110.26" y2="557.77"/>
        <line class="cls-1" x1="110.43" y1="538.68" x2="113.68" y2="540.47"/>
        <line class="cls-1" x1="111.33" y1="541.3" x2="112.73" y2="537.87"/>
        <line class="cls-1" x1="108.31" y1="519.91" x2="111.56" y2="521.69"/>
        <line class="cls-1" x1="109.21" y1="522.53" x2="110.61" y2="519.09"/>
        <line class="cls-1" x1="98.74" y1="499" x2="102" y2="500.79"/>
        <line class="cls-1" x1="99.65" y1="501.62" x2="101.04" y2="498.18"/>
        <line class="cls-1" x1="92.26" y1="571.88" x2="95.52" y2="573.66"/>
        <line class="cls-1" x1="93.17" y1="574.5" x2="94.56" y2="571.06"/>
        <line class="cls-1" x1="110.61" y1="854.9" x2="107.84" y2="857.37"/>
        <line class="cls-1" x1="107.84" y1="854.88" x2="110.61" y2="857.34"/>
        <line class="cls-1" x1="70.32" y1="863.77" x2="67.55" y2="866.24"/>
        <line class="cls-1" x1="67.55" y1="863.74" x2="70.32" y2="866.21"/>
        <line class="cls-1" x1="81.46" y1="848.82" x2="78.69" y2="851.28"/>
        <line class="cls-1" x1="78.69" y1="848.79" x2="81.46" y2="851.26"/>
        <g>
          <line class="cls-1" x1="70.62" y1="771.06" x2="72.8" y2="774.07"/>
          <line class="cls-1" x1="70.32" y1="773.82" x2="73.05" y2="771.31"/>
        </g>
        <g>
          <line class="cls-1" x1="106.79" y1="762.51" x2="108.97" y2="765.51"/>
          <line class="cls-1" x1="106.49" y1="765.26" x2="109.22" y2="762.75"/>
        </g>
        <line class="cls-1" x1="89.8" y1="800.98" x2="91.98" y2="803.99"/>
        <line class="cls-1" x1="89.5" y1="803.73" x2="92.23" y2="801.23"/>
        <line class="cls-1" x1="95.93" y1="783.1" x2="98.11" y2="786.11"/>
        <line class="cls-1" x1="95.63" y1="785.86" x2="98.36" y2="783.35"/>
        <line class="cls-1" x1="76.05" y1="788.39" x2="78.23" y2="791.39"/>
        <line class="cls-1" x1="75.75" y1="791.14" x2="78.48" y2="788.63"/>
        <line class="cls-1" x1="68.09" y1="755.9" x2="65.91" y2="752.9"/>
        <line class="cls-1" x1="68.39" y1="753.15" x2="65.66" y2="755.65"/>
        <g>
          <line class="cls-1" x1="75.64" y1="815.02" x2="77.81" y2="818.02"/>
          <line class="cls-1" x1="75.33" y1="817.77" x2="78.06" y2="815.26"/>
        </g>
        <g>
          <line class="cls-1" x1="61.21" y1="826.08" x2="63.39" y2="829.09"/>
          <line class="cls-1" x1="60.9" y1="828.83" x2="63.64" y2="826.33"/>
        </g>
        <line class="cls-1" x1="66.64" y1="843.4" x2="68.82" y2="846.41"/>
        <line class="cls-1" x1="66.33" y1="846.15" x2="69.07" y2="843.65"/>
        <g>
          <line class="cls-1" x1="58.48" y1="782.86" x2="60.65" y2="785.86"/>
          <line class="cls-1" x1="58.17" y1="785.61" x2="60.9" y2="783.1"/>
        </g>
        <line class="cls-1" x1="63.91" y1="800.18" x2="66.08" y2="803.18"/>
        <line class="cls-1" x1="63.6" y1="802.93" x2="66.33" y2="800.43"/>
        <line class="cls-1" x1="96.69" y1="832.76" x2="93.92" y2="835.23"/>
        <line class="cls-1" x1="93.92" y1="832.73" x2="96.69" y2="835.2"/>
        <line class="cls-1" x1="115.1" y1="837.06" x2="112.33" y2="839.52"/>
        <line class="cls-1" x1="112.33" y1="837.03" x2="115.1" y2="839.5"/>
        <line class="cls-1" x1="96.68" y1="869.31" x2="93.91" y2="871.78"/>
        <line class="cls-1" x1="93.91" y1="869.28" x2="96.68" y2="871.75"/>
        <line class="cls-1" x1="101.17" y1="851.47" x2="98.4" y2="853.93"/>
        <line class="cls-1" x1="98.4" y1="851.44" x2="101.17" y2="853.9"/>
        <line class="cls-1" x1="107.84" y1="817.81" x2="105.07" y2="820.28"/>
        <line class="cls-1" x1="105.07" y1="817.78" x2="107.84" y2="820.25"/>
        <line class="cls-1" x1="116.85" y1="797.14" x2="114.08" y2="799.61"/>
        <line class="cls-1" x1="114.08" y1="797.11" x2="116.85" y2="799.58"/>
        <line class="cls-1" x1="109.59" y1="777.89" x2="106.82" y2="780.36"/>
        <line class="cls-1" x1="106.82" y1="777.86" x2="109.59" y2="780.33"/>
        <line class="cls-1" x1="63.33" y1="728.22" x2="61.16" y2="725.21"/>
        <line class="cls-1" x1="63.64" y1="725.46" x2="60.9" y2="727.97"/>
        <line class="cls-1" x1="77.08" y1="740.81" x2="74.91" y2="737.81"/>
        <line class="cls-1" x1="77.39" y1="738.06" x2="74.66" y2="740.57"/>
        <line class="cls-1" x1="88.23" y1="696.5" x2="91.48" y2="698.29"/>
        <line class="cls-1" x1="89.13" y1="699.12" x2="90.53" y2="695.69"/>
        <line class="cls-1" x1="110.09" y1="744.79" x2="113.34" y2="746.57"/>
        <line class="cls-1" x1="110.99" y1="747.41" x2="112.38" y2="743.97"/>
        <line class="cls-1" x1="107.96" y1="726.01" x2="111.22" y2="727.79"/>
        <line class="cls-1" x1="108.87" y1="728.63" x2="110.26" y2="725.19"/>
        <line class="cls-1" x1="92.26" y1="726.01" x2="95.52" y2="727.79"/>
        <line class="cls-1" x1="93.17" y1="728.62" x2="94.56" y2="725.19"/>
      </g>
      <path class="cls-7" d="m233.71,877.76s9.36,0,12.3,0,.42,2.83,1.08,1.88c.65-.94-.57.72-.81,1.08s-8.55,11.23-9.75,12.34c-1.2,1.12-2.48,2.72-5.56,3.45-3.08.73-7.12,1.95-8.42,2.22-1.3.27-2.35.17-3.72.17s-16.96.02-16.96.02c0,0-2.26-.16-4.28.08-2.02.23-3.51-.1-5.5-.15-1.99-.05-4.74.47-5.2.29-.47-.18-2.67-.21-3.29-.21s-18.51-.03-21.19-.03c-2.69,0-7.62.87-8.84,1.1-1.21.23-2.92.15-6.54.15s-3.72-.03-5.35-.49c-1.63-.46-4.34-.79-6.51-.79-2.17,0-94.86.03-94.86.03,0,0-.41.6-1.24.9-.83.31-2,.79-6.24.1-4.25-.69-12.1-2.49-14.32-3.05-2.22-.56-3.95-1.46-5.07-2.51-1.11-1.05-9.84-11.59-10.71-12.57s-1.07-2.08-1.07-2.08c0,0-.99-.79-.54-1.5s2.48-.44,2.48-.44l12.11-.05-.04-1.45"/>
    </g>
    <polyline class="cls-7" points="181.77 205.49 262.58 204.76 286.41 204.31"/>
    <polyline class="cls-7" points="181.1 336.82 262.02 259.74 262.58 204.76"/>
    <polyline class="cls-7" points="181.1 70.91 262.23 158.04 262.19 203.26"/>
  </g>
</svg>