<?xml version="1.0" encoding="UTF-8"?>
<svg id="_Шар_2" data-name="Шар 2" xmlns="http://www.w3.org/2000/svg" viewBox="0 0 942.34 933.87">
  <defs>
    <style>
      .cls-1 {
        fill: #4d4d4f;
      }

      .cls-1, .cls-2, .cls-3, .cls-4, .cls-5 {
        stroke-width: 0px;
      }

      .cls-6 {
        isolation: isolate;
      }

      .cls-7 {
        stroke: #4d4d4f;
      }

      .cls-7, .cls-8, .cls-9, .cls-10, .cls-11 {
        fill: none;
      }

      .cls-7, .cls-8, .cls-12, .cls-10, .cls-13 {
        stroke-miterlimit: 10;
      }

      .cls-7, .cls-9, .cls-12, .cls-14, .cls-10, .cls-15, .cls-13 {
        stroke-width: .5px;
      }

      .cls-8, .cls-9, .cls-12, .cls-14, .cls-10, .cls-15, .cls-13, .cls-16, .cls-11 {
        stroke: #4d4e4e;
      }

      .cls-9, .cls-14, .cls-15, .cls-16, .cls-11 {
        stroke-linecap: round;
        stroke-linejoin: round;
      }

      .cls-17 {
        opacity: .4;
      }

      .cls-2 {
        fill: #ec8822;
      }

      .cls-12 {
        fill: #cc202a;
      }

      .cls-14 {
        fill: #fff;
      }

      .cls-3, .cls-13 {
        fill: #dc9c4d;
      }

      .cls-4, .cls-15, .cls-16 {
        fill: #fffaec;
      }

      .cls-5 {
        fill: #4d4e4e;
      }

      .cls-16, .cls-11 {
        stroke-width: 2px;
      }
    </style>
  </defs>
  <g id="Layer_1" data-name="Layer 1">
    <g>
      <path class="cls-7" d="m324.52,630.15s3.56-1.39,13.75-1.39c10.19,0,42.4,0,42.4,0,0,0,6.07-1.26,8.66-1.61,1.89-.26,4.91-.14,6.41-.06"/>
      <path class="cls-16" d="m326.01,655.25l8.46-.31s5.86-.28,8.87-1.58,30.98-16.47,30.98-16.47l9.54-3.92s6.6-1.32,9.33-2.8c0,0,.45-.26,1.8-.79,1.35-.53,1.65-2.24,1.65-2.24l-166.43-8.08-11.7,10.18c.18.78.7,2.28,2.18,3.05,2.06,1.06,29.5,15.95,29.5,15.95l17.36,17.07,8.84,7.8v4.58s-.29,22.72-.29,22.72c0,0-.14,1.32-.76,3.92-.61,2.6-2.46,6.81-3.31,6.81s-.97,1.73.12,1.73,59.08,0,59.08,0c0,0,.8.12.84-.89.04-1-.73-.87-.73-.87,0,0-.67-.93-1.62-2.35-.95-1.42-2.55-5.2-2.55-8.61,0-3.4-.77-31.16-.77-31.16l-.38-13.75Z"/>
      <rect class="cls-16" x="276.15" y="884.23" width="51.49" height="46.95" transform="translate(603.78 1815.42) rotate(-180)"/>
      <path class="cls-9" d="m321.24,902.15c-.3-.47-.72-.76-1.18-.76-.92,0-1.67,1.16-1.67,2.59s.75,2.59,1.67,2.59c.49,0,.93-.33,1.23-.84"/>
      <ellipse class="cls-9" cx="321.43" cy="903.98" rx="1.1" ry="1.68"/>
      <path class="cls-9" d="m321.43,902.31h-1.1c-.61,0-1.1.75-1.1,1.68,0,.93.49,1.68,1.1,1.68h1.1"/>
      <path class="cls-9" d="m282.24,902.15c.3-.47.72-.76,1.18-.76.92,0,1.67,1.16,1.67,2.59s-.75,2.59-1.67,2.59c-.49,0-.93-.33-1.23-.84"/>
      <path class="cls-9" d="m283.15,903.98c0,.93-.49,1.68-1.1,1.68-.61,0-1.1-.75-1.1-1.68,0-.93.49-1.68,1.1-1.68.61,0,1.1.75,1.1,1.68Z"/>
      <path class="cls-9" d="m282.05,902.31h1.1c.61,0,1.1.75,1.1,1.68,0,.93-.49,1.68-1.1,1.68h-1.1"/>
      <circle class="cls-9" cx="308.36" cy="693.29" r="1.83"/>
      <path class="cls-9" d="m315.1,629.96s.91,1.99-1.71,5.25c-2.62,3.26-11.56,14.47-12.91,16.24-1.35,1.77-2.55,2.77-6.24,2.84-3.69.07-11.48-.03-11.48-.03"/>
      <line class="cls-9" x1="218.41" y1="628.76" x2="226.58" y2="628.76"/>
      <path class="cls-9" d="m304.73,646.92s-.35,23.26-.35,27.8,7.8,5.6,7.8,0c0-2.27-.35-1.77,0-3.19s11.06-41.54,11.06-41.54"/>
      <path class="cls-9" d="m318.09,629.99l-11.55,38.27s-.51,1.56-.82,2.71-.96,2.24-.74,3.86c.22,1.61.35,2.52,1.59,3.23"/>
      <path class="cls-9" d="m311.51,638.13s.6,2.9-.25,5.74c-.85,2.84-5.25,16.1-5.25,16.1,0,0-.29,1.14-.29-2.18s.09-13.08.09-13.08"/>
      <path class="cls-9" d="m255.76,630.36s-8.69-2.06-11.63-2.62c-2.94-.57-3.09-.78-6.06-.78s-6.38-.07-8.87,0c-2.48.07-3.16,2.31-2.31,2.8.85.5,6.53,4.33,6.53,4.33"/>
      <line class="cls-9" x1="256.75" y1="636.28" x2="240.44" y2="627.04"/>
      <line class="cls-9" x1="264.27" y1="634.08" x2="241.02" y2="627.12"/>
      <line class="cls-9" x1="227.74" y1="628.27" x2="234.07" y2="631.45"/>
      <line class="cls-9" x1="241.64" y1="634.97" x2="243.77" y2="636.28"/>
      <path class="cls-9" d="m235.65,628.51s-.98.7-1.17,1.16-.07,2.98-.18,3.98c-.11.99.28,1.49,1.17,1.49,0,0,4.43,0,5.21,0s1.21-.5,1.17-1.06c-.04-.57-.21-3.77-.21-4.33,0-.56-1.91-1.24-1.91-1.24h-4.08Z"/>
      <line class="cls-9" x1="239.73" y1="629.96" x2="239.73" y2="633.6"/>
      <line class="cls-9" x1="238.07" y1="629.96" x2="238.07" y2="633.6"/>
      <line class="cls-9" x1="236.34" y1="629.96" x2="236.34" y2="633.6"/>
      <line class="cls-9" x1="324.52" y1="628.76" x2="355.84" y2="777.61"/>
      <line class="cls-9" x1="348.63" y1="773.26" x2="356.95" y2="776.95"/>
      <path class="cls-9" d="m355.62,774.49s5.17.56,3.56,2.07c-1.61,1.51-5.15,2.94-6.38,1.05-1.23-1.89,1.37-1.65,1.37-1.65"/>
      <line class="cls-9" x1="360.92" y1="778.63" x2="358.17" y2="777.61"/>
      <path class="cls-9" d="m359.55,779.12c0,.11.11.82-.35,1.24-.46.43-1.03.89-1.03.89"/>
      <path class="cls-9" d="m352.79,778.63s-.7,3.54,0,4.18c.7.64,2.41.92,2.46.67"/>
      <line class="cls-9" x1="356.95" y1="780.61" x2="383.38" y2="889"/>
      <line class="cls-9" x1="379.61" y1="890.63" x2="355.62" y2="781.5"/>
      <polyline class="cls-11" points="373.84 931.56 378.21 902.31 379.61 896.61 379.13 896.29 380.19 889.06 381.04 888.56 382.25 888.2 384.09 889.62 382.96 896.22 381.97 896.22 381.97 901.75 377.54 931.56"/>
      <line class="cls-11" x1="381.97" y1="889.27" x2="375.73" y2="931.69"/>
      <path class="cls-11" d="m941.34,931.18c-3.52.19-938.85,1.82-938.7,1.68"/>
      <path class="cls-9" d="m357.9,779.81c-.12-.4-1.3-.4-1.65,0-.35.4-1.47,1.69-1.47,1.69,0,0-.45.56,0,.79"/>
      <path class="cls-9" d="m318.78,647.88c0,2.84,3.93,7.08,5.46,7.08l1.66.06"/>
      <path class="cls-9" d="m249.55,628.76h56.99c6.26,0,8.56,1.2,8.56,1.2"/>
      <line class="cls-9" x1="370.17" y1="639.94" x2="450.07" y2="776.5"/>
      <line class="cls-9" x1="459.15" y1="773.09" x2="457.5" y2="775.92"/>
      <line class="cls-9" x1="454.01" y1="780.82" x2="517.65" y2="890.63"/>
      <line class="cls-9" x1="519.99" y1="891.37" x2="450.65" y2="782.29"/>
      <path class="cls-9" d="m458.61,778.49c1.81,1.5-7.07,2.21-8.52,4.02-1.46,1.81-3.62.22-3.49-.4.13-.62.09-3-.53-4.64s.49-3.96,1.77-2.87c2.24,1.9,4.28,1.69,5.56,1.32,0,0,.98-.22,3.54.84,2.56,1.06,2.21,1.86,2.21,1.86"/>
      <line class="cls-9" x1="100.78" y1="774.49" x2="218.41" y2="628.76"/>
      <line class="cls-9" x1="93.74" y1="780.73" x2="4.57" y2="891.84"/>
      <line class="cls-9" x1="98.67" y1="782.73" x2="7.04" y2="890.67"/>
      <path class="cls-10" d="m102.11,774.49c1.38-.15,2.47.37,1.63,2.22-.84,1.86-1.46,4.42-1.63,5.61-.18,1.19-.27,1.81-1.63.97-1.37-.84-2.69-2.08-4.9-2.56-2.21-.49-4.24.97-4.81-1.02-.57-1.99.35-2.34,3.53-2.39,3.18-.04,7.42-2.8,7.82-2.84Z"/>
      <path class="cls-9" d="m89.3,778.7c-.44-.75-1.72-1.24.84-2.74,2.56-1.5,3.4-.31,3.4-.31"/>
      <line class="cls-9" x1="97.64" y1="773.18" x2="92.87" y2="776.76"/>
      <polyline class="cls-11" points="6.47 890.88 8.55 894.91 7.23 895.62 11.07 899.99 29.16 932.41"/>
      <path class="cls-11" d="m5.79,889.63c-.04-.13-1.57-2.14-1.57-2.14l-3.22,1.68,4.11,7.42h1.02s1.63,4.42,1.63,4.42l17.01,31.4"/>
      <line class="cls-11" x1="5.46" y1="893.37" x2="27.03" y2="932.41"/>
      <line class="cls-8" x1="2.63" y1="888.59" x2="3.83" y2="890.67"/>
      <path class="cls-11" d="m504.95,931.18l12.53-29.41,1-5.39h1.33s2.97-7.16,2.97-7.16c0,0-3.06-1.3-3.15-1.3l-3.39,6.92.71.62-3.06,5.36-12.24,30.35"/>
      <line class="cls-11" x1="519.25" y1="892.13" x2="503.12" y2="931.56"/>
      <path class="cls-9" d="m385.25,629.44s-.46,3.69-.4,4.51c.06.82.35,1.12,1.21,1.12s4.03,0,5.09,0,1.24-1.24,1.24-1.24l-.23-4.97"/>
      <line class="cls-9" x1="390.83" y1="629.62" x2="390.83" y2="633.07"/>
      <line class="cls-9" x1="388.62" y1="629.62" x2="388.62" y2="633.07"/>
      <line class="cls-9" x1="386.53" y1="629.62" x2="386.53" y2="633.07"/>
      <line class="cls-9" x1="380.67" y1="628.76" x2="368.31" y2="633.83"/>
      <path class="cls-10" d="m395.91,628.7s-2.66-.23-4.27-.23c-1.61,0-5.93.56-10.27,1.92-4.34,1.37-6.08,1.92-6.08,1.92"/>
      <path class="cls-9" d="m324.02,629.99l-6.55-.03s.43-1.44-3.38-1.47c-3.82-.03-14.96.12-14.96.12"/>
      <path class="cls-10" d="m382.8,627.75s-5.54-.16-6.37-.83c-.83-.66-11.67-.58-11.67-.58,0,0-12.83.87-24.58.81s-21.18.35-26.06-.23c-4.88-.58-5.97-.67-15.11-.58-9.14.09-11.81.79-18.46.81-6.65.02-13.47.23-24.79,0-11.32-.23-16.37.17-17.7-.2"/>
      <path class="cls-9" d="m302.11,649.91l-1.16,54.14v6.25c-1.32.5-4.22.87-4.8-.21l.5-5.21v-50.25"/>
      <path class="cls-9" d="m291.02,655.06s-.66,46.59-.91,48.91c-.25,2.32-1.16,5.63-1.9,6.45,0,0-3.91.74-4.22,0-.09-.22,2.48-2.32,2.48-10.26s.65-45.53.65-45.53"/>
      <path class="cls-9" d="m282.46,655.93s-.82,39.27-.82,44.23-1.21,10.37-3.27,10.68c-1.39.21-3.86-.24-2.98-.37"/>
      <path class="cls-9" d="m275.38,710.83c2.23-3.48,3.31-5.79,3.56-10.76.25-4.97,1.08-40.3,1.08-40.3"/>
      <path class="cls-9" d="m313.86,665.17s.67,31.68.91,38.96,2.07,6.62,2.07,6.62c0,0,4.05.47,3.72.08-.13-.15-.32-.39-.54-.74"/>
      <path class="cls-9" d="m320.02,710.09c-.87-1.4-2.22-4.58-2.35-10.92-.17-7.94-.32-47.08-.32-47.08"/>
      <path class="cls-9" d="m322.14,653.88s.25,41.31.33,47.02c.08,5.71,3.39,9.85,3.39,9.85l2.94.03s.83-.07,0-1.36c0,0-1.95-3.07-2.27-5.3s-.51-2.42-.45-4.77-.43-44.4-.43-44.4"/>
      <line class="cls-9" x1="307.76" y1="642.93" x2="307.76" y2="654.03"/>
      <path class="cls-9" d="m325.47,628.62c0-.2-.43-.37-.95-.37s-.95.17-.95.37"/>
      <g>
        <path class="cls-12" d="m217.52,141.52l-.75.1-.47.33-.51.87-.23,1.34-.24.63-.74,1.75-.43,1.32.18.82,2.6.72,2.52-.39,1.5-1.57,1.65-.18,1.02-1.1-.09-1.04-1.94.1v-1.1s.32-2.01.32-2.01v-.61h-4.9s-.67.22-.94.74-.6.83-.51,3.27"/>
        <path class="cls-12" d="m340.96,143.39c0-.7.23-1.66-.8-1.87-1.03-.22-5.42-.11-5.42-.11h-5.72s-.43.14-.43.14l.13.75.29.4.35-.02.18.9.1,1.83-1.11.09-.44,1.45,1.17.61.84,1.13,2.57.59,7.62-.22,1.48-.82-.2-1.03s-.22-.16-.26-.84c-.05-.83-.36-2.97-.36-3.89,0-.92-.57-1.06-2.48-1.06-1.91,0-9.76,0-9.76,0"/>
        <polygon class="cls-12" points="260.67 144.14 273.17 144.14 273.97 145.32 273.97 146.92 270.91 149.18 264.19 149.18 260.67 148.43 260.67 145.83 260.67 144.14"/>
        <path class="cls-5" d="m298.55,4.95c-2.23,0-6.78.43-14.43,2.92-11.74,3.82-22.26,15.77-22.26,15.77,0,0,1.41-1.5,6.67-5.63,5.34-4.19,9.43-7.26,22.1-10.85,4.02-1.14,9.65-1.23,9.65-1.23v-.86s-.53-.12-1.73-.12h0Z"/>
        <g>
          <path class="cls-4" d="m217.77,149.68c-.19,0-.39,0-.61-.02-1.89-.13-2.93-.2-3.36-1.08-.24-.49-.15-1.04.26-1.64.27-.39.51-.61.67-.75.04-.03.07-.06.1-.1,0,0,0-.01,0-.05-.03.05-.07.09-.11.13-.31.34-.74.53-1.21.53s-.9-.17-1.21-.5c-.62-.64-.58-1.62-.56-2.34,0-.12,0-.22,0-.32,0-.45-.55-1.92-.92-2.4h-8.53c-.31,0-.61-.15-.8-.4l-.51-.67c-.13-.17-.2-.39-.2-.6v-2.75c0-.27.11-.52.29-.71l.44-.44c.19-.19.44-.29.71-.29h1.14c.04-.08.1-.15.16-.22l.22-.22v-1.3c0-.25.09-.48.25-.67v-34.97c-.03-.25-2.9-34.55,28.14-68.06C258.11,1.85,296.51,1.04,300.8,1.04h.42s.63-.04,1.78-.04c9,0,40.72,2.37,71.22,32.86,22.62,22.62,23.8,63.52,23.81,63.93v35.31l.03.02c.22.19.34.46.34.75v.94l.23.13c.15.08.27.2.35.33h.78c.22,0,.43.07.6.2l.55.42c.25.19.4.49.4.8v2.92c0,.29-.12.56-.33.75l-.42.37c-.18.16-.42.25-.67.25h-8.15c-.61,1.63-.96,2.4-1.21,2.78,0,.05,0,.11.01.17.05.68.16,2.09-1.06,2.47-.3.09-.54.14-.77.14-.6,0-1.04-.27-1.32-.8v.33c.21.26.49.59.65.75.4.4.52.97.31,1.48-.25.62-.94,1.01-1.76,1.01h-3.06c-.27-.01-1.4-.1-2.14-.85-.28-.27-.54-.49-.69-.61-.17-.03-.52-.07-1.1-.07-.65,0-1.06-.27-1.29-.49-.31-.31-.49-.72-.49-1.17,0-.53.24-1,.61-1.3h-13.49c-.05.44-.18.93-.5,1.3-.33.39-.79.6-1.31.6s-.96-.19-1.31-.55c-.37-.38-.56-.89-.66-1.35h-19.07v1.34c.37.64.55,1.5.01,2.18-.71.89-1.58,1.21-5.04,1.21h-4.95c-2.32,0-3.08-1.22-3.31-1.83-.06-.03-.13-.05-.18-.07-.76-.3-1.09-.76-.96-1.37.11-.65.3-1.12.56-1.44h-25.45l-.18,1.07c-.08.48-.5.83-.99.83h-.74c-.46,0-.86-.32-.97-.76l-.28-1.14h-25.65c.41.36.61.85.52,1.39-.13.8-.76,1.28-1.13,1.5-.7.83-1.67,1.74-2.54,1.74-.16,0-.48.01-.93.03-1.02.04-2.72.11-4.54.11-.62,0-1.25,0-1.88-.03-1.56-.05-2.57-.2-3.14-.84-.49-.56-.42-1.22-.37-1.7.05-.51.12-1.43.16-2.15h-19.08c-.07.49-.23,1.03-.58,1.4-.3.32-.7.49-1.13.49-1.01,0-1.64-.88-1.96-1.9h-13.36s.05.09.07.14c.11.28.42,1.23-.07,2-.28.43-.75.69-1.32.71-.22.01-.41.01-.58.01q-.53,0-.81.29l-.2.21c-.6.64-1.34,1.44-3.33,1.44Zm175.86-14.43c.07-.16.17-.3.31-.41l.11-1.44c.02-.22.11-.44.26-.6l.12-.13v-35c.02-.42,1.78-36.54-29.18-67.59-13.07-13.07-30.14-20.33-43.87-23.53,3.8,1.57,7.86,3.74,11.59,6.72,10.73,8.57,18.23,19.55,19.23,21.04,1.76,1.23,16.6,11.96,25.73,30.27,9.65,19.37,9.62,38.94,9.62,39.14v17.93l.29.54c.07.13.11.28.12.43l.61,12.63h5.07Zm-179.83,0l.4-13.06c0-.26.12-.5.3-.68l.35-17.82c0-.17-.03-19.74,9.62-39.11,9.11-18.28,26.65-31.19,28.78-32.72.8-1.55,5.52-10.09,16.17-18.59,3.73-2.98,7.79-5.15,11.59-6.72-13.73,3.2-30.8,10.46-43.87,23.53-30.96,31.05-29.2,67.17-29.18,67.53v35.06s.12.13.12.13c.15.17.24.38.26.6l.1,1.44c.14.11.25.25.31.41h5.05Zm89.31-117.64c2.84.08,11.22.5,18.76,2.61,8.98,2.51,15.62,5.42,20.04,7.71-4.41-4.29-10.97-10.06-17.25-13.36-8.91-4.68-18.45-5.81-21.55-6.07v9.11Zm-3.83-9.11c-3.1.26-12.64,1.39-21.55,6.07-6.62,3.48-12.72,9.27-16.46,13.25,3.75-1.84,9.83-4.45,19.2-7.59,7.18-2.4,15.38-2.66,18.58-2.66.08,0,.16,0,.24,0v-9.07Z"/>
          <path class="cls-5" d="m303,2c7.81,0,39.92,1.98,70.51,32.57,22.59,22.6,23.52,63.25,23.52,63.25v35.74l.37.32v1.53l.74.42v.46h1.62l.56.42v2.92l-.42.37h-8.84s-1.16,3.19-1.44,3.33c-.28.14.32,1.9-.42,2.13-.19.06-.35.09-.48.09-.38,0-.53-.27-.64-.92l-.14-.88-1.48.05-.09,2.64s.65.79.97,1.11c.32.32-.05.79-.74.79h-3.06s-.93-.05-1.44-.56c-.51-.51-.97-.83-.97-.83,0,0-.42-.14-1.53-.14s-.93-1.34-.14-1.34,1.53-.05,1.53-.05v-1.57h-17.09s.32,1.9-.79,1.9-1.06-1.9-1.06-1.9h-20.97v2.64s.6.79.23,1.25c-.37.46-.74.83-4.26.83h-4.95c-1.71,0-2.27-.79-2.41-1.3s-1.11-.56-1.06-.79c.05-.23.14-1.11.6-1.11s.28-1.53.28-1.53h-27.6l-.32,1.9h-.74l-.46-1.9h-27.69v1.48s.88.19.79.74-.79.88-.79.88c0,0-1.25,1.53-1.9,1.53-.53,0-2.86.14-5.46.14-.61,0-1.23,0-1.85-.03-2.69-.08-2.64-.53-2.54-1.45.09-.93.23-3.24.23-3.24h-21.11s.14,1.9-.74,1.9-1.16-1.9-1.16-1.9h-16.76v1.5h1.74s.51,1.3-.51,1.34c-.2,0-.37,0-.52,0h-.03c-.62,0-.94,0-1.51.59-.65.68-1.06,1.35-2.81,1.35-.17,0-.35,0-.55-.02-2.22-.15-2.96-.24-2.34-1.14s.97-.53.97-1.94c0-.6,0-1.5-.32-1.76-.13-.11-.3-.15-.46-.15-.37,0-.74.19-.74.19,0,0,.16,1.85-.81,1.85s-.76-1.39-.76-2.15-.97-3.4-1.64-3.4h-8.8l-.51-.67v-2.75l.44-.44h2.01v-.51l.51-.51v-1.71l.25-.25v-35.39s-3.22-33.81,27.87-67.38c25.65-27.69,63.57-28.5,67.91-28.5.27,0,.41,0,.41,0,0,0,.62-.04,1.79-.04m84.61,134.26h6.74l.21-.62.35-.24.14-1.91.38-.42v-35.39s2.2-36.53-29.47-68.29c-18.06-18.06-44.63-25.84-59.96-25.84,0,0,14.86,1.34,26.35,10.51,11.48,9.17,19.12,20.97,19.12,20.97,0,0,15.9,10.63,25.56,30,9.65,19.38,9.51,38.68,9.51,38.68v18.2s.42.76.42.76l.66,13.58m-179.58,0h6.74l.43-14.03.29-.25.36-18.27s-.14-19.31,9.51-38.68c9.65-19.38,28.66-32.49,28.66-32.49,0,0,4.54-9.32,16.02-18.49,11.48-9.17,26.35-10.51,26.35-10.51-15.33,0-41.9,7.78-59.96,25.84-31.67,31.76-29.47,68.29-29.47,68.29v35.39l.38.42.14,1.91.35.24.21.62m139.92-103.53s-11.72-13.21-22.83-19.04c-11.11-5.83-23.01-6.25-23.01-6.25v11.16s10.45.06,19.49,2.59c17.71,4.95,26.35,11.54,26.35,11.54m-91.29-1.17s5.58-4.17,24.12-10.37c7.07-2.37,15.21-2.61,18.26-2.61.79,0,1.24.02,1.24.02V7.44s-11.9.42-23.01,6.25-20.6,17.87-20.6,17.87M303,0c-.98,0-1.61.03-1.83.04-.08,0-.2,0-.36,0-4.34,0-43.14.82-69.38,29.14-16.35,17.66-23.2,35.39-26.07,47.16-2.98,12.23-2.42,20.6-2.33,21.66v34.58c-.17.3-.25.63-.25.98v.73h-.52c-.53,0-1.04.21-1.41.59l-.44.44c-.37.38-.59.88-.59,1.41v2.75c0,.44.14.86.41,1.21l.51.67c.38.5.97.79,1.59.79h7.94c.22.47.46,1.14.5,1.45,0,.07,0,.16,0,.24-.03.85-.07,2.12.84,3.06.31.32.7.55,1.12.68-.11.58.02,1.07.19,1.42.68,1.4,2.15,1.5,4.19,1.64.24.02.47.02.68.02,2.24,0,3.24-.87,4.06-1.76.05-.06.11-.12.17-.18.03,0,.06,0,.09,0,.21,0,.41,0,.64-.01.89-.04,1.66-.47,2.12-1.17.36-.56.45-1.16.43-1.68h11.42c.56,1.2,1.5,1.9,2.64,1.9.71,0,1.37-.29,1.86-.81.3-.32.5-.7.63-1.08h17.23c-.03.41-.06.78-.09,1.04-.06.56-.16,1.59.62,2.47.8.91,2.02,1.12,3.86,1.18.64.02,1.28.03,1.91.03,1.84,0,3.55-.07,4.58-.11.43-.02.74-.03.89-.03.38,0,1.49,0,3.2-1.97.66-.44,1.3-1.15,1.45-2.11.03-.19.04-.37.03-.55h23.33l.09.37c.22.9,1.02,1.53,1.94,1.53h.74c.97,0,1.81-.7,1.97-1.66l.04-.23h23.11c-.01.07-.03.14-.04.21-.08.43-.2,1.73,1.37,2.45.59,1.09,1.88,2.06,4.05,2.06h4.95c3.58,0,4.83-.34,5.82-1.58.78-.98.65-2.14.21-3.05v-.09h17.34c.15.37.37.73.68,1.05.54.55,1.25.85,2.02.85.82,0,1.56-.34,2.08-.95.25-.29.42-.62.53-.95h11.11c-.01.1-.02.2-.02.3,0,.72.28,1.39.79,1.89.51.5,1.22.77,1.99.77.31,0,.53.01.69.03.11.1.25.22.39.36.98.98,2.35,1.12,2.75,1.14.03,0,.07,0,.1,0h3.06c1.22,0,2.27-.64,2.68-1.63.16-.4.21-.82.15-1.23.11-.03.23-.06.36-.1,1.86-.58,1.82-2.53,1.77-3.36.24-.44.51-1.07.88-2.02h7.45c.49,0,.96-.18,1.33-.51l.42-.37c.43-.38.67-.92.67-1.49v-2.92c0-.63-.3-1.22-.8-1.6l-.56-.42c-.35-.26-.77-.4-1.2-.4h-.34s-.01-.01-.02-.02v-.39c0-.42-.13-.82-.37-1.16v-34.91c-.04-1.74-1.21-41.76-24.11-64.66C344.16,2.39,312.1,0,303,0h0Zm1.11,16.65v-7.05c3.79.4,12.2,1.72,20.08,5.85,4.21,2.21,8.55,5.56,12.27,8.81-3.87-1.66-8.63-3.41-14.32-5-6.91-1.94-14.51-2.47-18.03-2.61h0Zm-38.26,8c3.45-3.25,7.78-6.79,12.35-9.19,7.88-4.14,16.29-5.45,20.08-5.85v6.98c-3.65.04-11.33.43-18.13,2.71-6.03,2.02-10.71,3.83-14.3,5.36h0Zm-56.89,107.66v-34.63s0-.08,0-.12c0-.09-.48-9.09,2.84-21.77,3.06-11.67,10.06-28.95,26.05-44.99,10.13-10.13,22.67-16.73,34.16-20.63-1.09.72-2.16,1.49-3.21,2.33-10.36,8.27-15.22,16.62-16.32,18.7-2.94,2.1-19.81,14.7-28.9,32.95-9.66,19.39-9.73,38.41-9.72,39.56l-.34,17.46c-.19.3-.29.64-.3,1l-.37,12.09h-3.43l-.07-.92c-.03-.37-.16-.73-.38-1.03h0Zm143.96-98.7c-1.38-2.06-8.68-12.61-19.33-21.11-1.05-.84-2.12-1.61-3.21-2.33,11.48,3.9,24.03,10.5,34.16,20.63,30.68,30.77,28.91,66.4,28.89,66.76,0,.04,0,.08,0,.12v34.63c-.22.3-.35.66-.38,1.03l-.07.92h-3.46l-.57-11.67c-.01-.3-.1-.6-.24-.86l-.17-.32v-17.69c0-.79.03-20-9.72-39.58-9.11-18.28-23.44-28.82-25.89-30.54h0Z"/>
        </g>
        <path class="cls-5" d="m303.68,4.95c-1.19,0-1.73.12-1.73.12v.86s5.62.09,9.65,1.23c12.67,3.59,16.76,6.66,22.1,10.85,5.25,4.12,6.67,5.63,6.67,5.63,0,0-10.52-11.95-22.26-15.77-7.65-2.49-12.2-2.92-14.43-2.92h0Z"/>
        <path class="cls-10" d="m279.44,10.77s-22.2,9.19-35.12,38.57c-12.92,29.38-11.18,52.16-11.18,52.16l-.08,35.56h1.47s.14-26.74.14-35.56c0-8.82.83-31.53,12.29-54.17,11.46-22.64,27.5-32.23,32.8-34.33"/>
        <rect class="cls-9" x="300.51" y="4.61" width="1.6" height="131.36" transform="translate(602.62 140.58) rotate(-180)"/>
        <path class="cls-10" d="m323.01,7.44s21.89,9.87,34.81,39.25c12.92,29.38,11.18,52.16,11.18,52.16l.08,35.56h-1.47s-.14-26.74-.14-35.56c0-8.82-.83-31.53-12.29-54.17-11.46-22.64-27.54-32.15-32.8-34.33-9.77-4.05-15.63-5.73-21.06-5.73s-15.25,2.36-18.39,4.03"/>
        <path class="cls-9" d="m387.07,122.19s-.6.25-.6,2.64,0,7.87,0,7.87c0,0,.02,1.62-1.09,1.6s-12.02,0-13.54,0-2.47-1.76-2.76-2.45"/>
        <path class="cls-10" d="m386.84,122.47s-.86-.06-1.02,1.39c-.16,1.46-.65,10.44-.65,10.44"/>
        <path class="cls-10" d="m367.56,124.49c-1.21-1.63-1.56-1.87-3.44-1.84-1.88.03-3.47,0-6.04,0-2.57,0-3.16,3.23-3.16,4.73s-.63,6.93-3.99,6.93c-3.37,0-31.88,0-34.97,0-3.09,0-4.06-2.18-4.48-3.67s-.69-2.29-1.28-4.72c-.59-2.43-2.49-3.27-4.2-3.27-1.71,0-3.89,0-3.89,0"/>
        <polyline class="cls-9" points="309.45 143.97 309.45 140.03 308.67 139.05 303.06 139.05"/>
        <rect class="cls-9" x="300.02" y="135.97" width="2.37" height="2.15" transform="translate(602.4 274.08) rotate(-180)"/>
        <rect class="cls-9" x="299.54" y="138.12" width="3.33" height=".84" transform="translate(602.4 277.09) rotate(-180)"/>
        <rect class="cls-9" x="232.65" y="137.22" width="2.37" height="2.15" transform="translate(467.67 276.6) rotate(-180)"/>
        <rect class="cls-9" x="232.17" y="139.38" width="3.33" height=".84" transform="translate(467.67 279.6) rotate(-180)"/>
        <path class="cls-9" d="m309.05,143.84s-.36-.97-.64-1.35c-.28-.38-.82-.35-1.88-.35-1.06,0-5.47,0-5.47,0"/>
        <path class="cls-9" d="m307.92,143.84s0-.73-.2-.88-.9-.19-2.36-.19-3.54.07-3.54.07l.31,1.79"/>
        <path class="cls-9" d="m293.22,143.84s.36-.97.64-1.35.82-.35,1.88-.35h5.47"/>
        <path class="cls-9" d="m294.34,143.84s0-.73.2-.88.9-.19,2.36-.19,3.54.07,3.54.07l-.31,1.79"/>
        <polyline class="cls-9" points="292.88 143.88 292.88 139.94 293.66 138.97 299.27 138.97"/>
        <path class="cls-9" d="m215.32,122.19s.6.25.6,2.64c0,2.38,0,7.87,0,7.87,0,0-.02,1.62,1.09,1.6s12.02,0,13.54,0,2.22-1.55,2.51-2.25"/>
        <path class="cls-10" d="m215.55,122.47s.86-.06,1.02,1.39.65,10.44.65,10.44"/>
        <path class="cls-10" d="m234.59,124.67c1.21-1.63,1.8-2.06,3.67-2.03,1.88.03,3.47,0,6.04,0s3.16,3.23,3.16,4.73.63,6.93,3.99,6.93c3.37,0,31.88,0,34.97,0,3.09,0,4.06-2.18,4.48-3.67s.69-2.29,1.28-4.72c.59-2.43,2.49-3.27,4.2-3.27h3.89"/>
        <rect class="cls-9" x="229.01" y="140.39" width="16.91" height="3.65" transform="translate(474.93 284.43) rotate(-180)"/>
        <line class="cls-10" x1="237.72" y1="140.39" x2="237.72" y2="144.04"/>
        <line class="cls-10" x1="229.99" y1="140.39" x2="229.99" y2="144.04"/>
        <rect class="cls-9" x="367.22" y="134.77" width="2.37" height="2.15"/>
        <rect class="cls-9" x="366.73" y="136.92" width="3.33" height=".84"/>
        <path class="cls-9" d="m373.23,141.58h-12.83s-1.37-.06-1.67.5-1.06,2.11-1.06,2.11h-1.35v-6.25h16.91s0,3.65,0,3.65Z"/>
        <line class="cls-10" x1="364.51" y1="137.94" x2="364.51" y2="141.58"/>
        <line class="cls-10" x1="372.25" y1="137.94" x2="372.25" y2="141.58"/>
        <line class="cls-9" x1="359.93" y1="141.6" x2="358.64" y2="143.97"/>
        <line class="cls-9" x1="369.7" y1="141.78" x2="368.77" y2="144.37"/>
        <line class="cls-9" x1="368.81" y1="141.78" x2="367.88" y2="144.37"/>
        <line class="cls-10" x1="367.29" y1="141.52" x2="367.29" y2="144.37"/>
        <path class="cls-9" d="m364.23,141.72s0,3.28,0,3.28"/>
        <path class="cls-9" d="m361.92,141.72s0,3.28,0,3.28"/>
        <line class="cls-9" x1="387.07" y1="144.06" x2="380.3" y2="144.11"/>
        <path class="cls-10" d="m385.47,144.29s.2,1.18-.12,1.52-.68.34-.9.2-.06-.65-.67-.66c-.61-.01-4.56,0-4.56,0"/>
        <line class="cls-9" x1="385.91" y1="147.17" x2="387.09" y2="148.35"/>
        <line class="cls-9" x1="384.95" y1="147.12" x2="380.21" y2="147.12"/>
        <polyline class="cls-9" points="273.39 145.32 262.59 145.32 262.08 145.83"/>
        <path class="cls-9" d="m272.47,146.92c-.07,0-9.58.02-10.07,0-.49-.02-.93.58-.97.67"/>
        <path class="cls-9" d="m345.91,143.88c0-.99-1.44-1.28-2.11-1.27-.68.02-.95,0-.95,0"/>
        <path class="cls-9" d="m343.39,143.08c-.5,0-.71-.28-.71-.94,0-.66.09-1.67-1.22-1.67s-1.91-.07-1.94.35,0,.69,0,.69"/>
        <path class="cls-9" d="m322.42,143.08c.12-.19,1.08-.47,1.08-.47h2.12s0-.42,0-1.2c0-.78.82-.95,1.53-.94s1.22-.07,1.41.51.05.75.17,1.32.5.38.5.38c0,0,.24-.31.31.9s.19,2.43,0,2.33.23-.55-.23-.54-.84-.32-.88.11"/>
        <path class="cls-9" d="m326.59,141.42v.97c0,.36,0,.6,0,.6"/>
        <path class="cls-9" d="m326.29,141.92c-.24.24-.42.63-.3.85"/>
        <line class="cls-9" x1="340.47" y1="146.5" x2="330.95" y2="146.5"/>
        <path class="cls-10" d="m389.79,143.53s-1.3.58-1.96.53"/>
        <path class="cls-10" d="m226.73,143.69s.17-.92-.66-.92h-2.03s.16-.85-.28-.82-.66.87-.61.87"/>
        <path class="cls-9" d="m225.14,142.46c-.01-1.3.07-1.67-1.18-1.67-.89,0-1.39.45-1.39,1.42,0,.79-.66,1.04-.66,1.04"/>
        <path class="cls-9" d="m218.58,141.27s-.19-.54-.98-.62-1.56.34-1.56,1.3"/>
        <path class="cls-9" d="m221.84,141.95c-1.15.11-1.33.78-1.33,2.08s.2,2.06-.45,2.71-1.01,1.41-2.47,1.33-2.78,0-2.88-.25"/>
        <line class="cls-9" x1="218.94" y1="146.54" x2="216.26" y2="146.54"/>
        <path class="cls-9" d="m217.22,140.63s-.54-.01-.95.04-.89-.02-.96.93-.32,1.26-1.17,1.26-1.59.03-1.59.03"/>
        <line class="cls-9" x1="212.55" y1="143.69" x2="215.31" y2="143.69"/>
        <path class="cls-9" d="m223.96,140.79s-1.16,0-1.52.08c-.47.11-.53.87-.53,1.46"/>
        <line class="cls-9" x1="214.72" y1="137.22" x2="214.72" y2="141.52"/>
        <path class="cls-10" d="m296.07,25.17c-2.09,5.28-7.09,24.26-7.37,45.12-.28,20.86-.99,63.86-.99,63.86"/>
        <path class="cls-10" d="m376.9,134.15v-30.08s.6-23.06-7.83-38.34c-8.42-15.28-10.14-16.43-10.14-16.43"/>
        <path class="cls-10" d="m354.1,42.6s-10.86-9.79-16.81-13.26c-5.95-3.47-7.65-4.17-7.65-4.17"/>
        <line class="cls-9" x1="298.86" y1="28.22" x2="289.18" y2="30.16"/>
        <line class="cls-9" x1="297.54" y1="34.38" x2="286.09" y2="36.68"/>
        <line class="cls-9" x1="296.7" y1="41.91" x2="284.15" y2="44.48"/>
        <line class="cls-9" x1="296.87" y1="48.8" x2="282.09" y2="51.83"/>
        <line class="cls-9" x1="296.76" y1="58.13" x2="278.47" y2="61.87"/>
        <line class="cls-9" x1="296.07" y1="67.26" x2="278.47" y2="70.87"/>
        <line class="cls-9" x1="296.32" y1="79.61" x2="278.72" y2="83.21"/>
        <line class="cls-9" x1="296.42" y1="94.4" x2="278.82" y2="98.01"/>
        <line class="cls-9" x1="296.21" y1="110.56" x2="278.61" y2="114.16"/>
        <line class="cls-9" x1="296.28" y1="122.21" x2="278.68" y2="125.82"/>
        <line class="cls-9" x1="309.72" y1="124.67" x2="328.71" y2="109.71"/>
        <path class="cls-9" d="m329.4,111.38s1.02-1.2,0-2.59c-1.02-1.39-3.31,0-3.31,0"/>
        <line class="cls-9" x1="246.26" y1="123.54" x2="261.22" y2="107.77"/>
        <path class="cls-9" d="m261.92,109.44s1.02-1.2,0-2.59c-1.02-1.39-3.31,0-3.31,0"/>
        <g>
          <line class="cls-9" x1="293.09" y1="124.16" x2="273.38" y2="108.39"/>
          <path class="cls-9" d="m272.69,110.05s-1.02-1.2,0-2.59c1.02-1.39,3.31,0,3.31,0"/>
        </g>
        <g>
          <line class="cls-9" x1="233.06" y1="124.16" x2="223.51" y2="107.78"/>
          <path class="cls-9" d="m221.91,107.83s1.48-2.77,1.99-1.41c.6,1.61,1.2,3.02,1.2,3.02"/>
        </g>
        <g>
          <line class="cls-9" x1="216.38" y1="122.47" x2="219.87" y2="108.58"/>
          <path class="cls-9" d="m220.8,108.63s-.87-2.77-1.16-1.41c-.35,1.61-.7,3.02-.7,3.02"/>
        </g>
        <line class="cls-9" x1="356.32" y1="123.33" x2="343.52" y2="110.05"/>
        <path class="cls-9" d="m342.28,111.06s-1.41-1.62,0-2.59c2.11-1.46,3.61-.02,3.26,0"/>
        <g>
          <line class="cls-9" x1="369.08" y1="123.58" x2="377.64" y2="108.8"/>
          <path class="cls-9" d="m379.21,108.85s-1.46-2.77-1.96-1.41c-.59,1.61-1.18,3.02-1.18,3.02"/>
        </g>
        <g>
          <line class="cls-9" x1="385.82" y1="123.86" x2="381.21" y2="109.6"/>
          <path class="cls-9" d="m380.3,109.65s.85-2.77,1.14-1.41c.35,1.61.69,3.02.69,3.02"/>
        </g>
        <line class="cls-9" x1="334.47" y1="31.87" x2="343.74" y2="30.94"/>
        <line class="cls-9" x1="343.04" y1="40.95" x2="351.33" y2="37.8"/>
        <line class="cls-9" x1="350.24" y1="46.98" x2="355.18" y2="44.67"/>
        <line class="cls-9" x1="360.38" y1="52.53" x2="364.52" y2="50.2"/>
        <line class="cls-9" x1="356.69" y1="54.55" x2="358.95" y2="53.27"/>
        <line class="cls-9" x1="359.95" y1="64.35" x2="362.21" y2="63.08"/>
        <line class="cls-9" x1="363.66" y1="62.46" x2="370.22" y2="58.68"/>
        <line class="cls-9" x1="365.85" y1="70.58" x2="373.77" y2="66.95"/>
        <line class="cls-9" x1="369.24" y1="82.02" x2="378.41" y2="78.39"/>
        <line class="cls-9" x1="370.89" y1="95.66" x2="381.54" y2="92.03"/>
        <line class="cls-9" x1="372.29" y1="107.72" x2="381.54" y2="104.37"/>
        <line class="cls-9" x1="371.43" y1="123.36" x2="383.84" y2="122.19"/>
        <g>
          <line class="cls-9" x1="333.65" y1="98.77" x2="335.62" y2="101.48"/>
          <line class="cls-9" x1="333.38" y1="101.26" x2="335.85" y2="98.99"/>
        </g>
        <g>
          <line class="cls-9" x1="320.63" y1="108.76" x2="322.59" y2="111.48"/>
          <line class="cls-9" x1="320.35" y1="111.25" x2="322.82" y2="108.98"/>
        </g>
        <g>
          <line class="cls-9" x1="353.29" y1="101.04" x2="355.26" y2="103.75"/>
          <line class="cls-9" x1="353.02" y1="103.52" x2="355.48" y2="101.26"/>
        </g>
        <line class="cls-9" x1="343.49" y1="119.64" x2="345.45" y2="122.35"/>
        <line class="cls-9" x1="343.21" y1="122.12" x2="345.68" y2="119.86"/>
        <line class="cls-9" x1="318.34" y1="95.07" x2="316.37" y2="92.35"/>
        <line class="cls-9" x1="318.61" y1="92.58" x2="316.15" y2="94.85"/>
        <line class="cls-9" x1="314.04" y1="58.06" x2="312.08" y2="55.35"/>
        <line class="cls-9" x1="314.32" y1="55.57" x2="311.85" y2="57.84"/>
        <line class="cls-9" x1="308.51" y1="74.2" x2="306.54" y2="71.49"/>
        <line class="cls-9" x1="308.78" y1="71.72" x2="306.31" y2="73.98"/>
        <line class="cls-9" x1="326.46" y1="69.44" x2="324.5" y2="66.72"/>
        <line class="cls-9" x1="326.74" y1="66.95" x2="324.27" y2="69.21"/>
        <line class="cls-9" x1="311.16" y1="30.71" x2="309.19" y2="28"/>
        <line class="cls-9" x1="311.43" y1="28.22" x2="308.96" y2="30.49"/>
        <line class="cls-9" x1="305.62" y1="46.85" x2="303.66" y2="44.14"/>
        <line class="cls-9" x1="305.9" y1="44.37" x2="303.43" y2="46.63"/>
        <line class="cls-9" x1="323.57" y1="42.09" x2="321.61" y2="39.37"/>
        <line class="cls-9" x1="323.85" y1="39.6" x2="321.38" y2="41.86"/>
        <line class="cls-9" x1="268.73" y1="36.37" x2="266.77" y2="33.66"/>
        <line class="cls-9" x1="269.01" y1="33.89" x2="266.54" y2="36.15"/>
        <line class="cls-9" x1="281.81" y1="27.66" x2="279.84" y2="24.94"/>
        <line class="cls-9" x1="282.09" y1="25.17" x2="279.62" y2="27.44"/>
        <line class="cls-9" x1="281.15" y1="47.75" x2="279.18" y2="45.03"/>
        <line class="cls-9" x1="281.43" y1="45.26" x2="278.96" y2="47.52"/>
        <line class="cls-9" x1="328.17" y1="50.99" x2="331.11" y2="52.6"/>
        <line class="cls-9" x1="328.99" y1="53.35" x2="330.25" y2="50.25"/>
        <line class="cls-9" x1="356.27" y1="73.03" x2="359.2" y2="74.64"/>
        <line class="cls-9" x1="357.08" y1="75.39" x2="358.34" y2="72.29"/>
        <line class="cls-9" x1="354.35" y1="56.07" x2="357.29" y2="57.68"/>
        <line class="cls-9" x1="355.16" y1="58.43" x2="356.43" y2="55.33"/>
        <line class="cls-9" x1="340.17" y1="68.07" x2="343.11" y2="69.68"/>
        <line class="cls-9" x1="340.99" y1="70.44" x2="342.25" y2="67.33"/>
        <line class="cls-9" x1="337.93" y1="84.1" x2="335.96" y2="81.39"/>
        <line class="cls-9" x1="338.2" y1="81.62" x2="335.74" y2="83.88"/>
        <g>
          <line class="cls-9" x1="249.12" y1="98.89" x2="247.15" y2="101.6"/>
          <line class="cls-9" x1="249.39" y1="101.37" x2="246.92" y2="99.11"/>
        </g>
        <line class="cls-9" x1="264.43" y1="95.18" x2="266.4" y2="92.47"/>
        <line class="cls-9" x1="264.16" y1="92.7" x2="266.63" y2="94.96"/>
        <line class="cls-9" x1="268.73" y1="58.18" x2="270.69" y2="55.46"/>
        <line class="cls-9" x1="268.45" y1="55.69" x2="270.92" y2="57.95"/>
        <line class="cls-9" x1="274.26" y1="74.32" x2="276.23" y2="71.61"/>
        <line class="cls-9" x1="273.99" y1="71.83" x2="276.46" y2="74.1"/>
        <line class="cls-9" x1="256.31" y1="69.55" x2="258.27" y2="66.84"/>
        <line class="cls-9" x1="256.03" y1="67.06" x2="258.5" y2="69.33"/>
        <line class="cls-9" x1="254.6" y1="51.1" x2="251.66" y2="52.71"/>
        <line class="cls-9" x1="253.78" y1="53.47" x2="252.52" y2="50.37"/>
        <line class="cls-9" x1="242.6" y1="68.19" x2="239.66" y2="69.8"/>
        <line class="cls-9" x1="241.78" y1="70.55" x2="240.52" y2="67.45"/>
        <line class="cls-9" x1="244.84" y1="84.22" x2="246.81" y2="81.5"/>
        <line class="cls-9" x1="244.57" y1="81.73" x2="247.04" y2="84"/>
        <g>
          <line class="cls-9" x1="234.74" y1="59.97" x2="232.78" y2="62.69"/>
          <line class="cls-9" x1="235.02" y1="62.46" x2="232.55" y2="60.19"/>
        </g>
        <line class="cls-9" x1="221.89" y1="125.26" x2="223.86" y2="122.55"/>
        <line class="cls-9" x1="221.61" y1="122.78" x2="224.08" y2="125.04"/>
        <line class="cls-9" x1="230.46" y1="72.51" x2="232.43" y2="69.8"/>
        <line class="cls-9" x1="230.18" y1="70.02" x2="232.65" y2="72.29"/>
        <line class="cls-9" x1="267.86" y1="122.86" x2="264.92" y2="124.47"/>
        <line class="cls-9" x1="267.04" y1="125.23" x2="265.78" y2="122.12"/>
        <line class="cls-9" x1="239.94" y1="50.23" x2="241.9" y2="47.52"/>
        <line class="cls-9" x1="239.66" y1="47.75" x2="242.13" y2="50.01"/>
        <g>
          <line class="cls-9" x1="231.3" y1="105.66" x2="229.33" y2="108.38"/>
          <line class="cls-9" x1="231.58" y1="108.15" x2="229.11" y2="105.89"/>
        </g>
        <line class="cls-9" x1="224.78" y1="74.96" x2="221.84" y2="76.57"/>
        <line class="cls-9" x1="223.97" y1="77.33" x2="222.71" y2="74.22"/>
        <line class="cls-9" x1="227.03" y1="91" x2="228.99" y2="88.28"/>
        <line class="cls-9" x1="226.75" y1="88.51" x2="229.22" y2="90.77"/>
      </g>
      <line class="cls-11" x1="276.62" y1="662.74" x2="276.62" y2="673.12"/>
      <path class="cls-15" d="m282.32,647.11l-1.56,3.02s2.88,3.46,1.15,6.67c-1.62,3.02-7.09,7.98-11.33,7.93h-26.81s-4.1.33-4.1-3.52c0,0-.04-1.78.57-3.12s1.56-3.79,4.74-6.33c3.19-2.54,4.57-2.3,4.57-2.3l1.49-2.84"/>
      <g class="cls-6">
        <path class="cls-5" d="m262.09,659.53l.37-.83h.51s-.95,2.16-.95,2.16h-.51s.39-.88.39-.88h-.73s-.39.88-.39.88h-.51s.95-2.16.95-2.16h.51s-.37.83-.37.83h.73Z"/>
        <path class="cls-5" d="m260.38,658.69h.51s-.95,2.16-.95,2.16h-.51s.95-2.16.95-2.16Z"/>
        <path class="cls-5" d="m259.54,658.69h.51s-.95,2.16-.95,2.16h-.51s.95-2.16.95-2.16Z"/>
        <path class="cls-5" d="m258.86,658.68h.55s-1.77,2.15-1.77,2.15h-.39s.11-2.16.11-2.16h.55s-.1,1.31-.1,1.31l1.05-1.31Z"/>
        <path class="cls-5" d="m255.92,659.14l.21-.47h1.11s-.95,2.16-.95,2.16h-1.11s.21-.48.21-.48h.6s.16-.37.16-.37h-.57s.21-.48.21-.48h.57s.16-.36.16-.36h-.6Z"/>
      </g>
      <g class="cls-6">
        <path class="cls-5" d="m261.5,662.04h-.16s.02-.06.02-.06h0c-.05.05-.12.07-.17.07-.14,0-.18-.13-.11-.27s.21-.27.35-.27c.05,0,.1.02.11.07l.16-.36h.16s-.36.82-.36.82Zm-.1-.37c-.07,0-.13.05-.16.11s-.01.11.05.11.13-.05.16-.11.01-.11-.05-.12Z"/>
        <path class="cls-5" d="m260.51,661.8c.08-.17.22-.28.38-.28.15,0,.21.1.14.27s-.23.27-.39.27c-.05,0-.1-.01-.13-.04-.03-.03-.04-.07-.03-.13h.16s.02.05.06.05c.07,0,.12-.04.15-.11h-.34s0-.02,0-.02Zm.38-.08c.01-.05-.01-.08-.06-.08-.04,0-.1.03-.13.08h.19Z"/>
        <path class="cls-5" d="m260.31,661.68h-.09s.07-.15.07-.15h.09s.07-.15.07-.15h.16s-.07.15-.07.15h.05s-.07.15-.07.15h-.05s-.16.36-.16.36h-.16s.16-.36.16-.36Z"/>
        <path class="cls-5" d="m259.99,661.68h-.09s.07-.15.07-.15h.09s.07-.15.07-.15h.16s-.07.15-.07.15h.05s-.07.15-.07.15h-.05s-.16.36-.16.36h-.16s.16-.36.16-.36Z"/>
        <path class="cls-5" d="m259.32,661.79c.08-.17.22-.28.38-.28.15,0,.21.1.14.27s-.23.27-.39.27c-.05,0-.1-.01-.13-.04-.03-.03-.04-.07-.03-.13h.16s.02.05.06.05c.07,0,.12-.04.15-.11h-.34s0-.02,0-.02Zm.38-.08c.01-.05-.01-.08-.06-.08-.04,0-.1.03-.13.08h.19Z"/>
        <path class="cls-5" d="m259.2,661.52h.16s-.22.51-.22.51h-.16s.09-.21.09-.21c.04-.09.04-.15-.05-.15-.03,0-.05,0-.08.02l.08-.17h.03c.06,0,.11.03.11.09h0s.04-.08.04-.08Z"/>
        <path class="cls-5" d="m258.4,661.67h-.11s.07-.15.07-.15h.11s.04-.08.04-.08c.03-.06.02-.09-.02-.09-.02,0-.04,0-.06.02l.07-.16s.05-.02.08-.02c.06,0,.11.03.12.08.02.06,0,.11-.03.18l-.03.06h.06s-.07.15-.07.15h-.06s-.16.36-.16.36h-.16s.16-.36.16-.36Z"/>
        <path class="cls-5" d="m258.07,661.5c.15,0,.23.1.16.27s-.25.27-.4.27-.23-.1-.16-.27.25-.27.4-.27Zm-.07.16c-.07,0-.13.05-.16.11s-.01.11.05.11.13-.05.16-.11.01-.11-.05-.12Z"/>
        <path class="cls-5" d="m257.54,661.51h.16s-.22.51-.22.51h-.16s.09-.21.09-.21c.04-.09.04-.15-.05-.15-.03,0-.05,0-.08.02l.08-.17h.03c.06,0,.11.03.11.09h0s.04-.08.04-.08Z"/>
        <path class="cls-5" d="m256.77,662.02h-.16s.02-.06.02-.06h0c-.05.05-.12.07-.17.07-.14,0-.18-.13-.11-.27s.21-.27.35-.27c.05,0,.1.02.11.07l.16-.36h.16s-.36.82-.36.82Zm-.1-.37c-.07,0-.13.05-.16.11s-.01.11.05.11.13-.05.16-.11.01-.11-.05-.12Z"/>
        <path class="cls-5" d="m255.79,661.77c.08-.17.22-.28.38-.28.15,0,.21.1.14.27s-.23.27-.39.27c-.05,0-.1-.01-.13-.04-.03-.03-.04-.07-.03-.13h.16s.02.05.06.05c.07,0,.12-.04.15-.11h-.34s0-.02,0-.02Zm.38-.08c.01-.05-.01-.08-.06-.08-.04,0-.1.03-.13.08h.19Z"/>
        <path class="cls-5" d="m255.24,661.77c.08-.17.22-.28.38-.28.15,0,.21.1.14.27s-.23.27-.39.27c-.05,0-.1-.01-.13-.04-.03-.03-.04-.07-.03-.13h.16s.02.05.06.05c.07,0,.12-.04.15-.11h-.34s0-.02,0-.02Zm.38-.08c.01-.05-.01-.08-.06-.08-.04,0-.1.03-.13.08h.19Z"/>
        <path class="cls-5" d="m254.92,661.52c.06-.02.11-.03.17-.03.1,0,.18.06.12.18-.04.09-.1.12-.16.13-.06.01-.11.02-.13.06-.01.03.01.04.03.04.04,0,.11-.03.15-.05v.13c-.07.04-.14.06-.21.06-.11,0-.19-.06-.13-.19.04-.09.12-.13.2-.15.02,0,.08,0,.09-.04.01-.03-.02-.03-.04-.03-.03,0-.07,0-.1.02v-.12Z"/>
      </g>
      <path class="cls-9" d="m281.39,646.64l-1.49,2.77s3.33,2.62.74,6.81-7.55,7.45-10.11,7.45h-27.66s-2.81-.15-3.12-2.71c-.11-.94.11-2.2.92-3.89,3.05-6.31,8.87-7.59,8.87-7.59l1.49-2.84h1.77s-2.91-1.06.71-.85c3.62.21,7.23.64,8.16,1.42.92.78.92.92,2.62.92,1.7,0,3.69.28,2.91-.85-.78-1.13-.68-.64,4.16-1.13,4.84-.5,5.7-.92,6.76,0s1.56.78,3.26.5Z"/>
      <g>
        <g>
          <path class="cls-4" d="m222.9,629.36c-.93,0-2.04-.11-3.4-.33-3.76-.62-10.8-2.23-12.85-2.76-2.08-.53-3.8-1.4-4.96-2.5-.66-.63-3.65-4.21-7.2-8.48-1.21-1.46-2.16-2.6-2.4-2.87-.66-.75-.97-1.54-1.1-2-.6-.63-.96-1.57-.44-2.41.38-.62,1.14-.91,2.31-.91.36,0,.67.03.81.04l9.71-.04v-.28s0-343.33,0-343.33c-.16-.02-.32-.07-.45-.16l-.62-.41c-.28-.19-.45-.51-.45-.85l.1-5.92-.09-.07c-.22-.18-.35-.45-.35-.74l-.07-2.76c0-.28.11-.56.31-.75l.66-.62c.17-.16.39-.26.63-.27.06,0,1.6-.09,4.81-.09,1.88,0,3.94.03,6.13.09.27,0,.53.01.79.01,6.84,0,12.6-2.44,18.37-5.17,6.11-2.88,14.65-3.43,15.01-3.46.52,0,47.15-.19,79.2-.19,19.12,0,29.05.06,30.37.19,5.48.53,10.22,1.97,14.49,4.41,4.89,2.79,10.93,4.06,14.47,4.06s13.02.13,13.97.24c.51.05.89.48.89.99s-.12,3.44-.14,3.77l-.09,6.33c0,.41-.26.77-.64.92l-1.02.4v343.71h9.96c2.19,0,2.3,1.5,2.3,1.8,0,.47-.28,1.4-.83,1.84-.17.23-.34.47-.41.58-.06.08-7.59,10.09-8.83,11.26-.14.13-.28.27-.43.41-.99.97-2.34,2.29-4.97,2.93-1.45.35-3.13.82-4.61,1.23-1.32.37-2.36.66-2.92.78-.81.17-1.52.19-2.1.19-.22,0-1.16-.01-1.42-.01-1.23,0-15.11.01-15.11.01-.08,0-.71-.05-1.57-.05-.8,0-1.51.04-2.13.11-.47.05-.93.08-1.42.08-.69,0-1.34-.05-1.96-.1-.53-.04-1.07-.09-1.66-.1h-.23c-.81,0-1.74.09-2.56.18-.62.06-1.15.12-1.52.12-.28,0-.48-.03-.66-.1-.26-.07-1.61-.13-2.58-.13,0,0-17.27-.02-18.88-.02-2.07,0-5.93.64-7.69.97-.73.14-1.58.17-2.88.17,0,0-2.42-.01-3.13-.01-3.22,0-3.45-.02-5.04-.48-1.37-.39-3.7-.68-5.53-.68s-77.59.02-84.08.02c-.26.25-.66.55-1.2.75-.56.21-1.25.47-2.68.47Z"/>
          <path class="cls-5" d="m327.35,243.13c16.21,0,28.84.05,30.27.18,4.28.41,9.17,1.47,14.09,4.28,4.93,2.81,11.05,4.19,14.97,4.19s13,.14,13.86.23c0,.5-.14,3.73-.14,3.73l-.09,6.36-1.66.65v345.39h10.96c2.25,0,.92,1.87.86,1.87,0,0,.02-.05.1-.17.13-.18.17-.26.17-.26-.02,0-.73.97-.89,1.22-.22.32-7.62,10.09-8.69,11.09s-2.21,2.44-4.95,3.1c-2.74.66-6.34,1.76-7.5,2-.67.14-1.27.17-1.9.17-.45,0-.91-.02-1.42-.02-1.23,0-15.11.02-15.11.02,0,0-.66-.05-1.57-.05-.67,0-1.48.03-2.25.11-.46.05-.89.07-1.3.07-1.2,0-2.28-.17-3.6-.21-.08,0-.17,0-.25,0-1.48,0-3.31.3-4.08.3-.14,0-.24,0-.3-.03-.41-.16-2.38-.19-2.93-.19s-16.49-.02-18.88-.02-6.79.78-7.88.99c-.65.12-1.46.15-2.69.15-.83,0-1.84-.01-3.14-.01-3.22,0-3.32-.02-4.77-.44-1.45-.41-3.87-.71-5.8-.71s-84.52.02-84.52.02c0,0-.36.54-1.11.81-.46.17-1.04.41-2.33.41-.78,0-1.81-.08-3.23-.32-3.78-.62-10.78-2.23-12.76-2.74-1.98-.51-3.52-1.31-4.51-2.26s-8.77-10.41-9.55-11.29c-.78-.88-.95-1.87-.95-1.87,0,0-.88-.71-.48-1.35.23-.36.91-.44,1.46-.44.41,0,.75.04.75.04l10.8-.04-.03-1.3v-344.3h-.9l-.62-.41.1-6.39-.45-.38-.07-2.76.66-.62s1.54-.09,4.75-.09c1.61,0,3.63.02,6.1.09.28,0,.55.01.82.01,7.03,0,13.01-2.54,18.8-5.26,6.01-2.83,14.65-3.36,14.65-3.36,0,0,46.72-.18,79.14-.18m0-2c-32.05,0-78.68.18-79.15.18-.04,0-.08,0-.11,0-.37.02-9.09.59-15.38,3.55-5.67,2.67-11.31,5.07-17.95,5.07-.25,0-.51,0-.77-.01-2.2-.06-4.27-.09-6.15-.09-3.24,0-4.8.09-4.87.1-.47.03-.91.22-1.26.54l-.66.62c-.41.39-.64.94-.62,1.5l.07,2.76c.01.44.17.86.43,1.2l-.09,5.49c-.01.68.32,1.32.89,1.7l.62.41s0,0,0,0v341.94l-8.65.04c-.18-.02-.5-.04-.86-.04-1.52,0-2.59.47-3.16,1.39-.67,1.07-.49,2.41.4,3.45.19.57.56,1.37,1.23,2.14.23.26,1.23,1.46,2.38,2.85,4.33,5.2,6.64,7.95,7.28,8.56,1.28,1.22,3.15,2.17,5.4,2.75,2.06.53,9.14,2.15,12.93,2.78,1.41.23,2.58.35,3.56.35,1.48,0,2.28-.25,2.98-.51.52-.19.94-.45,1.26-.7,8.53,0,81.89-.02,83.72-.02,1.72,0,3.98.27,5.25.64,1.7.49,2,.51,5.32.51.71,0,1.34,0,1.9,0,.45,0,.86,0,1.23,0,1.36,0,2.26-.03,3.07-.19,1.73-.33,5.51-.95,7.5-.95,1.62,0,9.41.01,14.47.02,2.43,0,4.23,0,4.41,0,.8,0,1.98.05,2.35.1.26.08.54.12.89.12.42,0,.95-.06,1.62-.12.8-.08,1.7-.18,2.45-.18.07,0,.14,0,.2,0,.56.01,1.07.06,1.6.1.65.05,1.32.11,2.04.11.53,0,1.03-.03,1.53-.09.58-.07,1.26-.1,2.02-.1.82,0,1.43.04,1.43.04.04,0,.09,0,.14,0h0s13.88-.02,15.11-.02c.25,0,.49,0,.73,0,.24,0,.47,0,.69,0,.64,0,1.41-.03,2.31-.21.6-.13,1.66-.42,2.99-.79,1.47-.41,3.14-.88,4.57-1.22,2.91-.7,4.37-2.14,5.44-3.19.14-.14.27-.27.41-.39,1.33-1.25,8.92-11.35,8.98-11.43.05-.08.17-.25.3-.43.76-.67,1.11-1.84,1.11-2.55,0-1.4-1.02-2.8-3.31-2.8h-8.96v-342.03l.38-.15c.76-.29,1.26-1.02,1.27-1.83l.09-6.33c.03-.61.14-3.28.14-3.79,0-1.02-.77-1.88-1.79-1.99-1.05-.11-10.65-.24-14.08-.24s-9.24-1.23-13.98-3.93c-4.4-2.51-9.27-3.99-14.89-4.54-.49-.05-2-.19-30.46-.19h0Z"/>
        </g>
        <path class="cls-13" d="m218,607.82s.02-2.48-.25-3.36-1.8-.96-1.8-.96l-.58.23-.53,4.16"/>
        <path class="cls-13" d="m217.4,607.82s-.07-1.29-.16-2.4c-.04-.56-.25-1.47-.69-1.6"/>
        <path class="cls-13" d="m357.49,607.87c0-2.05-1.75-4.17-3.41-4.17s-6.06,0-8.54,0c-2.49,0-3.32,4.12-3.32,4.12"/>
        <path class="cls-13" d="m298.85,607.82v-4.02c-.81,0-3.12,0-6.22,0-2.97,0-3.9,4.02-3.9,4.02"/>
        <path class="cls-3" d="m383.93,603.7h-2.25c-1.52.09-1.42,4.12-1.42,4.12l1.49.05"/>
        <path class="cls-13" d="m245.37,607.9c0-2.05,1.75-4.17,3.41-4.17,1.66,0,6.06,0,8.54,0s3.32,4.12,3.32,4.12"/>
        <path class="cls-13" d="m303.95,607.82v-3.99c1.16-.03,4.16,0,6.27,0,2.97,0,3.9,4.02,3.9,4.02"/>
        <path class="cls-3" d="m409.62,608.14l-216.53-.33s-4.64-.22-.87,3.72c4.35,4.56,8.3,12.25,13.92,14.03,4.67,1.48,18.92,5.06,20.19,1.58,5.06.39,85.22.39,86.44.54,1.21.15,5.27,1.1,5.27,1.1h7.92s6.07-.72,6.07-.72c0,0,6.98-.46,7.43-.38.46.08,14.77.15,14.77.15l1.25.55,4.03.4,6.24-.35,4.54-1.28,18.16.68,5.12-1.67,4.74-1.29,6.14-5.31,6.98-9.56s1.32-1.55-1.8-1.87Z"/>
        <path class="cls-5" d="m213.6,257.92l.58,13.18c.02.38.14.74.35,1.05-.1,5.51-.56,36.08.57,43.35.28,4.65-.67,147.16-.9,162.54-.68,45.09.05,100.43.29,118.61.03,2.27.05,4.16.07,5.39l-.13.11c-.41.35-.66.86-.7,1.4l-.14,2.49h-1.87v-341.86l.54-.26c.68-.32,1.12-1,1.14-1.75l.11-4.26h.08m1.91-2.08l-3.94.16-.16,6.13-1.68.8v345.12h5.76l.25-4.38.81-.69c.01.44.02.65.03.65.09,0-1.2-69.92-.37-125.56.25-16.54,1.19-160.91.88-162.82-1.23-7.6-.55-43.87-.55-43.87l-.37-.37-.67-15.18h0Z"/>
        <path class="cls-5" d="m389.69,257.77v4.31c0,.56.24,1.1.65,1.48l.53.48c.21.19.45.33.71.42l-.09,341.69h-3.08c.29-8.72,1.2-44.46-.86-102.01-.67-18.78.08-65.05.75-105.87.35-21.32.68-41.46.79-56.33.36-49.03-.37-65.16-.66-69.43.37-.35.59-.84.61-1.37l.48-13.36h.17m2-2h-4.1l-.55,15.29-.7.35s1.19,11.16.75,70.51c-.32,43.83-2.55,133.8-1.53,162.29,2.4,67.06.79,103.94.79,103.94h7.15l.09-345.58h-1.36l-.53-.48v-6.31h0Zm1.89,6.79h0,0Z"/>
        <line class="cls-9" x1="398.74" y1="607.87" x2="204.28" y2="607.82"/>
        <rect class="cls-9" x="232.13" y="262.5" width="5.09" height="345.32" transform="translate(469.36 870.31) rotate(-180)"/>
        <rect class="cls-9" x="298.85" y="262.6" width="5.09" height="345.22" transform="translate(602.8 870.42) rotate(-180)"/>
        <rect class="cls-9" x="365.75" y="262.5" width="5.09" height="345.32" transform="translate(736.59 870.31) rotate(-180)"/>
        <path class="cls-13" d="m385.73,607.87s.17-3.88-1.17-4.17c-1.42,0-2.25,0-2.25,0-1.52.09-1.42,4.12-1.42,4.12"/>
        <path class="cls-10" d="m353.36,242.56s5.32,1.24,7.08,1.9c1.76.66.52.93-2.35.93-2.87,0-27.74-.05-33.44-.05s-11.16-2.78-11.16-2.78"/>
        <path class="cls-10" d="m273.15,242.56c-.1.1-2.42-.22-2.94.56-.52.78-.97,1.4-3.11,1.44-2.14.03-3.52-.1-4.84.41-1.31.52-6.77.41-9.22.41,0,0-1.4.13-.69-.59.31-.31-.32-.2-.77-.24-.61-.06-2.04.04-2.45-.03-1.57-.28-.21-1.3-.88-1.4"/>
        <path class="cls-10" d="m385.18,259.73s.38,3.59.31,7.29.84,4.39,1.59,4.59"/>
        <path class="cls-10" d="m387.53,271.48s-1.26-.21-1.2-2.04.13-5.11.23-7.05.24-3.04-1.97-2.97c-2.21.07-11.92,0-11.92,0"/>
        <line class="cls-9" x1="399.93" y1="255.77" x2="390.88" y2="255.77"/>
        <line class="cls-9" x1="398.38" y1="262.67" x2="394.06" y2="262.67"/>
        <line class="cls-9" x1="399.31" y1="252.34" x2="215.19" y2="252.34"/>
        <path class="cls-10" d="m363.38,252.34s-3.07-.52-4.78-1.09c-1.71-.57-3.3-.71-2.12,0s1.78,1.09,1.78,1.09"/>
        <path class="cls-10" d="m304.09,252.34s.45-.52-.45-.95c-.9-.43-1.88-1.05-3.25-.38-1.36.67-1.55,1.02-1.54,1.33"/>
        <path class="cls-10" d="m243.93,252.34s1.83-.57,2.33-.88,1.2-.98-1.04-.47-5.12,1.29-6.16,1.35"/>
        <polyline class="cls-9" points="386.03 252.48 386.03 253.72 378.87 253.72"/>
        <path class="cls-9" d="m385.54,253.03h-5.76s-.47.7-.9.69-.79-.75-.79-.75h-2.88"/>
        <polyline class="cls-9" points="373.78 252.48 373.78 255.21 372.67 255.93 372.67 262.15 371.98 262.5 364.66 262.5 363.93 262.01 363.93 255.93"/>
        <polyline class="cls-9" points="372.05 255.62 356.89 255.62 355.47 255.97"/>
        <line class="cls-9" x1="355.47" y1="253.1" x2="355.47" y2="254.97"/>
        <line class="cls-9" x1="363.57" y1="256.32" x2="356.57" y2="256.32"/>
        <path class="cls-9" d="m321.77,252.62s.07.92.94.74,2.86-.36,2.86-.36c0,0-.18.56.58.56h17.66c.46,0,.39-.54.39-.54,0,0,1.5.31,2.03.4s.16-.81.16-.81"/>
        <path class="cls-9" d="m256.5,252.62s.07.92.94.74,2.86-.36,2.86-.36c0,0-.18.56.58.56h17.66c.46,0,.39-.54.39-.54,0,0,1.5.31,2.03.4.53.09.16-.81.16-.81"/>
        <polyline class="cls-9" points="311.01 252.62 311.01 255.76 305.87 255.76 291.98 255.76 291.98 252.62"/>
        <polyline class="cls-9" points="305.83 256.21 305.83 261.74 305.24 262.6 297.99 262.6 297.35 261.96 297.35 255.97"/>
        <polyline class="cls-9" points="229.32 252.34 229.32 255.07 230.42 255.79 230.42 262.01 231.11 262.36 238.44 262.36 239.16 261.87 239.16 255.79"/>
        <polyline class="cls-9" points="231.04 255.48 246.21 255.48 247.62 255.83"/>
        <line class="cls-9" x1="247.62" y1="252.96" x2="247.62" y2="254.83"/>
        <line class="cls-9" x1="239.53" y1="256.19" x2="246.53" y2="256.19"/>
        <polyline class="cls-9" points="217.06 252.55 217.06 253.79 224.22 253.79"/>
        <path class="cls-9" d="m217.55,253.1h5.76s.47.7.9.69c.44-.01.79-.75.79-.75h2.88"/>
        <path class="cls-10" d="m217.67,259.62s-.38,3.59-.31,7.29c.07,3.7-.84,4.39-1.59,4.59"/>
        <path class="cls-10" d="m215.32,271.36s1.26-.21,1.2-2.04-.13-5.11-.23-7.05c-.1-1.93-.24-3.04,1.97-2.97,2.21.07,11.92,0,11.92,0"/>
        <line class="cls-9" x1="202.92" y1="255.66" x2="211.97" y2="255.66"/>
        <line class="cls-9" x1="204.47" y1="262.55" x2="208.79" y2="262.55"/>
        <path class="cls-10" d="m365.5,270.9s-4.97,0-7.46,0c-2.49,0-3.45-3.27-3.45-6.45s-2.03-5.03-3.64-5.03-30.31,0-34.82,0c-4.51,0-3.87,4.25-5.11,6.97s-2.12,4.51-4.38,4.51c-2.08,0-2.69,0-2.69,0"/>
        <path class="cls-10" d="m237.3,270.9h7.46c2.49,0,3.45-3.27,3.45-6.45,0-3.18,2.03-5.03,3.64-5.03h34.82c4.51,0,3.87,4.25,5.11,6.97,1.24,2.72,2.12,4.51,4.38,4.51,2.08,0,2.69,0,2.69,0"/>
        <line class="cls-9" x1="259.7" y1="263.9" x2="274.26" y2="272.56"/>
        <line class="cls-14" x1="272.42" y1="291.63" x2="260.07" y2="283.71"/>
        <line class="cls-9" x1="259.7" y1="299.95" x2="274.26" y2="308.6"/>
        <line class="cls-14" x1="260.07" y1="319.75" x2="272.42" y2="327.67"/>
        <line class="cls-9" x1="259.7" y1="337.59" x2="274.26" y2="346.25"/>
        <line class="cls-14" x1="260.07" y1="357.39" x2="272.42" y2="365.31"/>
        <line class="cls-9" x1="259.7" y1="373.63" x2="274.26" y2="382.29"/>
        <line class="cls-14" x1="260.07" y1="393.44" x2="272.42" y2="401.36"/>
        <line class="cls-9" x1="259.7" y1="410.72" x2="274.26" y2="419.37"/>
        <line class="cls-14" x1="260.07" y1="430.52" x2="272.42" y2="438.44"/>
        <line class="cls-9" x1="259.7" y1="446.76" x2="274.26" y2="455.42"/>
        <line class="cls-14" x1="260.07" y1="466.56" x2="272.42" y2="474.49"/>
        <line class="cls-9" x1="259.7" y1="484.4" x2="274.26" y2="493.06"/>
        <line class="cls-14" x1="260.07" y1="504.21" x2="272.42" y2="512.13"/>
        <line class="cls-9" x1="259.7" y1="520.44" x2="274.26" y2="529.1"/>
        <line class="cls-14" x1="260.07" y1="540.25" x2="272.42" y2="548.17"/>
        <line class="cls-9" x1="259.7" y1="559.03" x2="274.26" y2="567.68"/>
        <line class="cls-14" x1="260.07" y1="578.83" x2="272.42" y2="586.75"/>
        <line class="cls-9" x1="259.7" y1="595.07" x2="274.26" y2="603.73"/>
        <path class="cls-9" d="m268.08,259.62s-1.56,12.48-1.83,19.11c-.28,6.63-.83,8.84,0,16.3.83,7.46,1.83,32.64,1.83,32.64l-1.83,19.87,2.63,27.36.96,26.45s-1.94,16.86-2.4,23.01c-.45,6.15.63,33.99.63,33.99,0,0,.56,19.87.56,25.42,0,5.56-1.66,26.81-1.66,26.81v25.33s-.74,26.99-.74,26.99c0,0,1.45,11.75,1.83,15.91s0,13.56,0,13.56l-1.83,15.42"/>
        <path class="cls-9" d="m265.81,259.73s.45,16.24.23,22.87c-.22,6.63,2.6,38.97,2.04,45.07-.56,6.09-2.16,16.97-2.27,21.39-.11,4.42.53,21.28,1.17,25.01.64,3.73,2.3,13.96,2.86,22.38.55,8.43-1.14,28.61-2.02,34.06s-1.48,42.35-.83,46.08.16,12.57.89,15.34c.72,2.76-.72,25.29,0,30.12.72,4.84-.89,34.68-.89,34.68,0,0,.29,28.05.84,31.5.55,3.45,0,19.57,0,19.57"/>
        <line class="cls-9" x1="293.2" y1="269.12" x2="273.59" y2="284.81"/>
        <path class="cls-9" d="m272.9,283.15s-1.01,1.2,0,2.58,3.29,0,3.29,0"/>
        <line class="cls-9" x1="360.33" y1="271.06" x2="340.72" y2="286.75"/>
        <path class="cls-9" d="m340.03,285.09s-1.01,1.2,0,2.58c1.01,1.38,3.29,0,3.29,0"/>
        <g>
          <line class="cls-9" x1="309.02" y1="270.44" x2="328.63" y2="286.13"/>
          <path class="cls-9" d="m329.32,284.47s1.01,1.2,0,2.58c-1.01,1.38-3.29,0-3.29,0"/>
        </g>
        <g>
          <line class="cls-9" x1="370.92" y1="270.95" x2="378.24" y2="286.74"/>
          <path class="cls-9" d="m379.82,286.68s-1.47,2.75-1.98,1.4c-.6-1.6-1.2-3-1.2-3"/>
        </g>
        <g>
          <line class="cls-9" x1="386.13" y1="270.15" x2="381.86" y2="285.94"/>
          <path class="cls-9" d="m380.93,285.89s.86,2.75,1.16,1.4c.35-1.6.7-3,.7-3"/>
        </g>
        <line class="cls-9" x1="244.76" y1="270.9" x2="258.85" y2="284.47"/>
        <path class="cls-9" d="m260.08,283.47s1.4,1.61,0,2.58c-2.09,1.45-3.59.02-3.24,0"/>
        <g>
          <line class="cls-9" x1="232.12" y1="269.93" x2="224.91" y2="285.72"/>
          <path class="cls-9" d="m223.36,285.67s1.45,2.75,1.95,1.4c.59-1.6,1.18-3,1.18-3"/>
        </g>
        <g>
          <line class="cls-9" x1="217.15" y1="269.13" x2="221.36" y2="284.93"/>
          <path class="cls-9" d="m222.27,284.88s-.85,2.75-1.14,1.4c-.34-1.6-.69-3-.69-3"/>
        </g>
        <line class="cls-9" x1="356.72" y1="448.98" x2="354.23" y2="451.19"/>
        <line class="cls-9" x1="354.23" y1="448.95" x2="356.72" y2="451.17"/>
        <line class="cls-9" x1="320.53" y1="468.89" x2="318.04" y2="471.1"/>
        <line class="cls-9" x1="318.04" y1="468.86" x2="320.53" y2="471.08"/>
        <line class="cls-9" x1="337.06" y1="460.8" x2="334.57" y2="463.02"/>
        <line class="cls-9" x1="334.57" y1="460.78" x2="337.06" y2="462.99"/>
        <line class="cls-9" x1="330.54" y1="443.51" x2="328.05" y2="445.73"/>
        <line class="cls-9" x1="328.05" y1="443.48" x2="330.54" y2="445.7"/>
        <g>
          <line class="cls-9" x1="333.76" y1="363.72" x2="335.72" y2="366.42"/>
          <line class="cls-9" x1="333.49" y1="366.2" x2="335.94" y2="363.94"/>
        </g>
        <g>
          <line class="cls-9" x1="320.8" y1="373.66" x2="322.76" y2="376.36"/>
          <line class="cls-9" x1="320.53" y1="376.13" x2="322.98" y2="373.88"/>
        </g>
        <g>
          <line class="cls-9" x1="353.3" y1="365.97" x2="355.25" y2="368.67"/>
          <line class="cls-9" x1="353.02" y1="368.45" x2="355.48" y2="366.2"/>
        </g>
        <g>
          <line class="cls-9" x1="380.89" y1="373.68" x2="382.84" y2="376.38"/>
          <line class="cls-9" x1="380.61" y1="376.15" x2="383.07" y2="373.9"/>
        </g>
        <g>
          <line class="cls-9" x1="373.61" y1="367.11" x2="375.57" y2="369.81"/>
          <line class="cls-9" x1="373.34" y1="369.59" x2="375.79" y2="367.33"/>
        </g>
        <g>
          <line class="cls-9" x1="381.82" y1="339.13" x2="383.77" y2="341.83"/>
          <line class="cls-9" x1="381.54" y1="341.6" x2="384" y2="339.35"/>
        </g>
        <g>
          <line class="cls-9" x1="374.57" y1="320.51" x2="376.52" y2="323.21"/>
          <line class="cls-9" x1="374.29" y1="322.98" x2="376.75" y2="320.73"/>
        </g>
        <g>
          <line class="cls-9" x1="381.82" y1="299.95" x2="383.77" y2="302.64"/>
          <line class="cls-9" x1="381.54" y1="302.42" x2="384" y2="300.17"/>
        </g>
        <g>
          <line class="cls-9" x1="375.79" y1="268.8" x2="377.75" y2="271.5"/>
          <line class="cls-9" x1="375.52" y1="271.27" x2="377.97" y2="269.02"/>
        </g>
        <line class="cls-9" x1="338.03" y1="400.54" x2="339.99" y2="403.24"/>
        <line class="cls-9" x1="337.76" y1="403.01" x2="340.21" y2="400.76"/>
        <line class="cls-9" x1="343.54" y1="384.48" x2="345.49" y2="387.18"/>
        <line class="cls-9" x1="343.26" y1="386.95" x2="345.72" y2="384.7"/>
        <line class="cls-9" x1="325.68" y1="389.22" x2="327.63" y2="391.92"/>
        <line class="cls-9" x1="325.4" y1="391.69" x2="327.86" y2="389.44"/>
        <line class="cls-9" x1="318.52" y1="360.04" x2="316.57" y2="357.34"/>
        <line class="cls-9" x1="318.8" y1="357.57" x2="316.34" y2="359.82"/>
        <g>
          <line class="cls-9" x1="325.31" y1="413.15" x2="327.26" y2="415.84"/>
          <line class="cls-9" x1="325.03" y1="415.62" x2="327.49" y2="413.37"/>
        </g>
        <g>
          <line class="cls-9" x1="312.35" y1="423.08" x2="314.3" y2="425.78"/>
          <line class="cls-9" x1="312.07" y1="425.56" x2="314.53" y2="423.31"/>
        </g>
        <line class="cls-9" x1="317.23" y1="438.64" x2="319.18" y2="441.34"/>
        <line class="cls-9" x1="316.95" y1="441.12" x2="319.41" y2="438.87"/>
        <line class="cls-9" x1="344.22" y1="429.09" x2="341.73" y2="431.3"/>
        <line class="cls-9" x1="341.73" y1="429.06" x2="344.22" y2="431.28"/>
        <line class="cls-9" x1="360.75" y1="432.94" x2="358.27" y2="435.16"/>
        <line class="cls-9" x1="358.27" y1="432.92" x2="360.75" y2="435.14"/>
        <line class="cls-9" x1="354.23" y1="415.65" x2="351.74" y2="417.87"/>
        <line class="cls-9" x1="351.74" y1="415.63" x2="354.23" y2="417.84"/>
        <line class="cls-9" x1="310.07" y1="409.46" x2="308.12" y2="406.76"/>
        <line class="cls-9" x1="310.35" y1="406.99" x2="307.89" y2="409.24"/>
        <line class="cls-9" x1="314.25" y1="323.22" x2="312.3" y2="320.53"/>
        <line class="cls-9" x1="314.53" y1="320.75" x2="312.07" y2="323"/>
        <line class="cls-9" x1="308.74" y1="339.28" x2="306.79" y2="336.58"/>
        <line class="cls-9" x1="309.02" y1="336.81" x2="306.56" y2="339.06"/>
        <line class="cls-9" x1="326.61" y1="334.54" x2="324.65" y2="331.84"/>
        <line class="cls-9" x1="326.88" y1="332.07" x2="324.43" y2="334.32"/>
        <line class="cls-9" x1="328.31" y1="316.19" x2="331.23" y2="317.79"/>
        <line class="cls-9" x1="329.12" y1="318.54" x2="330.37" y2="315.45"/>
        <line class="cls-9" x1="311.24" y1="305.01" x2="314.16" y2="306.61"/>
        <line class="cls-9" x1="312.05" y1="307.36" x2="313.3" y2="304.27"/>
        <line class="cls-9" x1="356.25" y1="338.11" x2="359.18" y2="339.71"/>
        <line class="cls-9" x1="357.06" y1="340.46" x2="358.32" y2="337.38"/>
        <line class="cls-9" x1="354.35" y1="321.24" x2="357.27" y2="322.84"/>
        <line class="cls-9" x1="355.16" y1="323.59" x2="356.41" y2="320.51"/>
        <line class="cls-9" x1="340.24" y1="333.18" x2="343.17" y2="334.78"/>
        <line class="cls-9" x1="341.05" y1="335.53" x2="342.31" y2="332.45"/>
        <line class="cls-9" x1="324.48" y1="294.78" x2="322.53" y2="292.08"/>
        <line class="cls-9" x1="324.76" y1="292.31" x2="322.3" y2="294.56"/>
        <line class="cls-9" x1="334.5" y1="266.92" x2="337.42" y2="268.52"/>
        <line class="cls-9" x1="335.31" y1="269.27" x2="336.56" y2="266.19"/>
        <line class="cls-9" x1="338.12" y1="293.42" x2="341.04" y2="295.03"/>
        <line class="cls-9" x1="338.93" y1="295.78" x2="340.19" y2="292.69"/>
        <line class="cls-9" x1="354.81" y1="283.28" x2="357.73" y2="284.88"/>
        <line class="cls-9" x1="355.62" y1="285.63" x2="356.87" y2="282.55"/>
        <line class="cls-9" x1="309.57" y1="283.28" x2="312.49" y2="284.88"/>
        <line class="cls-9" x1="310.38" y1="285.63" x2="311.63" y2="282.55"/>
        <line class="cls-9" x1="338.01" y1="349.13" x2="336.06" y2="346.43"/>
        <line class="cls-9" x1="338.29" y1="346.66" x2="335.83" y2="348.91"/>
        <line class="cls-9" x1="356.27" y1="301.84" x2="359.19" y2="303.44"/>
        <line class="cls-9" x1="357.08" y1="304.19" x2="358.34" y2="301.1"/>
        <line class="cls-9" x1="356.72" y1="587.44" x2="354.23" y2="589.65"/>
        <line class="cls-9" x1="354.23" y1="587.41" x2="356.72" y2="589.63"/>
        <line class="cls-9" x1="320.53" y1="595.4" x2="318.04" y2="597.62"/>
        <line class="cls-9" x1="318.04" y1="595.38" x2="320.53" y2="597.59"/>
        <line class="cls-9" x1="337.06" y1="599.26" x2="334.57" y2="601.48"/>
        <line class="cls-9" x1="334.57" y1="599.23" x2="337.06" y2="601.45"/>
        <line class="cls-9" x1="330.54" y1="581.97" x2="328.05" y2="584.19"/>
        <line class="cls-9" x1="328.05" y1="581.94" x2="330.54" y2="584.16"/>
        <g>
          <line class="cls-9" x1="333.76" y1="502.18" x2="335.72" y2="504.88"/>
          <line class="cls-9" x1="333.49" y1="504.65" x2="335.94" y2="502.4"/>
        </g>
        <g>
          <line class="cls-9" x1="320.8" y1="512.12" x2="322.76" y2="514.82"/>
          <line class="cls-9" x1="320.53" y1="514.59" x2="322.98" y2="512.34"/>
        </g>
        <g>
          <line class="cls-9" x1="353.3" y1="504.43" x2="355.25" y2="507.13"/>
          <line class="cls-9" x1="353.02" y1="506.91" x2="355.48" y2="504.65"/>
        </g>
        <line class="cls-9" x1="338.03" y1="538.99" x2="339.99" y2="541.69"/>
        <line class="cls-9" x1="337.76" y1="541.47" x2="340.21" y2="539.22"/>
        <line class="cls-9" x1="343.54" y1="522.94" x2="345.49" y2="525.64"/>
        <line class="cls-9" x1="343.26" y1="525.41" x2="345.72" y2="523.16"/>
        <line class="cls-9" x1="325.68" y1="527.68" x2="327.63" y2="530.38"/>
        <line class="cls-9" x1="325.4" y1="530.15" x2="327.86" y2="527.9"/>
        <line class="cls-9" x1="318.52" y1="498.5" x2="316.57" y2="495.8"/>
        <line class="cls-9" x1="318.8" y1="496.02" x2="316.34" y2="498.28"/>
        <g>
          <line class="cls-9" x1="325.31" y1="551.6" x2="327.26" y2="554.3"/>
          <line class="cls-9" x1="325.03" y1="554.08" x2="327.49" y2="551.83"/>
        </g>
        <g>
          <line class="cls-9" x1="312.35" y1="561.54" x2="314.3" y2="564.24"/>
          <line class="cls-9" x1="312.07" y1="564.02" x2="314.53" y2="561.76"/>
        </g>
        <line class="cls-9" x1="317.23" y1="577.1" x2="319.18" y2="579.8"/>
        <line class="cls-9" x1="316.95" y1="579.58" x2="319.41" y2="577.32"/>
        <line class="cls-9" x1="344.22" y1="567.54" x2="341.73" y2="569.76"/>
        <line class="cls-9" x1="341.73" y1="567.52" x2="344.22" y2="569.74"/>
        <line class="cls-9" x1="360.75" y1="571.4" x2="358.27" y2="573.62"/>
        <line class="cls-9" x1="358.27" y1="571.38" x2="360.75" y2="573.59"/>
        <line class="cls-9" x1="354.23" y1="554.11" x2="351.74" y2="556.33"/>
        <line class="cls-9" x1="351.74" y1="554.09" x2="354.23" y2="556.3"/>
        <line class="cls-9" x1="310.07" y1="547.92" x2="308.12" y2="545.22"/>
        <line class="cls-9" x1="310.35" y1="545.45" x2="307.89" y2="547.7"/>
        <line class="cls-9" x1="314.25" y1="473.63" x2="312.3" y2="470.93"/>
        <line class="cls-9" x1="314.53" y1="471.16" x2="312.07" y2="473.41"/>
        <line class="cls-9" x1="383.08" y1="468.67" x2="380.59" y2="470.88"/>
        <line class="cls-9" x1="380.59" y1="468.64" x2="383.08" y2="470.86"/>
        <g>
          <line class="cls-9" x1="382.13" y1="510.99" x2="384.08" y2="513.69"/>
          <line class="cls-9" x1="381.85" y1="513.46" x2="384.31" y2="511.21"/>
        </g>
        <line class="cls-9" x1="381.08" y1="498.28" x2="379.12" y2="495.58"/>
        <line class="cls-9" x1="381.35" y1="495.8" x2="378.9" y2="498.06"/>
        <g>
          <line class="cls-9" x1="374.9" y1="561.32" x2="376.86" y2="564.02"/>
          <line class="cls-9" x1="374.63" y1="563.8" x2="377.08" y2="561.54"/>
        </g>
        <line class="cls-9" x1="379.78" y1="576.88" x2="381.73" y2="579.58"/>
        <line class="cls-9" x1="379.5" y1="579.36" x2="381.96" y2="577.1"/>
        <line class="cls-9" x1="378.6" y1="547.7" x2="376.64" y2="545"/>
        <line class="cls-9" x1="378.87" y1="545.23" x2="376.42" y2="547.48"/>
        <g>
          <line class="cls-9" x1="374.9" y1="439.63" x2="376.86" y2="442.33"/>
          <line class="cls-9" x1="374.63" y1="442.1" x2="377.08" y2="439.85"/>
        </g>
        <line class="cls-9" x1="379.78" y1="455.19" x2="381.73" y2="457.89"/>
        <line class="cls-9" x1="379.5" y1="457.66" x2="381.96" y2="455.41"/>
        <line class="cls-9" x1="378.6" y1="426" x2="376.64" y2="423.31"/>
        <line class="cls-9" x1="378.87" y1="423.53" x2="376.42" y2="425.78"/>
        <line class="cls-9" x1="376.81" y1="473.41" x2="374.85" y2="470.71"/>
        <line class="cls-9" x1="377.08" y1="470.93" x2="374.63" y2="473.19"/>
        <line class="cls-9" x1="383.08" y1="404.94" x2="380.59" y2="407.16"/>
        <line class="cls-9" x1="380.59" y1="404.92" x2="383.08" y2="407.13"/>
        <line class="cls-9" x1="379.78" y1="391.46" x2="381.73" y2="394.16"/>
        <line class="cls-9" x1="379.5" y1="393.94" x2="381.96" y2="391.68"/>
        <line class="cls-9" x1="376.81" y1="409.68" x2="374.85" y2="406.98"/>
        <line class="cls-9" x1="377.08" y1="407.21" x2="374.63" y2="409.46"/>
        <g>
          <line class="cls-9" x1="226.45" y1="373.68" x2="228.4" y2="376.38"/>
          <line class="cls-9" x1="226.17" y1="376.15" x2="228.63" y2="373.9"/>
        </g>
        <g>
          <line class="cls-9" x1="219.17" y1="367.11" x2="221.13" y2="369.81"/>
          <line class="cls-9" x1="218.9" y1="369.59" x2="221.35" y2="367.33"/>
        </g>
        <g>
          <line class="cls-9" x1="227.38" y1="339.13" x2="229.33" y2="341.83"/>
          <line class="cls-9" x1="227.1" y1="341.6" x2="229.56" y2="339.35"/>
        </g>
        <g>
          <line class="cls-9" x1="220.13" y1="320.51" x2="222.08" y2="323.21"/>
          <line class="cls-9" x1="219.85" y1="322.98" x2="222.31" y2="320.73"/>
        </g>
        <g>
          <line class="cls-9" x1="227.38" y1="299.95" x2="229.33" y2="302.64"/>
          <line class="cls-9" x1="227.1" y1="302.42" x2="229.56" y2="300.17"/>
        </g>
        <g>
          <line class="cls-9" x1="221" y1="269.32" x2="222.95" y2="272.02"/>
          <line class="cls-9" x1="220.72" y1="271.79" x2="223.18" y2="269.54"/>
        </g>
        <line class="cls-9" x1="228.64" y1="468.67" x2="226.15" y2="470.88"/>
        <line class="cls-9" x1="226.15" y1="468.64" x2="228.64" y2="470.86"/>
        <g>
          <line class="cls-9" x1="227.69" y1="510.99" x2="229.64" y2="513.69"/>
          <line class="cls-9" x1="227.41" y1="513.46" x2="229.87" y2="511.21"/>
        </g>
        <line class="cls-9" x1="226.64" y1="498.28" x2="224.68" y2="495.58"/>
        <line class="cls-9" x1="226.91" y1="495.8" x2="224.46" y2="498.06"/>
        <g>
          <line class="cls-9" x1="220.46" y1="561.32" x2="222.42" y2="564.02"/>
          <line class="cls-9" x1="220.19" y1="563.8" x2="222.64" y2="561.54"/>
        </g>
        <line class="cls-9" x1="225.34" y1="576.88" x2="227.29" y2="579.58"/>
        <line class="cls-9" x1="225.06" y1="579.36" x2="227.52" y2="577.1"/>
        <line class="cls-9" x1="224.16" y1="547.7" x2="222.2" y2="545"/>
        <line class="cls-9" x1="224.43" y1="545.23" x2="221.98" y2="547.48"/>
        <g>
          <line class="cls-9" x1="220.46" y1="439.63" x2="222.42" y2="442.33"/>
          <line class="cls-9" x1="220.19" y1="442.1" x2="222.64" y2="439.85"/>
        </g>
        <line class="cls-9" x1="225.34" y1="455.19" x2="227.29" y2="457.89"/>
        <line class="cls-9" x1="225.06" y1="457.66" x2="227.52" y2="455.41"/>
        <line class="cls-9" x1="224.16" y1="426" x2="222.2" y2="423.31"/>
        <line class="cls-9" x1="224.43" y1="423.53" x2="221.98" y2="425.78"/>
        <line class="cls-9" x1="222.37" y1="473.41" x2="220.41" y2="470.71"/>
        <line class="cls-9" x1="222.64" y1="470.93" x2="220.19" y2="473.19"/>
        <line class="cls-9" x1="228.64" y1="404.94" x2="226.15" y2="407.16"/>
        <line class="cls-9" x1="226.15" y1="404.92" x2="228.64" y2="407.13"/>
        <line class="cls-9" x1="225.34" y1="391.46" x2="227.29" y2="394.16"/>
        <line class="cls-9" x1="225.06" y1="393.94" x2="227.52" y2="391.68"/>
        <line class="cls-9" x1="222.37" y1="409.68" x2="220.41" y2="406.98"/>
        <line class="cls-9" x1="222.64" y1="407.21" x2="220.19" y2="409.46"/>
        <line class="cls-9" x1="326.61" y1="484.94" x2="324.65" y2="482.24"/>
        <line class="cls-9" x1="326.88" y1="482.47" x2="324.43" y2="484.72"/>
        <line class="cls-9" x1="336.62" y1="445.14" x2="339.54" y2="446.74"/>
        <line class="cls-9" x1="337.43" y1="447.49" x2="338.68" y2="444.4"/>
        <line class="cls-9" x1="356.25" y1="488.52" x2="359.18" y2="490.12"/>
        <line class="cls-9" x1="357.06" y1="490.87" x2="358.32" y2="487.78"/>
        <line class="cls-9" x1="354.35" y1="471.65" x2="357.27" y2="473.25"/>
        <line class="cls-9" x1="355.16" y1="474" x2="356.41" y2="470.91"/>
        <line class="cls-9" x1="340.24" y1="471.64" x2="343.17" y2="473.24"/>
        <line class="cls-9" x1="341.05" y1="473.99" x2="342.31" y2="470.91"/>
        <line class="cls-9" x1="288.75" y1="448.98" x2="286.26" y2="451.19"/>
        <line class="cls-9" x1="286.26" y1="448.95" x2="288.75" y2="451.17"/>
        <line class="cls-9" x1="252.55" y1="468.89" x2="250.06" y2="471.1"/>
        <line class="cls-9" x1="250.06" y1="468.86" x2="252.55" y2="471.08"/>
        <line class="cls-9" x1="262.56" y1="443.51" x2="260.07" y2="445.73"/>
        <line class="cls-9" x1="260.07" y1="443.48" x2="262.56" y2="445.7"/>
        <g>
          <line class="cls-9" x1="252.83" y1="373.66" x2="254.78" y2="376.36"/>
          <line class="cls-9" x1="252.55" y1="376.13" x2="255.01" y2="373.88"/>
        </g>
        <g>
          <line class="cls-9" x1="285.32" y1="365.97" x2="287.27" y2="368.67"/>
          <line class="cls-9" x1="285.04" y1="368.45" x2="287.5" y2="366.2"/>
        </g>
        <line class="cls-9" x1="275.56" y1="384.48" x2="277.52" y2="387.18"/>
        <line class="cls-9" x1="275.29" y1="386.95" x2="277.74" y2="384.7"/>
        <line class="cls-9" x1="257.7" y1="389.22" x2="259.66" y2="391.92"/>
        <line class="cls-9" x1="257.43" y1="391.69" x2="259.88" y2="389.44"/>
        <line class="cls-9" x1="250.55" y1="360.04" x2="248.59" y2="357.34"/>
        <line class="cls-9" x1="250.82" y1="357.57" x2="248.37" y2="359.82"/>
        <g>
          <line class="cls-9" x1="249.8" y1="310.1" x2="251.75" y2="312.8"/>
          <line class="cls-9" x1="249.52" y1="312.57" x2="251.98" y2="310.32"/>
        </g>
        <line class="cls-9" x1="247.52" y1="296.47" x2="245.56" y2="293.78"/>
        <line class="cls-9" x1="247.79" y1="294" x2="245.34" y2="296.25"/>
        <line class="cls-9" x1="254.74" y1="272.24" x2="252.79" y2="269.54"/>
        <line class="cls-9" x1="255.02" y1="269.76" x2="252.56" y2="272.02"/>
        <g>
          <line class="cls-9" x1="257.33" y1="413.15" x2="259.29" y2="415.84"/>
          <line class="cls-9" x1="257.06" y1="415.62" x2="259.51" y2="413.37"/>
        </g>
        <g>
          <line class="cls-9" x1="244.37" y1="423.08" x2="246.33" y2="425.78"/>
          <line class="cls-9" x1="244.1" y1="425.56" x2="246.55" y2="423.31"/>
        </g>
        <line class="cls-9" x1="249.25" y1="438.64" x2="251.2" y2="441.34"/>
        <line class="cls-9" x1="248.97" y1="441.12" x2="251.43" y2="438.87"/>
        <line class="cls-9" x1="276.25" y1="429.09" x2="273.76" y2="431.3"/>
        <line class="cls-9" x1="273.76" y1="429.06" x2="276.25" y2="431.28"/>
        <line class="cls-9" x1="292.78" y1="432.94" x2="290.29" y2="435.16"/>
        <line class="cls-9" x1="290.29" y1="432.92" x2="292.78" y2="435.14"/>
        <line class="cls-9" x1="286.26" y1="415.65" x2="283.77" y2="417.87"/>
        <line class="cls-9" x1="283.77" y1="415.63" x2="286.26" y2="417.84"/>
        <line class="cls-9" x1="240.77" y1="339.28" x2="238.81" y2="336.58"/>
        <line class="cls-9" x1="241.04" y1="336.81" x2="238.59" y2="339.06"/>
        <line class="cls-9" x1="258.63" y1="334.54" x2="256.68" y2="331.84"/>
        <line class="cls-9" x1="258.91" y1="332.07" x2="256.45" y2="334.32"/>
        <line class="cls-9" x1="288.28" y1="338.11" x2="291.2" y2="339.71"/>
        <line class="cls-9" x1="289.09" y1="340.46" x2="290.34" y2="337.38"/>
        <line class="cls-9" x1="286.37" y1="321.24" x2="289.29" y2="322.84"/>
        <line class="cls-9" x1="287.18" y1="323.59" x2="288.44" y2="320.51"/>
        <line class="cls-9" x1="288.59" y1="303.36" x2="291.51" y2="304.96"/>
        <line class="cls-9" x1="289.4" y1="305.72" x2="290.65" y2="302.63"/>
        <line class="cls-9" x1="286.68" y1="286.49" x2="289.6" y2="288.09"/>
        <line class="cls-9" x1="287.49" y1="288.85" x2="288.75" y2="285.76"/>
        <line class="cls-9" x1="278.09" y1="267.71" x2="281.01" y2="269.32"/>
        <line class="cls-9" x1="278.9" y1="270.07" x2="280.15" y2="266.98"/>
        <line class="cls-9" x1="272.27" y1="333.18" x2="275.19" y2="334.78"/>
        <line class="cls-9" x1="273.08" y1="335.53" x2="274.33" y2="332.45"/>
        <line class="cls-9" x1="288.75" y1="587.44" x2="286.26" y2="589.65"/>
        <line class="cls-9" x1="286.26" y1="587.41" x2="288.75" y2="589.63"/>
        <line class="cls-9" x1="252.55" y1="595.4" x2="250.06" y2="597.62"/>
        <line class="cls-9" x1="250.06" y1="595.38" x2="252.55" y2="597.59"/>
        <line class="cls-9" x1="262.56" y1="581.97" x2="260.07" y2="584.19"/>
        <line class="cls-9" x1="260.07" y1="581.94" x2="262.56" y2="584.16"/>
        <g>
          <line class="cls-9" x1="252.83" y1="512.12" x2="254.78" y2="514.82"/>
          <line class="cls-9" x1="252.55" y1="514.59" x2="255.01" y2="512.34"/>
        </g>
        <g>
          <line class="cls-9" x1="285.32" y1="504.43" x2="287.27" y2="507.13"/>
          <line class="cls-9" x1="285.04" y1="506.91" x2="287.5" y2="504.65"/>
        </g>
        <line class="cls-9" x1="270.06" y1="538.99" x2="272.01" y2="541.69"/>
        <line class="cls-9" x1="269.78" y1="541.47" x2="272.24" y2="539.22"/>
        <line class="cls-9" x1="275.56" y1="522.94" x2="277.52" y2="525.64"/>
        <line class="cls-9" x1="275.29" y1="525.41" x2="277.74" y2="523.16"/>
        <line class="cls-9" x1="257.7" y1="527.68" x2="259.66" y2="530.38"/>
        <line class="cls-9" x1="257.43" y1="530.15" x2="259.88" y2="527.9"/>
        <line class="cls-9" x1="250.55" y1="498.5" x2="248.59" y2="495.8"/>
        <line class="cls-9" x1="250.82" y1="496.02" x2="248.37" y2="498.28"/>
        <g>
          <line class="cls-9" x1="257.33" y1="551.6" x2="259.29" y2="554.3"/>
          <line class="cls-9" x1="257.06" y1="554.08" x2="259.51" y2="551.83"/>
        </g>
        <g>
          <line class="cls-9" x1="244.37" y1="561.54" x2="246.33" y2="564.24"/>
          <line class="cls-9" x1="244.1" y1="564.02" x2="246.55" y2="561.76"/>
        </g>
        <line class="cls-9" x1="249.25" y1="577.1" x2="251.2" y2="579.8"/>
        <line class="cls-9" x1="248.97" y1="579.58" x2="251.43" y2="577.32"/>
        <g>
          <line class="cls-9" x1="241.92" y1="522.72" x2="243.87" y2="525.41"/>
          <line class="cls-9" x1="241.64" y1="525.19" x2="244.1" y2="522.94"/>
        </g>
        <line class="cls-9" x1="246.79" y1="538.28" x2="248.75" y2="540.97"/>
        <line class="cls-9" x1="246.52" y1="540.75" x2="248.97" y2="538.5"/>
        <line class="cls-9" x1="276.25" y1="567.54" x2="273.76" y2="569.76"/>
        <line class="cls-9" x1="273.76" y1="567.52" x2="276.25" y2="569.74"/>
        <line class="cls-9" x1="292.78" y1="571.4" x2="290.29" y2="573.62"/>
        <line class="cls-9" x1="290.29" y1="571.38" x2="292.78" y2="573.59"/>
        <line class="cls-9" x1="276.23" y1="600.38" x2="273.74" y2="602.6"/>
        <line class="cls-9" x1="273.74" y1="600.36" x2="276.23" y2="602.57"/>
        <line class="cls-9" x1="280.27" y1="584.35" x2="277.78" y2="586.56"/>
        <line class="cls-9" x1="277.78" y1="584.32" x2="280.27" y2="586.54"/>
        <line class="cls-9" x1="286.26" y1="554.11" x2="283.77" y2="556.33"/>
        <line class="cls-9" x1="283.77" y1="554.09" x2="286.26" y2="556.3"/>
        <line class="cls-9" x1="294.36" y1="535.54" x2="291.87" y2="537.76"/>
        <line class="cls-9" x1="291.87" y1="535.52" x2="294.36" y2="537.73"/>
        <line class="cls-9" x1="287.83" y1="518.25" x2="285.34" y2="520.47"/>
        <line class="cls-9" x1="285.34" y1="518.23" x2="287.83" y2="520.44"/>
        <line class="cls-9" x1="246.28" y1="473.63" x2="244.32" y2="470.93"/>
        <line class="cls-9" x1="246.55" y1="471.16" x2="244.1" y2="473.41"/>
        <line class="cls-9" x1="258.63" y1="484.94" x2="256.68" y2="482.24"/>
        <line class="cls-9" x1="258.91" y1="482.47" x2="256.45" y2="484.72"/>
        <line class="cls-9" x1="268.64" y1="445.14" x2="271.56" y2="446.74"/>
        <line class="cls-9" x1="269.45" y1="447.49" x2="270.71" y2="444.4"/>
        <line class="cls-9" x1="288.28" y1="488.52" x2="291.2" y2="490.12"/>
        <line class="cls-9" x1="289.09" y1="490.87" x2="290.34" y2="487.78"/>
        <line class="cls-9" x1="286.37" y1="471.65" x2="289.29" y2="473.25"/>
        <line class="cls-9" x1="287.18" y1="474" x2="288.44" y2="470.91"/>
        <line class="cls-9" x1="272.27" y1="471.64" x2="275.19" y2="473.24"/>
        <line class="cls-9" x1="273.08" y1="473.99" x2="274.33" y2="470.91"/>
      </g>
      <rect class="cls-16" x="278.83" y="712.88" width="46.82" height="171.35"/>
    </g>
    <g>
      <g>
        <path class="cls-2" d="m480.77,328.64c-7.62,0-18.92-5.38-25.45-10.58-7.47-5.96-7.2-10.11-6.74-16.98.25-3.73.56-8.38-.24-14.82-1.26-10.21,1.51-11.54,6.5-13.02,3.78-1.12,8.48-2.51,13.27-10.28,4.21-6.83,7.93-9.74,12.46-9.74,2.12,0,4.2.63,6.41,1.29,2.63.79,5.36,1.61,8.65,1.61.99,0,2-.08,3-.23,4.24-.65,6.82-1.17,8.7-1.54,2.24-.45,3.47-.69,5.15-.69,1.47,0,3.24.19,6.43.58,1.66.2,2.99.41,4.06.58,1.59.25,2.75.43,3.91.43,2.53,0,5.33-.81,14.34-3.8,3.53-1.17,7.86-1.76,12.85-1.76,14.13,0,29.42,4.78,29.57,4.83.12.03,14.97,4.25,25.56,6.34,9,1.78,8.77,14.52,8.52,28.02-.08,4.16-.16,8.46.02,12.55.54,12.2-7.77,15.65-15.09,18.69-3.5,1.45-6.81,2.83-8.85,5.02-.72.77-1.45,1.16-2.19,1.16-3.44,0-4.86-7.4-5.59-29.23l-.89-.1c-.06,0-.12-.02-.18-.04-1.65-.5-3.76-.73-6.63-.73-1.84,0-3.77.09-5.81.19-2.14.1-4.35.2-6.55.2-1.18,0-2.24-.03-3.25-.09-1.54-.09-2.49-1.04-3.32-1.88-.83-.83-1.38-1.34-2.26-1.34-4.62.04-9.44.84-14.11,1.61-3.85.64-7.48,1.24-10.74,1.37-1.17.05-2.33.07-3.46.07-5.63,0-9.76-.6-13.4-1.13-2.92-.43-5.44-.79-8.23-.79-.92,0-1.82.04-2.73.12-.33.03-1.73.09-3.99.19-2.28.1-5.4.23-5.78.28-1.73.22-2.53.87-3.47,1.62-.81.65-1.72,1.38-3.24,1.83l-.65.16c.47,2.33,1.4,4.53,2.72,6.42,1.65,2.35,1.38,3.32.16,4.62-.98,1.04-2.62,2.77-1.59,10.33.37,2.7-.11,4.83-1.42,6.32-1.36,1.55-3.53,2.34-6.46,2.34h0Z"/>
        <path class="cls-1" d="m554.08,250.69c14.14,0,29.27,4.78,29.27,4.78,0,0,14.91,4.25,25.67,6.37,10.76,2.12,6.98,22.41,7.74,39.63.76,17.22-17.07,15.91-23.68,22.99-.53.57-1.02.84-1.46.84-3.34,0-4.18-15.31-4.62-29.13l-1.75-.2c-1.98-.6-4.34-.78-6.92-.78-3.82,0-8.12.39-12.36.39-1.07,0-2.14-.02-3.2-.09-2.41-.14-3.03-3.22-5.63-3.22h-.03c-8.49.08-17.74,2.69-24.85,2.99-1.2.05-2.34.07-3.42.07-10.02,0-15.2-1.93-21.63-1.93-.91,0-1.85.04-2.82.13-.76.07-9.07.38-9.81.47-3.59.47-3.86,2.59-6.86,3.49l-1.51.37c.39,2.67,1.4,5.38,3.05,7.75,3.44,4.92-3.49.59-1.6,14.51.74,5.45-2.28,7.53-6.88,7.53-7.16,0-18.16-5.05-24.83-10.36-10.95-8.73-4.34-12.74-6.61-31.14-2.26-18.4,8.87-5.19,19.63-22.65,4.48-7.27,8.02-9.27,11.61-9.27,4.34,0,8.77,2.9,15.06,2.9,1,0,2.05-.07,3.15-.24,9.29-1.43,10.77-2.22,13.7-2.22,1.42,0,3.17.18,6.3.57,4.14.51,6.03,1.02,8.09,1.02,2.72,0,5.73-.89,14.66-3.85,3.75-1.24,8.09-1.71,12.53-1.71m0-2c-5.1,0-9.53.61-13.16,1.81-8.76,2.9-11.66,3.74-14.03,3.74-1.08,0-2.14-.17-3.75-.42-1.07-.17-2.41-.38-4.09-.58-3.22-.4-5.03-.58-6.55-.58-1.78,0-3.05.25-5.35.71-1.88.37-4.44.88-8.66,1.53-.95.15-1.9.22-2.84.22-3.15,0-5.8-.8-8.36-1.57-2.28-.69-4.44-1.33-6.7-1.33-4.92,0-8.9,3.06-13.31,10.22-4.59,7.45-9.09,8.78-12.7,9.84-5.37,1.59-8.53,3.33-7.21,14.1.78,6.34.48,10.94.23,14.63-.46,6.95-.77,11.55,7.11,17.83,6.66,5.31,18.23,10.8,26.07,10.8,3.23,0,5.66-.9,7.21-2.68,1.5-1.72,2.06-4.12,1.65-7.12-.96-7.08.47-8.6,1.33-9.51,1.72-1.82,1.7-3.36-.07-5.88-1.07-1.53-1.87-3.27-2.35-5.13,1.55-.51,2.52-1.3,3.32-1.93.91-.73,1.52-1.22,2.97-1.41.43-.05,3.6-.18,5.7-.27,2.34-.1,3.68-.16,4.03-.19.89-.08,1.75-.12,2.64-.12,2.71,0,5.2.36,8.08.78,3.67.54,7.84,1.15,13.55,1.15,1.14,0,2.32-.02,3.5-.07,3.32-.14,6.98-.74,10.86-1.39,4.62-.77,9.41-1.56,13.93-1.6.48,0,.81.29,1.56,1.05.86.87,2.04,2.06,3.97,2.17,1.03.06,2.12.09,3.31.09,2.22,0,4.44-.1,6.59-.2,2.03-.1,3.95-.19,5.76-.19,2.77,0,4.79.22,6.34.69.12.04.24.06.36.07h.03c.78,22.43,2.35,29.34,6.56,29.34,1.03,0,2.01-.5,2.92-1.47,1.9-2.03,5.11-3.37,8.51-4.78,7.25-3.01,16.28-6.76,15.71-19.66-.18-4.06-.1-8.35-.02-12.49.26-13.93.5-27.08-9.33-29.02-10.35-2.04-24.78-6.13-25.48-6.32-.96-.3-15.74-4.86-29.85-4.86h0Z"/>
      </g>
      <path class="cls-9" d="m586.94,294.19c-.18-6.2-.31-11.93-.57-15.6-.94-13.21,12.83-.67,12.83-8.02,0-2.59,0-2.36-4.15-4.01-4.15-1.65-22.08-4.72-29.63-9.2-7.55-4.48-18.51,2.18-23.59,3.22-15.48,3.15-20.38-.15-41.9,2.21s-9.81-1.77-24.35,8.61c-14.53,10.38,11.32,3.07,10.76,14.63-.25,5.03-.38,8.46-.16,11.13"/>
    </g>
    <polyline class="cls-11" points="522.79 216.25 323.37 216.25 303.39 236.24"/>
    <polyline class="cls-11" points="650.84 674.57 406.13 674.57 386.14 654.58"/>
    <g>
      <path class="cls-2" d="m438.86,172.17s.96-4.08.96-6.48-.36-3.6.96-4.56c1.32-.96,19.69-15.85,21.13-17.29,1.44-1.44,2.04-2.64,8.76-2.64,0,0,100.54-.84,107.26-.84,6.72,0,7.32,1.2,8.76,2.64,1.44,1.44,19.81,16.33,21.13,17.29,1.32.96.96,2.16.96,4.56s.96,6.48.96,6.48c0,0,1.74,1.32,1.62,3.18-.12,1.86-2.22,2.82-6.3,2.82-3.49,0-61.79.62-78.56.79l.07.05s-78.96,0-83.04,0c-4.08,0-6.18-.96-6.3-2.82s1.62-3.18,1.62-3.18Z"/>
      <path class="cls-15" d="m573.09,141.11s10.65-1.52,12.17,2.12c1.52,3.64,5.52,9.16,10.25,12.45,4.72,3.28,9.28,5.92,9.28,5.92l-161.04,2.72s19.85-19.69,21.21-20.57c1.36-.88,4.72-1.24,6.72-.34,2,.9,29.7,2.1,53.15,2.1,23.45,0,48.26-4.4,48.26-4.4Z"/>
      <path class="cls-15" d="m484.75,134.92v-35.13c0-5.38,4.38-9.76,9.76-9.76h58c5.38,0,9.76,4.38,9.76,9.76v35.13c0,5.38-4.38,9.76-9.76,9.76h-58c-5.38,0-9.76-4.38-9.76-9.76Zm9.76-42.35c-3.98,0-7.21,3.24-7.21,7.21v35.13c0,3.98,3.24,7.21,7.21,7.21h58c3.98,0,7.21-3.24,7.21-7.21v-35.13c0-3.98-3.24-7.21-7.21-7.21h-58Z"/>
      <path class="cls-15" d="m535.02,144.68v2.27s.89.78.89.78l-.84,1.08s-.12.78,0,.84c.12.06.84,1.14.84,1.14l-.84,1.26v2.82s.36.66.36.66c0,0,.57,1.46-10.4,1.61h.01c-.31.01-.61.01-.91,0-.3,0-.6,0-.91,0h.01c-10.97-.16-10.4-1.62-10.4-1.62l.36-.66v-2.82s-.84-1.26-.84-1.26c0,0,.72-1.08.84-1.14.12-.06,0-.84,0-.84l-.84-1.08.89-.78v-2.27"/>
      <g class="cls-17">
        <rect class="cls-4" x="487.6" y="116.48" width="71.83" height="26.05" rx="10" ry="10"/>
      </g>
      <path class="cls-1" d="m552.76,89.88c5.38,0,9.76,4.38,9.76,9.76v35.13c0,2.06-.64,3.97-1.73,5.54,9.22-.07,15.83-.11,17.39-.11,6.72,0,7.32,1.2,8.76,2.64,1.44,1.44,19.81,16.33,21.13,17.29,1.32.96.96,2.16.96,4.56s.96,6.48.96,6.48c0,0,1.74,1.32,1.62,3.18-.12,1.86-2.22,2.82-6.3,2.82-3.49,0-61.79.61-78.56.79l.07.05h-83.04c-4.08,0-6.18-.96-6.3-2.82-.12-1.86,1.62-3.18,1.62-3.18,0,0,.96-4.08.96-6.48s-.36-3.6.96-4.56c1.32-.96,19.69-15.85,21.13-17.29,1.44-1.44,2.04-2.64,8.76-2.64,0,0,6.48-.05,16.26-.13-1.36-1.68-2.18-3.81-2.18-6.13v-35.13c0-5.38,4.38-9.76,9.76-9.76h58m0-2h-58c-6.49,0-11.76,5.28-11.76,11.76v35.13c0,1.43.26,2.84.77,4.16l-12.86.11c-6.56,0-8.1,1.1-9.86,2.92-.1.1-.2.2-.3.3-1.25,1.25-19.29,15.92-20.89,17.09-1.92,1.4-1.86,3.22-1.81,4.98.01.36.02.76.02,1.2,0,1.52-.48,4.05-.77,5.43-.76.77-1.94,2.31-1.8,4.36.14,2.14,1.69,4.69,8.3,4.69h83.04c.16,0,.31-.02.46-.05,13.58-.14,74.48-.79,78.02-.79,6.61,0,8.16-2.55,8.3-4.69.13-2.06-1.04-3.59-1.8-4.36-.3-1.38-.77-3.92-.77-5.43,0-.44.01-.83.02-1.2.06-1.76.11-3.59-1.81-4.98-1.6-1.16-19.64-15.83-20.89-17.09-.1-.1-.2-.2-.3-.3-1.76-1.82-3.3-2.92-9.88-2.92-1.25,0-5.67.03-14.19.09.36-1.13.54-2.31.54-3.52v-35.13c0-6.49-5.28-11.76-11.76-11.76h0Z"/>
    </g>
  </g>
</svg>